<svg width="11.8125" height="10.5" overflow="visible" style="display: block;" viewBox="0 0 11.8125 10.5" fill="none" xmlns="http://www.w3.org/2000/svg">
<path id="Vector" d="M10.2812 1.3125H8.88234L8.20312 0.292032C8.1431 0.202057 8.06176 0.128315 7.96635 0.0773662C7.87094 0.026417 7.76441 -0.000159602 7.65625 7.21077e-07H4.15625C4.04809 -0.000159602 3.94156 0.026417 3.84615 0.0773662C3.75074 0.128315 3.6694 0.202057 3.60938 0.292032L2.92961 1.3125H1.53125C1.12514 1.3125 0.735658 1.47383 0.448493 1.76099C0.161328 2.04816 0 2.43764 0 2.84375V8.96875C0 9.37486 0.161328 9.76434 0.448493 10.0515C0.735658 10.3387 1.12514 10.5 1.53125 10.5H10.2812C10.4823 10.5 10.6815 10.4604 10.8672 10.3834C11.053 10.3065 11.2218 10.1937 11.364 10.0515C11.5062 9.90932 11.619 9.74051 11.6959 9.55473C11.7729 9.36895 11.8125 9.16984 11.8125 8.96875V2.84375C11.8125 2.64266 11.7729 2.44355 11.6959 2.25777C11.619 2.07199 11.5062 1.90318 11.364 1.76099C11.2218 1.6188 11.053 1.50601 10.8672 1.42906C10.6815 1.35211 10.4823 1.3125 10.2812 1.3125ZM10.5 8.96875C10.5 9.02677 10.477 9.08241 10.4359 9.12343C10.3949 9.16445 10.3393 9.1875 10.2812 9.1875H1.53125C1.47323 9.1875 1.41759 9.16445 1.37657 9.12343C1.33555 9.08241 1.3125 9.02677 1.3125 8.96875V2.84375C1.3125 2.78573 1.33555 2.73009 1.37657 2.68907C1.41759 2.64805 1.47323 2.625 1.53125 2.625H3.28125C3.38941 2.62516 3.49594 2.59858 3.59135 2.54764C3.68676 2.49669 3.7681 2.42294 3.82812 2.33297L4.50734 1.3125H7.30461L7.98438 2.33297C8.0444 2.42294 8.12574 2.49669 8.22115 2.54764C8.31656 2.59858 8.42309 2.62516 8.53125 2.625H10.2812C10.3393 2.625 10.3949 2.64805 10.4359 2.68907C10.477 2.73009 10.5 2.78573 10.5 2.84375V8.96875ZM5.90625 3.0625C5.38707 3.0625 4.87956 3.21645 4.44788 3.50489C4.0162 3.79333 3.67975 4.2033 3.48107 4.68296C3.28239 5.16261 3.2304 5.69041 3.33169 6.19961C3.43298 6.70881 3.68298 7.17654 4.05009 7.54366C4.41721 7.91077 4.88494 8.16078 5.39414 8.26206C5.90334 8.36335 6.43114 8.31136 6.91079 8.11268C7.39045 7.914 7.80042 7.57755 8.08886 7.14587C8.3773 6.71419 8.53125 6.20668 8.53125 5.6875C8.53053 4.99153 8.25373 4.32427 7.76161 3.83215C7.26948 3.34002 6.60222 3.06322 5.90625 3.0625ZM5.90625 7C5.64666 7 5.3929 6.92302 5.17706 6.77881C4.96122 6.63459 4.793 6.4296 4.69366 6.18977C4.59432 5.94994 4.56833 5.68604 4.61897 5.43144C4.66961 5.17684 4.79462 4.94298 4.97817 4.75942C5.16173 4.57587 5.39559 4.45086 5.65019 4.40022C5.90479 4.34958 6.16869 4.37557 6.40852 4.47491C6.64835 4.57425 6.85333 4.74248 6.99755 4.95831C7.14177 5.17415 7.21875 5.42791 7.21875 5.6875C7.21875 6.0356 7.08047 6.36944 6.83433 6.61558C6.58819 6.86172 6.25435 7 5.90625 7Z" fill="var(--fill-0, #0B6DFF)"/>
</svg>
