<svg width="87.6834" height="18" overflow="visible" style="display: block;" viewBox="0 0 87.6834 18" fill="none" xmlns="http://www.w3.org/2000/svg">
<g id="Logo" clip-path="url(#clip0_0_576)">
<path id="Vector" d="M32.0576 1.22572H29.3257L29.2489 1.88949C29.0447 3.70211 28.3296 4.51909 26.7725 5.03015V7.43018H28.1254V13.8133C28.1254 16.7493 29.4784 18.0005 32.1085 18.0005C32.9764 18.0005 33.7679 17.8727 34.4577 17.6686V13.8902C33.9471 14.1197 33.462 14.222 33.0787 14.222C32.4659 14.222 32.0576 13.9411 32.0576 13.1241V7.43018H34.5854V3.98309H32.0576V1.22572Z" fill="var(--fill-0, #0B6DFF)"/>
<path id="Vector_2" d="M21.2603 12.4853C21.2603 13.5832 20.6474 14.247 19.6518 14.247C18.6561 14.247 18.1201 13.5832 18.1201 12.4853V3.98309H14.1885V13.43C14.1885 16.2128 15.8224 17.9745 18.5034 17.9745C19.78 17.9745 20.8526 17.5658 21.695 16.6725H21.7459V17.8213H25.1925V3.98309H21.2608V12.4853H21.2603Z" fill="var(--fill-0, #0B6DFF)"/>
<path id="Vector_3" d="M87.6834 3.98309H83.5726L81.8877 8.1703H81.8363L80.126 3.98309H75.6064L78.8494 10.6212L75.6064 17.8213H79.7682L81.4535 13.3277H81.5044L83.2152 17.8213H87.6575L84.441 10.8253L87.6834 3.98309Z" fill="var(--fill-0, #0B6DFF)"/>
<path id="Vector_4" d="M3.49799 0L0 17.8213H4.05944L4.44223 15.4977H8.3739L8.75669 17.8213H12.9439L9.39602 0H3.49799ZM5.00419 12.1534L6.40857 3.82987H6.45948L7.83841 12.1534H5.00419Z" fill="var(--fill-0, #0B6DFF)"/>
<path id="Vector_5" d="M42.7272 3.80442C38.4891 3.80442 35.6803 6.6641 35.6803 10.9022C35.6803 15.1403 38.4886 18 42.7272 18C46.9658 18 49.7487 15.1658 49.7487 10.9022C49.7487 6.63865 46.9404 3.80442 42.7272 3.80442ZM42.7272 14.1447C40.991 14.1447 39.7657 12.8172 39.7657 10.9022C39.7657 8.98728 40.966 7.65975 42.7272 7.65975C44.4884 7.65975 45.6633 8.96182 45.6633 10.9022C45.6633 12.8426 44.463 14.1447 42.7272 14.1447Z" fill="var(--fill-0, #0B6DFF)"/>
<path id="Vector_6" d="M68.8994 3.82988C64.7376 3.82988 61.9293 6.58725 61.9293 10.9277C61.9293 15.2681 64.7381 17.9746 69.5636 17.9746C70.9935 17.9746 72.602 17.719 73.9295 17.1067V13.2005C72.7297 14.0429 71.1976 14.4262 69.7932 14.4262C67.9551 14.4262 66.5507 13.737 66.0656 12.1539H75.002C75.9467 6.79239 73.2148 3.83039 68.8999 3.83039L68.8994 3.82988ZM66.0651 9.21736C66.4739 7.94074 67.4181 7.14921 68.797 7.14921C70.176 7.14921 71.1971 7.86388 71.3757 9.21736H66.0651Z" fill="var(--fill-0, #0B6DFF)"/>
<path id="Vector_7" d="M58.376 0L55.9842 13.9915H55.9786L55.977 14.0006L55.9338 13.9996L53.634 0H49.4478L52.9967 17.8213H58.8947L62.3922 0H58.376Z" fill="var(--fill-0, #0B6DFF)"/>
</g>
<defs>
<clipPath id="clip0_0_576">
<rect width="87.6834" height="18" fill="white"/>
</clipPath>
</defs>
</svg>
