<svg width="74" height="16" overflow="visible" style="display: block;" viewBox="0 0 74 16" fill="none" xmlns="http://www.w3.org/2000/svg">
<g id="Layer_1" clip-path="url(#clip0_0_4)">
<path id="Vector" d="M54.5864 13.2644C53.3024 13.8319 52.6301 13.4239 52.577 12.1304V5.11179H49.3101C49.2744 5.20896 49.2478 5.25388 49.2478 5.29789C49.2478 7.67226 49.2304 10.0567 49.2744 12.4311C49.2836 13.0252 49.4072 13.654 49.6371 14.2032C50.0355 15.1603 50.8231 15.5499 51.6996 15.7717C51.6996 15.7717 51.717 15.7717 51.7527 15.7809C52.0623 15.8341 53.7447 16.0825 55.2587 15.923C56.1791 15.7992 57.0821 15.6397 57.8881 15.196V5.10353H54.5864V13.2644Z" fill="var(--fill-0, black)"/>
<path id="Vector_2" d="M73.7628 8.57434C73.6969 8.32224 73.6282 8.07105 73.5485 7.82353C72.9816 6.08629 71.5034 4.95227 69.7596 4.88168C67.7062 4.81109 66.2628 5.67925 65.4925 7.46049C64.7846 9.11797 64.758 10.8369 65.2004 12.5466C65.6785 14.381 66.7674 15.6654 68.7594 15.9762L68.8391 15.9853C69.0873 16.0027 69.4591 16.0202 70.1048 15.9413C70.2202 15.9322 70.3439 15.9056 70.4767 15.8882C72.0437 15.5783 72.9999 14.5231 73.5576 12.9995C73.5778 12.9472 73.5961 12.895 73.6144 12.8427C73.8819 12.0763 74 11.265 74 10.4537C74 9.8202 73.9222 9.18856 73.7628 8.57526V8.57434ZM70.4703 12.289C70.4703 12.2954 70.4684 12.3009 70.4675 12.3073C70.3521 13.016 69.9363 13.4863 69.4674 13.4945C68.9801 13.5119 68.5021 13.0866 68.4224 12.3605C68.2804 10.9781 68.1476 9.57818 68.4847 8.18656C68.5286 7.99129 68.5909 7.78777 68.6971 7.61909C69.0159 7.06996 69.7156 7.01679 70.0957 7.52192C70.2642 7.76119 70.4144 8.0628 70.4584 8.34607C70.4639 8.38274 70.4693 8.41941 70.4739 8.45608C70.6516 9.72578 70.6543 11.0202 70.4693 12.289H70.4703Z" fill="var(--fill-0, black)"/>
<path id="Vector_3" d="M15.1658 7.23039C14.8297 6.06062 14.0503 5.30797 12.8551 5.02378C11.8192 4.77534 10.7751 4.82851 9.7393 4.99719C8.9599 5.12095 8.20798 5.34281 7.45514 5.74159C7.68502 6.42365 7.90666 7.08004 8.1283 7.74377C8.5267 7.60167 8.8097 7.45133 9.10186 7.40732C9.80158 7.30098 10.5187 7.14147 11.2083 7.18547C12.1288 7.23864 12.377 7.70802 12.1554 8.70086C11.7478 8.76319 11.3228 8.83378 10.8979 8.90437C10.0122 9.05472 9.16231 9.28574 8.38382 9.76428C7.2857 10.4381 6.7371 11.43 6.80853 12.7061C6.88821 14.1683 7.58794 15.2226 9.02126 15.692C9.02126 15.692 9.05698 15.7011 9.1275 15.7186C9.5085 15.8075 10.8621 16.0733 12.5354 15.9404C12.6591 15.9312 12.7836 15.9138 12.9073 15.9047C13.2617 15.8607 13.6336 15.8075 14.0054 15.7186C14.0228 15.7186 14.032 15.7094 14.0494 15.7094C14.51 15.5939 14.9616 15.4261 15.3948 15.1777C15.4122 15.0356 15.4305 14.9118 15.4305 14.7881C15.4305 12.7941 15.4396 10.8002 15.4039 8.8072C15.4039 8.28465 15.3068 7.74377 15.1649 7.23039H15.1658ZM12.2359 13.8319C11.5719 14.0803 10.9437 14.0978 10.3951 13.5926C9.89958 13.1407 9.82814 12.1396 10.1917 11.3778C10.4931 10.7305 11.245 10.3941 12.2369 10.4738V13.8319H12.2359Z" fill="var(--fill-0, black)"/>
<path id="Vector_4" d="M3.51692 2.0471C3.06815 2.0471 2.71554 2.05352 2.36293 2.04618C1.57529 2.02876 0.787643 2.00493 0 1.98293V15.7855H6.35427V13.1929H3.51692V2.0471Z" fill="var(--fill-0, black)"/>
<path id="Vector_5" d="M41.7323 2.04618C40.4217 6.60058 39.1211 11.1467 37.8014 15.7369H40.8732C41.0857 14.9567 41.289 14.2041 41.4932 13.4597H44.9726C45.1851 14.2481 45.371 14.9842 45.5743 15.7369H49.1416C47.8228 11.1376 46.5213 6.59233 45.2107 2.04618H41.7314H41.7323ZM42.007 11.1999C42.432 9.37466 42.8478 7.60259 43.2554 5.83877C43.2911 5.8296 43.3259 5.8296 43.3616 5.82135C43.7426 7.59342 44.1318 9.3655 44.5211 11.1999H42.007Z" fill="var(--fill-0, black)"/>
<path id="Vector_6" d="M25.4839 7.74835C25.3914 6.37048 24.5845 5.59675 23.339 5.17229C21.989 4.71208 20.6161 4.88535 19.246 4.98803C18.3796 5.05311 17.5342 5.21813 16.7631 5.66092V15.7451H20.0922V7.34498C21.6062 6.90128 22.1712 7.30281 22.185 8.74211C22.1859 8.84387 22.185 8.94654 22.185 9.0483C22.185 11.0147 22.1832 12.9811 22.1868 14.9476C22.1868 15.2153 22.2143 15.483 22.2299 15.7681H25.5654V14.9448C25.5654 12.9784 25.57 11.012 25.5618 9.04555C25.5599 8.61285 25.5123 8.18014 25.483 7.74744L25.4839 7.74835Z" fill="var(--fill-0, black)"/>
<path id="Vector_7" d="M31.8263 9.9293C31.405 9.69369 30.9928 9.43975 30.5798 9.18948C30.1805 8.94746 29.9698 8.75586 29.8966 8.479C29.6951 7.71993 30.5166 7.03879 31.2566 7.30006C31.5469 7.40274 31.8409 7.55217 32.1413 7.62643C32.3923 6.99845 32.6368 6.38698 32.896 5.73884C31.9911 5.0357 30.9031 4.77259 29.5284 4.89818C28.0181 5.0357 26.8806 5.96711 26.593 7.4715C26.2413 9.31049 26.7332 10.2025 28.0987 11.045C28.4449 11.2586 28.8222 11.4236 29.1611 11.6473C29.6419 11.9636 29.8013 12.4513 29.6145 12.9014C29.4286 13.3469 28.9743 13.5752 28.3991 13.4331C27.9659 13.3268 27.5529 13.1361 27.061 12.9573C26.8 13.6971 26.5353 14.447 26.2826 15.1612C27.7177 16.2246 30.2345 16.0495 31.3006 15.5664C33.4813 14.579 33.8137 11.0422 31.8254 9.9293H31.8263Z" fill="var(--fill-0, black)"/>
<path id="Vector_8" d="M34.0738 15.7451H37.3279V5.08612H34.0738V15.7451Z" fill="var(--fill-0, black)"/>
<path id="Vector_9" d="M13.4128 3.86134C14.2151 3.87051 14.8526 3.27371 14.8498 2.51556C14.8471 1.75374 14.1941 1.1276 13.4137 1.1386C12.6472 1.1496 12.0454 1.73082 12.0335 2.47339C12.0198 3.29112 12.5776 3.85217 13.4128 3.86134Z" fill="var(--fill-0, black)"/>
<path id="Vector_10" d="M9.46363 3.8045C10.2046 3.81 10.853 3.17836 10.8457 2.45872C10.8383 1.77482 10.2659 1.17985 9.59276 1.15602C8.87381 1.13035 8.20615 1.77849 8.20431 2.50089C8.2034 3.15178 8.82893 3.79992 9.46363 3.8045Z" fill="var(--fill-0, black)"/>
<path id="Vector_11" d="M64.519 15.692V13.5303C63.3412 13.4945 63.1379 13.291 63.1287 12.1212V8.21314C63.1379 7.99129 63.1644 7.77035 63.1818 7.52192C63.6425 7.49533 64.0409 7.47791 64.4567 7.45133V5.09437C64.0052 5.06778 63.6068 5.05036 63.1287 5.02378V1.91325C61.9509 2.23228 60.8894 2.53389 59.7556 2.84375V5.01461C59.4103 5.05036 59.1355 5.07695 58.8434 5.11179V7.45133C59.1529 7.47791 59.4185 7.5045 59.7638 7.53108V8.31949C59.7638 9.8257 59.7373 11.3319 59.773 12.8391C59.8169 14.5075 60.6797 15.6416 62.0727 15.9129L62.1185 15.9221C63.0911 16.0853 64.1856 15.7846 64.4604 15.7094C64.4759 15.703 64.4915 15.7011 64.4997 15.7011C64.5071 15.6938 64.5116 15.6938 64.5144 15.6938L64.5208 15.692H64.5171H64.519Z" fill="var(--fill-0, black)"/>
<path id="Vector_12" d="M35.6976 0C34.6884 0 33.8696 0.818656 33.8696 1.82983C33.8696 2.841 34.6874 3.65966 35.6976 3.65966C36.7078 3.65966 37.5257 2.841 37.5257 1.82983C37.5257 0.818656 36.7069 0 35.6976 0Z" fill="var(--fill-0, black)"/>
</g>
<defs>
<clipPath id="clip0_0_4">
<rect width="74" height="16" fill="white"/>
</clipPath>
</defs>
</svg>
