<svg width="23.9987" height="24" overflow="visible" style="display: block;" viewBox="0 0 23.9987 24" fill="none" xmlns="http://www.w3.org/2000/svg">
<path id="Vector" fill-rule="evenodd" clip-rule="evenodd" d="M21.0671 0C22.6846 0 23.9987 1.31417 23.9987 2.93161V21.0671C23.9987 22.6858 22.6846 23.9987 21.0671 23.9987H16.0771V14.9562H19.1982L19.7921 11.0832H16.0758V8.56989C16.0758 7.51098 16.5952 6.47733 18.2594 6.47733H19.9488V3.1818C19.9488 3.1818 18.416 2.92023 16.9502 2.92023C13.8897 2.92023 11.8894 4.77523 11.8894 8.13268V11.0845H8.48776V14.9575H11.8894V24H2.93161C1.3129 24 0 22.6858 0 21.0684V2.93161C0 1.31417 1.31417 0 2.93161 0H21.0671Z" fill="var(--fill-0, white)"/>
</svg>
