<svg width="91" height="16" overflow="visible" style="display: block;" viewBox="0 0 91 16" fill="none" xmlns="http://www.w3.org/2000/svg">
<g id="Layer_1" clip-path="url(#clip0_0_21)">
<path id="Vector" d="M3.26823 0.172888L0 15.8271H3.17876L3.72084 13.0399H7.35747L7.90481 15.8271H11.3678L8.10479 0.172888H3.26823ZM4.17871 10.6719L5.53126 3.75639L6.88381 10.6719H4.18397H4.17871Z" fill="var(--fill-0, black)"/>
<path id="Vector_2" d="M18.7989 12.076C18.7989 13.0138 18.341 13.4329 17.3043 13.4329C16.2675 13.4329 15.8096 13.0138 15.8096 12.076V0.0785855H12.3782V11.924C12.3782 14.5069 14.0992 15.9267 17.2148 15.9267C20.3304 15.9267 22.0514 14.5016 22.0514 11.924V0.0785855H18.7936V12.076H18.7989Z" fill="var(--fill-0, black)"/>
<path id="Vector_3" d="M23.0145 2.65095H26.309V15.8271H29.7351V2.65095H33.0349V0.178127H23.0145V2.65095Z" fill="var(--fill-0, black)"/>
<path id="Vector_4" d="M38.7978 0C35.6664 0 33.8717 1.46169 33.8717 4.00262V11.9974C33.8717 14.5435 35.6664 16 38.7978 16C41.9292 16 43.7238 14.5383 43.7238 11.9974V4.00262C43.7238 1.45645 41.9292 0 38.7978 0ZM40.2924 12.1546C40.2924 13.0923 39.8187 13.5324 38.7978 13.5324C37.7768 13.5324 37.3031 13.0923 37.3031 12.1546V3.85069C37.3031 2.9129 37.7768 2.47282 38.7978 2.47282C39.8187 2.47282 40.2924 2.9129 40.2924 3.85069V12.1546Z" fill="var(--fill-0, black)"/>
<path id="Vector_5" d="M58.8861 7.08317C57.5282 6.12967 56.2388 5.22855 56.2388 3.85069C56.2388 2.89718 56.6809 2.47282 57.6756 2.47282C58.6703 2.47282 59.1124 2.89718 59.1124 3.85069V4.62606H62.3701V4.00786C62.3701 1.42502 60.6754 0.00523903 57.5914 0.00523903C54.5074 0.00523903 52.8127 1.42502 52.8127 4.00786C52.8127 6.45449 54.681 7.76424 56.3283 8.92207C57.6861 9.87557 58.9703 10.7767 58.9703 12.1546C58.9703 13.0923 58.5071 13.5115 57.4756 13.5115C56.4441 13.5115 55.981 13.0923 55.981 12.1546V10.9181H52.7233V12.0026C52.7233 14.5855 54.4442 16.0052 57.5598 16.0052C60.6754 16.0052 62.3964 14.5802 62.3964 12.0026C62.3964 9.55599 60.5281 8.24623 58.8808 7.08841L58.8861 7.08317Z" fill="var(--fill-0, black)"/>
<path id="Vector_6" d="M51.3444 6.76359H45.3342V9.23641H51.3444V6.76359Z" fill="var(--fill-0, black)"/>
<path id="Vector_7" d="M70.2064 12.076C70.2064 13.0138 69.7433 13.4329 68.7118 13.4329C67.6803 13.4329 67.2172 13.0138 67.2172 12.076V0.0785855H63.7858V11.924C63.7858 14.5069 65.5067 15.9267 68.6223 15.9267C71.7379 15.9267 73.4589 14.5016 73.4589 11.924V0.0785855H70.2012V12.076H70.2064Z" fill="var(--fill-0, black)"/>
<path id="Vector_8" d="M82.5005 8.70203L79.4954 0.172888H75.3062V15.8271H78.4218V5.36477L82.111 15.8271H85.5845V0.172888H82.5005V8.70203Z" fill="var(--fill-0, black)"/>
<path id="Vector_9" d="M91 0.178127H87.5686V15.8271H91V0.178127Z" fill="var(--fill-0, black)"/>
</g>
<defs>
<clipPath id="clip0_0_21">
<rect width="91" height="16" fill="white"/>
</clipPath>
</defs>
</svg>
