<svg width="24" height="24" overflow="visible" style="display: block;" viewBox="0 0 24 24" fill="none" xmlns="http://www.w3.org/2000/svg">
<g id="ph:gauge-bold">
<path id="Vector" d="M19.6763 6.54656C18.6694 5.53748 17.4727 4.7377 16.1552 4.19336C14.8377 3.64902 13.4255 3.37089 12 3.375H11.9616C5.98594 3.39562 1.125 8.32125 1.125 14.3559V16.5C1.125 16.9973 1.32254 17.4742 1.67417 17.8258C2.02581 18.1775 2.50272 18.375 3 18.375H21C21.4973 18.375 21.9742 18.1775 22.3258 17.8258C22.6775 17.4742 22.875 16.9973 22.875 16.5V14.25C22.8789 12.8181 22.5981 11.3996 22.049 10.0772C21.4998 8.75469 20.6933 7.55457 19.6763 6.54656ZM20.625 16.125H11.9362L16.29 10.0312C16.464 9.78858 16.5346 9.4867 16.486 9.19204C16.4375 8.89737 16.2739 8.63405 16.0312 8.46C15.7886 8.28595 15.4867 8.21543 15.192 8.26396C14.8974 8.31248 14.634 8.47608 14.46 8.71875L9.17062 16.125H3.375V14.3559C3.375 14.1947 3.375 14.0344 3.38812 13.875H5.25C5.54837 13.875 5.83452 13.7565 6.0455 13.5455C6.25647 13.3345 6.375 13.0484 6.375 12.75C6.375 12.4516 6.25647 12.1655 6.0455 11.9545C5.83452 11.7435 5.54837 11.625 5.25 11.625H3.80812C4.83094 8.49469 7.55812 6.13875 10.875 5.69906V7.5C10.875 7.79837 10.9935 8.08452 11.2045 8.2955C11.4155 8.50647 11.7016 8.625 12 8.625C12.2984 8.625 12.5845 8.50647 12.7955 8.2955C13.0065 8.08452 13.125 7.79837 13.125 7.5V5.7C14.7476 5.91292 16.2762 6.58309 17.5322 7.63224C18.7881 8.68138 19.7197 10.0662 20.2181 11.625H18.75C18.4516 11.625 18.1655 11.7435 17.9545 11.9545C17.7435 12.1655 17.625 12.4516 17.625 12.75C17.625 13.0484 17.7435 13.3345 17.9545 13.5455C18.1655 13.7565 18.4516 13.875 18.75 13.875H20.6156C20.6212 13.9997 20.625 14.1244 20.625 14.25V16.125Z" fill="var(--fill-0, #374151)"/>
</g>
</svg>
