<svg width="35.75" height="35.75" overflow="visible" style="display: block;" viewBox="0 0 35.75 35.75" fill="none" xmlns="http://www.w3.org/2000/svg">
<path id="Vector" d="M17.875 0C14.3397 0 10.8837 1.04835 7.94419 3.01248C5.00466 4.97661 2.71358 7.7683 1.36066 11.0345C0.00774495 14.3008 -0.34624 17.8948 0.343471 21.3622C1.03318 24.8297 2.73561 28.0147 5.23547 30.5145C7.73534 33.0144 10.9204 34.7168 14.3878 35.4065C17.8552 36.0962 21.4492 35.7423 24.7155 34.3893C27.9817 33.0364 30.7734 30.7453 32.7375 27.8058C34.7017 24.8663 35.75 21.4103 35.75 17.875C35.745 13.1358 33.8601 8.59212 30.509 5.24099C27.1579 1.88987 22.6142 0.00500469 17.875 0ZM19.9375 26.125C19.9375 26.4897 19.7926 26.8394 19.5348 27.0973C19.2769 27.3551 18.9272 27.5 18.5625 27.5C18.1978 27.5 17.8481 27.3551 17.5902 27.0973C17.3324 26.8394 17.1875 26.4897 17.1875 26.125V12.2031L15.2006 13.5283C15.0503 13.6285 14.8817 13.6981 14.7045 13.7332C14.5273 13.7682 14.3449 13.7681 14.1677 13.7326C13.9905 13.6972 13.8221 13.6272 13.672 13.5267C13.5219 13.4262 13.393 13.297 13.2928 13.1467C13.1926 12.9964 13.123 12.8278 13.0879 12.6506C13.0529 12.4733 13.053 12.2909 13.0885 12.1138C13.1239 11.9366 13.1939 11.7682 13.2944 11.6181C13.3949 11.468 13.5241 11.3391 13.6744 11.2389L17.7994 8.48891C18.0059 8.35111 18.2459 8.27181 18.4938 8.2594C18.7418 8.247 18.9885 8.30196 19.2077 8.41845C19.427 8.53495 19.6106 8.70862 19.7391 8.92105C19.8675 9.13348 19.9361 9.37674 19.9375 9.625V26.125Z" fill="var(--fill-0, #0B6DFF)"/>
</svg>
