<svg width="24" height="24" overflow="visible" style="display: block;" viewBox="0 0 24 24" fill="none" xmlns="http://www.w3.org/2000/svg">
<g id="Layer_1" clip-path="url(#clip0_0_8)">
<path id="Vector" d="M14.7964 9.17402C10.696 6.07322 6.07359 10.6956 9.17439 14.796C9.18279 14.8068 9.19239 14.8176 9.20319 14.8248C13.3036 17.9256 17.926 13.3032 14.8252 9.20282C14.8168 9.19202 14.8072 9.18122 14.7964 9.17402Z" fill="var(--fill-0, white)"/>
<path id="Vector_2" d="M21.072 0H2.928C1.3116 0 0 1.3116 0 2.928V21.072C0 22.6896 1.3116 24 2.928 24H21.072C22.6896 24 24 22.6884 24 21.072V2.928C24 1.3104 22.6884 0 21.072 0ZM16.4364 15.924C16.2972 16.1232 16.1232 16.2972 15.924 16.4364C9.9336 20.6244 3.3768 14.0676 7.5648 8.0772C7.704 7.878 7.878 7.704 8.0772 7.5648C14.0676 3.3768 20.6244 9.9336 16.4364 15.924ZM19.296 6.8148C17.7552 7.9884 16.0128 6.246 17.1864 4.7052C18.7272 3.5316 20.4696 5.274 19.296 6.8148Z" fill="var(--fill-0, white)"/>
</g>
<defs>
<clipPath id="clip0_0_8">
<rect width="24" height="24" fill="white"/>
</clipPath>
</defs>
</svg>
