<svg width="32.5" height="32.5" overflow="visible" style="display: block;" viewBox="0 0 32.5 32.5" fill="none" xmlns="http://www.w3.org/2000/svg">
<path id="Vector" d="M16.25 0C13.0361 0 9.89429 0.953046 7.22199 2.73862C4.54969 4.52419 2.46689 7.06209 1.23696 10.0314C0.00704087 13.0007 -0.314763 16.268 0.312247 19.4202C0.939256 22.5724 2.48692 25.4679 4.75952 27.7405C7.03213 30.0131 9.9276 31.5608 13.0798 32.1878C16.232 32.8148 19.4993 32.493 22.4686 31.263C25.4379 30.0331 27.9758 27.9503 29.7614 25.278C31.547 22.6057 32.5 19.4639 32.5 16.25C32.4955 11.9416 30.7819 7.81102 27.7355 4.76454C24.689 1.71806 20.5584 0.00454972 16.25 0ZM20 22.5C20.3315 22.5 20.6495 22.6317 20.8839 22.8661C21.1183 23.1005 21.25 23.4185 21.25 23.75C21.25 24.0815 21.1183 24.3995 20.8839 24.6339C20.6495 24.8683 20.3315 25 20 25H12.5C12.2679 25 12.0403 24.9354 11.8428 24.8133C11.6454 24.6913 11.4858 24.5166 11.382 24.309C11.2782 24.1014 11.2342 23.8689 11.2551 23.6377C11.2759 23.4065 11.3607 23.1857 11.5 23L18.2453 14.0062C18.4613 13.7184 18.6126 13.3874 18.6889 13.0357C18.7652 12.684 18.7646 12.32 18.6873 11.9685C18.6099 11.6171 18.4577 11.2865 18.2408 10.9993C18.024 10.7121 17.7477 10.4751 17.4308 10.3045C17.114 10.1339 16.764 10.0338 16.4049 10.0108C16.0458 9.98792 15.686 10.0428 15.35 10.1717C15.014 10.3007 14.7099 10.5006 14.4583 10.7579C14.2067 11.0152 14.0136 11.3237 13.8922 11.6625C13.7816 11.9752 13.5512 12.2311 13.2519 12.3739C12.9526 12.5168 12.6088 12.5349 12.2961 12.4242C11.9834 12.3136 11.7275 12.0833 11.5847 11.7839C11.4418 11.4846 11.4237 11.1408 11.5344 10.8281C11.7755 10.1493 12.1605 9.53057 12.663 9.01434C13.1654 8.49811 13.7735 8.09654 14.4456 7.83715C15.1176 7.57775 15.8378 7.46664 16.5568 7.51142C17.2758 7.55621 17.9766 7.75584 18.6113 8.09663C19.246 8.43743 19.7995 8.91135 20.2341 9.48595C20.6686 10.0605 20.9738 10.7223 21.1288 11.4258C21.2838 12.1293 21.285 12.858 21.1323 13.562C20.9795 14.266 20.6764 14.9287 20.2438 15.5047L15 22.5H20Z" fill="var(--fill-0, #0B6DFF)"/>
</svg>
