<svg width="32.5" height="32.5" overflow="visible" style="display: block;" viewBox="0 0 32.5 32.5" fill="none" xmlns="http://www.w3.org/2000/svg">
<path id="Vector" d="M16.25 0C13.0361 0 9.89429 0.953046 7.22199 2.73862C4.54969 4.52419 2.46689 7.06209 1.23696 10.0314C0.00704087 13.0007 -0.314763 16.268 0.312247 19.4202C0.939256 22.5724 2.48692 25.4679 4.75952 27.7405C7.03213 30.0131 9.9276 31.5608 13.0798 32.1878C16.232 32.8148 19.4993 32.493 22.4686 31.263C25.4379 30.0331 27.9758 27.9503 29.7614 25.278C31.547 22.6057 32.5 19.4639 32.5 16.25C32.4955 11.9416 30.7819 7.81102 27.7355 4.76454C24.689 1.71806 20.5584 0.00454972 16.25 0ZM15.625 25.625C14.8763 25.6275 14.1348 25.4792 13.4446 25.189C12.7545 24.8988 12.1298 24.4727 11.6078 23.9359C11.4857 23.8204 11.3881 23.6814 11.3209 23.5272C11.2538 23.3731 11.2184 23.207 11.2169 23.0389C11.2154 22.8707 11.2479 22.704 11.3123 22.5487C11.3768 22.3934 11.4719 22.2527 11.592 22.1351C11.7121 22.0174 11.8547 21.9251 12.0113 21.8639C12.1679 21.8026 12.3352 21.7735 12.5033 21.7784C12.6713 21.7833 12.8367 21.8221 12.9894 21.8924C13.1422 21.9626 13.2792 22.063 13.3922 22.1875C13.7528 22.5554 14.1988 22.8285 14.6905 22.9823C15.1822 23.1362 15.7042 23.1662 16.2103 23.0695C16.7163 22.9728 17.1906 22.7525 17.5909 22.4283C17.9912 22.104 18.3052 21.6858 18.5048 21.2108C18.7044 20.7359 18.7835 20.219 18.735 19.7061C18.6866 19.1932 18.5121 18.7002 18.227 18.271C17.942 17.8419 17.5553 17.4899 17.1013 17.2463C16.6473 17.0027 16.1402 16.8752 15.625 16.875C15.3963 16.8749 15.1721 16.8121 14.9766 16.6935C14.7812 16.5748 14.622 16.4048 14.5165 16.2019C14.4109 15.9991 14.363 15.7711 14.3781 15.543C14.3931 15.3148 14.4704 15.0951 14.6016 14.9078L17.5984 10.625H12.5C12.1685 10.625 11.8505 10.4933 11.6161 10.2589C11.3817 10.0245 11.25 9.70652 11.25 9.375C11.25 9.04348 11.3817 8.72554 11.6161 8.49112C11.8505 8.2567 12.1685 8.125 12.5 8.125H20C20.2287 8.12506 20.4529 8.18785 20.6484 8.30653C20.8439 8.42521 21.003 8.59523 21.1086 8.79809C21.2141 9.00094 21.262 9.22886 21.247 9.45704C21.232 9.68521 21.1546 9.9049 21.0234 10.0922L17.7422 14.7797C18.9567 15.2671 19.9633 16.1626 20.5886 17.3122C21.2139 18.4618 21.4188 19.7934 21.1681 21.0778C20.9174 22.3622 20.2267 23.519 19.2149 24.349C18.2031 25.1789 16.9336 25.6302 15.625 25.625Z" fill="var(--fill-0, #0B6DFF)"/>
</svg>
