<svg width="12.5" height="13.5" overflow="visible" style="display: block;" viewBox="0 0 12.5 13.5" fill="none" xmlns="http://www.w3.org/2000/svg">
<path id="Vector" d="M11.25 1H10V0.75C10 0.551088 9.92098 0.360322 9.78033 0.21967C9.63968 0.0790177 9.44891 0 9.25 0C9.05109 0 8.86032 0.0790177 8.71967 0.21967C8.57902 0.360322 8.5 0.551088 8.5 0.75V1H4V0.75C4 0.551088 3.92098 0.360322 3.78033 0.21967C3.63968 0.0790177 3.44891 0 3.25 0C3.05109 0 2.86032 0.0790177 2.71967 0.21967C2.57902 0.360322 2.5 0.551088 2.5 0.75V1H1.25C0.918479 1 0.600537 1.1317 0.366117 1.36612C0.131696 1.60054 0 1.91848 0 2.25V12.25C0 12.5815 0.131696 12.8995 0.366117 13.1339C0.600537 13.3683 0.918479 13.5 1.25 13.5H11.25C11.5815 13.5 11.8995 13.3683 12.1339 13.1339C12.3683 12.8995 12.5 12.5815 12.5 12.25V2.25C12.5 1.91848 12.3683 1.60054 12.1339 1.36612C11.8995 1.1317 11.5815 1 11.25 1ZM2.5 2.5C2.5 2.69891 2.57902 2.88968 2.71967 3.03033C2.86032 3.17098 3.05109 3.25 3.25 3.25C3.44891 3.25 3.63968 3.17098 3.78033 3.03033C3.92098 2.88968 4 2.69891 4 2.5H8.5C8.5 2.69891 8.57902 2.88968 8.71967 3.03033C8.86032 3.17098 9.05109 3.25 9.25 3.25C9.44891 3.25 9.63968 3.17098 9.78033 3.03033C9.92098 2.88968 10 2.69891 10 2.5H11V4H1.5V2.5H2.5ZM1.5 12V5.5H11V12H1.5ZM7.25 7.25C7.25 7.44778 7.19135 7.64112 7.08147 7.80557C6.97159 7.97002 6.81541 8.09819 6.63268 8.17388C6.44996 8.24957 6.24889 8.26937 6.05491 8.23079C5.86093 8.1922 5.68275 8.09696 5.54289 7.95711C5.40304 7.81725 5.3078 7.63907 5.26921 7.44509C5.23063 7.25111 5.25043 7.05004 5.32612 6.86732C5.40181 6.68459 5.52998 6.52841 5.69443 6.41853C5.85888 6.30865 6.05222 6.25 6.25 6.25C6.51522 6.25 6.76957 6.35536 6.95711 6.54289C7.14464 6.73043 7.25 6.98478 7.25 7.25ZM10.25 7.25C10.25 7.44778 10.1914 7.64112 10.0815 7.80557C9.97159 7.97002 9.81541 8.09819 9.63268 8.17388C9.44996 8.24957 9.24889 8.26937 9.05491 8.23079C8.86093 8.1922 8.68275 8.09696 8.54289 7.95711C8.40304 7.81725 8.3078 7.63907 8.26921 7.44509C8.23063 7.25111 8.25043 7.05004 8.32612 6.86732C8.40181 6.68459 8.52998 6.52841 8.69443 6.41853C8.85888 6.30865 9.05222 6.25 9.25 6.25C9.51522 6.25 9.76957 6.35536 9.95711 6.54289C10.1446 6.73043 10.25 6.98478 10.25 7.25ZM4.25 10.25C4.25 10.4478 4.19135 10.6411 4.08147 10.8056C3.97159 10.97 3.81541 11.0982 3.63268 11.1739C3.44996 11.2496 3.24889 11.2694 3.05491 11.2308C2.86093 11.1922 2.68275 11.097 2.54289 10.9571C2.40304 10.8173 2.3078 10.6391 2.26921 10.4451C2.23063 10.2511 2.25043 10.05 2.32612 9.86732C2.40181 9.68459 2.52998 9.52841 2.69443 9.41853C2.85888 9.30865 3.05222 9.25 3.25 9.25C3.51522 9.25 3.76957 9.35536 3.95711 9.54289C4.14464 9.73043 4.25 9.98478 4.25 10.25ZM7.25 10.25C7.25 10.4478 7.19135 10.6411 7.08147 10.8056C6.97159 10.97 6.81541 11.0982 6.63268 11.1739C6.44996 11.2496 6.24889 11.2694 6.05491 11.2308C5.86093 11.1922 5.68275 11.097 5.54289 10.9571C5.40304 10.8173 5.3078 10.6391 5.26921 10.4451C5.23063 10.2511 5.25043 10.05 5.32612 9.86732C5.40181 9.68459 5.52998 9.52841 5.69443 9.41853C5.85888 9.30865 6.05222 9.25 6.25 9.25C6.51522 9.25 6.76957 9.35536 6.95711 9.54289C7.14464 9.73043 7.25 9.98478 7.25 10.25ZM10.25 10.25C10.25 10.4478 10.1914 10.6411 10.0815 10.8056C9.97159 10.97 9.81541 11.0982 9.63268 11.1739C9.44996 11.2496 9.24889 11.2694 9.05491 11.2308C8.86093 11.1922 8.68275 11.097 8.54289 10.9571C8.40304 10.8173 8.3078 10.6391 8.26921 10.4451C8.23063 10.2511 8.25043 10.05 8.32612 9.86732C8.40181 9.68459 8.52998 9.52841 8.69443 9.41853C8.85888 9.30865 9.05222 9.25 9.25 9.25C9.51522 9.25 9.76957 9.35536 9.95711 9.54289C10.1446 9.73043 10.25 9.98478 10.25 10.25Z" fill="var(--fill-0, black)"/>
</svg>
