<svg width="24" height="24" overflow="visible" style="display: block;" viewBox="0 0 24 24" fill="none" xmlns="http://www.w3.org/2000/svg">
<path id="Vector" d="M21 0H3C1.34457 0 0 1.34457 0 3V21C0 22.6554 1.34457 24 3 24H21C22.6554 24 24 22.6554 24 21V3C24 1.34457 22.6554 0 21 0ZM8.25063 19.1247H5.25063V8.62468H8.25063V19.1247ZM6.75063 7.87405C5.92165 7.87405 5.25063 7.20303 5.25063 6.37405C5.25063 5.54507 5.92165 4.87405 6.75063 4.87405C7.57961 4.87405 8.25063 5.54507 8.25063 6.37405C8.25063 7.20303 7.57961 7.87405 6.75063 7.87405ZM18.7506 19.1247H15.7506V13.1247C15.7506 12.1403 15.1997 11.6247 14.2506 11.6247C13.3016 11.6247 12.7506 12.1516 12.7506 13.1247V19.1247H9.75063V8.62468H12.7506V10.1247C12.9212 9.38795 13.2814 8.62468 15.3753 8.62468C18.3602 8.62468 18.7506 10.8753 18.7506 13.8753V19.1259V19.1247Z" fill="var(--fill-0, white)"/>
</svg>
