<svg width="19.5" height="19.5" overflow="visible" style="display: block;" viewBox="0 0 19.5 19.5" fill="none" xmlns="http://www.w3.org/2000/svg">
<path id="Vector" d="M9.75 0C7.82164 0 5.93657 0.571828 4.33319 1.64317C2.72982 2.71452 1.48013 4.23726 0.742179 6.01884C0.00422452 7.80042 -0.188858 9.76082 0.187348 11.6521C0.563554 13.5434 1.49215 15.2807 2.85571 16.6443C4.21928 18.0079 5.95656 18.9365 7.84787 19.3127C9.73919 19.6889 11.6996 19.4958 13.4812 18.7578C15.2627 18.0199 16.7855 16.7702 17.8568 15.1668C18.9282 13.5634 19.5 11.6784 19.5 9.75C19.4973 7.16498 18.4692 4.68661 16.6413 2.85872C14.8134 1.03084 12.335 0.00272983 9.75 0ZM12 13.5C12.1989 13.5 12.3897 13.579 12.5303 13.7197C12.671 13.8603 12.75 14.0511 12.75 14.25C12.75 14.4489 12.671 14.6397 12.5303 14.7803C12.3897 14.921 12.1989 15 12 15H7.5C7.36072 15 7.22419 14.9612 7.10571 14.888C6.98722 14.8148 6.89147 14.71 6.82918 14.5854C6.76689 14.4608 6.74053 14.3214 6.75303 14.1826C6.76554 14.0439 6.81643 13.9114 6.9 13.8L10.9472 8.40375C11.0768 8.23105 11.1676 8.03241 11.2133 7.8214C11.2591 7.6104 11.2588 7.392 11.2124 7.18113C11.166 6.97026 11.0746 6.77189 10.9445 6.59958C10.8144 6.42727 10.6486 6.28508 10.4585 6.18272C10.2684 6.08037 10.0584 6.02026 9.84295 6.00651C9.62748 5.99275 9.41157 6.02568 9.20999 6.10304C9.00841 6.18039 8.82591 6.30036 8.67495 6.45473C8.524 6.6091 8.40815 6.79424 8.33532 6.9975C8.26893 7.1851 8.13074 7.33864 7.95114 7.42435C7.77155 7.51006 7.56526 7.52092 7.37766 7.45453C7.19006 7.38814 7.03652 7.24995 6.95081 7.07036C6.8651 6.89076 6.85424 6.68447 6.92063 6.49688C7.06531 6.08957 7.29629 5.71834 7.59777 5.4086C7.89925 5.09886 8.26409 4.85793 8.66734 4.70229C9.07058 4.54665 9.50269 4.47998 9.93409 4.50685C10.3655 4.53373 10.786 4.6535 11.1668 4.85798C11.5476 5.06246 11.8797 5.34681 12.1404 5.69157C12.4011 6.03633 12.5843 6.43335 12.6773 6.85546C12.7703 7.27757 12.771 7.71479 12.6794 8.1372C12.5877 8.5596 12.4058 8.95722 12.1463 9.30281L9 13.5H12Z" fill="var(--fill-0, #0B6DFF)"/>
</svg>
