<svg width="340" height="70.1758" viewBox="0 0 340 70.1758" fill="none" xmlns="http://www.w3.org/2000/svg">
<path id="Union" d="M165.684 14.833C182.02 14.8331 192.91 25.8824 192.91 42.5039C192.91 59.1256 182.119 70.1757 165.684 70.1758C149.248 70.1758 138.358 59.0264 138.358 42.5039C138.359 25.9816 149.25 14.833 165.684 14.833ZM124.321 15.5264H134.123V28.9648H124.321V51.1631C124.321 54.3479 125.904 55.4433 128.28 55.4434C129.766 55.4434 131.647 55.0443 133.627 54.1494V68.8799C130.953 69.6756 127.884 70.1738 124.519 70.1738C114.32 70.1738 109.073 65.2959 109.073 53.8496V28.9648H103.827V19.6084C109.865 17.616 112.638 14.4308 113.43 7.36426L113.728 4.77637H124.321V15.5264ZM267.184 14.9355C283.915 14.9355 294.509 26.4836 290.846 47.3857H256.194C258.075 53.5571 263.521 56.2441 270.648 56.2441C276.094 56.2441 282.035 54.7498 286.687 51.4658V66.6943C281.539 69.0815 275.302 70.0771 269.758 70.0771C251.046 70.0771 240.155 59.5259 240.155 42.6045C240.155 25.6835 251.044 14.9338 267.182 14.9336L267.184 14.9355ZM70.2646 48.6758C70.2647 52.9561 72.3435 55.5439 76.2041 55.5439C80.0646 55.5439 82.4413 52.956 82.4414 48.6758H82.4434V15.5293H97.6885V69.4785H84.3242V65H84.127C80.8604 68.4826 76.7012 70.0762 71.751 70.0762C61.3552 70.0761 55.0195 63.2073 55.0195 52.3584V15.5293H70.2646V48.6758ZM317.327 31.8535H317.526L324.06 15.5293H340L327.427 42.2041L339.899 69.4785H322.674L316.04 51.96H315.843L309.308 69.4785H293.17L305.745 41.4082L293.17 15.5293H310.695L317.327 31.8535ZM50.1914 69.4775H33.9551L32.4707 60.4189H17.2256L15.7412 69.4775H0L13.5635 0H36.4336L50.1914 69.4775ZM207.978 0L216.895 54.5781L217.062 54.582L217.068 54.5469H217.09L226.365 0H241.938L228.376 69.4775H205.506L191.745 0H207.978ZM165.684 29.8633C158.854 29.8633 154.2 35.0386 154.2 42.5039C154.2 49.9694 158.951 55.1455 165.684 55.1455C172.414 55.1454 177.068 50.0686 177.068 42.5039C177.068 34.9395 172.513 29.8633 165.684 29.8633ZM19.4043 47.3809H30.3945L25.0469 14.9307H24.8496L19.4043 47.3809ZM266.785 27.874C261.438 27.8741 257.777 30.9605 256.192 35.9375H276.784C276.091 30.6609 272.132 27.874 266.785 27.874Z" fill="var(--fill-0, white)"/>
</svg>
