<svg width="19.5" height="19.5" overflow="visible" style="display: block;" viewBox="0 0 19.5 19.5" fill="none" xmlns="http://www.w3.org/2000/svg">
<path id="Vector" d="M9.75 0C7.82164 0 5.93657 0.571828 4.33319 1.64317C2.72982 2.71452 1.48013 4.23726 0.742179 6.01884C0.00422452 7.80042 -0.188858 9.76082 0.187348 11.6521C0.563554 13.5434 1.49215 15.2807 2.85571 16.6443C4.21928 18.0079 5.95656 18.9365 7.84787 19.3127C9.73919 19.6889 11.6996 19.4958 13.4812 18.7578C15.2627 18.0199 16.7855 16.7702 17.8568 15.1668C18.9282 13.5634 19.5 11.6784 19.5 9.75C19.4973 7.16498 18.4692 4.68661 16.6413 2.85872C14.8134 1.03084 12.335 0.00272983 9.75 0ZM10.875 14.25C10.875 14.4489 10.796 14.6397 10.6553 14.7803C10.5147 14.921 10.3239 15 10.125 15C9.92609 15 9.73533 14.921 9.59467 14.7803C9.45402 14.6397 9.375 14.4489 9.375 14.25V6.65625L8.29125 7.37906C8.20926 7.43373 8.1173 7.4717 8.02063 7.49083C7.92396 7.50995 7.82447 7.50985 7.72784 7.49052C7.63121 7.47119 7.53933 7.43302 7.45745 7.37819C7.37557 7.32336 7.30529 7.25293 7.25063 7.17094C7.19597 7.08894 7.15799 6.99699 7.13887 6.90031C7.11974 6.80364 7.11985 6.70415 7.13917 6.60752C7.1585 6.51089 7.19667 6.41901 7.2515 6.33713C7.30634 6.25525 7.37676 6.18498 7.45875 6.13031L9.70875 4.63031C9.8214 4.55515 9.95229 4.5119 10.0875 4.50513C10.2228 4.49836 10.3573 4.52834 10.4769 4.59188C10.5965 4.65542 10.6967 4.75016 10.7668 4.86603C10.8368 4.9819 10.8742 5.11458 10.875 5.25V14.25Z" fill="var(--fill-0, #0B6DFF)"/>
</svg>
