<svg width="218.655" height="155.173" overflow="visible" style="display: block;" viewBox="0 0 218.655 155.173" fill="none" xmlns="http://www.w3.org/2000/svg">
<g id="Group">
<path id="Vector" d="M125.855 148.383C122.019 147.995 118.143 144.969 116.265 141.713C113.549 137.007 113.862 131.002 114.511 125.782C115.139 120.733 116.384 115.776 117.638 110.865C117.202 111.174 116.655 111.168 116.174 111.364C115.408 111.674 114.942 112.215 114.114 112.523C110.803 113.751 107.468 114.083 104.227 114.786C103.911 114.855 103.574 114.754 103.257 114.798C102.992 116.903 101.837 118.985 100.781 120.808C97.1726 127.03 89.9914 134.259 82.8797 136.142C79.5499 137.025 75.7552 137.237 73.143 134.627L72.4218 135.714C73.9558 139.904 75.3671 144.173 76.3959 148.522C76.6064 149.412 77.8878 154.818 77.5199 155.173L76.9689 155.067C75.7424 148.524 73.8624 142.127 71.6218 135.872C69.3318 136.481 66.9302 136.758 64.5651 136.944C63.6919 137.014 62.7657 137.091 61.8943 137.133C61.3342 137.158 60.6038 137.219 60.0967 136.95C60.3018 137.843 61.1804 138.486 61.4806 139.317C62.0408 140.862 61.7406 142.619 59.8313 142.667C61.3433 144.931 60.7283 147.388 57.6182 146.941C56.9445 148.85 54.865 148.488 53.3969 147.759C52.7489 147.437 50.9825 145.767 50.7829 145.729C50.6017 145.694 49.723 146.251 49.0201 146.253C44.484 146.269 43.0855 140.184 39.5745 138.394C35.6608 141.629 30.4968 143.997 25.5251 145.079C23.6451 145.487 21.7395 145.619 19.8467 145.923C19.4513 147.252 18.7429 148.484 18.2395 149.765C17.9137 150.591 16.8135 154.307 16.5005 154.636C16.2882 154.86 16.1637 154.84 15.8763 154.814C15.318 154.241 18.7539 146.946 18.9113 145.703C18.1315 145.919 17.1595 145.793 16.3229 145.702C-4.8052 143.371 -0.853059 119.344 3.27665 104.785C4.11687 101.823 5.13831 98.9037 6.37576 96.0865C6.39956 95.8229 4.77953 94.3969 4.44087 93.9704C0.748667 89.2934 3.47801 85.2442 6.92858 81.6435C12.0614 76.2874 17.6025 74.7003 19.5374 66.5507C21.2013 59.5415 20.136 51.9338 21.075 44.6812C22.5248 33.4874 27.9506 22.2625 38.3297 16.9082C50.5285 10.6148 68.0816 17.1846 71.3894 30.9539C71.6804 32.1658 71.6768 33.9176 72.0264 34.9628C72.3339 35.8799 73.4286 36.9233 73.8148 38.1773C74.5599 40.5954 74.1517 44.7892 72.4328 46.7259C72.2351 46.9474 71.8342 47.0627 71.8141 47.092C71.7903 47.125 71.9843 47.5918 71.988 47.8663C72.0044 49.5596 72.1472 51.8093 71.9934 53.4294C71.9532 53.8595 71.9934 54.6851 71.9934 54.6851C71.6402 59.8912 71.3253 65.1613 70.4979 70.3399C70.0769 72.9814 69.427 75.5936 68.9291 78.2204C78.3839 83.5107 82.0578 94.8253 84.3093 104.787C85.5962 103.808 86.6945 102.559 87.9759 101.576C88.7027 101.018 90.4252 100.209 90.8389 99.7934C91.2508 99.3797 91.9116 97.5729 92.3546 96.881C93.1985 95.5685 94.7306 93.9228 95.9424 92.9325C97.8444 91.3747 101.231 88.8797 103.298 87.5946C103.774 87.2981 104.273 86.9539 104.817 86.7929C106.232 86.3718 107.511 86.6812 107.987 88.1676C108.634 90.1867 107.535 91.1166 106.713 92.7989L104.5 95.3177C109.086 94.4134 113.442 91.9074 118.162 91.7371C120.503 91.6529 122.736 91.8726 122.553 94.7759L123.974 95.1401C127.717 88.2445 132.191 81.0541 139.458 77.4754C143.76 75.3574 148.924 73.7356 153.605 72.6812C154.3 72.5238 157.831 72.0313 158.024 71.7385L158.642 67.801C155.4 67.2097 151.673 64.808 149.812 62.0659C146.757 57.5682 147.007 53.2372 147.972 48.1061C148.283 46.4477 148.801 44.835 149.29 43.2259C147.654 41.8768 145.539 40.2 147.291 37.9539C148.364 36.5792 149.967 35.9751 151.672 36.528C151.807 33.8938 152.497 31.0382 153.191 28.4864C153.896 25.8852 154.794 23.3389 155.911 20.8914C154.441 19.6375 154.359 18.4715 154.763 16.6592C155.411 13.7578 157.262 10.7978 160.109 9.67571C160.581 9.48899 161.198 9.49997 161.622 9.30594C161.736 9.25285 162.12 8.65792 162.329 8.50965C167.758 4.66002 172.726 3.42257 179.437 4.2097C179.964 4.27194 182.117 4.58679 182.445 4.73141C182.741 4.86321 182.67 5.38674 183.12 5.26043L183.298 4.90531C183.214 5.48559 183.715 5.17989 184.07 5.26227C184.22 5.29705 184.178 5.60458 184.303 5.61373C186.651 5.78946 190.441 8.49135 192.238 10.1718C196.633 14.2795 199.577 20.8969 199.203 26.9689C199.139 28.0068 198.687 29.4218 198.689 30.3846C198.689 31.6129 199.158 32.7863 199.024 34.2947C198.759 37.3169 196.159 41.8292 192.95 42.4296C193.542 43.5755 193.75 45.3548 193.478 46.6179C193.408 46.9383 193.225 47.7913 193.225 47.7913L192.839 49.0873L192.584 49.5669L192.222 50.1417C192.222 50.1417 190.331 52.8857 189.007 53.7607C187.942 54.4636 186.73 54.9304 185.465 55.1336L184.535 61.6192C184.052 64.6213 183.377 67.7424 182.961 70.7646C182.855 71.5334 182.842 72.4377 182.76 73.2249C186.675 74.3177 190.781 75.0188 194.653 76.3771C211.336 82.2293 215.838 94.9461 217.791 111.311C219.195 123.076 220.412 143.106 208.411 150C206.833 150.906 205.255 151.46 203.52 151.988L203.674 155.001L203.071 155.008L202.597 152.145C200.551 152.436 198.51 152.363 196.461 152.116C186.849 150.955 171.758 141.718 164.538 135.258C162.752 133.658 160.451 131.517 160.885 128.903C158.467 127.792 156.473 126.049 154.536 124.268C154.575 125.073 153.46 126.239 153.321 126.717C153.189 127.165 153.312 127.814 153.204 128.386C152.47 132.286 144.737 140.102 141.576 142.668C138.431 145.222 134.785 147.192 130.849 148.2L130.04 154.81L129.518 154.823L129.873 148.211C129.804 148.125 129.646 148.391 129.608 148.391C128.433 148.391 126.985 148.504 125.855 148.391V148.383ZM174.012 4.90165C170.107 5.40505 165.928 6.46676 163.112 9.36451C164.663 9.25834 166.043 10.1187 167.57 10.256C167.773 9.43591 168.644 8.6744 169.281 8.11974C170.724 6.86216 172.479 6.0256 174.012 4.89982V4.90165ZM180.622 5.25677C179.393 5.40139 177.967 4.81195 176.785 4.8925C175.165 5.00416 170.896 7.6914 169.638 8.83549C169.408 9.046 168.097 10.4262 168.293 10.6166C170.224 10.5946 171.786 11.6875 173.636 11.8504C173.671 11.3964 173.993 10.9699 174.297 10.6367C175.897 8.87942 178.355 6.91891 180.36 5.62837C180.503 5.53685 180.728 5.72905 180.62 5.25677H180.622ZM186.34 7.04522C185.174 6.84386 182.941 5.54051 181.828 5.8334C181.508 5.9176 180.153 6.76148 179.778 7.00311C177.722 8.33392 175.74 10.245 174.198 12.1158C174.312 12.665 176.807 13.3313 177.402 13.5693C177.857 13.7523 179.565 14.8195 179.889 14.5303C179.919 14.3161 179.952 14.1093 180.082 13.9262C181.919 11.3726 183.757 9.48899 186.111 7.4516C186.238 7.34359 186.45 7.46075 186.338 7.04522H186.34ZM188.125 19.7309C189.234 16.8899 190.111 13.0384 189.745 9.98324C189.619 8.93434 187.49 7.3143 186.573 7.99161C186.456 8.07947 186.41 8.3449 186.256 8.46938C184.308 10.0528 182.809 11.693 181.262 13.67C181.105 13.8695 180.433 14.8287 180.457 14.9733L188.123 19.7309H188.125ZM164.361 10.2615C160.905 9.42126 158.256 11.0944 156.643 14.0672C155.77 15.6762 154.474 19.1414 156.59 20.2306C157.584 19.2092 158.886 19.0957 160.251 19.1945C160.282 16.5695 160.711 13.8969 162.481 11.8632L164.359 10.2615H164.361ZM191.585 22.7055C192.002 23.0716 192.504 23.3718 192.862 23.8368C194.246 20.994 194.519 17.2468 193.796 14.1514C193.368 12.3208 192.09 11.1584 190.631 10.0821C190.986 12.5973 190.378 15.5188 189.686 17.9827C189.54 18.5044 188.843 19.8846 188.846 20.1812C188.854 20.6883 190.776 21.8323 191.257 22.2369C191.409 22.3632 191.46 22.5957 191.585 22.7055ZM171.152 11.8687L165.071 10.5379C164.438 10.7649 162.267 13.3624 161.967 14.0287C161.275 15.5609 161.421 17.5617 160.967 19.1927C163.098 19.2311 165.163 19.762 167.215 20.2617C167.733 17.818 168.212 15.312 169.827 13.3112C170.237 12.8041 170.649 12.6064 171.037 12.2385C171.189 12.0957 171.198 12.114 171.152 11.8669V11.8687ZM174.903 23.3041C175.505 20.3478 176.779 17.5306 178.652 15.1728C177.519 14.3198 176.109 13.9866 174.81 13.4832C172.763 12.6906 172.478 11.6618 170.704 13.6535C168.93 15.6451 168.688 18.131 168.113 20.6242C170.532 21.0525 172.659 22.3943 174.903 23.3059V23.3041ZM196.167 26.6979C197.045 23.996 198.028 21.0617 196.791 18.3031L194.92 14.9056C194.816 16.2766 195.167 17.5251 195.074 18.9035C194.953 20.7084 194.276 22.5993 193.67 24.2908C193.673 24.5251 195.412 26.3099 195.72 26.5222C195.872 26.6265 195.896 26.7712 196.167 26.6979ZM181.31 26.8535C182.544 24.7704 183.953 22.9197 184.819 20.6205C185.055 19.9963 185.604 19.0078 184.903 18.5758L179.483 15.4566C178.593 15.6122 175.595 22.42 175.791 23.5677C175.891 24.159 176.552 24.1077 176.992 24.3439C178.009 24.893 179.185 25.5703 180.153 26.1927C180.484 26.4069 180.609 27.0677 181.308 26.8535H181.31ZM181.914 27.0878C181.808 27.2434 181.859 27.4448 181.96 27.5967C182.115 27.8347 184.343 29.3577 184.817 29.7421C185.291 30.1265 185.808 31.1095 186.521 30.7251C187.986 29.2698 191.515 24.9223 190.538 22.7696C190.205 22.0355 186.761 20.075 185.985 19.3721C185.451 22.1655 183.829 24.5159 182.287 26.8352C182.19 26.9817 182.079 27.0439 181.914 27.0878ZM155.25 37.0625C155.957 37.2217 156.634 37.4341 157.394 37.5988C158.095 37.7508 159.417 37.6794 159.182 38.4921C156.213 38.5214 152.775 36.8337 149.815 37.2565C149.103 37.359 147.868 38.1443 147.646 38.8399C146.819 41.4466 150.396 42.9605 152.353 43.4437L158.997 45.1919C157.98 45.8894 156.552 45.1956 155.472 44.9686C155.087 44.888 154.674 44.9759 154.308 44.8826C153.731 44.7361 150.3 43.3229 150.07 43.4932C149.887 44.4176 149.528 45.2926 149.295 46.206C147.617 52.8088 147.19 59.3164 152.925 64.1344C156.605 67.2262 162.906 68.1634 167.442 66.6752C168.591 66.2981 169.593 65.2803 170.795 65.2949C171.295 65.7288 168.359 67.0706 168.113 67.1676C165.349 68.2494 162.291 68.3245 159.362 67.9749L158.825 71.7256C166.526 72.1522 174.213 72.5952 181.874 73.5141C182.652 67.4312 183.512 61.3739 184.749 55.3752C185.031 54.4325 181.879 54.7821 182.055 53.9492C182.714 53.2921 183.724 54.0719 184.512 54.1689C189.481 54.7785 193.699 47.7895 192.425 43.3962C191.998 41.9244 190.719 40.1579 189.095 39.9364C186.17 39.5374 184.546 41.5967 183.183 43.83C182.225 43.7769 180.389 43.5389 180.437 42.3436C180.506 40.5167 181.048 37.6354 181.367 35.75C181.746 33.5002 182.405 31.2889 182.688 29.0227C177.382 25.3122 171.326 21.9092 164.932 20.4997C163.067 20.0897 158.404 19.0243 157.061 20.7359C156.733 21.1532 155.937 22.9069 155.701 23.4853C154.103 27.4064 153.323 31.9699 152.4 36.1033L152.691 36.6726C153.53 36.8044 154.427 36.8739 155.25 37.0606V37.0625ZM40.444 39.9218C41.8426 39.8907 43.2466 39.9437 44.6433 39.9218C45.7068 35.4223 48.3099 32.1328 53.3164 32.5886C55.5039 32.7881 58.1765 35.3948 58.8428 37.4249C59.143 38.3402 59.1632 39.3085 59.3242 40.2476L60.5452 40.4581C60.4537 38.0583 61.2683 35.4443 63.2416 33.9505C63.5363 33.7272 65.257 32.7735 65.4602 32.7735H68.6765C68.7149 32.7735 68.898 33.0371 69.1232 32.9511C68.7735 31.4665 66.2638 30.5091 64.8964 30.4634C64.4187 30.4469 63.778 30.7984 63.399 30.5457C63.0366 30.251 63.3222 30.0277 63.5894 29.8318C64.6255 29.0758 66.3554 29.5481 67.494 29.8465C67.7228 29.9069 67.9846 30.0332 67.8674 29.6506C67.7777 29.3559 66.7782 27.9628 66.5146 27.6077C64.2374 24.547 61.2445 22.2314 57.5889 21.0232C54.12 25.3763 50.0178 29.6579 45.7984 33.3062C44.5664 34.3716 43.2411 35.4333 41.9487 36.4254C41.6924 36.6213 40.8596 36.9508 40.757 37.1101C40.6545 37.2693 40.1969 39.4953 40.1694 39.8321C40.1255 40.3831 40.3671 39.9236 40.4404 39.9218H40.444ZM197.779 29.3778C198.026 29.3449 198.087 29.1362 198.125 28.922C198.363 27.6077 198.38 25.7991 198.317 24.4555C198.297 24.029 198.306 23.2858 198.045 22.9471C197.911 24.5306 197.236 25.9511 196.553 27.3569L197.779 29.3778ZM188.947 33.5625C189.657 34.3093 190.27 35.1697 190.896 35.9861C191.12 35.9916 193.364 32.9291 193.635 32.4733C194.228 31.472 195.833 28.2576 195.361 27.2361L191.61 23.6592C191.043 26.7565 189.189 29.592 186.706 31.45C187.323 32.2408 188.2 32.7753 188.947 33.5606V33.5625ZM196.522 28.4864C196.196 28.199 196.227 28.5633 196.167 28.75C195.182 31.7868 193.705 34.3807 191.385 36.614C192.211 38.1205 193.531 39.5612 193.668 41.3514C196.849 39.3854 199.319 34.1702 197.756 30.5604C197.664 30.348 196.611 28.5669 196.522 28.4864ZM47.9218 47.3648C55.6284 54.9762 63.0531 38.7319 54.9511 34.1702C48.0353 30.2766 42.1062 41.6224 47.9218 47.3648ZM69.4435 34.0622C60.9754 31.029 59.0515 43.6579 64.8507 47.3208C66.5586 48.399 68.1035 48.5583 69.9066 47.5826C71.2704 46.8449 70.961 46.109 70.9098 44.6574C70.8622 43.3357 70.6956 41.7029 70.5528 40.3684C70.4649 39.5483 69.7382 34.3551 69.4435 34.0622ZM71.8049 45.9974C73.727 43.4474 73.9393 39.3653 72.0685 36.7073C71.6639 36.6323 71.8214 36.8831 71.8031 37.1503C71.6987 38.6312 71.3582 39.8797 71.2502 41.0823C71.1422 42.285 71.9715 44.6043 71.8049 45.9992V45.9974ZM44.4657 40.8133C43.7701 40.9066 40.2957 40.6082 40.0285 41.0238C39.6367 43.1655 39.6239 46.0431 38.4249 47.9066C38.0497 48.4887 37.6012 49.0544 36.8708 49.0525C36.5413 49.0525 35.7743 48.6187 35.8988 49.1093C36.113 49.955 36.7463 51.5274 37.1069 52.3695C38.1613 54.8444 39.8601 57.7952 41.6119 59.8363C42.0933 60.3982 44.0996 62.4631 44.6433 62.7047C44.841 62.7926 45.165 62.4759 45.4597 62.4375C46.6148 62.2874 50.3949 63.8031 50.6804 65.0606C50.9221 66.126 50.7463 67.3525 49.5107 67.5813C48.5185 67.7643 44.8263 66.3475 44.0978 65.5695C43.4113 64.8373 43.8818 64.2698 43.6694 63.869C43.5596 63.6621 41.1927 61.6284 40.7168 61.0884C39.6514 59.8765 38.7855 58.4853 37.8117 57.2021L36.0672 54.3922C36.4571 56.5925 36.1532 58.8514 36.1367 61.0609C36.1056 64.9838 36.3967 68.9176 35.4119 72.7507C35.1391 73.8088 34.1652 74.5776 35.2819 75.8151C36.7774 77.4699 40.8303 78.4566 42.9958 78.8227C45.9832 79.3297 48.352 79.2272 51.2918 78.462C53.2102 77.9623 55.9268 76.8329 55.9139 74.4934C55.9121 74.0266 55.7108 73.5928 55.7144 73.0748C55.7217 72.057 55.9176 71.1252 55.8993 70.1184C54.1273 70.4278 52.2767 70.3747 50.5065 70.0617C49.8841 69.9518 46.6258 69.194 46.7887 68.4233C47.0065 68.1305 47.023 68.1726 47.3305 68.2293C48.956 68.524 50.4003 69.2745 52.2382 69.4009C63.5052 70.1733 68.9877 62.4448 70.7084 52.3164C70.767 51.9668 70.6608 51.5732 70.7249 51.2895C70.7706 51.0808 70.7194 50.8977 70.7194 50.8977C70.8146 50.1454 71.0068 49.1404 70.9079 48.4027C70.8182 47.7327 70.0531 48.6278 69.6595 48.7651C68.2482 49.2594 66.9356 49.0251 65.4895 48.8731C64.7079 50.1783 61.3122 52.8143 59.8258 51.9814C59.522 51.7874 59.8386 51.5439 60.0199 51.4542C60.4024 51.262 60.9278 51.24 61.38 51.0277C62.7638 50.3797 63.6279 49.5065 64.6511 48.4045C62.2879 46.7021 60.8912 44.2638 60.5214 41.3697L59.3865 41.1647C59.4377 47.1176 53.7557 53.217 47.9529 48.6681C45.5311 46.7698 44.4914 43.819 44.4657 40.8096V40.8133ZM137.203 118.631C137.091 117.528 137.285 116.27 137.203 115.148L136.676 115.247L121.748 123.905C121.583 123.898 121.636 123.583 121.678 123.479C121.801 123.169 124.224 121.635 124.709 121.328C125.636 120.74 129.809 118.599 130.133 117.996C130.401 117.502 130.587 116.166 130.714 115.54C131.316 112.571 131.655 109.53 132.282 106.566C132.539 105.36 134.344 97.7798 134.876 97.3661C135.01 97.2636 135.072 97.2581 135.237 97.2819C135.544 97.6242 133.536 104.69 133.295 105.79C132.465 109.572 131.975 113.433 131.136 117.215L131.395 117.471L137.175 114.229C137.232 111.478 137.791 108.631 138.733 106.047C139.209 104.743 140.037 102.883 141.314 102.281C141.08 101.604 140.664 101.19 140.599 100.408C140.452 98.6566 141.583 96.9707 143.458 97.1025C142.989 96.0792 142.685 95.5392 143.189 94.4207C143.93 92.7751 145.969 92.4364 147.567 92.8135C146.811 88.4019 152.091 89.3721 154.712 90.4045C155.32 90.6443 155.378 90.4777 156.856 91.4827C162.071 95.0358 165.005 98.8982 165.483 99.6634C165.961 100.429 168.081 103.797 168.39 104.423C169.799 107.286 170.933 109.971 171.689 113.096L174.136 113.865L190.369 121.577L190.605 121.343L189.018 103.791L189.295 102.999L189.919 105.23L191.433 121.943L201.601 126.785L201.893 127.475L171.875 114.075C171.769 114.54 172.28 114.46 172.404 114.751C173.069 116.303 171.37 120.48 170.656 122.058C169.439 124.742 167.418 128.086 164.961 129.765C164.321 130.202 163.559 130.733 162.761 130.691L163.118 129.801L161.69 129.443C161.588 131.817 164.211 133.896 165.893 135.333C172.007 140.558 180.417 145.643 187.834 148.771C200.157 153.968 211.701 152.149 216.055 138.156C219.68 126.512 217.557 105.056 212.792 93.7947C205.749 77.1514 188.941 74.6911 172.855 73.3365C169.122 73.0217 165.172 72.9283 161.421 72.7965C154.632 72.5604 145.246 75.4545 139.165 78.5975C132.339 82.125 128.797 88.8211 124.935 95.0925C124.819 95.2811 124.536 95.3342 124.517 95.4111C124.393 95.9437 124.795 95.768 124.931 96.07C125.68 97.7432 124.664 98.3527 124.521 99.7092C124.451 100.366 124.99 100.674 124.845 101.434C124.446 103.519 122.368 104.478 121.945 105.494C121.863 105.691 121.922 106.608 121.751 107.108C121.206 108.697 119.3 109.373 118.749 110.374C118.2 111.372 117.413 114.919 117.104 116.219C114.748 126.177 111.454 142.487 123.849 146.968C123.974 147.014 123.974 147.276 124.113 147.307C133.787 149.52 143.377 141.111 148.895 134.072C150.278 132.307 152.014 130.06 152.395 127.837C151.897 128.2 151.461 128.82 150.956 129.166C148.842 130.609 146.907 130.03 144.836 128.875C141.561 127.048 137.596 122.481 137.208 118.635L137.203 118.631ZM82.0614 108.247C80.8002 109.576 79.6836 111.051 78.4187 112.382C77.626 112.486 77.8786 112.014 78.1422 111.567C79.3541 109.501 81.9132 107.485 83.5131 105.671C83.6979 105.267 83.0975 102.938 82.9419 102.314C81.4519 96.2934 78.4955 88.3854 74.3988 83.6974C69.9579 78.6158 63.1794 76.0402 56.6224 75.1305C56.637 76.2105 56.075 76.972 55.2714 77.6218C50.9074 81.1529 40.1237 80.3969 35.6498 77.2392C34.8279 76.659 34.4398 76.0933 33.812 75.341C26.0267 77.3912 18.2542 81.1017 12.8321 87.1809C5.32503 95.5978 2.49501 109.808 1.00311 120.737C0.550968 124.048 0.386219 128.192 1.39302 131.184C2.03188 133.085 2.08863 134.557 3.09359 136.421C5.31771 140.547 8.38204 142.723 12.8742 144.151C13.2128 144.259 14.0952 144.638 14.1666 144.647C21.8915 145.594 29.2978 143.933 35.9427 139.952C36.3765 139.692 38.8093 138.163 38.9247 137.931C39.04 137.698 37.7934 136.97 37.592 136.765C31.0606 134.954 28.7066 127.77 33.1163 122.474C33.7717 121.687 34.8169 120.588 35.8878 120.51L35.7121 120.241C34.5735 120.241 33.3324 120.012 32.2322 119.968C28.7816 119.832 25.2908 120.167 21.8585 120.33C19.5026 120.442 17.1558 120.497 14.8036 120.689C14.8402 119.918 16.0923 119.913 16.7019 119.82C18.8637 119.485 21.6095 119.382 23.8282 119.263C24.6867 119.217 25.5599 119.292 26.4184 119.263L29.0086 101.214H29.6328C29.6127 101.776 29.6694 102.349 29.6328 102.911C29.3436 107.202 28.2563 112.27 27.6467 116.649C27.5259 117.515 27.352 118.415 27.1341 119.261C30.1545 119.258 33.206 119.067 36.1843 119.591C37.8538 119.884 38.3297 119.534 39.9077 119.622C46.267 119.975 50.9898 124.032 54.5118 128.961C55.881 130.878 57.2685 133.852 58.6854 135.509C59.586 136.56 61.1017 136.289 62.4307 136.245C64.2173 136.188 66.5146 135.939 68.2976 135.679C70.2709 135.392 72.517 135.344 72.8593 132.915C73.1302 131.004 72.5975 128.255 72.6872 126.133C72.9911 118.904 76.6925 112.79 75.3195 105.649C74.5068 101.419 72.1655 97.6187 71.3473 93.8972C71.2795 93.5897 71.1441 93.0789 71.3564 92.8153C71.9056 93.0515 72.2424 94.0015 72.4914 94.5397C74.2011 98.2411 76.3922 104.227 76.6339 108.265C76.9341 113.305 74.2981 118.659 73.7691 123.819C73.5165 126.283 73.6977 128.368 73.7764 130.777C73.8093 131.78 73.8002 132.798 73.6171 133.788C74.364 134.841 75.4202 135.313 76.6522 135.584C85.9404 137.629 96.6179 126.84 100.601 119.38C100.92 118.785 102.681 115.131 102.357 114.795C101.178 114.908 99.8708 115.234 98.6864 115.157C93.9106 114.846 90.6247 110.669 89.7534 106.224C89.3562 104.201 89.7278 102.949 90.3849 101.036C90.244 100.886 89.0065 101.873 88.7942 102.036C86.5023 103.802 84.0531 106.149 82.0596 108.25L82.0614 108.247ZM101.108 96.5625C101.732 95.9181 102.609 95.7021 103.338 95.131C104.438 94.2688 106.662 91.7884 107.092 90.4887C107.845 88.2134 106.558 86.7196 104.26 87.8363C98.7597 92.2369 92.5724 94.9058 90.8279 102.457C89.5246 108.089 93.3486 114.196 99.4113 114.156C102.28 114.138 106.924 113.618 109.723 112.953C112.65 112.258 119.046 109.865 120.668 107.28C121.336 106.217 121.114 104.661 119.604 104.644C118.094 104.628 111.088 107.797 110.759 107.465C110.748 107.266 110.724 107.11 110.841 106.925C111.032 106.623 116.681 104.485 117.451 104.245C119.046 103.749 120.239 103.387 121.665 104.538C122.844 104.046 125.107 100.3 122.985 99.9746C120.203 99.5463 113.9 102.682 110.902 103.592C110.398 103.744 109.856 103.775 109.351 103.919L109.148 105.684H108.613C108.549 104.227 108.412 102.406 108.028 100.996C107.85 100.343 107.378 99.7256 107.261 99.257C107.103 98.6328 107.724 98.4534 108.114 99.1216C108.304 99.4474 108.729 100.505 108.844 100.892C108.981 101.351 109.117 103.101 109.43 103.163C114.297 102.01 118.817 98.8049 123.955 99.0465C125.914 93.8533 119.928 95.9273 117.336 96.8041C115.154 97.5418 112.11 99.2808 110.05 99.7019C109.628 99.7879 109.219 99.8135 108.791 99.7806L109.269 99.2772C113.236 97.5455 117.191 95.6673 121.446 94.7484C122.231 92.3064 119.284 92.5188 117.64 92.6378C111.965 93.0497 106.849 96.6082 101.11 96.5643L101.108 96.5625ZM142.078 101.695C142.519 102.067 145.471 102.964 146.354 103.407C147.024 103.744 147.859 104.251 148.485 104.672C149.321 105.236 153.808 108.919 153.643 109.695L153.198 109.966C150.037 106.724 146.339 103.601 141.799 102.667C140.467 103.894 139.733 104.902 141.219 106.398C144.307 109.506 148.757 111.75 150.941 115.974C151.556 117.163 151.8 118.652 152.422 119.852C153.703 122.318 156.568 125.26 158.873 126.803C159.746 127.389 163.374 129.439 164.227 129.232C165.373 128.954 168.106 125.209 168.745 124.087C169.582 122.615 171.253 118.93 171.465 117.337C171.76 115.117 169.627 109.056 168.628 106.867C165.822 100.723 158.737 91.2667 151.543 90.3587C148.56 89.9817 146.727 91.8781 149.771 93.7379C153.277 95.8797 158.251 97.7816 160.789 101.304C161.099 101.732 161.436 102.325 160.61 102.199C158.445 100.079 156.01 98.0928 153.407 96.535C151.58 95.4422 145.984 92.1344 144.271 94.2505C142.089 96.9469 147.392 97.8054 149.001 98.6163C151.013 99.6305 155.755 103.006 156.836 104.899C156.98 105.151 157.083 105.377 157.037 105.677C156.674 105.755 156.559 105.596 156.316 105.417C155.596 104.89 154.822 103.817 154.086 103.18C151.683 101.104 146.707 97.6828 143.452 97.8969C141.36 98.0342 140.802 100.617 142.079 101.693L142.078 101.695ZM139.528 106.036C138.202 110.22 137.223 115.635 138.404 119.933C139.381 123.493 143.826 128.258 147.498 129.064C150.566 129.737 152.898 126.377 153.929 123.903L153.914 123.556C152.883 122.17 151.939 120.841 151.232 119.254C150.87 118.441 150.656 117.44 150.278 116.634C148.435 112.688 143.022 109.299 139.962 106.224C139.813 106.076 139.802 105.97 139.528 106.034V106.036ZM53.0272 131.956C53.0583 132.115 53.0601 132.318 53.148 132.454C53.9644 133.73 58.581 141.751 59.4103 141.912C59.7489 141.978 60.6056 141.543 60.7759 141.189C61.4861 139.701 58.5408 136.77 57.7225 135.573C53.1169 128.84 49.3643 120.967 39.9095 120.51C31.5183 120.103 28.5894 131.387 35.8878 135.159L34.8426 133.437L34.1158 130.627L34.2751 130.42L34.8169 130.336C34.9689 132.919 36.7793 134.976 38.6647 136.585C39.6313 137.409 41.0389 138.119 41.903 138.976C43.5358 140.594 45.0185 143.926 47.1475 144.9C48.2733 145.414 49.9885 145.815 50.5047 144.336C49.2306 141.938 47.6966 139.569 46.1883 137.283C45.348 136.009 44.2094 134.698 43.426 133.433C43.3418 133.298 42.4942 131.857 43.1239 132.126C43.2594 132.185 44.8373 133.99 45.0771 134.284C46.8253 136.439 49.3441 140.217 50.6347 142.665C51.1051 143.556 51.1399 144.585 51.4255 145.09C51.6048 145.407 52.9759 146.536 53.3439 146.747C54.4147 147.358 57.1917 148.206 56.5363 146.055C56.3258 145.365 54.358 143.219 53.7905 142.37C52.7544 140.818 51.5609 138.731 50.6914 137.071C50.3436 136.408 49.4851 134.92 49.3697 134.279C49.3148 133.973 49.2672 133.955 49.562 133.737C51.6744 136.373 52.9704 139.569 54.8669 142.366C55.6796 143.565 56.7578 144.581 57.4241 145.883C59.5622 146.681 60.3256 145.44 59.2657 143.505C57.501 140.285 54.8065 137.468 53.1571 133.889C52.9558 133.452 51.9545 131.632 53.0308 131.958L53.0272 131.956Z" fill="var(--fill-0, #232321)"/>
<path id="Vector_2" d="M104.885 45.1278C104.231 46.865 102.891 48.6205 101.648 50.0227C100.81 50.9691 97.7364 54.0682 96.6875 54.352C94.5091 54.9414 95.0437 53.0724 95.04 51.8112C95.0327 49.5157 95.029 47.2165 95.0327 44.9228L88.3329 44.7434C81.732 44.2181 77.5876 42.739 77.1556 35.371C76.7383 28.2466 77.0238 19.6503 77.3497 12.5002C77.4869 9.46885 77.2417 5.23114 79.4877 2.84594C81.9425 0.237419 88.8162 0.350912 92.2356 0.226435C105.093 -0.242184 118.032 0.144061 130.856 0.255724C138.305 0.978789 140.76 3.58548 141.14 11.0578C141.371 15.614 141.038 20.28 140.946 24.8161C140.835 30.3865 142.065 38.2853 136.54 41.6736C131.016 45.0619 123.642 44.5604 117.642 45.1114L104.883 45.1278H104.885ZM108.207 6.01095C107.306 6.19767 104.998 7.84699 103.946 8.36137C102.893 8.87575 101.613 9.42492 100.57 9.80933C99.4296 10.2285 94.9851 11.206 94.5 11.6014C93.8703 12.1122 93.9307 14.0141 93.9545 14.8232C94.2199 23.9393 98.4686 33.0701 106.884 37.273C109.044 38.353 109.445 37.8459 111.414 36.7348C116.769 33.7181 120.783 28.4022 122.321 22.4474C122.894 20.2288 123.695 15.4199 123.417 13.2306C123.338 12.6192 123.124 11.7442 122.54 11.433C118.883 10.7392 115.65 9.56404 112.362 7.85065C111.171 7.23009 109.534 5.73454 108.207 6.01095Z" fill="var(--fill-0, #D4E7FE)"/>
<path id="Vector_3" d="M82.0614 108.247C84.0548 106.145 86.5041 103.797 88.7959 102.032C89.0065 101.869 90.2439 100.883 90.3867 101.033C89.7295 102.944 89.3579 104.198 89.7551 106.22C90.6283 110.665 93.9123 114.842 98.6882 115.154C99.8707 115.23 101.18 114.905 102.358 114.791C102.684 115.13 100.921 118.782 100.603 119.377C96.6215 126.836 85.9421 137.625 76.654 135.581C75.4202 135.31 74.3658 134.836 73.6189 133.785C73.802 132.796 73.8111 131.779 73.7782 130.774C73.6995 128.365 73.5182 126.278 73.7708 123.816C74.2999 118.654 76.9359 113.301 76.6356 108.262C76.394 104.223 74.2029 98.2356 72.4931 94.5361C72.2442 93.9979 71.9092 93.0479 71.3582 92.8117C71.1459 93.0753 71.2813 93.586 71.349 93.8936C72.1673 97.6132 74.5086 101.413 75.3213 105.646C76.6942 112.787 72.9929 118.901 72.689 126.129C72.5993 128.251 73.132 131.002 72.8611 132.912C72.5169 135.341 70.2727 135.388 68.2994 135.676C66.5164 135.936 64.2191 136.185 62.4325 136.241C61.1035 136.283 59.5878 136.556 58.6872 135.506C57.2703 133.851 55.8828 130.874 54.5135 128.958C50.9916 124.03 46.2688 119.972 39.9095 119.618C38.3315 119.53 37.8538 119.88 36.1861 119.587C33.206 119.064 30.1563 119.252 27.1359 119.258C27.3538 118.412 27.5295 117.511 27.6485 116.645C28.2581 112.269 29.3454 107.198 29.6346 102.907C29.6731 102.345 29.6163 101.772 29.6346 101.21H29.0104L26.4202 119.259C25.5617 119.289 24.6903 119.214 23.83 119.259C21.6114 119.38 18.8655 119.483 16.7037 119.816C16.0941 119.909 14.8438 119.915 14.8054 120.685C17.1577 120.493 19.5044 120.44 21.8603 120.327C25.2908 120.164 28.7834 119.829 32.234 119.964C33.3342 120.006 34.5753 120.235 35.7139 120.237L35.8896 120.506C34.8187 120.585 33.7735 121.683 33.1182 122.47C28.7084 127.768 31.0625 134.953 37.5938 136.761C37.797 136.966 39.0418 137.695 38.9265 137.927C38.8111 138.16 36.3783 139.688 35.9445 139.948C29.2996 143.93 21.8933 145.592 14.1684 144.644C14.097 144.634 13.2147 144.256 12.876 144.148C8.38386 142.72 5.31953 140.543 3.09542 136.417C2.09045 134.552 2.03554 133.082 1.39485 131.18C0.38988 128.189 0.554629 124.044 1.00494 120.733C2.49683 109.803 5.32868 95.5942 12.8339 87.1773C18.256 81.0981 26.0285 77.3876 33.8138 75.3374C34.4416 76.0879 34.8297 76.6553 35.6516 77.2356C40.1255 80.3933 50.9074 81.1493 55.2732 77.6182C56.0768 76.9684 56.637 76.2069 56.6242 75.1268C63.1812 76.0366 69.9578 78.6122 74.4006 83.6938C78.4973 88.3818 81.4536 96.2898 82.9437 102.31C83.0993 102.936 83.6997 105.263 83.5148 105.668C81.9149 107.48 79.3558 109.497 78.144 111.564C77.8822 112.01 77.6296 112.483 78.4204 112.378C79.6853 111.049 80.802 109.574 82.0632 108.243L82.0614 108.247Z" fill="var(--fill-0, #0B6DFF)"/>
<path id="Vector_4" d="M155.25 37.0624C154.427 36.8757 153.53 36.8062 152.691 36.6744L152.4 36.1051C153.323 31.9699 154.103 27.4063 155.701 23.4871C155.937 22.9087 156.733 21.155 157.061 20.7376C158.404 19.0261 163.069 20.0915 164.932 20.5015C171.324 21.911 177.38 25.314 182.688 29.0245C182.405 31.2907 181.746 33.502 181.367 35.7518C181.05 37.6372 180.508 40.5185 180.437 42.3454C180.391 43.5426 182.225 43.7805 183.183 43.8318C184.546 41.5985 186.17 39.5392 189.095 39.9382C190.719 40.1597 191.999 41.928 192.425 43.3979C193.699 47.7912 189.48 54.7803 184.512 54.1707C183.723 54.0737 182.714 53.2957 182.055 53.951C181.879 54.7839 185.032 54.4325 184.75 55.377C183.512 61.3757 182.654 67.433 181.874 73.5159C174.213 72.5951 166.527 72.154 158.826 71.7274L159.362 67.9767C162.291 68.3245 165.35 68.2494 168.114 67.1694C168.361 67.0724 171.297 65.7306 170.795 65.2967C169.593 65.2803 168.591 66.2999 167.442 66.677C162.906 68.1652 156.605 67.228 152.926 64.1362C147.191 59.3182 147.619 52.8106 149.296 46.2078C149.528 45.2944 149.887 44.4194 150.07 43.495C150.301 43.3247 153.731 44.7379 154.308 44.8843C154.674 44.9777 155.088 44.8898 155.472 44.9704C156.552 45.1955 157.98 45.8911 158.998 45.1937L152.353 43.4455C150.396 42.9623 146.819 41.4484 147.646 38.8417C147.866 38.1461 149.103 37.3608 149.816 37.2583C152.776 36.8354 156.213 38.5214 159.182 38.4939C159.419 37.6812 158.095 37.7525 157.394 37.6006C157.601 37.3334 157.947 37.2711 158.199 37.0661C159.4 36.0868 160.83 33.4929 160.903 31.9442C160.982 30.2839 160.508 28.0269 158.403 28.1422C156.076 28.2703 155.373 30.91 154.981 32.7753C154.85 33.4013 154.485 34.3679 154.894 34.9207C154.89 34.9793 154.894 35.0397 154.894 35.1001C154.414 35.6987 154.817 36.5426 155.25 37.0661V37.0624ZM163.111 25.6252C163.444 24.4152 161.998 23.5567 161.039 23.1448C159.111 22.3174 157.537 23.6061 156.336 25.0266L156.924 25.6142C158.249 24.2797 159.366 23.2034 161.273 24.3402C161.93 24.7319 162.298 25.5611 163.111 25.627V25.6252ZM172.168 27.2892C172.674 27.8804 172.937 29.7458 173.563 29.7421C174.376 29.6579 173.724 28.1092 173.506 27.6479C172.82 26.1963 170.947 24.9296 169.324 25.1346C168.769 25.2042 167.037 25.7588 167.037 26.4288C167.037 27.4704 168.773 26.1982 169.228 26.0975C170.14 25.8998 171.581 26.599 172.168 27.2873V27.2892ZM163.647 36.3485C163.636 36.4053 163.654 36.4693 163.647 36.5279C162.763 39.4147 165.556 41.474 167.652 38.8344C169.075 37.046 170.746 32.065 168.213 30.6207C165.419 29.03 163.783 34.4667 163.647 36.3485ZM188.841 44.0313C186.743 43.8721 184.94 45.3054 184.321 47.2824C184.222 47.5972 183.937 48.8292 184.197 49.0324C184.665 49.3985 185.002 47.5972 185.112 47.3592C185.877 45.6916 186.811 44.9228 188.66 44.6519L188.841 44.0313ZM171.11 46.3982C170.38 45.6568 168.527 47.6466 167.813 48.1061C165.425 49.6456 161.912 50.5059 159.106 50.0904C158.65 50.0227 156.881 49.2465 156.682 49.3911C155.986 55.518 162.311 59.7282 167.704 56.3948C170.01 54.9688 171.346 52.342 171.519 49.6657C171.564 48.9555 171.588 46.8815 171.11 46.3964V46.3982Z" fill="var(--fill-0, #F3A276)"/>
<path id="Vector_5" d="M44.4657 40.8132C44.4932 43.8227 45.5311 46.7735 47.9529 48.6718C53.7558 53.2207 59.4396 47.1213 59.3865 41.1684L60.5214 41.3734C60.8912 44.2675 62.2879 46.7058 64.6511 48.4082C63.6279 49.5102 62.7657 50.3833 61.38 51.0313C60.9278 51.2437 60.4025 51.2657 60.0199 51.4579C59.8387 51.5494 59.522 51.791 59.8258 51.9851C61.3104 52.818 64.7079 50.182 65.4895 48.8768C66.9338 49.0287 68.2482 49.263 69.6595 48.7688C70.0531 48.6315 70.8201 47.7345 70.9079 48.4063C71.0068 49.1441 70.7524 50.9032 70.7524 50.9032L70.745 51.2638C70.745 51.2638 70.767 51.9704 70.7066 52.3201C68.9859 62.4485 63.5034 70.177 52.2364 69.4045C50.3967 69.2782 48.9524 68.5277 47.3287 68.233C47.0212 68.1762 47.0047 68.1341 46.7869 68.427C46.6258 69.1977 49.8823 69.9555 50.5047 70.0654C52.2748 70.3784 54.1237 70.4333 55.8975 70.1221C55.9158 71.1289 55.7199 72.0625 55.7126 73.0784C55.7089 73.5965 55.9103 74.0303 55.9121 74.4971C55.9249 76.8365 53.2084 77.9678 51.29 78.4657C48.3502 79.2309 45.9796 79.3334 42.994 78.8263C40.8284 78.4602 36.7756 77.4736 35.2801 75.8188C34.1634 74.5831 35.1391 73.8125 35.41 72.7544C36.3967 68.9213 36.1038 64.9874 36.1349 61.0646C36.1532 58.8551 36.4571 56.5944 36.0654 54.3959L37.8099 57.2058C38.7837 58.489 39.6496 59.8802 40.715 61.092C41.1891 61.632 43.556 63.6658 43.6676 63.8726C43.88 64.2753 43.4113 64.841 44.096 65.5732C44.8264 66.353 48.5167 67.768 49.5089 67.585C50.7445 67.3561 50.9202 66.1297 50.6786 65.0643C50.393 63.8067 46.613 62.291 45.4579 62.4411C45.1632 62.4796 44.8392 62.7963 44.6415 62.7084C44.0978 62.4668 42.0915 60.4019 41.6101 59.8399C39.8601 57.797 38.1595 54.8462 37.1051 52.3731C36.7463 51.5293 36.1111 49.9586 35.897 49.1129C35.7725 48.6224 36.5395 49.0544 36.869 49.0562C37.5994 49.058 38.0478 48.4924 38.4231 47.9103C39.6221 46.0468 39.6331 43.1692 40.0267 41.0274C40.2958 40.6101 43.7683 40.9103 44.4639 40.8169L44.4657 40.8132ZM50.8324 54.4105C49.9336 54.7181 50.609 57.0319 50.9202 57.6781C52.7435 61.4691 59.5201 63.6914 62.5918 60.2811C63.2435 59.5562 65.0649 56.5687 63.4558 56.2209C60.4702 56.0818 56.9922 56.2045 54.109 55.3826C53.3402 55.1629 51.6158 54.1414 50.8342 54.4105H50.8324Z" fill="var(--fill-0, #F3A276)"/>
<path id="Vector_6" d="M142.078 101.695C140.8 100.619 141.358 98.0361 143.451 97.8988C146.705 97.6847 151.681 101.104 154.084 103.182C154.82 103.817 155.594 104.892 156.314 105.419C156.559 105.598 156.673 105.756 157.035 105.679C157.081 105.377 156.976 105.153 156.834 104.901C155.754 103.008 151.013 99.6324 148.999 98.6182C147.39 97.8073 142.087 96.9488 144.269 94.2524C145.98 92.1363 151.578 95.4441 153.405 96.5369C156.008 98.0947 158.443 100.081 160.608 102.201C161.434 102.327 161.097 101.734 160.788 101.305C158.25 97.7835 153.277 95.8816 149.77 93.7398C146.725 91.88 148.558 89.9835 151.542 90.3606C158.736 91.2686 165.82 100.725 168.626 106.868C169.625 109.06 171.758 115.119 171.463 117.339C171.251 118.932 169.58 122.617 168.743 124.088C168.106 125.211 165.371 128.956 164.225 129.234C163.372 129.441 159.744 127.391 158.871 126.805C156.566 125.262 153.702 122.32 152.42 119.854C151.796 118.654 151.554 117.165 150.939 115.975C148.755 111.752 144.305 109.508 141.217 106.4C139.731 104.904 140.467 103.896 141.798 102.669C146.337 103.603 150.035 106.728 153.196 109.968L153.641 109.697C153.806 108.921 149.319 105.237 148.483 104.674C147.858 104.253 147.024 103.746 146.352 103.409C145.47 102.966 142.517 102.069 142.076 101.697L142.078 101.695Z" fill="var(--fill-0, #F3A276)"/>
<path id="Vector_7" d="M101.108 96.5626C106.847 96.6065 111.963 93.0461 117.638 92.6361C119.282 92.5171 122.229 92.3047 121.444 94.7467C117.189 95.6675 113.234 97.5438 109.267 99.2755L108.789 99.7789C109.217 99.8118 109.626 99.7862 110.048 99.7001C112.11 99.2773 115.154 97.5401 117.334 96.8024C119.926 95.9256 125.912 93.8516 123.953 99.0448C118.815 98.8032 114.295 102.008 109.428 103.162C109.115 103.099 108.981 101.349 108.842 100.89C108.725 100.502 108.302 99.4457 108.112 99.1199C107.722 98.4517 107.101 98.6311 107.259 99.2553C107.376 99.7239 107.848 100.341 108.026 100.994C108.408 102.404 108.547 104.225 108.612 105.682H109.146L109.349 103.918C109.854 103.775 110.396 103.744 110.9 103.59C113.9 102.68 120.203 99.5464 122.983 99.9729C125.105 100.299 122.842 104.046 121.663 104.536C120.237 103.385 119.044 103.747 117.449 104.244C116.679 104.483 111.03 106.623 110.839 106.923C110.722 107.108 110.746 107.264 110.757 107.463C111.086 107.793 118.057 104.626 119.602 104.643C121.147 104.659 121.332 106.215 120.666 107.279C119.044 109.863 112.648 112.256 109.721 112.951C106.922 113.618 102.278 114.136 99.4094 114.154C93.3485 114.194 89.5226 108.088 90.826 102.455C92.5723 94.9041 98.7577 92.2352 104.258 87.8346C106.554 86.7179 107.843 88.2135 107.09 90.487C106.66 91.7867 104.434 94.2671 103.336 95.1293C102.609 95.7004 101.731 95.9164 101.106 96.5608L101.108 96.5626ZM108.255 108C108.278 106.889 106.873 106.113 105.974 105.726C104.324 105.016 101.353 104.633 99.6382 105.157C99.4936 105.201 99.3966 105.671 98.9627 105.501C99.3545 106.722 99.8835 105.703 99.9787 105.679C100.37 105.584 103.74 105.973 104.33 106.118C105.86 106.493 106.847 107.447 108.255 108Z" fill="var(--fill-0, #F3A276)"/>
<path id="Vector_8" d="M53.0272 131.956C51.9508 131.628 52.9522 133.45 53.1535 133.887C54.801 137.468 57.4974 140.285 59.262 143.503C60.3219 145.436 59.5567 146.679 57.4205 145.881C56.7542 144.578 55.676 143.563 54.8632 142.364C52.9668 139.567 51.6708 136.371 49.5583 133.735C49.2654 133.953 49.3112 133.97 49.3661 134.277C49.4814 134.918 50.3418 136.406 50.6878 137.069C51.5573 138.729 52.7508 140.816 53.7869 142.368C54.3543 143.218 56.3222 145.365 56.5327 146.053C57.188 148.204 54.4111 147.356 53.3402 146.745C52.9723 146.534 51.6012 145.407 51.4218 145.088C51.1363 144.581 51.1015 143.554 50.631 142.663C49.3405 140.215 46.8217 136.437 45.0735 134.283C44.8337 133.988 43.2558 132.183 43.1203 132.124C42.4906 131.855 43.3381 133.296 43.4223 133.431C44.204 134.696 45.3426 136.007 46.1846 137.281C47.693 139.567 49.227 141.938 50.5011 144.334C49.9848 145.813 48.2696 145.412 47.1438 144.898C45.0149 143.924 43.5303 140.594 41.8993 138.974C41.0353 138.118 39.6276 137.407 38.6611 136.584C36.7756 134.975 34.9652 132.917 34.8133 130.334L34.2715 130.418L34.1122 130.625L34.8389 133.435L35.8842 135.158C28.584 131.383 31.5128 120.1 39.9059 120.508C49.3606 120.967 53.1132 128.839 57.7189 135.571C58.5371 136.769 61.4843 139.701 60.7722 141.187C60.6038 141.543 59.7453 141.976 59.4066 141.911C58.5774 141.749 53.959 133.728 53.1444 132.452C53.0583 132.317 53.0547 132.113 53.0235 131.954L53.0272 131.956Z" fill="var(--fill-0, #F3A276)"/>
<path id="Vector_9" d="M139.528 106.036C139.802 105.97 139.813 106.078 139.962 106.226C143.022 109.299 148.435 112.688 150.279 116.636C150.656 117.442 150.87 118.443 151.232 119.256C151.939 120.843 152.885 122.172 153.914 123.557L153.929 123.905C152.896 126.378 150.566 129.739 147.498 129.066C143.826 128.258 139.381 123.495 138.404 119.935C137.223 115.635 138.203 110.222 139.528 106.037V106.036Z" fill="var(--fill-0, #F3A276)"/>
<path id="Vector_10" d="M40.444 39.9218C40.3708 39.9218 40.1292 40.3831 40.1731 39.8321C40.2006 39.4953 40.6564 37.273 40.7607 37.1101C40.8651 36.9471 41.6961 36.6213 41.9524 36.4254C43.2448 35.4333 44.5701 34.3716 45.802 33.3062C50.0215 29.6579 54.1237 25.3763 57.5926 21.0233C61.2482 22.2314 64.2411 24.5489 66.5183 27.6077C66.7819 27.9628 67.7814 29.3559 67.8711 29.6506C67.9864 30.0332 67.7246 29.9069 67.4977 29.8465C66.3572 29.5481 64.6274 29.0776 63.5931 29.8318C63.3258 30.0259 63.0403 30.251 63.4027 30.5457C63.7816 30.7965 64.4223 30.4469 64.9001 30.4634C66.2657 30.5091 68.7772 31.4665 69.1268 32.9511C68.9017 33.0389 68.7186 32.7735 68.6802 32.7735H65.4639C65.2607 32.7735 63.5418 33.7272 63.2453 33.9505C61.272 35.4443 60.4574 38.0583 60.5489 40.4581L59.3279 40.2476C59.1668 39.3085 59.1467 38.3402 58.8465 37.4249C58.1802 35.3948 55.5058 32.7863 53.3201 32.5886C48.3117 32.1328 45.7105 35.4223 44.647 39.9218C43.2503 39.9437 41.8462 39.8907 40.4477 39.9218H40.444ZM56.0805 31.1645C56.335 30.1137 54.4807 29.6378 53.6661 29.5591C52.1119 29.409 49.551 29.9343 48.795 31.4738C48.6467 31.7759 48.3465 32.8449 48.9378 32.6948C49.3332 32.5941 50.3802 31.5708 50.955 31.3109C52.7966 30.478 54.2061 30.9814 56.0787 31.1626L56.0805 31.1645Z" fill="var(--fill-0, #F3A276)"/>
<path id="Vector_11" d="M47.9218 47.3647C42.108 41.6223 48.0353 30.2766 54.9511 34.1702C63.0513 38.7319 55.6284 54.9762 47.9218 47.3647ZM52.6355 36.3888C50.4663 36.8373 49.5071 40.4306 49.6499 42.3307C49.9592 46.4275 54.1109 49.5358 56.4686 45.0454C58.0136 42.1038 56.8476 35.5174 52.6355 36.3888Z" fill="var(--fill-0, #F3A276)"/>
<path id="Vector_12" d="M174.903 23.3041C172.658 22.3925 170.531 21.0507 168.113 20.6223C168.688 18.1291 168.942 15.6286 170.703 13.6516C172.464 11.6746 172.763 12.6888 174.809 13.4814C176.109 13.9848 177.519 14.3198 178.652 15.171C176.779 17.5306 175.505 20.3478 174.903 23.3023V23.3041Z" fill="var(--fill-0, #0B6DFF)"/>
<path id="Vector_13" d="M188.125 19.7309L180.459 14.9733C180.435 14.8287 181.107 13.8713 181.264 13.67C182.811 11.693 184.308 10.0528 186.258 8.46937C186.412 8.34306 186.457 8.07946 186.575 7.9916C187.492 7.31246 189.621 8.93433 189.747 9.98323C190.113 13.0366 189.236 16.8899 188.127 19.7309H188.125Z" fill="var(--fill-0, #0B6DFF)"/>
<path id="Vector_14" d="M181.31 26.8535C180.61 27.0659 180.486 26.4051 180.155 26.1927C179.184 25.5685 178.009 24.893 176.993 24.3439C176.554 24.1059 175.893 24.1571 175.792 23.5677C175.597 22.42 178.595 15.6122 179.485 15.4566L184.905 18.5758C185.606 19.0096 185.055 19.9963 184.821 20.6205C183.955 22.9197 182.545 24.7704 181.312 26.8535H181.31Z" fill="var(--fill-0, #0B6DFF)"/>
<path id="Vector_15" d="M69.4435 34.0622C69.7382 34.3569 70.4649 39.5483 70.5528 40.3684C70.6956 41.7028 70.8622 43.3357 70.9098 44.6573C70.9629 46.109 71.2704 46.8448 69.9066 47.5826C68.1054 48.5582 66.5604 48.399 64.8507 47.3208C59.0497 43.6597 60.9754 31.0289 69.4435 34.0622ZM67.6331 36.9453C66.824 36.1874 65.8611 35.9714 64.8342 36.4345C61.2646 38.0491 62.0206 46.6215 66.3426 45.9845C68.0962 45.7264 69.1232 42.7902 69.1396 41.258C69.1543 39.973 68.5941 37.8441 67.6331 36.9434V36.9453Z" fill="var(--fill-0, #F3A276)"/>
<path id="Vector_16" d="M171.152 11.8687C171.198 12.1158 171.189 12.0975 171.037 12.2403C170.649 12.6064 170.235 12.8041 169.827 13.313C168.212 15.3138 167.733 17.818 167.215 20.2636C165.163 19.7638 163.098 19.233 160.967 19.1945C161.421 17.5617 161.275 15.5609 161.967 14.0306C162.267 13.3642 164.438 10.7649 165.071 10.5397L171.152 11.8705V11.8687Z" fill="var(--fill-0, #0B6DFF)"/>
<path id="Vector_17" d="M181.914 27.0878C182.079 27.0457 182.19 26.9835 182.287 26.8352C183.829 24.5159 185.451 22.1655 185.985 19.3721C186.759 20.075 190.203 22.0337 190.538 22.7696C191.515 24.9205 187.988 29.2698 186.521 30.7251C185.807 31.1095 185.308 30.1393 184.817 29.7421C184.327 29.3449 182.115 27.8365 181.96 27.5967C181.861 27.4448 181.808 27.2434 181.914 27.0878Z" fill="var(--fill-0, #0B6DFF)"/>
<path id="Vector_18" d="M188.947 33.5625C188.2 32.7772 187.323 32.2427 186.706 31.4519C189.188 29.5939 191.045 26.7584 191.61 23.6611L195.361 27.238C195.833 28.2594 194.228 31.4738 193.635 32.4751C193.366 32.9309 191.12 35.9935 190.896 35.988C190.268 35.1697 189.657 34.3093 188.947 33.5643V33.5625Z" fill="var(--fill-0, #0B6DFF)"/>
<path id="Vector_19" d="M186.34 7.04521C186.45 7.46074 186.237 7.34359 186.113 7.45159C183.759 9.48899 181.921 11.3726 180.083 13.9262C179.951 14.1074 179.92 14.3161 179.891 14.5303C179.565 14.8195 177.859 13.7523 177.403 13.5693C176.808 13.3313 174.313 12.665 174.2 12.1158C175.741 10.245 177.724 8.33574 179.779 7.00311C180.155 6.75965 181.511 5.91576 181.829 5.83339C182.942 5.5405 185.176 6.84385 186.342 7.04521H186.34Z" fill="var(--fill-0, #0B6DFF)"/>
<path id="Vector_20" d="M196.522 28.4864C196.612 28.5669 197.664 30.348 197.756 30.5604C199.319 34.1684 196.848 39.3836 193.668 41.3514C193.531 39.5612 192.211 38.1205 191.385 36.614C193.705 34.3826 195.182 31.7868 196.167 28.75C196.227 28.5633 196.194 28.199 196.522 28.4864Z" fill="var(--fill-0, #0B6DFF)"/>
<path id="Vector_21" d="M191.585 22.7055C191.46 22.5957 191.409 22.365 191.257 22.2369C190.776 21.8323 188.853 20.6883 188.846 20.1812C188.842 19.8828 189.54 18.5044 189.686 17.9827C190.378 15.5188 190.986 12.5954 190.631 10.0821C192.09 11.1584 193.369 12.3208 193.796 14.1514C194.519 17.2468 194.246 20.994 192.862 23.8368C192.504 23.3718 192 23.0716 191.585 22.7055Z" fill="var(--fill-0, #0B6DFF)"/>
<path id="Vector_22" d="M164.361 10.2615L162.483 11.8632C160.713 13.8969 160.284 16.5695 160.253 19.1945C158.888 19.0957 157.586 19.2092 156.592 20.2306C154.474 19.1396 155.772 15.6762 156.645 14.0672C158.256 11.0962 160.905 9.42309 164.363 10.2615H164.361Z" fill="var(--fill-0, #0B6DFF)"/>
<path id="Vector_23" d="M180.622 5.25677C180.73 5.72722 180.504 5.53501 180.362 5.62837C178.357 6.9189 175.899 8.87941 174.299 10.6367C173.995 10.9699 173.673 11.3964 173.638 11.8504C171.787 11.6856 170.226 10.5946 168.295 10.6166C168.099 10.4262 169.408 9.04599 169.64 8.83548C170.898 7.69322 175.166 5.00415 176.787 4.89249C177.969 4.81194 179.395 5.40138 180.623 5.25677H180.622Z" fill="var(--fill-0, #0B6DFF)"/>
<path id="Vector_24" d="M157.394 37.5988C156.632 37.4341 155.955 37.2217 155.25 37.0625C154.817 36.5389 154.414 35.695 154.893 35.0965C154.91 35.8598 155.023 36.8519 156.041 36.7055C157.685 36.4712 158.415 32.5062 157.211 31.968C155.909 31.3841 154.965 33.9359 154.893 34.9171C154.485 34.3642 154.849 33.3977 154.981 32.7717C155.373 30.9063 156.076 28.2649 158.403 28.1386C160.51 28.0232 160.982 30.2803 160.903 31.9406C160.83 33.4892 159.4 36.0831 158.199 37.0625C157.947 37.2675 157.601 37.3297 157.394 37.597V37.5988Z" fill="var(--fill-0, #FEFEFE)"/>
<path id="Vector_25" d="M196.166 26.6979C195.895 26.7711 195.87 26.6265 195.72 26.5222C195.412 26.3098 193.675 24.5269 193.67 24.2908C194.275 22.5993 194.953 20.7066 195.074 18.9035C195.165 17.5251 194.815 16.2785 194.92 14.9056L196.791 18.3031C198.028 21.0617 197.045 23.996 196.166 26.6979Z" fill="var(--fill-0, #0B6DFF)"/>
<path id="Vector_26" d="M174.012 4.90165C172.48 6.0256 170.722 6.86399 169.282 8.12157C168.645 8.67623 167.771 9.43774 167.57 10.2578C166.043 10.1205 164.663 9.25834 163.113 9.36634C165.93 6.4686 170.107 5.40505 174.012 4.90348V4.90165Z" fill="var(--fill-0, #0B6DFF)"/>
<path id="Vector_27" d="M71.8049 45.9973C71.9715 44.6024 71.1386 42.3161 71.2502 41.0805C71.3619 39.8448 71.6987 38.6312 71.8031 37.1485C71.8214 36.8812 71.6658 36.6322 72.0685 36.7055C73.9393 39.3634 73.727 43.4455 71.8049 45.9955V45.9973Z" fill="var(--fill-0, #FEFEFE)"/>
<path id="Vector_28" d="M197.779 29.3779L196.553 27.3569C197.234 25.9511 197.911 24.5306 198.045 22.9472C198.308 23.2858 198.299 24.0308 198.317 24.4555C198.38 25.801 198.363 27.6077 198.125 28.922C198.087 29.1344 198.026 29.3449 197.779 29.3779Z" fill="var(--fill-0, #0B6DFF)"/>
<path id="Vector_29" d="M108.207 6.01096C109.534 5.73637 111.171 7.2301 112.362 7.85065C115.648 9.56405 118.881 10.7393 122.54 11.433C123.124 11.7442 123.34 12.6192 123.417 13.2306C123.695 15.42 122.893 20.2288 122.32 22.4474C120.783 28.404 116.768 33.7181 111.414 36.7349C109.443 37.846 109.042 38.3531 106.884 37.273C98.4685 33.0683 94.2198 23.9375 93.9544 14.8232C93.9306 14.0141 93.8702 12.1122 94.4999 11.6014C94.9868 11.2079 99.4295 10.2304 100.57 9.80934C101.613 9.42493 102.944 8.85013 103.945 8.36138C104.998 7.84699 107.306 6.19767 108.207 6.01096ZM101.923 32.3177C103.049 33.4527 107.37 36.9783 108.87 36.8776C109.527 36.8337 112.179 35.0855 112.851 34.5986C118.332 30.6391 121.363 24.6862 122.167 18.0065C122.284 17.0363 122.606 12.9963 122.209 12.4764C121.078 11.8943 119.681 11.7973 118.44 11.4202C114.921 10.3475 111.844 8.70186 108.685 6.86216C108.209 6.83836 107.27 7.68774 106.766 7.96598C103.069 10.0162 99.2648 11.347 95.1918 12.4746C94.7488 13.011 95.2595 17.9187 95.4115 18.9017C96.1986 23.954 98.322 28.6896 101.921 32.3177H101.923Z" fill="var(--fill-0, #232321)"/>
<path id="Vector_30" d="M171.11 46.3982C171.588 46.8833 171.564 48.9573 171.518 49.6676C171.348 52.342 170.01 54.9707 167.703 56.3967C162.312 59.7301 155.986 55.5217 156.682 49.393C156.881 49.2484 158.648 50.0245 159.105 50.0923C161.91 50.5078 165.424 49.6475 167.813 48.108C168.527 47.6485 170.38 45.6587 171.11 46.4001V46.3982Z" fill="var(--fill-0, #232321)"/>
<path id="Vector_31" d="M163.647 36.5262C163.365 39.0834 165.725 39.131 166.245 37.068C166.503 36.0429 166.702 33.4582 165.016 34.0549C164.696 34.1684 163.717 35.9953 163.647 36.3468C163.782 34.465 165.419 29.0282 168.212 30.619C170.746 32.0615 169.073 37.0424 167.652 38.8326C165.556 41.4705 162.763 39.4111 163.647 36.5262Z" fill="var(--fill-0, #FEFEFE)"/>
<path id="Vector_32" d="M154.892 35.0965C154.892 35.0379 154.888 34.9757 154.892 34.9171C154.963 33.9359 155.908 31.3842 157.209 31.9681C158.412 32.5081 157.683 36.4712 156.039 36.7055C155.022 36.8502 154.908 35.8598 154.892 35.0965Z" fill="var(--fill-0, #232321)"/>
<path id="Vector_33" d="M163.647 36.3485C163.717 35.9971 164.696 34.1702 165.016 34.0567C166.7 33.4599 166.503 36.0447 166.245 37.0698C165.725 39.1328 163.365 39.0852 163.647 36.5279C163.654 36.4693 163.636 36.4053 163.647 36.3485Z" fill="var(--fill-0, #232321)"/>
<path id="Vector_34" d="M172.168 27.2892C171.581 26.6027 170.14 25.9016 169.228 26.0993C168.771 26.1982 167.035 27.4704 167.037 26.4306C167.037 25.7607 168.771 25.206 169.324 25.1365C170.947 24.9314 172.82 26.1982 173.506 27.6498C173.724 28.1111 174.376 29.6597 173.563 29.7439C172.937 29.7476 172.674 27.8823 172.168 27.291V27.2892Z" fill="var(--fill-0, #232321)"/>
<path id="Vector_35" d="M163.111 25.6252C162.298 25.5593 161.93 24.7301 161.273 24.3384C159.363 23.2016 158.249 24.278 156.923 25.6124L156.336 25.0248C157.535 23.6061 159.111 22.3174 161.038 23.143C161.998 23.5549 163.446 24.4134 163.111 25.6234V25.6252Z" fill="var(--fill-0, #232321)"/>
<path id="Vector_36" d="M188.841 44.0314L188.66 44.652C186.811 44.9229 185.879 45.6917 185.112 47.3593C185.002 47.5973 184.664 49.3986 184.197 49.0324C183.937 48.8293 184.222 47.5973 184.321 47.2824C184.94 45.3055 186.743 43.8721 188.841 44.0314Z" fill="var(--fill-0, #232321)"/>
<path id="Vector_37" d="M50.8324 54.4105C51.6158 54.1414 53.3384 55.1647 54.1072 55.3825C56.9903 56.2026 60.4702 56.0818 63.454 56.2209C65.063 56.5687 63.2416 59.5562 62.59 60.281C59.5183 63.6913 52.7398 61.4691 50.9184 57.678C50.6072 57.03 49.9336 54.718 50.8305 54.4105H50.8324Z" fill="var(--fill-0, #232321)"/>
<path id="Vector_38" d="M108.255 108C106.847 107.447 105.86 106.493 104.33 106.118C103.741 105.973 100.37 105.581 99.9788 105.679C99.8836 105.702 99.3545 106.722 98.9628 105.501C99.3966 105.669 99.4937 105.201 99.6383 105.157C101.355 104.633 104.324 105.016 105.974 105.726C106.873 106.112 108.278 106.888 108.255 108Z" fill="var(--fill-0, #232321)"/>
<path id="Vector_39" d="M56.0805 31.1644C54.2079 30.9832 52.7984 30.4798 50.9569 31.3127C50.3821 31.5726 49.3368 32.5959 48.9396 32.6966C48.3465 32.8467 48.6485 31.7758 48.7968 31.4756C49.5528 29.9361 52.1138 29.4108 53.6679 29.5609C54.4806 29.6396 56.3368 30.1155 56.0824 31.1663L56.0805 31.1644Z" fill="var(--fill-0, #232321)"/>
<path id="Vector_40" d="M52.6354 36.3888C56.8494 35.5175 58.0136 42.1038 56.4686 45.0455C54.1109 49.5358 49.9592 46.4275 49.6498 42.3308C49.507 40.4307 50.4644 36.8373 52.6354 36.3888ZM54.5227 39.6179C53.1956 40.6705 53.2285 44.9045 55.4472 45.1077C57.8946 44.4853 56.767 37.8368 54.5227 39.6179Z" fill="var(--fill-0, #FEFEFE)"/>
<path id="Vector_41" d="M67.633 36.9454C68.594 37.846 69.1542 39.9749 69.1395 41.26C69.1231 42.7903 68.0961 45.7283 66.3425 45.9864C62.0206 46.6234 61.2645 38.0492 64.8341 36.4365C65.861 35.9715 66.8239 36.1875 67.633 36.9472V36.9454ZM67.827 39.4331C66.7708 38.5654 66.002 39.8669 65.7805 40.7749C64.889 44.4121 68.281 46.0029 68.5684 42.1313C68.6197 41.4375 68.3561 39.8669 67.827 39.4331Z" fill="var(--fill-0, #FEFEFE)"/>
<path id="Vector_42" d="M101.923 32.3177C98.3241 28.6896 96.2007 23.954 95.4135 18.9017C95.2598 17.9187 94.7509 13.011 95.1939 12.4746C99.2668 11.347 103.069 10.018 106.768 7.96598C107.272 7.6859 108.211 6.83836 108.687 6.86216C111.846 8.70186 114.923 10.3475 118.442 11.4202C119.683 11.7973 121.078 11.8943 122.211 12.4764C122.608 12.9963 122.286 17.0363 122.169 18.0065C121.365 24.6862 118.336 30.6409 112.853 34.5986C112.181 35.0837 109.527 36.8337 108.872 36.8776C107.372 36.9765 103.051 33.4508 101.925 32.3177H101.923ZM107.188 24.375C107.177 24.1608 107.07 23.9869 106.928 23.8368C106.342 23.2199 104.083 20.7688 103.391 20.8329C101.703 20.9866 102.459 22.7733 103.162 23.6647C103.6 24.2194 105.968 26.6394 106.477 26.9597C107.261 27.454 107.885 27.3185 108.531 26.7071C110.274 25.056 112.835 21.9422 114.327 19.9945C114.885 19.2659 116.406 17.6386 115.773 16.7691C115.335 16.1668 114.757 16.3297 114.241 16.694C112.923 17.6258 110.675 20.8548 109.419 22.2351C108.868 22.841 108.178 23.6263 107.618 24.1864C107.471 24.3329 107.459 24.4427 107.186 24.375H107.188Z" fill="var(--fill-0, #39CD7A)"/>
<path id="Vector_43" d="M54.5228 39.6179C56.767 37.8368 57.8946 44.4853 55.4472 45.1077C53.2286 44.9045 53.1956 40.6705 54.5228 39.6179Z" fill="var(--fill-0, #232321)"/>
<path id="Vector_44" d="M67.827 39.4331C68.356 39.8669 68.6196 41.4394 68.5684 42.1313C68.281 46.0029 64.889 44.4122 65.7805 40.7749C66.0038 39.8669 66.7708 38.5654 67.827 39.4331Z" fill="var(--fill-0, #232321)"/>
<path id="Vector_45" d="M107.188 24.375C107.46 24.4427 107.473 24.3329 107.62 24.1864C108.18 23.6263 108.87 22.841 109.421 22.2351C110.677 20.8549 112.924 17.6276 114.242 16.694C114.759 16.3279 115.335 16.165 115.775 16.7691C116.406 17.6386 114.885 19.2641 114.328 19.9945C112.837 21.9422 110.274 25.0541 108.533 26.7071C107.887 27.3203 107.263 27.454 106.479 26.9597C105.97 26.6375 103.601 24.2194 103.164 23.6647C102.461 22.7733 101.705 20.9867 103.393 20.8329C104.083 20.7706 106.344 23.2217 106.929 23.8368C107.074 23.9887 107.178 24.1608 107.189 24.375H107.188Z" fill="var(--fill-0, #FEFEFE)"/>
</g>
</svg>
