<svg width="17" height="17" overflow="visible" style="display: block;" viewBox="0 0 17 17" fill="none" xmlns="http://www.w3.org/2000/svg">
<g id="ph:star-half-fill">
<path id="Vector" d="M15.883 6.45867C15.8166 6.25449 15.6913 6.07453 15.5228 5.94147C15.3542 5.80841 15.1501 5.7282 14.9361 5.71094L11.0181 5.39484L9.50539 1.73652C9.42358 1.53718 9.28434 1.36667 9.10538 1.24667C8.92641 1.12667 8.71581 1.06259 8.50033 1.06259C8.28486 1.06259 8.07425 1.12667 7.89528 1.24667C7.71632 1.36667 7.57708 1.53718 7.49527 1.73652L5.98387 5.39418L2.06391 5.71094C1.84953 5.72907 1.64527 5.81006 1.47672 5.94376C1.30818 6.07746 1.18283 6.25793 1.1164 6.46256C1.04996 6.66718 1.04539 6.88687 1.10325 7.09408C1.16111 7.30129 1.27884 7.48682 1.44168 7.62742L4.42996 10.206L3.51953 14.0615C3.4693 14.2709 3.48223 14.4904 3.5567 14.6924C3.63117 14.8944 3.76384 15.0697 3.93793 15.1964C4.11203 15.323 4.31975 15.3952 4.53486 15.4038C4.74996 15.4125 4.9628 15.3572 5.14648 15.2449L8.5 13.181L11.8555 15.2449C12.0392 15.3565 12.2518 15.4113 12.4665 15.4023C12.6812 15.3934 12.8885 15.3211 13.0622 15.1946C13.236 15.0681 13.3684 14.893 13.4428 14.6913C13.5172 14.4897 13.5303 14.2706 13.4805 14.0615L12.5667 10.2053L15.555 7.62676C15.7192 7.48639 15.838 7.30046 15.8964 7.09252C15.9548 6.88458 15.9501 6.66398 15.883 6.45867ZM14.8644 6.82191L11.6304 9.61098C11.5566 9.67454 11.5018 9.75716 11.4718 9.84979C11.4418 9.94243 11.4379 10.0415 11.4604 10.1362L12.4485 14.3066C12.4511 14.3123 12.4513 14.3188 12.4492 14.3247C12.4471 14.3307 12.4428 14.3356 12.4372 14.3384C12.4253 14.3477 12.422 14.3457 12.412 14.3384L8.77824 12.1039C8.69445 12.0528 8.59814 12.0259 8.5 12.0262V2.125C8.51594 2.125 8.51793 2.13031 8.52324 2.14227L10.1602 6.10008C10.1975 6.19054 10.2592 6.26893 10.3383 6.32658C10.4173 6.38424 10.5108 6.41892 10.6084 6.4268L14.8524 6.76945C14.863 6.76945 14.869 6.76945 14.875 6.78871C14.881 6.80797 14.875 6.81527 14.8644 6.82191Z" fill="var(--fill-0, #F59E0B)"/>
</g>
</svg>
