<svg width="34.0364" height="23.9993" overflow="visible" style="display: block;" viewBox="0 0 34.0364 23.9993" fill="none" xmlns="http://www.w3.org/2000/svg">
<path id="Vector" d="M33.3253 3.75538C32.9339 2.27727 31.7803 1.11303 30.316 0.718279C27.6612 0 17.0182 0 17.0182 0C17.0182 0 6.37516 0 3.72032 0.717537C2.25602 1.11303 1.10248 2.27727 0.711064 3.75538C0 6.43408 0 12.0237 0 12.0237C0 12.0237 0 17.6134 0.711064 20.2929C1.10248 21.771 2.25602 22.887 3.72032 23.2817C6.37442 23.9993 17.0182 23.9993 17.0182 23.9993C17.0182 23.9993 27.6619 23.9993 30.316 23.2817C31.7803 22.8862 32.9339 21.771 33.3253 20.2929C34.0364 17.6141 34.0364 12.0237 34.0364 12.0237C34.0364 12.0237 34.0364 6.43408 33.3253 3.75464V3.75538ZM13.5369 17.0992V6.94905L22.4329 12.0245L13.5369 17.0992Z" fill="var(--fill-0, white)"/>
</svg>
