<svg width="13.2812" height="13.2812" overflow="visible" style="display: block;" viewBox="0 0 13.2812 13.2812" fill="none" xmlns="http://www.w3.org/2000/svg">
<path id="Vector" d="M13.2812 6.64062C13.2812 6.85197 13.1973 7.05466 13.0479 7.2041C12.8984 7.35354 12.6957 7.4375 12.4844 7.4375H7.4375V12.4844C7.4375 12.6957 7.35354 12.8984 7.2041 13.0479C7.05466 13.1973 6.85197 13.2812 6.64062 13.2812C6.42928 13.2812 6.22659 13.1973 6.07715 13.0479C5.92771 12.8984 5.84375 12.6957 5.84375 12.4844V7.4375H0.796875C0.585531 7.4375 0.382842 7.35354 0.233399 7.2041C0.0839563 7.05466 0 6.85197 0 6.64062C0 6.42928 0.0839563 6.22659 0.233399 6.07715C0.382842 5.92771 0.585531 5.84375 0.796875 5.84375H5.84375V0.796875C5.84375 0.585531 5.92771 0.382842 6.07715 0.233399C6.22659 0.0839563 6.42928 0 6.64062 0C6.85197 0 7.05466 0.0839563 7.2041 0.233399C7.35354 0.382842 7.4375 0.585531 7.4375 0.796875V5.84375H12.4844C12.6957 5.84375 12.8984 5.92771 13.0479 6.07715C13.1973 6.22659 13.2812 6.42928 13.2812 6.64062Z" fill="var(--fill-0, black)"/>
</svg>
