<svg width="13.335" height="12" overflow="visible" style="display: block;" viewBox="0 0 13.335 12" fill="none" xmlns="http://www.w3.org/2000/svg">
<g id="Layer_1" clip-path="url(#clip0_0_114)">
<path id="Vector" d="M13.335 2C13.335 1.475 13.12 0.96 12.75 0.585C11.995 -0.17 10.68 -0.17 9.92 0.585C9.54 0.96 9.335 1.465 9.335 2C9.335 2.535 9.545 3.035 9.92 3.415C10.135 3.63 10.39 3.78 10.665 3.88V4.67C10.665 4.845 10.595 5.02 10.47 5.14C10.345 5.265 10.175 5.335 10 5.335H7.335V3.885C7.615 3.785 7.87 3.625 8.085 3.415C8.46 3.045 8.67 2.525 8.67 2C8.67 1.475 8.455 0.96 8.085 0.585C7.715 0.215 7.195 0 6.67 0C6.145 0 5.63 0.215 5.255 0.585C4.885 0.955 4.67 1.475 4.67 2C4.67 2.525 4.885 3.04 5.255 3.415C5.465 3.625 5.725 3.785 6.005 3.885V5.335H2.67V3.89C2.95 3.79 3.205 3.63 3.42 3.42C3.79 3.05 4.005 2.53 4.005 2.005C4.005 1.48 3.79 0.965 3.42 0.59C3.05 0.215 2.54 0.005 2.005 0.005C1.47 0.005 0.965 0.21 0.585 0.585C0.205 0.965 0 1.465 0 2C0 2.535 0.21 3.035 0.585 3.415C0.8 3.63 1.055 3.79 1.33 3.885V8.11C1.05 8.21 0.795 8.37 0.585 8.585C0.205 8.96 0 9.465 0 10C0 10.535 0.21 11.035 0.585 11.415C0.965 11.795 1.465 12 2 12C2.535 12 3.035 11.79 3.415 11.415C3.795 11.04 4 10.535 4 10C4 9.465 3.79 8.965 3.415 8.585C3.2 8.37 2.945 8.21 2.665 8.11V6.665H6V8.11C5.72 8.21 5.465 8.37 5.25 8.585C4.87 8.96 4.665 9.465 4.665 10C4.665 10.535 4.875 11.035 5.25 11.415C5.62 11.79 6.14 12 6.665 12C7.19 12 7.705 11.785 8.08 11.415C8.46 11.04 8.665 10.535 8.665 10C8.665 9.465 8.455 8.965 8.08 8.585C7.865 8.37 7.61 8.21 7.33 8.11V6.665H9.995C10.52 6.665 11.035 6.45 11.41 6.08C11.79 5.705 11.995 5.2 11.995 4.665V3.875C12.27 3.775 12.53 3.625 12.745 3.41C13.12 3.04 13.33 2.52 13.33 1.995L13.335 2ZM6.195 1.53C6.32 1.405 6.49 1.335 6.665 1.335C6.84 1.335 7.01 1.405 7.135 1.53C7.26 1.655 7.33 1.825 7.33 2C7.33 2.175 7.26 2.345 7.135 2.47C6.885 2.72 6.44 2.72 6.19 2.47C6.065 2.345 5.995 2.175 5.995 2C5.995 1.825 6.065 1.655 6.19 1.53H6.195ZM1.53 1.53C1.655 1.405 1.825 1.335 2 1.335C2.175 1.335 2.345 1.405 2.47 1.53C2.595 1.655 2.665 1.825 2.665 2C2.665 2.175 2.595 2.345 2.47 2.47C2.22 2.72 1.78 2.72 1.525 2.47C1.4 2.345 1.33 2.175 1.33 2C1.33 1.825 1.4 1.655 1.525 1.53H1.53ZM2.47 10.47C2.22 10.72 1.775 10.72 1.525 10.47C1.4 10.345 1.33 10.175 1.33 10C1.33 9.825 1.4 9.655 1.525 9.53C1.65 9.405 1.815 9.335 1.995 9.335C2.175 9.335 2.34 9.405 2.465 9.53C2.59 9.655 2.66 9.825 2.66 10C2.66 10.175 2.59 10.345 2.465 10.47H2.47ZM7.335 10C7.335 10.18 7.265 10.345 7.14 10.47C6.89 10.72 6.445 10.72 6.195 10.47C6.07 10.345 6 10.175 6 10C6 9.825 6.07 9.655 6.195 9.53C6.32 9.405 6.49 9.335 6.665 9.335C6.84 9.335 7.01 9.405 7.135 9.53C7.26 9.655 7.33 9.825 7.33 10H7.335ZM11.805 2.47C11.555 2.72 11.115 2.72 10.86 2.47C10.735 2.345 10.665 2.175 10.665 2C10.665 1.825 10.735 1.65 10.86 1.53C10.985 1.405 11.155 1.335 11.33 1.335C11.505 1.335 11.675 1.405 11.8 1.53C11.925 1.655 11.995 1.825 11.995 2C11.995 2.175 11.925 2.345 11.8 2.47H11.805Z" fill="var(--fill-0, black)"/>
</g>
<defs>
<clipPath id="clip0_0_114">
<rect width="13.335" height="12" fill="white"/>
</clipPath>
</defs>
</svg>
