<svg width="19.5" height="19.5" overflow="visible" style="display: block;" viewBox="0 0 19.5 19.5" fill="none" xmlns="http://www.w3.org/2000/svg">
<path id="Vector" d="M9.75 0C7.82164 0 5.93657 0.571828 4.33319 1.64317C2.72982 2.71452 1.48013 4.23726 0.742179 6.01884C0.00422452 7.80042 -0.188858 9.76082 0.187348 11.6521C0.563554 13.5434 1.49215 15.2807 2.85571 16.6443C4.21928 18.0079 5.95656 18.9365 7.84787 19.3127C9.73919 19.6889 11.6996 19.4958 13.4812 18.7578C15.2627 18.0199 16.7855 16.7702 17.8568 15.1668C18.9282 13.5634 19.5 11.6784 19.5 9.75C19.4973 7.16498 18.4692 4.68661 16.6413 2.85872C14.8134 1.03084 12.335 0.00272983 9.75 0ZM9.375 15.375C8.92579 15.3765 8.48088 15.2875 8.06679 15.1134C7.65269 14.9393 7.27788 14.6836 6.96469 14.3616C6.89141 14.2922 6.83286 14.2088 6.79256 14.1163C6.75226 14.0239 6.73103 13.9242 6.73015 13.8233C6.72926 13.7224 6.74874 13.6224 6.78741 13.5292C6.82608 13.4361 6.88315 13.3516 6.95521 13.281C7.02727 13.2104 7.11283 13.1551 7.20677 13.1183C7.30072 13.0816 7.40111 13.0641 7.50195 13.0671C7.60279 13.07 7.70201 13.0932 7.79365 13.1354C7.8853 13.1776 7.96749 13.2378 8.03532 13.3125C8.25169 13.5332 8.51929 13.6971 8.81429 13.7894C9.10929 13.8817 9.42254 13.8997 9.72616 13.8417C10.0298 13.7837 10.3144 13.6515 10.5545 13.457C10.7947 13.2624 10.9831 13.0115 11.1029 12.7265C11.2226 12.4415 11.2701 12.1314 11.241 11.8236C11.2119 11.5159 11.1072 11.2201 10.9362 10.9626C10.7652 10.7051 10.5332 10.4939 10.2608 10.3478C9.9884 10.2016 9.68411 10.1251 9.375 10.125C9.2378 10.125 9.10324 10.0873 8.98597 10.0161C8.86869 9.94487 8.77319 9.84286 8.70987 9.72115C8.64655 9.59943 8.61783 9.46268 8.62683 9.32578C8.63584 9.18887 8.68222 9.05706 8.76094 8.94469L10.5591 6.375H7.5C7.30109 6.375 7.11033 6.29598 6.96967 6.15533C6.82902 6.01468 6.75 5.82391 6.75 5.625C6.75 5.42609 6.82902 5.23532 6.96967 5.09467C7.11033 4.95402 7.30109 4.875 7.5 4.875H12C12.1372 4.87504 12.2718 4.91271 12.389 4.98392C12.5063 5.05513 12.6018 5.15714 12.6651 5.27885C12.7285 5.40057 12.7572 5.53732 12.7482 5.67422C12.7392 5.81113 12.6928 5.94294 12.6141 6.05531L10.6453 8.86781C11.374 9.16023 11.978 9.69758 12.3532 10.3873C12.7283 11.0771 12.8513 11.876 12.7009 12.6467C12.5504 13.4173 12.136 14.1114 11.5289 14.6094C10.9219 15.1074 10.1602 15.3781 9.375 15.375Z" fill="var(--fill-0, #0B6DFF)"/>
</svg>
