<svg width="14.5" height="10" overflow="visible" style="display: block;" viewBox="0 0 14.5 10" fill="none" xmlns="http://www.w3.org/2000/svg">
<path id="Vector" d="M12.3675 2.11441C11.6962 1.44168 10.8985 0.908497 10.0201 0.545605C9.14181 0.182712 8.20033 -0.00271066 7.25 2.99419e-05H7.22437C3.24062 0.0137799 0 3.29753 0 7.32066V8.75003C0 9.08155 0.131696 9.39949 0.366117 9.63391C0.600537 9.86833 0.918479 10 1.25 10H13.25C13.5815 10 13.8995 9.86833 14.1339 9.63391C14.3683 9.39949 14.5 9.08155 14.5 8.75003V7.25003C14.5026 6.2954 14.3154 5.34978 13.9493 4.46814C13.5832 3.58649 13.0455 2.78641 12.3675 2.11441ZM13 8.50003H7.2075L10.11 4.43753C10.226 4.27575 10.273 4.0745 10.2407 3.87805C10.2083 3.68161 10.0993 3.50606 9.9375 3.39003C9.77572 3.274 9.57447 3.22699 9.37802 3.25934C9.18158 3.29169 9.00603 3.40075 8.89 3.56253L5.36375 8.50003H1.5V7.32066C1.5 7.21316 1.5 7.10628 1.50875 7.00003H2.75C2.94891 7.00003 3.13968 6.92101 3.28033 6.78036C3.42098 6.63971 3.5 6.44894 3.5 6.25003C3.5 6.05112 3.42098 5.86035 3.28033 5.7197C3.13968 5.57905 2.94891 5.50003 2.75 5.50003H1.78875C2.47062 3.41316 4.28875 1.84253 6.5 1.5494V2.75003C6.5 2.94894 6.57902 3.13971 6.71967 3.28036C6.86032 3.42101 7.05109 3.50003 7.25 3.50003C7.44891 3.50003 7.63968 3.42101 7.78033 3.28036C7.92098 3.13971 8 2.94894 8 2.75003V1.55003C9.08174 1.69198 10.1008 2.13876 10.9381 2.83819C11.7754 3.53762 12.3965 4.46084 12.7288 5.50003H11.75C11.5511 5.50003 11.3603 5.57905 11.2197 5.7197C11.079 5.86035 11 6.05112 11 6.25003C11 6.44894 11.079 6.63971 11.2197 6.78036C11.3603 6.92101 11.5511 7.00003 11.75 7.00003H12.9937C12.9975 7.08316 13 7.16628 13 7.25003V8.50003Z" fill="var(--fill-0, black)"/>
</svg>
