<svg width="76.42" height="48.607" overflow="visible" style="display: block;" viewBox="0 0 76.42 48.607" fill="none" xmlns="http://www.w3.org/2000/svg">
<path id="Vector" d="M75.94 1.5434C75.97 1.24077 76.35 0.655691 76.42 0.958317C76.4 0.827179 76.28 0.746479 76.2 0.837267C76.1 1.05919 75.99 1.49296 75.72 1.42234C75.6 1.08946 76.2 0.403502 75.67 0.514465L75.59 0.615341C75.65 0.665778 75.74 0.615341 75.72 0.776741C75.59 1.30129 75.54 0.665778 75.45 1.13989C75.11 1.38199 75.24 0.625428 75.02 0.615341C74.63 1.11972 75.12 1.02893 74.85 1.41226L74.69 1.32147C74.94 1.51313 74.39 1.81576 74.4 2.0276C74.56 1.42234 74.13 2.00742 74.49 1.33156C74.16 1.23068 73.78 0.736391 73.32 1.49296C73.29 1.19033 73.53 1.30129 73.38 1.09954C73.18 1.32147 72.91 1.27103 72.71 1.34164C72.67 1.59383 72.59 1.69471 72.48 1.66445C72.48 1.5434 72.59 1.32147 72.38 1.31138C72.31 1.48287 72.23 1.55348 72.16 1.67453C72.08 1.69471 72.08 1.58375 72.12 1.47278L71.96 1.7048L71.86 1.39208L71.83 1.48287C71.55 1.43243 71.93 1.08946 72.09 0.897792L71.94 0.917967C72.25 0.49429 71.86 0.464027 71.75 0.433765C71.87 0.504377 71.67 0.90788 71.66 1.20042C71.6 1.38199 71.47 1.28112 71.38 1.36182C71.25 1.25086 71.51 1.07937 71.55 0.867529L71.29 1.07937L71.32 1.16007C71.2 1.30129 71.01 1.58375 70.9 1.55348C70.84 1.39208 71.16 1.18024 71.13 1.04911C71.05 1.36182 70.63 1.5434 70.73 1.85611C70.63 2.07804 70.47 2.06795 70.48 1.93681C70.79 1.51313 70.04 1.7048 70.52 1.00876C70.39 1.27103 70.33 0.736391 70.28 0.736391C70.35 0.564903 70.38 0.49429 70.46 0.443852V0.332889L70.74 0C70.47 0.151313 70.35 0.312714 70.23 0.736391C69.99 0.685953 70.21 0.53464 70.01 0.393414C70.05 0.595165 70.01 0.645603 69.92 0.665778C69.97 0.766654 69.97 1.03902 70.11 1.08946C69.79 1.08946 69.64 2.00742 69.75 2.0276C69.62 2.09821 69.44 2.40084 69.32 2.34031L69.38 1.82585L69.16 2.33022C69.03 2.44119 68.93 2.28987 69.02 2.06795C69.36 1.79558 69.21 1.00876 69.33 0.867529C69.23 1.04911 69.17 1.33156 69.07 1.35173C69.09 1.42234 69.07 1.5434 68.98 1.64427C68.86 1.45261 68.63 1.79558 68.74 1.36182L68.84 1.32147H68.75V1.29121L68.64 1.34164C68.79 1.14998 68.66 1.09954 68.68 0.968405L68.54 1.21051L68.51 0.726304C68.51 0.726304 68.48 0.746479 68.46 0.756566L68.44 0.706128V0.776741C68.19 0.94823 67.89 1.04911 67.72 1.29121L67.7 1.08946C67.6 1.27103 67.45 1.80567 67.28 1.80567C67.38 1.33156 66.92 1.71488 67.04 1.14998C66.71 1.91663 66.67 1.04911 66.47 1.87628C66.26 1.79558 65.95 1.87628 66.12 1.26094L66.01 1.69471C66.09 1.40217 65.87 1.66445 65.78 1.66445C65.68 2.0276 65.37 1.66445 65.16 2.38066C64.97 2.3504 65.2 1.91663 65.3 1.73506C65.07 2.03769 64.93 2.24952 64.72 2.04777C64.69 1.96707 64.44 1.95698 64.47 1.74515L64.64 1.45261L64.22 2.12847C64.3 1.63418 63.89 2.39075 63.7 2.27979C63.72 2.32014 63.7 2.4311 63.7 2.4311H63.46C63.49 2.08812 63.79 1.84602 63.82 1.63418C63.45 1.61401 62.91 2.41092 62.86 2.8346C62.8 2.56224 62.81 2.5925 62.63 2.45128L62.75 2.34031C62.31 2.5925 62.53 1.64427 62.03 1.65436C62.11 1.31138 62.4 1.36182 62.36 1.06928C62.21 0.998668 61.85 1.08946 61.65 1.42234C61.7 1.88637 61.33 1.89646 61.33 2.28987C61.12 2.36049 61.33 1.89646 61.23 1.72497C61.27 1.79558 61.08 2.41093 61 2.64294L60.62 2.76399C60.62 2.65303 60.77 2.44119 60.68 2.39075C60.59 2.61268 60.39 2.73373 60.35 2.65303C60.3 2.80434 60.07 2.89513 59.98 2.98592C59.9 2.98592 59.9 2.49163 59.74 2.89513C59.83 2.81443 59.79 2.996 59.84 2.98592L59.55 3.28854C59.83 2.84469 59.21 3.00609 59.49 2.72364C59.49 2.49163 59.32 2.54206 59.2 2.6732C59.37 2.5925 59.2 2.90522 59.2 3.01618C58.98 3.11705 58.89 3.17758 58.74 3.1574C58.6 3.02627 58.74 2.9153 58.84 2.64294L58.46 2.79425C58.33 2.69338 58.73 2.44119 58.49 2.39075C58.55 2.57233 58.2 3.18767 58.04 3.18767C58.06 3.29863 57.99 3.50038 58.16 3.22802C58.16 3.32889 58.11 3.48021 58.01 3.64161C57.82 3.32889 57.9 2.6732 57.38 2.8346C57.19 2.74381 56.86 3.37933 56.91 2.88504C56.91 2.90521 56.89 2.95565 56.89 2.95565L56.56 2.97583C56.53 3.26837 56.84 2.87495 56.75 3.16749C56.41 3.37933 56.45 3.12714 56.19 3.47012C56.31 3.47012 56.52 3.34907 56.4 3.70213C56.06 3.92406 56.05 3.57099 55.74 3.54073C55.74 3.46003 55.77 3.35915 55.82 3.27845L55.9 3.16749C55.86 3.19775 55.84 3.24819 55.82 3.27845C55.62 3.47012 55.37 3.38942 55.13 3.50038L55.11 3.1574C55.55 2.53198 55.4 3.25828 55.76 2.8346C55.76 2.50171 55.33 2.94556 55.19 2.85478C55.1 3.2381 54.9 3.48021 54.8 3.65169C54.55 3.60126 54.41 3.94423 54.21 4.07537C54.1 3.8938 54.45 3.88371 54.21 3.76266C53.78 3.80301 53.93 5.32623 53.68 4.47887L53.79 4.11572C53.65 4.2166 53.33 4.39817 53.41 4.08546C53.39 4.55957 53.07 4.19642 53.22 4.52931V4.43852C53.32 4.35782 53.3 4.5394 53.31 4.64027C53.14 5.22535 52.88 5.07404 52.63 5.33632C52.66 5.28588 52.71 5.33631 52.73 5.37667C52.41 5.63894 52.64 5.25561 52.38 5.185C52.38 4.99334 52.38 5.56833 52.18 5.5078C52.02 5.40693 52.24 5.14465 52.27 4.87229C52.31 4.99334 52.38 5.09421 52.47 5.0236C52.42 4.84202 52.36 4.82185 52.28 4.85211C52.22 4.88237 52.15 4.93281 52.06 4.95299L52.1 4.50914C52.1 4.7008 51.94 4.72097 51.81 4.65036C52 4.7815 51.93 5.19509 51.97 5.63894C52.11 5.41702 52.16 5.57842 52.14 5.73982C51.71 6.17358 51.78 5.185 51.46 5.77008C51.53 5.48763 51.5 5.41702 51.7 5.17491C51.63 5.23544 51.6 5.00343 51.5 4.9429L51.54 4.99334C51.23 5.15474 50.89 5.60868 50.75 5.31614C50.75 5.37666 50.72 5.44728 50.75 5.45737C50.4 5.71964 50.56 5.51789 50.31 5.41702L50.41 5.63894C50.26 6.02227 50.18 5.63894 50.03 5.7499C49.98 5.49772 50.18 5.36658 50.23 5.22535C50.13 5.31614 50.13 4.73106 49.91 5.22535C50.01 5.13456 50.11 5.08413 50.09 5.24553C49.81 5.37667 49.72 5.46745 49.54 5.44728L49.64 5.6692C49.34 5.96174 49.45 5.53807 49.23 5.63894C49.23 5.78017 49.23 5.84069 49.03 5.98192V5.70955C48.77 5.97183 48.99 5.85078 48.75 6.32489C48.5 6.42577 48.44 6.00209 48.35 5.90122C48.11 6.37533 47.8 6.32489 47.51 6.74857C47.38 6.77883 47.33 6.54682 47.13 6.79901C47.2 6.41568 46.92 6.75866 46.97 6.27446C47.23 5.82052 47.14 6.71831 47.31 6.08279C47.31 6.01218 47.09 6.13323 47 6.03236L47.05 6.09288C46.32 6.69813 46.42 5.15474 45.6 5.99201C45.55 6.21393 45.7 6.08279 45.63 6.28454C45.36 6.567 45.52 6.00209 45.29 6.14332L44.26 6.68805C44.66 6.86962 44.01 7.14199 43.96 7.36391L43.89 7.0512C43.67 7.36391 43.99 7.14199 43.87 7.36391L43.62 7.31348L43.52 7.90864C43.21 7.98934 42.9 8.13057 42.73 7.80777C41.72 8.50381 40.46 8.81652 39.45 9.28055V9.2402C39.09 9.38142 39.07 10.0876 38.82 9.82528C38.85 9.85554 38.82 9.98668 38.82 10.0674C38.47 10.3196 38.04 10.5718 37.75 10.9248C37.64 10.8441 37.84 10.602 37.84 10.5213C37.73 10.6625 37.63 11.0055 37.43 11.0257C37.58 10.6525 37.14 10.8441 36.97 10.9551C37.09 11.0257 37.34 10.8139 37.28 11.1568C37.02 11.5301 36.97 11.3182 36.82 11.2476L36.91 11.4595C36.45 11.4796 36.48 12.1757 35.99 12.1151C35.96 11.9537 36.19 11.9235 36.16 11.7621C35.66 11.7823 35.22 12.7305 34.66 12.7809C34.69 12.8011 34.72 12.8818 34.72 12.8818L34.44 13.0129C34.54 13.0129 34.37 13.2954 34.44 13.3862C34.41 13.598 34.3 13.5173 34.18 13.6081C34.01 13.3458 34.49 12.8112 34.08 12.8818C34.2 13.3257 33.65 13.3156 33.72 13.5778C33.04 14.1427 32.59 14.0116 31.93 14.405C31.91 14.6875 31.77 14.9094 31.75 15.1919L31.6 15.1112V15.1919C31.37 15.5147 31.22 15.2927 31.38 15.0204C31.49 14.9296 31.53 15.1616 31.64 14.7783C31.47 15.1414 31.16 14.8388 31.01 15.3432C31.04 15.3633 31.01 15.4239 31.01 15.4945L30.81 15.6054L30.83 15.2524C30.06 15.8778 29.19 16.4629 28.58 16.826C28.27 17.1892 27.79 17.5523 27.71 17.8651C27.32 18.2585 26.81 18.4199 26.55 18.5409C26.39 18.9041 25.78 18.8839 25.83 19.3883L25.57 19.2874V19.4286C25.37 19.4286 25.47 19.6001 25.27 19.7313L25.24 19.4387C25.04 19.7313 24.62 19.7615 24.29 20.1448V20.2155C24.16 20.3062 24.11 20.1549 23.98 20.3869V20.6593C23.02 20.7198 22.19 22.1825 21.18 22.7373C20.69 23.8066 20.2 23.0904 19.76 24.4321C19.58 24.7145 19.41 24.2908 19.67 24.0891C17.96 25.4005 16.16 27.4583 14.44 28.8706C13.23 30.2828 11.6 31.685 10.93 32.9359C10.88 32.8652 10.98 32.6837 11.02 32.5727C10.74 32.7341 10.93 32.9359 10.93 33.0569C10.77 33.1073 10.56 33.2788 10.41 33.2082L10.5 32.9661C9.67 34.0959 8.64 34.6709 8.01 36.0428L7.96 35.8612C7.65 36.1639 7.49 36.5976 7.29 37.0112C7.19 36.749 7.41 36.3454 7.07 36.2042L7.52 36.0126C7.4 36.0428 7.19 36.1336 7.07 36.1134C7.14 36.0226 7.4 35.9218 7.53 35.8814H7.29C7.74 35.7099 7.06 35.7705 7.6 35.5384C7.42 35.5788 7.34 35.488 7.51 35.3871C7.48 35.367 7.15 35.5384 7.24 35.4275C7.59 35.3165 7.45 35.3266 7.63 35.1955C7.66 35.1148 7.31 35.2156 7.39 35.1047L7.29 35.1652C7.19 35.1652 7.29 35.0341 7.44 34.9332C7.56 34.8626 7.61 34.9332 7.74 34.8323C7.59 34.8525 7.47 34.8323 7.29 34.9635C7.19 34.9433 7.36 34.8021 7.57 34.7314L7.66 34.7516L7.64 34.4692C7.57 34.56 7.52 34.4994 7.43 34.5196C7.71 34.3885 7.8 34.2472 7.86 34.2069L7.59 34.2573L7.7 34.1968L7.61 34.217L7.86 34.0455C7.72 34.0758 7.54 34.0657 7.75 33.9446H7.9C7.9 33.9446 7.69 33.9144 7.93 33.7933C7.87 33.8336 7.82 33.8336 7.72 33.8841C7.63 33.7529 7.76 33.531 7.92 33.3192L7.88 33.3494C7.82 33.2687 8.1 33.0872 8.22 32.9964C8.25 32.8148 8.22 32.5324 8.18 32.3306L8.43 32.2096L8.22 32.2802C8.35 32.028 7.87 31.9775 7.94 31.7657L8.15 31.6951C7.94 31.6951 8.37 31.5236 7.98 31.6446C8.11 31.4631 8.2 31.3319 8.39 31.1302C8.14 31.2311 8.24 31.11 8.15 31.0898C8.68 30.8175 8.09 30.989 8.37 30.7973L8.31 30.8376C8.35 30.7469 8.47 30.6359 8.47 30.6359L8.35 30.6762C8.26 30.5955 8.47 30.5148 8.47 30.4442C8.37 30.4039 8.19 30.5451 8.23 30.4442C8.38 30.3736 8.54 30.2627 8.66 30.1719C8.87 30.1416 8.3 30.2223 8.57 30.0508L8.45 30.1214L8.48 30.0206C8.48 30.0206 8.45 30.0407 8.42 30.0508C8.57 29.8995 8.28 30.0004 8.49 29.7885L8.43 29.8289C8.5 29.6675 8.59 29.4859 8.56 29.385L8.45 29.4254L8.76 29.1631L8.58 29.2539V29.1631C8.58 29.1631 8.52 29.2035 8.49 29.2035C8.92 28.921 8.2 29.0824 8.33 28.8908L8.27 28.9311C8.06 28.9815 8.18 28.8504 8.06 28.8504C8.24 28.7798 8.49 28.6486 8.55 28.5679L8.3 28.689L8.34 28.6184H8.31C8.07 28.7193 8.31 28.5679 8.17 28.5982C8.24 28.4872 8.38 28.5579 8.38 28.4872C8.1 28.5881 8.56 28.2653 8.21 28.3662L8.47 28.0636L8.32 28.1342C8.44 28.0434 8.62 27.9526 8.54 27.9324C8.54 27.9123 8.51 27.993 8.42 28.0333C8.25 28.003 8.79 27.7004 8.44 27.7811C8.44 27.7206 8.62 27.6601 8.72 27.6298C8.47 27.7105 8.69 27.5088 8.67 27.4482L8.46 27.5592C8.58 27.4886 8.51 27.4785 8.51 27.4482C8.48 27.4785 8.46 27.4987 8.35 27.5491C8.39 27.4482 8.3 27.3776 8.43 27.2566H8.49C8.49 27.2566 8.49 27.2364 8.47 27.2566C8.49 27.2566 8.5 27.2566 8.52 27.2364C8.42 27.186 8.58 26.964 8.72 26.8026C8.62 26.8732 8.6 26.964 8.44 26.9539C8.54 26.8026 8.75 26.7925 8.9 26.6311C8.78 26.6614 8.74 26.7522 8.57 26.7623L8.88 26.5504L8.63 26.6513C8.96 26.2982 8.05 26.3588 8.72 25.925L9.02 25.8241C8.7 25.8645 9.06 25.6526 8.61 25.7535L8.72 25.693L8.48 25.7434L8.84 25.582L8.59 25.6829L8.72 25.582C8.66 25.6123 8.6 25.6224 8.54 25.6526C8.91 25.4005 8.3 25.6526 8.61 25.4206C8.58 25.4509 8.51 25.4912 8.49 25.4912C8.77 25.2592 8.38 25.3904 8.49 25.2088L8.31 25.2996C8.25 25.2491 8.38 25.1382 8.38 25.1382L8.52 25.1079L8.27 25.1281L8.42 25.0272L8.31 25.0676C8.53 24.8557 8.29 25.007 8.5 24.7952C8.44 24.8356 8.29 24.9062 8.22 24.8961C8.32 24.8356 8.22 24.7649 8.32 24.6641C8.29 24.7145 8.2 24.7246 8.17 24.7246C8.17 24.6842 8.35 24.5834 8.48 24.5632C8.39 24.5632 8.28 24.6035 8.33 24.543C8.39 24.5228 8.43 24.5027 8.45 24.4825C8.26 24.5228 8.55 24.2707 8.23 24.4825C8.11 24.4825 8.35 24.311 8.35 24.311H8.5V24.079C8.38 24.1193 8.32 24.1698 8.22 24.1799L8.32 24.0891L8.26 24.1294C7.88 24.1496 8.63 23.8066 8.18 23.847L8.39 23.7764L8.29 23.8066C8.45 23.7057 8.24 23.7461 8.42 23.6755C8.19 23.7562 8.4 23.5645 8.3 23.5343C8.48 23.4435 8.51 23.4233 8.55 23.3527C8.43 23.3022 8.35 23.3224 8.04 23.4031C8.32 23.2215 8.3 23.0904 8.38 22.9694C8.44 22.9391 8.2 23.0198 8.13 23.0904C7.92 23.0702 8.49 22.7777 8.17 22.7575L8.38 22.6869C8.38 22.586 7.93 22.8685 8.11 22.6869L8.29 22.6365C8.36 22.5255 8.37 22.5255 8.36 22.4751C8.17 22.5659 8.28 22.4145 8.11 22.5457L8.18 22.4549L8.12 22.4852C8.15 22.4246 8.22 22.3742 8.33 22.3439H8.19L8.46 22.2431C8.43 22.1825 8.28 22.2834 8.14 22.2834L8.32 22.1624L8.26 22.1926L8.41 22.0716C8.29 22.1724 7.98 22.3137 7.87 22.2935C7.93 22.2027 8.26 22.0817 8.15 22.0514C7.99 22.233 7.98 21.9808 7.66 22.2128C7.84 21.9909 7.76 21.9909 8.03 21.7588C7.43 22.001 8.05 21.5974 8.01 21.5571L7.85 21.6075L7.95 21.4159C7.82 21.5369 7.74 21.4663 7.59 21.5268L7.92 21.3049C7.81 21.3654 7.65 21.426 7.5 21.5167C7.39 21.547 7.43 21.5167 7.5 21.4562H7.47L7.51 21.3453C7.39 21.3755 7.26 21.5268 7.18 21.4966C7.21 21.4461 7.21 21.4159 7.33 21.3553C7.3 21.3856 7.23 21.4058 7.21 21.426C7.4 21.2545 8 20.9821 7.65 20.9821C7.55 21.1132 7.44 21.1032 7.19 21.2343C7.32 21.1132 7.05 21.2646 6.98 21.2343L7.43 21.0527C7.37 20.9922 7.07 21.1637 6.92 21.1939C7.02 21.1334 6.92 21.0931 7.1 21.0426C7.05 21.0426 7.04 20.9922 6.86 21.1132C6.75 21.0628 7.07 20.9619 7.19 20.8913C6.8 20.8913 7.16 20.8005 6.81 20.7602C6.65 20.8611 6.29 21.0931 6.65 21.0225C6.47 21.1233 6.15 21.1839 6.2 21.1233C6.15 21.1738 6.12 21.2141 6.16 21.2141C6.31 21.1536 6.62 21.0426 6.55 21.1637C6.3 21.3453 5.85 21.3755 5.91 21.5369H5.97C5.97 21.5369 5.97 21.4865 6.09 21.426C6.45 21.2746 5.99 21.5369 6.33 21.3856C6.47 21.436 5.96 21.6781 5.92 21.7689C6.24 21.7286 6.22 21.5672 6.46 21.5369L6.39 21.6378C6.55 21.4562 6.71 21.5571 6.88 21.4764C6.46 21.658 6.85 21.5874 6.39 21.7185C6.29 21.89 5.93 22.233 6.44 22.1321C6.23 22.2531 6.33 22.1119 6.17 22.2531C6.32 22.2531 6.26 22.3742 6.28 22.4347C6.47 22.3338 6.53 22.3338 6.49 22.3944C6.39 22.4347 6.25 22.4852 6.21 22.5759C6.32 22.5356 6.35 22.5457 6.45 22.5255C6.45 22.5558 6.37 22.6062 6.3 22.6264H6.44L6.19 22.7777L6.25 22.7474C6.18 22.8887 5.98 22.8584 5.86 22.8685V22.929C5.59 22.9694 5.53 23.1408 5.49 23.2014C5.56 23.1106 5.82 23.0501 6.04 22.9391C6.16 22.8887 6.08 22.9895 6.13 22.9895C6.04 23.0803 5.95 23.0299 5.8 23.0904L5.91 23.1207L5.97 23.0803C6.07 23.0803 6.24 23.04 6.21 23.1005C6.09 23.1913 5.97 23.1408 5.88 23.2014C6.09 23.1207 6.18 23.2316 6.42 23.0601C6.57 23.0198 6.54 23.1005 6.45 23.1408C6.17 23.1711 6.23 23.4132 5.78 23.4737C5.96 23.4233 5.56 23.6553 5.56 23.6755C5.45 23.7158 5.4 23.7259 5.37 23.7158C5.34 23.736 5.28 23.7663 5.28 23.7663H5.07C5.16 23.8369 5.24 23.8268 5.55 23.7158C5.48 23.8268 5.41 23.8066 5.27 23.9478C5.42 23.8571 5.45 23.8571 5.46 23.8772C5.54 23.8066 5.73 23.7259 5.79 23.6351C5.75 23.7663 6.39 23.4939 6.42 23.4334C6.45 23.4636 6.66 23.4334 6.59 23.504L6.23 23.6654L6.56 23.5645C6.62 23.5645 6.48 23.6856 6.34 23.7259C6.2 23.6755 5.59 24.0386 5.5 24.0487C5.59 24.0285 5.69 23.9882 5.76 23.968C5.76 23.968 5.82 23.968 5.81 23.968C5.87 23.9378 5.95 23.8974 6.01 23.8873C5.83 24.0185 6.1 23.9781 5.72 24.1093V24.1496C5.62 24.1496 5.56 24.2404 5.46 24.2707L5.6 24.2404L5.24 24.4421C5.34 24.4724 5.35 24.5935 5.53 24.5632L5.38 24.654C5.5 24.6237 5.87 24.4926 5.83 24.5632C5.5 24.6943 5.7 24.7649 5.31 24.9163C5.82 24.775 5.19 25.1079 5.76 24.886C5.66 24.997 5.66 25.118 5.24 25.2693L5.54 25.1684C5.41 25.2189 5.43 25.2391 5.44 25.2592C5.39 25.2794 5.34 25.3097 5.25 25.35C5.38 25.3097 5.43 25.2794 5.44 25.2693C5.44 25.2693 5.46 25.2895 5.46 25.2996C5.71 25.2088 5.36 25.4912 5.85 25.3198C5.78 25.4206 5.52 25.4711 5.4 25.5013C5.58 25.4812 5.7 25.4812 5.51 25.6325C5.45 25.6728 5.39 25.7939 5.23 25.8645L5.06 25.8947L5.48 25.8342C5.12 25.9855 5.6 25.8847 5.48 26.0158C5.52 25.9956 5.59 25.9553 5.59 25.9553L5.52 26.0662C5.28 26.1671 5.17 26.1167 5.01 26.1772C4.91 26.3487 5.4 26.2882 5.7 26.1772C5.49 26.2982 5.52 26.2781 5.36 26.4294L5.3 26.3991C5.39 26.5 4.72 26.7421 4.59 26.9842C4.34 27.0851 4.48 26.9237 4.23 27.0548C4.13 27.1658 4.1 27.2969 4.31 27.2667C4.67 27.0851 4.57 27.2667 4.87 27.1053C4.87 27.186 4.57 27.2566 4.42 27.3574C4.48 27.3171 4.91 27.186 5.06 27.1254V27.2566C4.96 27.2969 4.84 27.307 4.77 27.3574C4.91 27.3171 4.96 27.3574 4.87 27.418C4.97 27.3776 4.98 27.4482 5.02 27.4785C4.98 27.5188 4.62 27.6903 4.89 27.6197C4.86 27.5995 4.99 27.5289 4.99 27.5289L5.13 27.5592C4.85 27.5895 4.82 27.8316 4.67 27.7912C4.49 27.882 4.49 27.9324 4.55 27.9526C4.55 27.8921 4.73 27.8618 4.82 27.8316C4.82 27.9223 4.84 27.9324 4.78 28.003C4.63 28.1241 4.6 28.0938 4.42 28.1342V28.2653C4.29 28.3763 4.23 28.2653 4.11 28.3965C4.26 28.3057 4.62 28.2552 4.58 28.3258C4.68 28.2552 4.8 28.225 4.66 28.2451C4.76 28.2048 4.84 28.1846 4.93 28.1745C4.62 28.3864 4.14 28.578 4.1 28.7697C3.99 28.8807 4.31 28.8504 4.01 28.9715L3.93 29.1228C4.14 29.032 3.93 29.0219 4.14 28.9614C4.2 29.0522 4.01 29.1127 4.2 29.1228C4.23 29.0622 4.2 29.0118 4.45 28.9412C4.51 29.0421 4.23 29.153 4.11 29.3144C4.05 29.3447 3.99 29.3649 3.93 29.375C4.01 29.4052 3.85 29.5565 3.85 29.6372L3.58 29.7583C3.26 29.7583 3.76 29.5767 3.56 29.5464C3.28 29.6675 3.49 29.7179 3.37 29.8188C3.65 29.7179 3.76 29.7381 3.85 29.728C3.73 29.8491 3.94 29.8087 3.96 29.8592C3.78 29.9802 3.9 29.8087 3.71 29.96C3.59 30.1517 4.83 29.5565 4.07 29.96L3.83 30.0306C3.83 30.0306 3.89 30.1618 3.67 30.2324C4.03 30.0811 3.63 30.3635 3.94 30.182L3.88 30.2122C3.88 30.2122 3.97 30.1517 4.06 30.1113C4.45 29.9903 4.23 30.182 4.35 30.2122C4.32 30.2122 4.39 30.1719 4.41 30.1517C4.5 30.2324 4.29 30.2425 4.13 30.3938C3.98 30.4644 4.43 30.2727 4.3 30.3938C4.15 30.5048 4.02 30.4947 3.81 30.5653V30.646L3.48 30.7771C3.63 30.7065 3.58 30.7771 3.48 30.8679C3.66 30.7267 3.97 30.6056 4.33 30.4341C4.22 30.4341 4.37 30.3434 4.48 30.3131C4.66 30.3837 3.91 30.6762 4.23 30.646C4.03 30.7267 3.96 30.7569 3.86 30.7368C3.86 30.7569 3.68 30.8376 3.59 30.9083L3.65 30.8679C3.65 30.9688 3.87 30.9789 3.58 31.1504C3.62 31.1302 3.68 31.11 3.69 31.0999C3.75 31.1806 3.66 31.1806 3.47 31.3319L3.68 31.2109C3.92 31.1605 3.58 31.3319 3.61 31.3723C3.4 31.4833 3.37 31.4227 3.29 31.453C3.32 31.4732 2.87 31.6648 3.17 31.6144C3.14 31.5942 3.15 31.5539 3.27 31.5135C3.27 31.6043 3.3 31.6144 3.2 31.7254L3.41 31.6043C3.52 31.6547 3.23 31.7455 3.23 31.8262C3.33 31.7758 3.39 31.7556 3.4 31.8262L3.19 31.917C3.28 31.9675 3.29 31.8868 3.55 31.8464C3.51 31.9473 3.15 32.1188 3.03 32.1995C3.3 32.1591 3.12 32.3508 3.32 32.3508C3.29 32.4113 3.08 32.5021 3.2 32.5223C2.92 32.6231 3.08 32.6332 2.71 32.7745C2.48 32.7745 3.14 32.5324 2.71 32.6635C2.65 32.6635 2.65 32.7543 2.53 32.835L2.59 32.7946C2.72 32.9762 1.58 33.4301 1.85 33.5714C2 33.5108 1.97 33.4806 2.1 33.4705C2.19 33.531 1.82 33.6218 1.82 33.7025L1.74 34.0657C2.08 33.7933 1.99 34.0455 2.13 34.0051L1.86 34.1262C2.01 34.1262 1.98 34.0354 2.11 34.0253L1.96 34.1665L2.38 34.0354C2.28 34.1766 2.25 34.2876 1.91 34.4793C1.93 34.792 1.52 35.367 1.36 35.7503H1.4C1.3 35.9218 1.85 35.7099 1.51 35.9218C1.55 35.8915 1.63 35.8814 1.69 35.8512C1.69 35.952 1.65 36.1034 1.77 36.1639C1.66 36.2446 1.56 36.2042 1.5 36.2345C1.57 36.2345 1.77 36.1941 1.67 36.3051C1.46 36.3354 1.36 36.4968 1.36 36.5674C1.48 36.4766 1.46 36.4161 1.69 36.3454C1.83 36.3757 1.66 36.4564 1.51 36.5674L1.72 36.4564C1.47 36.6884 2.04 36.4564 1.72 36.759C1.57 36.8297 1.7 36.6985 1.55 36.759C1.27 37.0213 1.75 37.0011 1.47 37.2735C1.51 37.2432 1.59 37.2029 1.59 37.2029L1.53 37.3038C1.53 37.3038 1.71 37.2533 1.82 37.2029C1.97 37.1625 1.86 37.2432 1.85 37.2836C1.54 37.445 1.4 37.3441 1.21 37.5459C1.64 37.3542 1.3 37.6467 1.53 37.5459C1.58 37.7476 1.19 38.0402 1.08 38.2823C1.29 38.2116 1.38 38.2217 1.59 38.1713L1.44 38.2722L1.5 38.2419C1.61 38.2722 1.34 38.4235 1.22 38.4033C1.22 38.363 1.43 38.2823 1.2 38.3226C1.38 38.3024 0.95 38.5546 1.25 38.5042C1.28 38.5042 1.31 38.5042 1.37 38.4638L1.33 38.5344L1.05 38.6353C1.07 38.8875 0.94 39.2103 0.84 39.4423C0.93 39.5129 0.89 39.6844 1.11 39.634C1.17 39.7349 0.95 39.977 0.85 40.098C1.02 40.098 0.59 40.4208 1.02 40.2796L0.77 40.4511L0.89 40.4107C0.75 40.5217 0.96 40.4309 0.92 40.5015L0.67 40.6024C0.75 40.6427 0.51 40.8647 0.57 40.9454L0.63 40.9151C0.6 40.9756 0.45 41.0261 0.53 41.0463L0.74 40.9756C0.0900002 41.5002 0.68 41.5809 0.37 42.0147C0.85 42.0147 -0.0700001 42.4787 0.65 42.3879C0.74 42.4182 0.28 42.63 0.32 42.519C0.0800001 43.1646 0.3 43.6791 0.0300001 44.3348C0.16 44.708 -0.07 45.3234 0.34 45.4242C0.24 45.4646 0.19 45.4646 0.13 45.4646C0.03 45.5856 0.34 45.4343 0.43 45.4142C0.33 45.4848 0.31 45.5554 0.12 45.6764H0C0.17 45.9286 -0.23 46.3826 0.27 46.4633L0.09 46.5339C0.02 46.7558 0.78 46.5742 0.43 46.9172C0.58 46.8264 0.53 46.7861 0.74 46.7558C0.42 47.1694 1.35 47.0282 1.51 47.2904C1.51 47.2904 1.51 47.2602 1.56 47.2299C1.65 47.3812 1.78 47.4821 1.67 47.7242C1.77 47.8553 1.73 47.5628 1.86 47.3913C1.9 47.4115 1.88 47.4619 1.95 47.4518C1.95 47.4518 1.71 47.5729 1.83 47.5628C1.8 47.5931 1.9 47.4922 1.95 47.4922L1.88 47.704C2.02 47.6435 2.05 47.704 2.18 47.6032C2.21 47.6032 2.23 47.6032 2.25 47.6032C2.27 47.6032 2.3 47.6032 2.32 47.6233C2.3 47.6536 2.23 47.704 2.22 47.7242L2.03 47.7847C2.12 47.7847 2.19 47.7646 2.27 47.7343C2.3 47.7343 2.33 47.7343 2.37 47.704L2.15 47.8856C2.33 47.8654 2.15 47.8654 2.33 47.7948L2.29 47.8957C2.41 47.8453 2.62 47.7646 2.6 47.815C2.54 47.9058 2.36 47.8352 2.45 47.9159C2.42 47.9764 2.75 47.7746 2.63 47.7646H2.82C2.88 47.7646 3.15 47.6334 3.13 47.7343L3.16 47.6839C3.37 47.7141 2.84 47.936 2.67 48.0268C2.79 47.9966 2.87 47.9966 2.92 48.0268L2.53 48.1782C2.8 48.0773 2.45 48.2891 2.61 48.2185L2.68 48.1277C2.92 48.1277 3.35 47.8453 3.46 47.9159C3.67 47.8352 3.32 47.9159 3.4 47.8251C3.51 47.8049 3.61 47.7545 3.7 47.7141C3.64 47.7545 3.6 47.8049 3.6 47.8049L3.7 47.7141C3.78 47.6637 3.86 47.6132 3.95 47.5729C4.68 47.8453 5.49 47.6839 5.49 47.6839C5.49 47.6839 5.63 47.3308 5.59 47.6536C5.59 47.472 5.66 47.3611 5.7 47.3611C5.7 47.5426 5.77 47.4518 5.8 47.4922V47.4418C5.86 47.3308 5.86 47.5729 5.9 47.6536L5.98 47.4619C5.98 47.4619 6.07 47.5023 6.07 47.6435C6.24 47.6032 6.47 47.5628 6.57 47.8453C6.65 47.5124 6.74 47.6738 6.8 47.6637L6.83 47.5023V47.7141C6.85 47.6032 6.91 47.5729 6.93 47.472L6.91 47.6334C6.93 47.4216 6.95 47.8453 6.99 47.4418C7.05 47.704 7.09 47.7646 7.16 47.926V47.7847C7.2 48.0974 7.28 47.3207 7.31 47.7444C7.42 47.9461 7.6 47.7948 7.73 47.6637C7.76 47.6637 7.76 47.7343 7.78 47.7746L7.68 47.926L7.79 47.8453V47.7948C7.89 47.7646 7.98 47.9461 8.06 48.0369C8.3 47.7545 8.5 48.0369 8.74 47.704L8.71 48.0571C8.73 47.9562 8.74 47.7847 8.8 47.704C8.83 47.7545 8.8 47.9663 8.8 48.0571L8.88 47.8654C8.84 48.2185 9.03 47.6738 8.99 48.0974C9.01 47.9562 9.1 47.8755 9.1 48.0168C9.12 47.9865 9.13 47.7242 9.17 47.7948C9.12 48.0874 9.17 47.9562 9.17 48.1075C9.21 48.1277 9.27 47.8352 9.3 47.9058V47.8352C9.32 47.7545 9.37 47.8352 9.39 47.936C9.39 48.0369 9.33 48.0773 9.35 48.1782C9.38 48.0571 9.43 47.9663 9.41 47.8251C9.45 47.7545 9.49 47.8755 9.46 48.0369L9.42 48.1176L9.59 48.0773C9.59 48.0773 9.61 47.9764 9.63 47.9058C9.63 48.1176 9.68 48.1882 9.68 48.2286L9.74 48.0067V48.0974L9.76 48.0268L9.78 48.2185C9.81 48.1075 9.88 47.9562 9.88 48.1176L9.84 48.2387C9.84 48.2387 9.92 48.0773 9.93 48.2588C9.93 48.2084 9.93 48.158 9.95 48.0974C10.06 48.0167 10.15 48.0974 10.24 48.2185V48.1983C10.3 48.1479 10.33 48.3597 10.34 48.4505C10.44 48.4707 10.63 48.4303 10.76 48.3698V48.5615L10.79 48.4001C10.9 48.5009 11.09 48.0974 11.19 48.1378L11.16 48.2992C11.23 48.1277 11.19 48.4505 11.24 48.1479C11.31 48.2387 11.36 48.2992 11.42 48.4404C11.45 48.2488 11.49 48.3194 11.52 48.2387C11.52 48.6624 11.6 48.1781 11.63 48.39V48.3396L11.7 48.4505V48.3496C11.79 48.2689 11.77 48.4404 11.81 48.4404C11.86 48.3597 11.83 48.2286 11.89 48.2488C11.89 48.3698 11.91 48.4808 11.92 48.5716C11.87 48.733 12.02 48.279 12.02 48.4909V48.39L12.08 48.4102V48.3698C12.13 48.4808 12.16 48.2488 12.22 48.4102V48.3597C12.29 48.4001 12.37 48.4606 12.44 48.4404V48.3396L12.52 48.5716V48.4303H12.58V48.3597C12.6 48.6825 12.74 48.1075 12.82 48.1983V48.1479C12.85 47.9764 12.88 48.0571 12.93 47.9764C12.93 48.1176 12.91 48.3093 12.93 48.3496V48.158L12.97 48.1782V48.158C12.99 47.9663 13 48.158 13.04 48.0369C13.1 48.0874 12.99 48.1983 13.04 48.1983C13.06 47.9865 13.11 48.3295 13.17 48.047L13.27 48.2286V48.1176C13.29 48.2185 13.29 48.3496 13.33 48.279C13.33 48.279 13.3 48.2589 13.31 48.1782C13.38 48.0369 13.4 48.4606 13.45 48.1782C13.48 48.1782 13.47 48.3093 13.45 48.39C13.49 48.1983 13.54 48.3597 13.58 48.3295V48.158C13.58 48.2589 13.62 48.1983 13.64 48.1882C13.64 48.1681 13.62 48.1479 13.64 48.0672C13.69 48.0874 13.75 48.0067 13.79 48.1075V48.1782C13.86 48.0773 13.94 48.1983 13.99 48.2992C13.99 48.2286 13.93 48.1983 13.99 48.0874C14.06 48.158 13.99 48.3295 14.05 48.4404C14.08 48.3395 14.03 48.3295 14.08 48.1782L14.11 48.4102L14.13 48.2185C14.23 48.4707 14.49 47.7242 14.54 48.2387L14.5 48.4808C14.59 48.2185 14.6 48.5009 14.68 48.1479V48.2488L14.73 48.0571V48.3496V48.158L14.76 48.2588C14.76 48.2588 14.78 48.158 14.78 48.1176C14.81 48.4102 14.86 47.926 14.89 48.158V48.0571C14.95 48.2689 14.99 47.9562 15.06 48.0571V47.9159L15.14 47.9562L15.11 48.0672L15.19 47.8755V47.9865L15.22 47.8856C15.29 48.047 15.27 47.8553 15.32 48.0168C15.32 47.9663 15.32 47.8553 15.36 47.8049C15.36 47.8755 15.44 47.8049 15.46 47.8654C15.44 47.8352 15.46 47.7646 15.48 47.7444C15.51 47.7444 15.51 47.8856 15.48 47.9865H15.45C15.47 48.1681 15.51 47.7948 15.55 47.8654C15.53 47.9764 15.53 48.047 15.55 48.0571L15.53 47.9865C15.56 47.7948 15.63 48.047 15.61 47.7948C15.66 47.6939 15.68 47.8856 15.68 47.8856L15.64 48.0067H15.77C15.77 47.9058 15.77 47.8654 15.79 47.7847L15.81 47.8553V47.8049C15.91 47.4922 15.88 48.0874 16 47.7141L15.97 47.8755L15.99 47.7948C15.99 47.9159 16.05 47.7444 16.03 47.8957C16.06 47.7242 16.12 47.8755 16.15 47.7948C16.15 47.936 16.15 47.9663 16.18 47.9865C16.25 47.8856 16.27 47.815 16.31 47.5729C16.34 47.7847 16.42 47.7545 16.46 47.8251C16.46 47.8755 16.49 47.6839 16.46 47.6334C16.55 47.4619 16.54 47.9159 16.66 47.6334L16.63 47.7948C16.69 47.7948 16.67 47.4418 16.73 47.5729L16.7 47.7141C16.7 47.7141 16.75 47.7646 16.78 47.7545C16.78 47.6032 16.84 47.6939 16.82 47.5628L16.85 47.6132V47.5628C16.85 47.5628 16.9 47.6334 16.88 47.7242L16.92 47.6032L16.9 47.815C16.9 47.815 16.93 47.6738 16.99 47.5527L17.01 47.6939V47.6435L17.04 47.7545C17.02 47.6536 17.04 47.4216 17.08 47.3308C17.11 47.3812 17.08 47.6435 17.14 47.5426C17.08 47.4317 17.24 47.4014 17.2 47.1694C17.27 47.3005 17.3 47.2299 17.35 47.4418C17.4 46.9676 17.44 47.4418 17.48 47.4115L17.5 47.2904L17.59 47.3611C17.55 47.2602 17.63 47.1896 17.64 47.0685L17.67 47.3207V46.9878C17.69 46.897 17.7 46.9374 17.71 46.9878V46.9576L17.77 46.9777C17.79 46.8769 17.74 46.7861 17.79 46.7155C17.81 46.7457 17.83 46.7356 17.83 46.8264V46.7255C17.87 46.8567 17.83 47.3409 17.95 47.0383C17.9 46.9676 17.95 46.8769 17.95 46.6852C17.98 46.776 17.98 46.5742 18.01 46.5137L17.96 46.8668C18.02 46.8163 18.01 46.5742 18.04 46.4633C18.04 46.5339 18.11 46.4431 18.08 46.5944C18.1 46.544 18.13 46.5339 18.12 46.4027C18.19 46.3019 18.15 46.5641 18.15 46.6549C18.29 46.3422 18.22 46.6247 18.35 46.3321C18.35 46.2212 18.31 45.9387 18.25 46.2313C18.25 46.0699 18.33 45.7571 18.35 45.9185C18.35 45.8479 18.32 45.8076 18.3 45.8479C18.28 45.9589 18.26 46.201 18.2 46.1606C18.17 45.9791 18.3 45.6159 18.2 45.6663L18.17 45.7168C18.17 45.7168 18.21 45.7168 18.21 45.8177C18.19 46.1102 18.17 45.747 18.15 46.0093C18.06 46.1304 18.09 45.737 18.05 45.7067C17.96 45.969 18.08 45.9387 18.02 46.1304L17.98 46.0799C18.04 46.1909 17.91 46.3523 17.92 46.4532C17.95 46.1304 17.86 46.433 17.92 46.0799C17.84 46.0194 17.76 45.7571 17.66 46.1304C17.66 45.9992 17.7 46.0396 17.66 45.9286C17.61 46.0497 17.56 46.0194 17.51 46.0295C17.51 46.1707 17.49 46.2212 17.46 46.1909C17.46 46.1203 17.49 46.0093 17.44 45.9791C17.44 46.0799 17.4 46.1001 17.39 46.1707C17.37 46.1707 17.37 46.1102 17.39 46.0598L17.35 46.1808L17.33 45.9892V46.0396C17.26 45.9891 17.33 45.8177 17.38 45.7269H17.35C17.42 45.5049 17.33 45.4747 17.3 45.4444C17.33 45.4949 17.28 45.7067 17.28 45.8681C17.28 45.969 17.24 45.8883 17.22 45.9387C17.19 45.8681 17.24 45.7975 17.25 45.6663L17.19 45.7672V45.8177C17.17 45.8984 17.13 46.0295 17.1 46.0194C17.1 45.9185 17.16 45.8278 17.15 45.7471C17.13 45.9085 17.04 45.9992 17.06 46.1808C17.03 46.3019 17 46.2817 17 46.2111C17.07 45.9892 16.9 46.0598 17 45.6966C16.97 45.8378 16.95 45.5352 16.94 45.5352C16.94 45.4343 16.97 45.4142 16.98 45.3839V45.3133L17.04 45.1418C16.98 45.2124 16.95 45.283 16.93 45.5251C16.88 45.4747 16.93 45.4142 16.88 45.3133C16.88 45.4242 16.88 45.4545 16.86 45.4545C16.88 45.515 16.86 45.6663 16.91 45.7067C16.84 45.6865 16.8 46.201 16.83 46.2111C16.8 46.2413 16.76 46.4027 16.73 46.3624V46.0699L16.69 46.3422C16.69 46.3422 16.64 46.2918 16.66 46.1808C16.74 46.0598 16.71 45.5957 16.74 45.515C16.71 45.6159 16.7 45.7672 16.67 45.7672C16.67 45.8076 16.67 45.8782 16.65 45.9185C16.62 45.7874 16.56 45.9992 16.6 45.6966H16.58C16.62 45.6058 16.58 45.5756 16.58 45.4949L16.55 45.6058V45.3234C16.49 45.4242 16.42 45.4242 16.38 45.5655V45.4545C16.35 45.5453 16.31 45.8277 16.28 45.8076C16.31 45.5453 16.2 45.7168 16.23 45.4142C16.14 45.8177 16.15 45.3234 16.1 45.7773C16.06 45.7067 15.99 45.7067 16.03 45.3839L16 45.626C16.02 45.4646 15.98 45.5856 15.96 45.5756C15.93 45.7672 15.87 45.515 15.82 45.8883C15.78 45.8378 15.84 45.626 15.86 45.5352C15.8 45.6764 15.77 45.7773 15.74 45.6361C15.74 45.5856 15.69 45.5352 15.69 45.4242L15.73 45.283L15.63 45.6159C15.66 45.3335 15.55 45.7168 15.53 45.6361V45.7269L15.48 45.6865C15.48 45.5049 15.57 45.394 15.58 45.283C15.5 45.2124 15.38 45.6058 15.36 45.8378C15.36 45.6764 15.36 45.7067 15.32 45.5857L15.35 45.5352C15.25 45.6159 15.32 45.0813 15.23 45.0107C15.26 44.8291 15.32 44.9098 15.32 44.7181C15.29 44.6475 15.22 44.6273 15.17 44.8089C15.17 45.0914 15.09 45.0308 15.08 45.2628C15.03 45.2628 15.08 45.0308 15.08 44.9098C15.08 44.9602 15.03 45.283 15 45.4142H14.92C14.92 45.3435 14.96 45.2528 14.94 45.2023C14.92 45.3133 14.87 45.3536 14.87 45.2931C14.85 45.3738 14.8 45.394 14.78 45.4242C14.78 45.4041 14.78 45.1115 14.73 45.3234C14.75 45.2931 14.75 45.394 14.75 45.394L14.68 45.515C14.75 45.2931 14.62 45.283 14.68 45.162C14.68 45.0207 14.65 45.0207 14.62 45.0712C14.65 45.0712 14.62 45.2124 14.62 45.283C14.57 45.283 14.56 45.3133 14.52 45.2628C14.5 45.1519 14.52 45.1216 14.56 44.9703H14.48C14.46 44.8795 14.55 44.8291 14.5 44.7383C14.5 44.8593 14.42 45.1519 14.39 45.1216C14.39 45.2023 14.39 45.2931 14.42 45.1721C14.42 45.2427 14.4 45.3032 14.37 45.3839C14.34 45.1519 14.37 44.7686 14.27 44.7585C14.23 44.6576 14.16 44.9602 14.18 44.6778V44.7181L14.11 44.6475C14.09 44.819 14.17 44.6475 14.14 44.8089C14.07 44.8694 14.08 44.7181 14.03 44.8694C14.06 44.8896 14.1 44.8694 14.07 45.051C14 45.1115 14 44.8896 13.96 44.7988C13.96 44.7484 13.96 44.6979 13.99 44.6677C13.95 44.7383 13.9 44.6172 13.86 44.6273V44.4155C13.98 44.1532 13.92 44.5466 14 44.3852C14 44.1734 13.91 44.3449 13.9 44.2541C13.87 44.476 13.82 44.5668 13.8 44.6374C13.75 44.5365 13.72 44.7181 13.68 44.7383C13.68 44.6072 13.73 44.6879 13.68 44.5567C13.6 44.4659 13.57 45.4444 13.56 44.8493L13.59 44.6576C13.59 44.6576 13.49 44.708 13.51 44.5466C13.49 44.8392 13.44 44.5265 13.45 44.7686V44.7181C13.45 44.7181 13.45 44.7887 13.45 44.8593C13.39 45.1721 13.35 45.0006 13.3 45.1115C13.3 45.0813 13.3 45.1317 13.32 45.162C13.25 45.2427 13.32 45.0611 13.26 44.9501C13.26 44.8291 13.24 45.1922 13.2 45.0914C13.18 44.9804 13.23 44.8694 13.25 44.7181H13.2L13.23 44.4558C13.23 44.5769 13.19 44.5365 13.17 44.4558C13.2 44.587 13.17 44.8291 13.15 45.1115C13.19 45.0107 13.18 45.1418 13.17 45.2225C13.07 45.3738 13.13 44.7786 13.05 45.0409C13.08 44.8896 13.08 44.8291 13.13 44.7383C13.13 44.7383 13.13 44.5971 13.1 44.5365V44.587C13.04 44.587 12.96 44.7686 12.95 44.5567V44.6475C12.88 44.708 12.91 44.6273 12.88 44.4962V44.6576C12.84 44.8493 12.84 44.587 12.81 44.6172C12.81 44.4558 12.86 44.4256 12.88 44.3449C12.86 44.3751 12.88 44.0221 12.82 44.2541C12.84 44.2238 12.87 44.2238 12.85 44.3247C12.79 44.3247 12.77 44.3651 12.75 44.2844V44.4458C12.68 44.5466 12.73 44.3146 12.68 44.3146C12.68 44.3953 12.68 44.4357 12.62 44.4558L12.64 44.2944C12.57 44.3751 12.62 44.3751 12.55 44.587C12.5 44.5668 12.51 44.2844 12.5 44.1936C12.43 44.4155 12.39 44.2743 12.31 44.4458C12.28 44.4256 12.29 44.2642 12.24 44.355C12.28 44.1431 12.21 44.2642 12.24 43.9817C12.31 43.7901 12.24 44.3045 12.31 43.9817C12.31 43.9313 12.27 43.9313 12.26 43.8405V43.8909C12.12 44.012 12.22 43.1142 12.04 43.3462C12.02 43.4572 12.04 43.437 12.04 43.5278C11.98 43.6085 12.04 43.316 11.99 43.316L11.79 43.2857C11.84 43.5379 11.71 43.4774 11.7 43.5984V43.3866C11.65 43.4975 11.73 43.4774 11.7 43.5782L11.66 43.4673L11.6 43.8002C11.55 43.7295 11.5 43.7094 11.49 43.4572C11.29 43.4975 11.08 43.1949 10.9 43.1041L10.84 43.1243C10.78 43.0638 10.73 43.4874 10.71 43.2252C10.71 43.2453 10.71 43.326 10.69 43.3563C10.62 43.3563 10.54 43.3563 10.47 43.4471C10.47 43.3462 10.51 43.2756 10.52 43.2352C10.49 43.2857 10.45 43.4572 10.42 43.3866C10.47 43.2151 10.39 43.1445 10.36 43.1545C10.36 43.2453 10.42 43.2151 10.39 43.4067C10.32 43.5278 10.33 43.3866 10.31 43.2756V43.437C10.24 43.2554 10.2 43.7195 10.13 43.4572C10.13 43.3462 10.17 43.437 10.19 43.316C10.12 43.1041 9.98 43.4975 9.9 43.2857V43.3765L9.84 43.3462C9.84 43.3462 9.81 43.4975 9.81 43.5782C9.79 43.6993 9.78 43.6085 9.75 43.6085C9.75 43.3765 9.85 43.2453 9.8 43.1041C9.8 43.4269 9.71 43.1848 9.7 43.3765C9.56 43.437 9.51 43.1344 9.39 43.0638C9.36 43.2252 9.32 43.3059 9.29 43.4673V43.3563L9.27 43.4067C9.21 43.5076 9.2 43.2958 9.27 43.1949C9.3 43.1949 9.27 43.3563 9.33 43.1646C9.27 43.3059 9.26 42.9831 9.2 43.2252C9.2 43.2554 9.2 43.2756 9.2 43.326L9.16 43.3059L9.19 43.0839C9.03 43.1243 8.88 43.0335 8.77 42.9831C8.7 43.0638 8.61 43.0436 8.57 43.2151C8.48 43.2756 8.41 43.1142 8.37 43.0436C8.31 43.1848 8.25 42.862 8.21 43.1949V43.094C8.88 42.4484 9.55 41.7726 10.22 41.127C13.19 38.1915 15.85 35.4477 15.85 35.4477C15.85 35.4477 16.19 34.5196 16.29 34.9735C16.19 34.7718 16.37 34.4288 16.58 34.2271C16.8 34.3279 16.96 34.0051 17.16 33.8942C17.16 33.8942 17.13 33.8639 17.13 33.8337C17.28 33.5008 17.53 33.6622 17.73 33.5815L17.89 33.1073C18.08 32.9762 18.33 32.7745 18.46 32.8753C19.26 32.0582 20.28 31.0596 20.98 30.8881C21.07 30.2727 21.67 29.9903 21.92 29.7482L21.9 29.496L22.14 29.6171C22.08 29.4657 22.33 29.2035 22.42 28.9815L22.48 29.1934C22.41 28.9109 22.8 29.2539 22.71 28.6789C23.2 28.6789 23.44 28.578 23.91 28.4166C23.87 28.3763 23.85 28.3057 23.81 28.2754C24.26 28.3763 24.03 27.3474 24.52 27.5995C25.22 27.3272 25.94 26.4899 26.47 25.8443C26.58 25.7535 26.67 25.7838 26.78 25.7636L26.43 26.2882L26.93 25.7636L26.87 25.7333C27.38 25.2491 27.94 25.118 28.37 24.9163C29.33 23.7057 30.51 23.2518 31.4 22.0413L31.5 22.5356C31.55 22.3338 31.52 22.1119 31.67 21.8295C31.83 21.779 31.87 22.0917 31.87 22.2431L32.08 21.779C32.12 22.3238 32.66 21.0225 32.78 21.6176C32.83 21.3453 33.18 20.972 33.29 21.1233C33.37 21.0225 33.23 20.7097 33.47 20.6492C33.42 21.1435 33.56 20.8611 33.72 20.9619C33.91 20.8611 34.02 20.3163 34.21 20.2861L34.12 20.2356C34.21 20.0541 34.49 19.9532 34.63 20.044C34.69 20.1549 34.47 20.3869 34.57 20.4676C34.66 20.2054 34.81 19.9532 34.65 19.8321C34.78 19.6203 35.03 19.6304 35 19.9229L34.87 20.1348L35.7 19.4791C35.55 19.5194 35.76 19.2874 35.79 19.1563C35.88 19.4488 36.16 19.358 36.22 19.3883L36.36 18.9444L36.39 19.0655L36.44 18.9242L36.65 19.0856C36.74 18.8435 36.96 18.4703 37.08 18.6418L36.95 18.9343C37.06 18.8536 37.25 18.4602 37.35 18.6922C37.29 18.6418 37.35 18.5409 37.33 18.44C37.84 17.976 38.32 17.7844 38.77 17.6633L38.74 17.6431C39.01 17.3909 39.24 17.5927 39.39 17.6431C39.9 17.3506 40.72 16.7756 41.36 16.2914L41.45 16.5335L41.5 16.241C42.07 16.0392 42.75 15.0204 43.28 14.7783L43.23 15.0708C43.5 14.637 43.45 15.2019 43.57 14.637C43.93 14.5563 44.22 14.5261 44.57 14.5362C44.6 14.2134 44.83 14.1932 44.97 14.0015C45.11 14.6068 45.29 13.7392 45.55 13.941L45.51 13.8906C45.69 13.8199 45.76 13.8906 45.89 13.8704V13.7191C46.21 13.4265 46.2 13.6989 46.41 13.5879C46.61 13.366 46.43 13.2349 46.72 13.1138C46.72 13.2954 46.89 13.4064 46.98 13.5072C46.81 13.8704 47.29 12.8818 47.44 13.1441L47.4 13.0129L47.67 12.902C47.67 12.902 47.67 12.8818 47.65 12.8415C47.92 12.8818 47.97 12.4783 48.33 12.559L48.29 12.5086C48.65 12.4077 49.08 12.3068 49.38 12.1151L49.41 11.9537L49.78 12.1555L49.76 11.9336L50.03 11.8125C49.97 11.8428 49.99 11.7621 50.03 11.7016C50.26 12.1252 50.73 10.9753 51.13 10.9248L51.09 10.8744C51.22 10.5415 51.4 10.6222 51.59 10.37C51.55 10.6222 51.61 10.9046 51.74 10.9147L51.69 10.6222L51.87 10.5718L51.84 10.5516C51.9 10.2187 52 10.4709 52.11 10.2389C52.36 10.2086 51.93 10.5919 52.14 10.5011C52.18 10.138 52.52 10.5617 52.71 10.0069L53.23 10.0876V9.89589C53.32 10.0069 53.37 10.2187 53.53 10.0371C53.59 10.0069 53.41 10.0371 53.41 9.93624C53.72 9.563 53.9 10.1884 54.1 9.62352C54.25 9.55291 54.21 9.8051 54.17 9.93624C54.29 9.563 54.57 9.71431 54.76 9.61344L54.74 9.34107C54.78 9.47221 54.91 9.34107 55 9.28055C54.94 9.28055 54.9 9.25028 54.92 9.10906C55.15 9.05862 55.45 8.80643 55.64 8.90731C55.64 8.92748 55.64 8.9981 55.62 9.02836C55.89 8.76608 56.31 8.81652 56.58 8.88713C56.52 8.78626 56.29 8.8367 56.52 8.55424C56.83 8.55424 56.6 8.90731 56.83 9.01827C56.93 8.82661 56.7 8.88713 56.91 8.55424L57.08 8.86696L57.15 8.53407C57.71 8.71565 58.74 7.18234 59.05 7.92882L58.91 8.38276C59.25 7.82794 59.34 8.27179 59.66 7.56566V7.71698L59.85 7.33365V7.80777L59.92 7.46479L60.02 7.59593C60.02 7.52531 60.09 7.42444 60.09 7.33365C60.28 7.73715 60.43 6.89989 60.64 7.23277C60.64 7.19242 60.59 7.1319 60.64 7.08146C60.89 7.36391 61.1 6.75866 61.41 6.82927L61.43 6.57708C61.61 6.44595 61.65 6.55691 61.76 6.55691L61.64 6.78892L61.93 6.38542L62.01 6.55691L62.06 6.38542C62.37 6.57708 62.25 6.28454 62.56 6.4863C62.54 6.40559 62.56 6.19376 62.68 6.08279C62.72 6.19376 63.03 5.98192 63.19 6.06262C63.12 6.04244 63.24 5.89113 63.28 5.8306C63.38 5.79025 63.42 6.03236 63.33 6.21393L63.18 6.25428C63.29 6.54682 63.42 5.87095 63.62 5.94157C63.59 6.03236 63.58 6.09288 63.59 6.14332C63.73 5.79025 64.04 6.14332 63.93 5.72973C64.13 5.51789 64.12 5.81043 64.24 5.81043L64.06 6.06262L64.68 5.90122C64.73 5.71964 64.71 5.63894 64.77 5.5078L64.86 5.60868L64.83 5.52798C65.32 4.88237 65.19 5.93148 65.7 5.21526L65.59 5.51789L65.66 5.39684C65.68 5.60868 65.89 5.28588 65.85 5.52798C65.95 5.21526 66.19 5.4271 66.42 5.22535C66.4 5.46745 66.42 5.5078 66.57 5.52798C66.88 5.29596 66.94 5.15474 67.16 4.7008C67.27 5.04378 67.67 4.92273 67.86 5.00343C67.83 5.1043 67.98 4.74115 67.86 4.68062C68.24 4.2973 68.22 5.08413 68.73 4.56966L68.62 4.88238C68.87 4.85211 68.8 4.22668 69.01 4.44861L68.88 4.73106C69.08 4.80167 69.09 4.80167 69.21 4.7815C69.24 4.50914 69.47 4.65036 69.4 4.41835L69.52 4.48896L69.55 4.38808C69.65 4.41835 69.72 4.48896 69.63 4.67054L69.82 4.43852L69.72 4.82185C69.91 4.74115 69.85 4.5394 70.1 4.30738L70.17 4.55957L70.2 4.4587L70.3 4.65036C70.2 4.49905 70.3 4.06528 70.5 3.87362C70.62 3.94423 70.5 4.42844 70.75 4.2166C70.5 4.03502 71.19 3.90388 71.03 3.50038C71.34 3.70213 71.53 3.56091 71.72 3.90388C71.96 3.02627 72.13 3.90388 72.3 3.80301C72.17 3.85344 72.14 3.94423 72.2 4.02493L72.39 3.58108L72.76 3.68196C72.63 3.52056 72.94 3.36924 72.99 3.1574L73.09 3.62143C73.09 3.46003 73.15 3.22802 73.15 3.01618C73.23 2.86486 73.27 2.9153 73.31 3.01618L73.34 2.96574L73.6 2.996C73.71 2.81443 73.48 2.66311 73.7 2.5118C73.76 2.56224 73.86 2.55215 73.84 2.72364C73.84 2.6732 73.87 2.5925 73.84 2.55215C74 2.80434 73.84 3.67187 74.36 3.11705C74.14 3.01618 74.34 2.81443 74.36 2.47145C74.49 2.63285 74.51 2.24952 74.64 2.15874L74.44 2.82451C74.72 2.72364 74.67 2.28987 74.82 2.06795C74.85 2.189 75.12 2.0276 74.96 2.31005C75.04 2.22935 75.21 2.20917 75.15 1.95698C75.46 1.76532 75.26 2.24952 75.25 2.42101C75.87 1.82585 75.53 2.36049 76.17 1.80567C76.17 1.59383 76.06 1.07937 75.72 1.6241L75.96 1.52322L75.94 1.5434Z" fill="var(--fill-0, #00F0DC)"/>
</svg>
