<svg width="10" height="10" overflow="visible" style="display: block;" viewBox="0 0 10 10" fill="none" xmlns="http://www.w3.org/2000/svg">
<g id="ph:notches-bold">
<path id="Vector" d="M8.45664 5.33164L5.33164 8.45664C5.28804 8.50024 5.23627 8.53483 5.1793 8.55843C5.12233 8.58203 5.06127 8.59417 4.99961 8.59417C4.93795 8.59417 4.87689 8.58203 4.81992 8.55843C4.76295 8.53483 4.71118 8.50024 4.66758 8.45664C4.62397 8.41304 4.58939 8.36127 4.56579 8.3043C4.54219 8.24733 4.53005 8.18627 4.53005 8.12461C4.53005 8.06295 4.54219 8.00189 4.56579 7.94492C4.58939 7.88795 4.62397 7.83618 4.66758 7.79258L7.79258 4.66758C7.83618 4.62398 7.88795 4.58939 7.94492 4.56579C8.00189 4.54219 8.06294 4.53005 8.12461 4.53005C8.18627 4.53005 8.24733 4.54219 8.3043 4.56579C8.36127 4.58939 8.41304 4.62398 8.45664 4.66758C8.50024 4.71118 8.53483 4.76295 8.55843 4.81992C8.58203 4.87689 8.59417 4.93795 8.59417 4.99961C8.59417 5.06127 8.58203 5.12233 8.55843 5.1793C8.53483 5.23627 8.50024 5.28804 8.45664 5.33164ZM7.83164 1.23008C7.78809 1.18638 7.73635 1.1517 7.67937 1.12805C7.62239 1.10439 7.5613 1.09221 7.49961 1.09221C7.43791 1.09221 7.37683 1.10439 7.31985 1.12805C7.26287 1.1517 7.21113 1.18638 7.16758 1.23008L1.23008 7.16758C1.14202 7.25564 1.09255 7.37507 1.09255 7.49961C1.09255 7.62415 1.14202 7.74358 1.23008 7.83164C1.31814 7.9197 1.43757 7.96917 1.56211 7.96917C1.68665 7.96917 1.80608 7.9197 1.89414 7.83164L7.83164 1.89414C7.87522 1.85061 7.9098 1.79891 7.93339 1.742C7.95698 1.6851 7.96912 1.6241 7.96912 1.5625C7.96912 1.5009 7.95698 1.4399 7.93339 1.383C7.9098 1.32609 7.87522 1.27439 7.83164 1.23086V1.23008Z" fill="var(--fill-0, #9CA3AF)"/>
</g>
</svg>
