<svg width="16" height="16" overflow="visible" style="display: block;" viewBox="0 0 16 16" fill="none" xmlns="http://www.w3.org/2000/svg">
<g id="fluent:drive-train-24-regular">
<path id="Vector" d="M3.66667 2C3.22464 2 2.80072 2.17559 2.48816 2.48816C2.17559 2.80072 2 3.22464 2 3.66667V5.66667C2 6.10869 2.17559 6.53262 2.48816 6.84518C2.80072 7.15774 3.22464 7.33333 3.66667 7.33333C4.10869 7.33333 4.53262 7.15774 4.84518 6.84518C5.15774 6.53262 5.33333 6.10869 5.33333 5.66667V5.33333H6.84533C6.99267 5.58933 7.22333 5.79133 7.5 5.90333V10.0967C7.22333 10.2087 6.99333 10.4107 6.84533 10.6667H5.33333V10.3333C5.33333 9.89131 5.15774 9.46738 4.84518 9.15482C4.53262 8.84226 4.10869 8.66667 3.66667 8.66667C3.22464 8.66667 2.80072 8.84226 2.48816 9.15482C2.17559 9.46738 2 9.89131 2 10.3333V12.3333C2 12.7754 2.17559 13.1993 2.48816 13.5118C2.80072 13.8244 3.22464 14 3.66667 14C4.10869 14 4.53262 13.8244 4.84518 13.5118C5.15774 13.1993 5.33333 12.7754 5.33333 12.3333V11.6667H6.70867C6.78233 11.9532 6.94919 12.207 7.18297 12.3883C7.41675 12.5696 7.70417 12.668 8 12.668C8.29583 12.668 8.58325 12.5696 8.81703 12.3883C9.05081 12.207 9.21767 11.9532 9.29133 11.6667H10.6667V12.3333C10.6667 12.7754 10.8423 13.1993 11.1548 13.5118C11.4674 13.8244 11.8913 14 12.3333 14C12.7754 14 13.1993 13.8244 13.5118 13.5118C13.8244 13.1993 14 12.7754 14 12.3333V10.3333C14 9.89131 13.8244 9.46738 13.5118 9.15482C13.1993 8.84226 12.7754 8.66667 12.3333 8.66667C11.8913 8.66667 11.4674 8.84226 11.1548 9.15482C10.8423 9.46738 10.6667 9.89131 10.6667 10.3333V10.6667H9.15467C9.00613 10.409 8.77569 10.2083 8.5 10.0967V5.90333C8.77667 5.79133 9.00667 5.58933 9.15467 5.33333H10.6667V5.66667C10.6667 6.10869 10.8423 6.53262 11.1548 6.84518C11.4674 7.15774 11.8913 7.33333 12.3333 7.33333C12.7754 7.33333 13.1993 7.15774 13.5118 6.84518C13.8244 6.53262 14 6.10869 14 5.66667V3.66667C14 3.22464 13.8244 2.80072 13.5118 2.48816C13.1993 2.17559 12.7754 2 12.3333 2C11.8913 2 11.4674 2.17559 11.1548 2.48816C10.8423 2.80072 10.6667 3.22464 10.6667 3.66667V4.33333H9.29133C9.21767 4.04682 9.05081 3.79295 8.81703 3.61167C8.58325 3.4304 8.29583 3.33202 8 3.33202C7.70417 3.33202 7.41675 3.4304 7.18297 3.61167C6.94919 3.79295 6.78233 4.04682 6.70867 4.33333H5.33333V3.66667C5.33333 3.22464 5.15774 2.80072 4.84518 2.48816C4.53262 2.17559 4.10869 2 3.66667 2ZM3 3.66667C3 3.48986 3.07024 3.32029 3.19526 3.19526C3.32029 3.07024 3.48986 3 3.66667 3C3.84348 3 4.01305 3.07024 4.13807 3.19526C4.26309 3.32029 4.33333 3.48986 4.33333 3.66667V5.66667C4.33333 5.84348 4.26309 6.01305 4.13807 6.13807C4.01305 6.26309 3.84348 6.33333 3.66667 6.33333C3.48986 6.33333 3.32029 6.26309 3.19526 6.13807C3.07024 6.01305 3 5.84348 3 5.66667V3.66667ZM3.66667 9.66667C3.84348 9.66667 4.01305 9.7369 4.13807 9.86193C4.26309 9.98695 4.33333 10.1565 4.33333 10.3333V12.3333C4.33333 12.5101 4.26309 12.6797 4.13807 12.8047C4.01305 12.9298 3.84348 13 3.66667 13C3.48986 13 3.32029 12.9298 3.19526 12.8047C3.07024 12.6797 3 12.5101 3 12.3333V10.3333C3 10.1565 3.07024 9.98695 3.19526 9.86193C3.32029 9.7369 3.48986 9.66667 3.66667 9.66667ZM11.6667 3.66667C11.6667 3.48986 11.7369 3.32029 11.8619 3.19526C11.987 3.07024 12.1565 3 12.3333 3C12.5101 3 12.6797 3.07024 12.8047 3.19526C12.9298 3.32029 13 3.48986 13 3.66667V5.66667C13 5.84348 12.9298 6.01305 12.8047 6.13807C12.6797 6.26309 12.5101 6.33333 12.3333 6.33333C12.1565 6.33333 11.987 6.26309 11.8619 6.13807C11.7369 6.01305 11.6667 5.84348 11.6667 5.66667V3.66667ZM12.3333 9.66667C12.5101 9.66667 12.6797 9.7369 12.8047 9.86193C12.9298 9.98695 13 10.1565 13 10.3333V12.3333C13 12.5101 12.9298 12.6797 12.8047 12.8047C12.6797 12.9298 12.5101 13 12.3333 13C12.1565 13 11.987 12.9298 11.8619 12.8047C11.7369 12.6797 11.6667 12.5101 11.6667 12.3333V10.3333C11.6667 10.1565 11.7369 9.98695 11.8619 9.86193C11.987 9.7369 12.1565 9.66667 12.3333 9.66667Z" fill="var(--fill-0, black)"/>
</g>
</svg>
