<svg width="14.75" height="12.5" overflow="visible" style="display: block;" viewBox="0 0 14.75 12.5" fill="none" xmlns="http://www.w3.org/2000/svg">
<path id="Vector" d="M14.2375 2.42688L13.0306 1.21937C12.8897 1.07848 12.6986 0.999324 12.4994 0.999324C12.3001 0.999324 12.109 1.07848 11.9681 1.21937C11.8272 1.36027 11.7481 1.55137 11.7481 1.75062C11.7481 1.94988 11.8272 2.14098 11.9681 2.28188L13.1769 3.4875C13.2001 3.51073 13.2185 3.53831 13.231 3.56866C13.2436 3.59901 13.25 3.63153 13.25 3.66437V8.625C13.25 8.72446 13.2105 8.81984 13.1402 8.89017C13.0698 8.96049 12.9745 9 12.875 9C12.7755 9 12.6802 8.96049 12.6098 8.89017C12.5395 8.81984 12.5 8.72446 12.5 8.625V6.25C12.5 5.78587 12.3156 5.34075 11.9874 5.01256C11.6592 4.68437 11.2141 4.5 10.75 4.5H10V1.75C10 1.28587 9.81563 0.840752 9.48744 0.512563C9.15925 0.184375 8.71413 0 8.25 0H3.25C2.78587 0 2.34075 0.184375 2.01256 0.512563C1.68437 0.840752 1.5 1.28587 1.5 1.75V11H0.75C0.551088 11 0.360322 11.079 0.21967 11.2197C0.0790177 11.3603 0 11.5511 0 11.75C0 11.9489 0.0790177 12.1397 0.21967 12.2803C0.360322 12.421 0.551088 12.5 0.75 12.5H10.75C10.9489 12.5 11.1397 12.421 11.2803 12.2803C11.421 12.1397 11.5 11.9489 11.5 11.75C11.5 11.5511 11.421 11.3603 11.2803 11.2197C11.1397 11.079 10.9489 11 10.75 11H10V6H10.75C10.8163 6 10.8799 6.02634 10.9268 6.07322C10.9737 6.12011 11 6.1837 11 6.25V8.625C11 9.12228 11.1975 9.59919 11.5492 9.95083C11.9008 10.3025 12.3777 10.5 12.875 10.5C13.3723 10.5 13.8492 10.3025 14.2008 9.95083C14.5525 9.59919 14.75 9.12228 14.75 8.625V3.66437C14.7507 3.43445 14.7058 3.20668 14.6178 2.99426C14.5298 2.78183 14.4006 2.58898 14.2375 2.42688ZM3 11V1.75C3 1.6837 3.02634 1.62011 3.07322 1.57322C3.12011 1.52634 3.1837 1.5 3.25 1.5H8.25C8.3163 1.5 8.37989 1.52634 8.42678 1.57322C8.47366 1.62011 8.5 1.6837 8.5 1.75V11H3ZM7.5 5.25C7.5 5.44891 7.42098 5.63968 7.28033 5.78033C7.13968 5.92098 6.94891 6 6.75 6H4.75C4.55109 6 4.36032 5.92098 4.21967 5.78033C4.07902 5.63968 4 5.44891 4 5.25C4 5.05109 4.07902 4.86032 4.21967 4.71967C4.36032 4.57902 4.55109 4.5 4.75 4.5H6.75C6.94891 4.5 7.13968 4.57902 7.28033 4.71967C7.42098 4.86032 7.5 5.05109 7.5 5.25Z" fill="var(--fill-0, black)"/>
</svg>
