<svg width="17" height="17" overflow="visible" style="display: block;" viewBox="0 0 17 17" fill="none" xmlns="http://www.w3.org/2000/svg">
<g id="ph:star-fill">
<path id="Vector" d="M15.5583 7.62676L12.57 10.2053L13.4805 14.0615C13.5307 14.2709 13.5178 14.4904 13.4433 14.6924C13.3688 14.8944 13.2362 15.0697 13.0621 15.1964C12.888 15.323 12.6802 15.3952 12.4651 15.4038C12.25 15.4125 12.0372 15.3572 11.8535 15.2449L8.5 13.181L5.14449 15.2449C4.96083 15.3565 4.74825 15.4113 4.53351 15.4023C4.31878 15.3934 4.11149 15.3211 3.93776 15.1946C3.76402 15.0681 3.63161 14.893 3.55719 14.6913C3.48276 14.4897 3.46966 14.2706 3.51953 14.0615L4.43328 10.2053L1.445 7.62676C1.2825 7.48632 1.16498 7.30111 1.10711 7.09428C1.04925 6.88744 1.0536 6.66814 1.11962 6.46376C1.18564 6.25939 1.31042 6.07899 1.47836 5.9451C1.64629 5.81121 1.84996 5.72977 2.06391 5.71094L5.98188 5.39484L7.49328 1.73719C7.57509 1.53785 7.71433 1.36734 7.89329 1.24733C8.07226 1.12733 8.28287 1.06326 8.49834 1.06326C8.71381 1.06326 8.92442 1.12733 9.10339 1.24733C9.28235 1.36734 9.42159 1.53785 9.5034 1.73719L11.0141 5.39484L14.9321 5.71094C15.1465 5.72907 15.3507 5.81006 15.5193 5.94376C15.6878 6.07747 15.8132 6.25794 15.8796 6.46256C15.9461 6.66719 15.9506 6.88687 15.8928 7.09408C15.8349 7.30129 15.7172 7.48682 15.5543 7.62742L15.5583 7.62676Z" fill="var(--fill-0, #F59E0B)"/>
</g>
</svg>
