<svg width="298" height="124" viewBox="0 0 298 124" fill="none" xmlns="http://www.w3.org/2000/svg">
<g clip-path="url(#clip0_315_7576)">
<path d="M32.1829 123.262H51.5119C59.0025 123.262 65.0749 116.219 65.0749 107.529V84.6968C65.0749 76.007 59.0025 68.9592 51.5119 68.9592H32.1829" fill="#595959"/>
<path d="M51.5118 124H32.1828C31.7742 124 31.4426 123.669 31.4426 123.262C31.4426 122.855 31.7742 122.525 32.1828 122.525H51.5118C58.582 122.525 64.3346 115.797 64.3346 107.529V84.6966C64.3346 76.4258 58.582 69.6968 51.5118 69.6968H32.1828C31.7742 69.6968 31.4426 69.3663 31.4426 68.9591C31.4426 68.5519 31.7742 68.2214 32.1828 68.2214H51.5118C59.3991 68.2214 65.815 75.6115 65.815 84.6966V107.529C65.815 116.611 59.3991 124 51.5118 124Z" fill="black"/>
<path d="M143.013 123.262H165.378C174.041 123.262 181.065 116.219 181.065 107.529V84.6968C181.065 76.007 174.041 68.9592 165.378 68.9592H143.013" fill="#595959"/>
<path d="M165.378 124H143.013C142.604 124 142.272 123.669 142.272 123.262C142.272 122.855 142.604 122.525 143.013 122.525H165.378C173.619 122.525 180.325 115.797 180.325 107.529V84.6966C180.325 76.4258 173.62 69.6968 165.378 69.6968H143.013C142.604 69.6968 142.272 69.3663 142.272 68.9591C142.272 68.5519 142.604 68.2214 143.013 68.2214H165.378C174.436 68.2214 181.805 75.6115 181.805 84.6966V107.529C181.805 116.611 174.436 124 165.378 124Z" fill="black"/>
<path d="M249.068 123.262H271.434C280.097 123.262 287.125 116.219 287.125 107.529V84.6968C287.125 76.007 280.097 68.9592 271.434 68.9592H249.068" fill="#595959"/>
<path d="M271.434 124H249.068C248.66 124 248.328 123.669 248.328 123.262C248.328 122.855 248.66 122.525 249.068 122.525H271.434C279.678 122.525 286.385 115.797 286.385 107.529V84.6966C286.385 76.4258 279.678 69.6968 271.434 69.6968H249.068C248.66 69.6968 248.328 69.3663 248.328 68.9591C248.328 68.5519 248.66 68.2214 249.068 68.2214H271.434C280.493 68.2214 287.865 75.6115 287.865 84.6966V107.529C287.865 116.611 280.495 124 271.434 124Z" fill="black"/>
<path d="M265.512 96.11C265.512 111.105 258.042 123.261 248.83 123.261C239.618 123.261 232.148 111.105 232.148 96.11C232.148 81.1146 239.618 68.9592 248.83 68.9592C258.042 68.9592 265.512 81.119 265.512 96.11Z" fill="#595959"/>
<path d="M248.83 124C244.107 124 239.693 121.051 236.404 115.695C233.182 110.453 231.409 103.497 231.409 96.1114C231.409 88.7258 233.182 81.7695 236.404 76.5276C239.694 71.1721 244.107 68.2229 248.83 68.2229C253.552 68.2229 257.965 71.1736 261.256 76.5291C264.477 81.7725 266.251 88.7273 266.251 96.1114C266.251 103.496 264.477 110.453 261.256 115.695C257.965 121.051 253.552 124 248.83 124ZM248.83 69.6968C240.039 69.6968 232.888 81.5453 232.888 96.1099C232.888 110.675 240.039 122.523 248.83 122.523C257.62 122.523 264.772 110.675 264.772 96.1099C264.772 81.5453 257.62 69.6968 248.83 69.6968Z" fill="black"/>
<path d="M22.8331 106.047C10.632 106.047 0.740234 96.1883 0.740234 84.0241V54.2782C0.740234 45.4246 6.06063 37.4326 14.2426 33.9892C17.3913 32.6658 20.1803 30.6269 22.4082 28.0494C22.5296 27.9152 22.6465 27.778 22.7635 27.6437C37.8616 10.4102 59.8597 0.737793 82.8171 0.737793H159.314C178.605 0.737793 188.776 4.87467 199.075 8.94958C210.594 14.8244 234.441 30.2772 243.009 38.8903C259.604 40.8259 275.21 46.0457 289.72 54.8609C294.318 57.6537 297.138 62.6242 297.229 67.99V95.6115C297.229 101.374 292.541 106.047 286.758 106.047H22.8331Z" fill="#4C92CD"/>
<mask id="mask0_315_7576" style="mask-type:luminance" maskUnits="userSpaceOnUse" x="119" y="8" width="123" height="31">
<path d="M199.731 8.94946H121.617C119.576 8.94946 118.403 11.2643 119.614 12.9019L137.883 37.583C138.351 38.2159 139.094 38.5877 139.886 38.5877H241.968" fill="white"/>
</mask>
<g mask="url(#mask0_315_7576)">
<path d="M226.668 38.5877L154.177 8.94946H241.969V38.5877H226.668Z" fill="#E2FCFF"/>
<path d="M226.408 38.5877L153.92 8.94946H154.178L226.668 38.5877H226.408Z" fill="#E2FCFF"/>
<path d="M226.151 38.5877L153.661 8.94946H153.92L226.409 38.5877H226.151Z" fill="#E1FBFF"/>
<path d="M225.892 38.5877L153.403 8.94946H153.661L226.151 38.5877H225.892Z" fill="#E0FAFF"/>
<path d="M225.634 38.5877L153.144 8.94946H153.403L225.892 38.5877H225.634Z" fill="#DFF9FE"/>
<path d="M225.375 38.5877L152.887 8.94946H153.144L225.634 38.5877H225.375Z" fill="#DEF9FE"/>
<path d="M225.118 38.5877L152.628 8.94946H152.887L225.375 38.5877H225.118Z" fill="#DDF8FE"/>
<path d="M224.859 38.5877L152.37 8.94946H152.628L225.118 38.5877H224.859Z" fill="#DCF7FE"/>
<path d="M224.601 38.5877L152.111 8.94946H152.37L224.859 38.5877H224.601Z" fill="#DBF6FD"/>
<path d="M224.342 38.5877L151.854 8.94946H152.111L224.601 38.5877H224.342Z" fill="#DAF5FD"/>
<path d="M224.085 38.5877L151.594 8.94946H151.854L224.342 38.5877H224.085Z" fill="#D9F4FD"/>
<path d="M223.825 38.5877L151.337 8.94946H151.594L224.084 38.5877H223.825Z" fill="#D8F4FD"/>
<path d="M223.568 38.5877L151.079 8.94946H151.337L223.825 38.5877H223.568Z" fill="#D7F3FC"/>
<path d="M223.309 38.5877L150.82 8.94946H151.079L223.568 38.5877H223.309Z" fill="#D6F2FC"/>
<path d="M223.051 38.5877L150.562 8.94946H150.82L223.309 38.5877H223.051Z" fill="#D5F1FC"/>
<path d="M222.794 38.5877L150.303 8.94946H150.563L223.051 38.5877H222.794Z" fill="#D4F0FC"/>
<path d="M222.534 38.5877L150.046 8.94946H150.303L222.794 38.5877H222.534Z" fill="#D3EFFB"/>
<path d="M222.277 38.5877L149.787 8.94946H150.046L222.534 38.5877H222.277Z" fill="#D2EEFB"/>
<path d="M222.018 38.5877L149.529 8.94946H149.787L222.277 38.5877H222.018Z" fill="#D1EEFB"/>
<path d="M221.76 38.5877L149.27 8.94946H149.529L222.018 38.5877H221.76Z" fill="#D0EDFB"/>
<path d="M221.501 38.5877L149.013 8.94946H149.27L221.76 38.5877H221.501Z" fill="#CFECFA"/>
<path d="M221.244 38.5877L148.754 8.94946H149.013L221.501 38.5877H221.244Z" fill="#CEEBFA"/>
<path d="M220.985 38.5877L148.496 8.94946H148.754L221.244 38.5877H220.985Z" fill="#CDEAFA"/>
<path d="M220.727 38.5877L148.237 8.94946H148.496L220.984 38.5877H220.727Z" fill="#CCE9FA"/>
<path d="M220.468 38.5877L147.979 8.94946H148.237L220.727 38.5877H220.468Z" fill="#CBE9FA"/>
<path d="M220.21 38.5877L147.722 8.94946H147.979L220.468 38.5877H220.21Z" fill="#C9E8F9"/>
<path d="M219.951 38.5877L147.463 8.94946H147.722L220.21 38.5877H219.951Z" fill="#C8E7F9"/>
<path d="M219.694 38.5877L147.205 8.94946H147.463L219.951 38.5877H219.694Z" fill="#C7E6F9"/>
<path d="M219.436 38.5877L146.946 8.94946H147.205L219.694 38.5877H219.436Z" fill="#C6E5F9"/>
<path d="M219.177 38.5877L146.688 8.94946H146.946L219.436 38.5877H219.177Z" fill="#C5E4F8"/>
<path d="M218.919 38.5877L146.429 8.94946H146.689L219.177 38.5877H218.919Z" fill="#C4E3F8"/>
<path d="M218.66 38.5877L146.172 8.94946H146.429L218.92 38.5877H218.66Z" fill="#C3E3F8"/>
<path d="M218.403 38.5877L145.913 8.94946H146.172L218.66 38.5877H218.403Z" fill="#C2E2F8"/>
<path d="M218.144 38.5877L145.655 8.94946H145.913L218.403 38.5877H218.144Z" fill="#C1E1F7"/>
<path d="M217.886 38.5877L145.396 8.94946H145.655L218.144 38.5877H217.886Z" fill="#C0E0F7"/>
<path d="M217.627 38.5877L145.138 8.94946H145.396L217.886 38.5877H217.627Z" fill="#BFDFF7"/>
<path d="M217.369 38.5877L144.879 8.94946H145.138L217.627 38.5877H217.369Z" fill="#BEDEF7"/>
<path d="M217.11 38.5877L144.622 8.94946H144.879L217.369 38.5877H217.11Z" fill="#BDDDF6"/>
<path d="M216.853 38.5877L144.364 8.94946H144.622L217.11 38.5877H216.853Z" fill="#BCDDF6"/>
<path d="M216.594 38.5877L144.105 8.94946H144.364L216.853 38.5877H216.594Z" fill="#BBDCF6"/>
<path d="M216.336 38.5877L143.848 8.94946H144.105L216.594 38.5877H216.336Z" fill="#BADBF6"/>
<path d="M216.079 38.5877L143.589 8.94946H143.848L216.336 38.5877H216.079Z" fill="#B9DAF5"/>
<path d="M215.82 38.5877L143.331 8.94946H143.589L216.079 38.5877H215.82Z" fill="#B8D9F5"/>
<path d="M215.562 38.5877L143.072 8.94946H143.331L215.82 38.5877H215.562Z" fill="#B7D8F5"/>
<path d="M215.303 38.5877L142.814 8.94946H143.072L215.562 38.5877H215.303Z" fill="#B6D8F5"/>
<path d="M215.045 38.5877L142.555 8.94946H142.814L215.303 38.5877H215.045Z" fill="#B5D7F4"/>
<path d="M214.786 38.5877L142.298 8.94946H142.555L215.045 38.5877H214.786Z" fill="#B4D6F4"/>
<path d="M214.529 38.5877L142.039 8.94946H142.298L214.786 38.5877H214.529Z" fill="#B3D5F4"/>
<path d="M118.403 10.4868L119.037 8.94946H142.039L214.529 38.5877H118.403V10.4868Z" fill="#B3D5F4"/>
</g>
<path d="M241.968 39.3253H139.886C138.862 39.3253 137.889 38.8369 137.287 38.0196L119.019 13.3385C118.292 12.3545 118.183 11.0665 118.736 9.9762C119.288 8.88739 120.393 8.21021 121.617 8.21021H199.731C200.14 8.21021 200.471 8.54068 200.471 8.94788C200.471 9.35507 200.14 9.68555 199.731 9.68555H121.617C120.943 9.68555 120.36 10.0426 120.057 10.6416C119.753 11.2406 119.81 11.9222 120.211 12.4622L138.48 37.1432C138.805 37.5844 139.331 37.8485 139.886 37.8485H241.968C242.377 37.8485 242.709 38.1789 242.709 38.5861C242.709 38.9933 242.377 39.3238 241.968 39.3238V39.3253Z" fill="black"/>
<path d="M123.62 38.5877H36.5262C35.6054 38.5877 34.775 38.0359 34.4241 37.1906L32.2317 31.9236C31.8853 31.0915 32.0629 30.131 32.6951 29.4834C36.9762 25.0735 54.7139 8.948 85.1544 8.948C113.437 8.948 123.068 28.0169 125.771 35.5647C126.298 37.0386 125.195 38.5863 123.621 38.5863L123.62 38.5877Z" fill="#B3D5F4"/>
<path d="M123.62 39.3253H36.5264C35.3006 39.3253 34.2066 38.5979 33.7403 37.4722L31.5479 32.2053C31.086 31.0943 31.3273 29.824 32.1637 28.9683C34.1681 26.9029 39.8039 21.5916 48.7704 16.9089C59.8212 11.1373 72.0623 8.21021 85.1531 8.21021C97.5362 8.21021 107.764 11.7997 115.552 18.8814C122.039 24.7798 125.176 31.711 126.467 35.3168C126.8 36.2462 126.662 37.2406 126.092 38.0476C125.527 38.8473 124.603 39.3238 123.62 39.3238V39.3253ZM85.1531 9.68703C72.3051 9.68703 60.2949 12.5566 49.4587 18.216C40.6832 22.7999 35.1837 27.9813 33.2266 29.9967C32.8018 30.4304 32.6804 31.0766 32.9158 31.6402L35.1082 36.9072C35.345 37.4796 35.9016 37.8485 36.5264 37.8485H123.62C124.129 37.8485 124.59 37.6109 124.881 37.1978C125.172 36.7892 125.241 36.2831 125.072 35.8125C123.827 32.3351 120.804 25.6532 114.554 19.9702C107.048 13.1452 97.1558 9.68408 85.1531 9.68408V9.68703Z" fill="black"/>
<path d="M80.256 39.3253C79.8475 39.3253 79.5159 38.9949 79.5159 38.5877V9.79773C79.5159 9.39054 79.8475 9.06006 80.256 9.06006C80.6646 9.06006 80.9962 9.39054 80.9962 9.79773V38.5877C80.9962 38.9949 80.6646 39.3253 80.256 39.3253Z" fill="black"/>
<path d="M51.3298 39.3253C50.9212 39.3253 50.5896 38.9948 50.5896 38.5876V16.453C50.5896 16.0458 50.9212 15.7153 51.3298 15.7153C51.7384 15.7153 52.07 16.0458 52.07 16.453V38.5876C52.07 38.9948 51.7384 39.3253 51.3298 39.3253Z" fill="black"/>
<path d="M180.667 61.041H204.766C206.825 61.041 208.763 62.028 209.969 63.6922L213.429 68.4723C216.495 72.7007 213.463 78.6109 208.23 78.6109H184.235C182.211 78.6109 180.299 77.6534 179.088 76.0335L175.52 71.2534C172.367 67.0383 175.39 61.0425 180.667 61.0425V61.041Z" fill="#B3D5F4"/>
<path d="M208.231 79.347H184.236C181.986 79.347 179.841 78.273 178.495 76.4716L174.926 71.6914C173.301 69.5183 173.049 66.6605 174.269 64.2365C175.49 61.8096 177.942 60.3018 180.666 60.3018H204.764C207.056 60.3018 209.225 61.4068 210.567 63.2584L214.028 68.0385C215.609 70.219 215.83 73.0635 214.6 75.461C213.371 77.8584 210.93 79.347 208.228 79.347H208.231ZM180.667 61.7786C178.473 61.7786 176.577 62.9456 175.592 64.8989C174.609 66.8508 174.805 69.0609 176.113 70.8107L179.683 75.5923C180.75 77.0204 182.452 77.8731 184.236 77.8731H208.231C210.406 77.8731 212.295 76.7209 213.284 74.7911C214.273 72.8614 214.104 70.6602 212.829 68.9045L209.368 64.1244C208.304 62.6564 206.582 61.7801 204.766 61.7801H180.667V61.7786Z" fill="black"/>
<path d="M106.904 28.6365H120.553C121.719 28.6365 122.495 29.3107 123.179 30.252C123.179 30.252 124.446 31.9959 125.269 34.1631C126.156 36.5001 126.746 38.5862 122.516 38.5862H108.926C107.78 38.5862 106.696 38.0448 106.011 37.1256L103.99 34.4184C102.205 32.0313 103.916 28.635 106.905 28.635L106.904 28.6365Z" fill="#5197D0"/>
<path d="M122.516 39.3255H108.926C107.551 39.3255 106.239 38.669 105.417 37.5683L103.397 34.8611C102.403 33.5333 102.25 31.7865 102.996 30.3052C103.743 28.8225 105.241 27.9004 106.905 27.9004H120.554C122.196 27.9004 123.182 28.9966 123.78 29.8213C123.833 29.8951 125.115 31.6699 125.962 33.9036C126.431 35.1414 127.074 36.8351 126.236 38.0464C125.63 38.9198 124.449 39.3255 122.517 39.3255H122.516ZM106.904 29.3743C105.786 29.3743 104.818 29.9688 104.316 30.9647C103.816 31.9591 103.915 33.0862 104.581 33.9788L106.602 36.6861C107.145 37.4134 108.014 37.8487 108.923 37.8487H122.513C124.211 37.8487 124.81 37.499 125.013 37.2054C125.38 36.6758 124.997 35.5412 124.573 34.4244C123.798 32.381 122.588 30.7021 122.576 30.6844C121.901 29.7534 121.314 29.3743 120.55 29.3743H106.901H106.904Z" fill="black"/>
<path d="M228.687 62.4502H262.195C263.117 62.4502 263.984 63.272 264.525 64.6558L266.073 68.6334C267.445 72.1521 266.088 77.0679 263.746 77.0679H230.285C229.379 77.0679 228.524 76.2712 227.981 74.9228L226.383 70.9452C224.971 67.4383 226.325 62.4502 228.688 62.4502H228.687Z" fill="#595959"/>
<path d="M263.745 77.8055H230.284C229.067 77.8055 227.95 76.8303 227.292 75.1971L225.695 71.2195C224.663 68.6539 224.919 65.1942 226.292 63.1715C226.94 62.217 227.767 61.7124 228.687 61.7124H262.195C263.431 61.7124 264.56 62.7127 265.215 64.3887L266.763 68.3662C267.765 70.9363 267.491 74.3753 266.125 76.367C265.48 77.3083 264.656 77.8055 263.746 77.8055H263.745ZM228.687 63.1877C228.176 63.1877 227.769 63.6289 227.519 63.9992C226.573 65.3934 226.132 68.3411 227.07 70.6722L228.668 74.6497C229.085 75.6869 229.704 76.3301 230.284 76.3301H263.745C264.249 76.3301 264.653 75.8979 264.902 75.5335C265.844 74.1629 266.294 71.2372 265.382 68.9003L263.833 64.9228C263.416 63.8531 262.788 63.1877 262.195 63.1877H228.687Z" fill="black"/>
<path d="M216.739 87.5764H182.235C181.286 87.5764 180.392 88.0559 179.837 88.8644L178.241 91.1866C176.827 93.2403 178.225 96.1113 180.638 96.1113H297.26L297.192 87.5779H216.738L216.739 87.5764Z" fill="#595959"/>
<path d="M297.26 96.8476H180.638C179.268 96.8476 178.057 96.1041 177.398 94.8574C176.707 93.5488 176.796 91.9819 177.631 90.7677L179.225 88.447C179.918 87.4393 181.043 86.8389 182.235 86.8389H297.193C297.6 86.8389 297.931 87.1649 297.933 87.5706L298.002 96.1041C298.003 96.3003 297.926 96.4891 297.787 96.6293C297.648 96.7694 297.458 96.8476 297.261 96.8476H297.26ZM216.739 88.3142H182.235C181.532 88.3142 180.864 88.6757 180.447 89.282L178.852 91.6042C178.328 92.3655 178.273 93.3481 178.709 94.1713C179.107 94.9238 179.828 95.3738 180.639 95.3738H296.517L296.461 88.3157H216.74L216.739 88.3142Z" fill="black"/>
<path d="M295.481 61.041H286.908C284.849 61.041 282.911 62.028 281.709 63.6922L278.245 68.4723C275.179 72.7007 278.211 78.6109 283.444 78.6109H296.848" fill="#B3D5F4"/>
<path d="M296.848 79.347H283.444C280.744 79.347 278.303 77.8584 277.072 75.461C275.844 73.0635 276.063 70.2205 277.645 68.0385L281.109 63.2584C282.448 61.4068 284.615 60.3018 286.908 60.3018H295.481C295.889 60.3018 296.221 60.6322 296.221 61.0394C296.221 61.4466 295.889 61.7771 295.481 61.7771H286.908C285.09 61.7771 283.371 62.6535 282.31 64.1214L278.844 68.903C277.57 70.6602 277.401 72.8599 278.39 74.7897C279.379 76.7194 281.268 77.8717 283.442 77.8717H296.847C297.255 77.8717 297.587 78.2021 297.587 78.6093C297.587 79.0165 297.255 79.347 296.847 79.347H296.848Z" fill="black"/>
<path d="M286.757 106.784H22.833C10.2426 106.784 0 96.5733 0 84.024V54.278C0 45.1073 5.47731 36.8778 13.9553 33.3089C16.9664 32.0431 19.6961 30.0573 21.8486 27.5669C21.853 27.5624 21.856 27.558 21.8604 27.5536C21.9389 27.468 22.0144 27.3795 22.0913 27.291L22.2068 27.1582C37.3272 9.89811 59.42 0 82.817 0H159.314C172.626 0 185.595 2.40629 197.86 7.15101C203.571 9.36108 214.04 16.729 214.483 17.0403C214.662 17.1642 232.752 29.7769 243.305 38.1805C260.103 40.1693 275.846 45.5676 290.104 54.2293C294.931 57.1623 297.871 62.301 297.967 67.9766V95.6099C297.967 101.771 292.939 106.783 286.757 106.783V106.784ZM22.9633 28.5362C20.6643 31.1947 17.748 33.3148 14.5297 34.6677C6.60239 38.0035 1.47888 45.7018 1.47888 54.2766V84.0225C1.47888 95.7589 11.0568 105.307 22.8315 105.307H286.755C292.121 105.307 296.486 100.957 296.486 95.6099V67.9884C296.398 62.835 293.725 58.1567 289.333 55.4893C275.2 46.9042 259.585 41.565 242.92 39.6219C242.783 39.6057 242.652 39.5511 242.544 39.4655C232.053 31.0929 213.812 18.3755 213.629 18.2486C213.518 18.1704 202.862 10.6712 197.321 8.52751C185.228 3.84918 172.439 1.47535 159.311 1.47535H82.814C59.8448 1.47535 38.1591 11.1905 23.3186 28.129L23.209 28.2559C23.1276 28.3503 23.0462 28.4447 22.9618 28.5376L22.9633 28.5362Z" fill="black"/>
<path d="M47.2915 96.11C47.2915 111.105 39.8217 123.261 30.6094 123.261C21.3972 123.261 13.9229 111.105 13.9229 96.11C13.9229 81.1146 21.3927 68.9592 30.6094 68.9592C39.8261 68.9592 47.2915 81.119 47.2915 96.11Z" fill="#595959"/>
<path d="M30.6094 124C25.8855 124 21.4726 121.051 18.1803 115.695C14.9576 110.452 13.1826 103.497 13.1826 96.1099C13.1826 88.7229 14.9561 81.7681 18.1788 76.5247C21.4696 71.1692 25.8841 68.22 30.6094 68.22C35.3347 68.22 39.7476 71.1707 43.0384 76.5262C46.2582 81.7681 48.0317 88.7229 48.0317 96.1085C48.0317 103.494 46.2582 110.45 43.0369 115.692C39.7461 121.048 35.3332 123.997 30.6108 123.997L30.6094 124ZM30.6094 69.6968C21.8161 69.6968 14.663 81.5453 14.663 96.1099C14.663 110.675 21.8161 122.523 30.6094 122.523C39.4027 122.523 46.5513 110.675 46.5513 96.1099C46.5513 81.5453 39.3997 69.6968 30.6094 69.6968Z" fill="black"/>
<path d="M159.457 96.11C159.457 111.105 151.987 123.261 142.774 123.261C133.562 123.261 126.092 111.105 126.092 96.11C126.092 81.1146 133.562 68.9592 142.774 68.9592C151.987 68.9592 159.457 81.119 159.457 96.11Z" fill="#595959"/>
<path d="M151.742 96.11C151.742 104.171 147.728 110.706 142.774 110.706C137.821 110.706 133.806 104.171 133.806 96.11C133.806 88.0487 137.821 81.5144 142.774 81.5144C147.728 81.5144 151.742 88.0502 151.742 96.11Z" fill="#B3D5F4"/>
<path d="M142.776 111.443C140.113 111.443 137.637 109.8 135.803 106.817C134.039 103.946 133.068 100.144 133.068 96.1116C133.068 92.0795 134.039 88.2775 135.803 85.4065C137.636 82.4233 140.113 80.7798 142.776 80.7798C145.439 80.7798 147.914 82.4233 149.748 85.4079C151.513 88.279 152.484 92.0809 152.484 96.1131C152.484 100.145 151.513 103.947 149.748 106.818C147.916 109.801 145.439 111.445 142.776 111.445V111.443ZM142.776 82.2522C140.649 82.2522 138.62 83.6449 137.066 86.1751C135.442 88.8175 134.548 92.3465 134.548 96.1101C134.548 99.8737 135.442 103.403 137.066 106.045C138.62 108.574 140.649 109.968 142.776 109.968C144.903 109.968 146.931 108.575 148.486 106.047C150.109 103.404 151.004 99.8752 151.004 96.1116C151.004 92.348 150.109 88.8204 148.486 86.1766C146.931 83.6464 144.903 82.2537 142.776 82.2537V82.2522Z" fill="black"/>
<path d="M39.5744 96.11C39.5744 104.171 35.5597 110.706 30.6064 110.706C25.6532 110.706 21.6384 104.171 21.6384 96.11C21.6384 88.0487 25.6532 81.5144 30.6064 81.5144C35.5597 81.5144 39.5744 88.0502 39.5744 96.11Z" fill="#B3D5F4"/>
<path d="M30.6064 111.443C27.9432 111.443 25.4681 109.8 23.6339 106.817C21.8693 103.946 20.8982 100.144 20.8982 96.1116C20.8982 92.0795 21.8693 88.2775 23.6339 85.4065C25.4666 82.4233 27.9432 80.7798 30.6064 80.7798C33.2695 80.7798 35.7447 82.4233 37.5788 85.4079C39.3434 88.279 40.3145 92.0809 40.3145 96.1131C40.3145 100.145 39.3434 103.947 37.5788 106.818C35.7462 109.801 33.2695 111.445 30.6064 111.445V111.443ZM30.6064 82.2522C28.4791 82.2522 26.451 83.6449 24.8966 86.1751C23.2727 88.8175 22.3785 92.3465 22.3785 96.1101C22.3785 99.8737 23.2727 103.403 24.8966 106.045C26.451 108.574 28.4791 109.968 30.6064 109.968C32.7336 109.968 34.7617 108.575 36.3161 106.047C37.94 103.404 38.8342 99.8752 38.8342 96.1116C38.8342 92.348 37.94 88.8204 36.3161 86.1766C34.7617 83.6464 32.7336 82.2537 30.6064 82.2537V82.2522Z" fill="black"/>
<path d="M142.776 124C138.053 124 133.639 121.051 130.35 115.695C127.128 110.453 125.355 103.497 125.355 96.1114C125.355 88.7258 127.128 81.7695 130.35 76.5276C133.641 71.1721 138.053 68.2229 142.776 68.2229C147.498 68.2229 151.911 71.1736 155.202 76.5291C158.423 81.7725 160.197 88.7273 160.197 96.1114C160.197 103.496 158.423 110.453 155.202 115.695C151.911 121.051 147.498 124 142.776 124ZM142.776 69.6968C133.985 69.6968 126.834 81.5453 126.834 96.1099C126.834 110.675 133.985 122.523 142.776 122.523C151.566 122.523 158.718 110.675 158.718 96.1099C158.718 81.5453 151.566 69.6968 142.776 69.6968Z" fill="black"/>
</g>
<defs>
<clipPath id="clip0_315_7576">
<rect width="298" height="124" fill="white"/>
</clipPath>
</defs>
</svg>
