<svg width="14" height="14" overflow="visible" style="display: block;" viewBox="0 0 14 14" fill="none" xmlns="http://www.w3.org/2000/svg">
<g id="ph:warning-octagon-bold">
<path id="Vector" d="M6.34375 7.21875V4.375C6.34375 4.20095 6.41289 4.03403 6.53596 3.91096C6.65903 3.78789 6.82595 3.71875 7 3.71875C7.17405 3.71875 7.34097 3.78789 7.46404 3.91096C7.58711 4.03403 7.65625 4.20095 7.65625 4.375V7.21875C7.65625 7.3928 7.58711 7.55972 7.46404 7.68279C7.34097 7.80586 7.17405 7.875 7 7.875C6.82595 7.875 6.65903 7.80586 6.53596 7.68279C6.41289 7.55972 6.34375 7.3928 6.34375 7.21875ZM12.9063 5.00664V8.99336C12.9066 9.13704 12.8785 9.27938 12.8235 9.41211C12.7685 9.54485 12.6877 9.66535 12.5858 9.76664L9.76664 12.5858C9.66537 12.6877 9.54487 12.7685 9.41213 12.8235C9.27939 12.8786 9.13705 12.9067 8.99336 12.9063H5.00664C4.86295 12.9067 4.72061 12.8786 4.58787 12.8235C4.45513 12.7685 4.33463 12.6877 4.23336 12.5858L1.41422 9.76664C1.31231 9.66535 1.23151 9.54485 1.1765 9.41211C1.12149 9.27938 1.09336 9.13704 1.09375 8.99336V5.00664C1.09336 4.86296 1.12149 4.72062 1.1765 4.58789C1.23151 4.45515 1.31231 4.33465 1.41422 4.23336L4.23336 1.41422C4.33463 1.31228 4.45513 1.23147 4.58787 1.17645C4.72061 1.12144 4.86295 1.09333 5.00664 1.09375H8.99336C9.13705 1.09333 9.27939 1.12144 9.41213 1.17645C9.54487 1.23147 9.66537 1.31228 9.76664 1.41422L12.5858 4.23336C12.6877 4.33465 12.7685 4.45515 12.8235 4.58789C12.8785 4.72062 12.9066 4.86296 12.9063 5.00664ZM11.5938 5.09742L8.90258 2.40625H5.09742L2.40625 5.09742V8.90258L5.09742 11.5938H8.90258L11.5938 8.90258V5.09742ZM7 8.53125C6.82694 8.53125 6.65777 8.58257 6.51388 8.67871C6.36998 8.77486 6.25783 8.91152 6.19161 9.0714C6.12538 9.23129 6.10805 9.40722 6.14181 9.57695C6.17558 9.74669 6.25891 9.9026 6.38128 10.025C6.50365 10.1473 6.65956 10.2307 6.8293 10.2644C6.99903 10.2982 7.17496 10.2809 7.33485 10.2146C7.49473 10.1484 7.63139 10.0363 7.72754 9.89237C7.82368 9.74848 7.875 9.57931 7.875 9.40625C7.875 9.17419 7.78281 8.95163 7.61872 8.78753C7.45462 8.62344 7.23206 8.53125 7 8.53125Z" fill="var(--fill-0, #C2410C)"/>
</g>
</svg>
