<svg width="14" height="14" overflow="visible" style="display: block;" viewBox="0 0 14 14" fill="none" xmlns="http://www.w3.org/2000/svg">
<g id="ph:hourglass-high-bold">
<path id="Vector" d="M10.0625 1.09375H3.9375C3.64742 1.09375 3.36922 1.20898 3.1641 1.4141C2.95898 1.61922 2.84375 1.89742 2.84375 2.1875V4.15625C2.84417 4.32597 2.88389 4.4933 2.95979 4.6451C3.0357 4.79691 3.14572 4.92908 3.28125 5.03125L5.90625 7L3.28125 8.96875C3.14572 9.07092 3.0357 9.20309 2.95979 9.3549C2.88389 9.5067 2.84417 9.67403 2.84375 9.84375V11.8125C2.84375 12.1026 2.95898 12.3808 3.1641 12.5859C3.36922 12.791 3.64742 12.9062 3.9375 12.9062H10.0625C10.3526 12.9062 10.6308 12.791 10.8359 12.5859C11.041 12.3808 11.1562 12.1026 11.1562 11.8125V9.86344C11.1561 9.69401 11.1168 9.52691 11.0415 9.37514C10.9662 9.22337 10.8569 9.09104 10.722 8.98844L8.08828 7L10.722 5.00937C10.8569 4.90678 10.9662 4.77444 11.0415 4.62267C11.1168 4.47091 11.1561 4.3038 11.1562 4.13437V2.1875C11.1563 1.89742 11.041 1.61922 10.8359 1.4141C10.6308 1.20898 10.3526 1.09375 10.0625 1.09375ZM9.84375 2.40625V3.28125H4.15625V2.40625H9.84375ZM7 6.17969L4.88523 4.59375H9.09617L7 6.17969ZM9.84375 11.5938H4.15625V9.95312L7 7.82031L9.84375 9.97117V11.5938Z" fill="var(--fill-0, #64758B)"/>
</g>
</svg>
