<svg width="107.169" height="22" viewBox="0 0 107.169 22" fill="none" xmlns="http://www.w3.org/2000/svg">
<g id="Logo" clip-path="url(#clip0_0_17)">
<path id="Vector" d="M39.1816 1.49811H35.8425L35.7486 2.30937C35.4991 4.5248 34.625 5.52333 32.7219 6.14796V9.08133H34.3755V16.8829C34.3755 20.4714 36.0292 22.0006 39.2438 22.0006C40.3045 22.0006 41.2719 21.8445 42.1149 21.595V16.9769C41.4909 17.2575 40.898 17.3825 40.4296 17.3825C39.6805 17.3825 39.1816 17.0391 39.1816 16.0406V9.08133H42.2711V4.86822H39.1816V1.49811Z" fill="var(--fill-0, #0B6DFF)"/>
<path id="Vector_2" d="M25.9848 15.2598C25.9848 16.6017 25.2357 17.413 24.0188 17.413C22.8019 17.413 22.1468 16.6017 22.1468 15.2598V4.86822H17.3414V16.4145C17.3414 19.8157 19.3385 21.9689 22.6153 21.9689C24.1756 21.9689 25.4865 21.4693 26.5161 20.3775H26.5783V21.7816H30.7908V4.86822H25.9854V15.2598H25.9848Z" fill="var(--fill-0, #0B6DFF)"/>
<path id="Vector_3" d="M107.169 4.86822H102.144L100.085 9.98592H100.022L97.9318 4.86822H92.4078L96.3715 12.9815L92.4078 21.7816H97.4944L99.5543 16.2894H99.6165L101.708 21.7816H107.137L103.206 13.231L107.169 4.86822Z" fill="var(--fill-0, #0B6DFF)"/>
<path id="Vector_4" d="M4.27532 0L0 21.7816H4.96154L5.42939 18.9416H10.2348L10.7026 21.7816H15.8203L11.484 0H4.27532ZM6.11623 14.8541L7.8327 4.68096H7.89492L9.58028 14.8541H6.11623Z" fill="var(--fill-0, #0B6DFF)"/>
<path id="Vector_5" d="M52.2222 4.64985C47.0422 4.64985 43.6093 8.14501 43.6093 13.3249C43.6093 18.5048 47.0416 22 52.2222 22C57.4027 22 60.8039 18.5359 60.8039 13.3249C60.8039 8.11391 57.3716 4.64985 52.2222 4.64985ZM52.2222 17.2879C50.1001 17.2879 48.6026 15.6654 48.6026 13.3249C48.6026 10.9844 50.0696 9.36191 52.2222 9.36191C54.3748 9.36191 55.8106 10.9533 55.8106 13.3249C55.8106 15.6965 54.3436 17.2879 52.2222 17.2879Z" fill="var(--fill-0, #0B6DFF)"/>
<path id="Vector_6" d="M84.2103 4.68097C79.1237 4.68097 75.6914 8.05108 75.6914 13.356C75.6914 18.661 79.1244 21.9689 85.0222 21.9689C86.7698 21.9689 88.7357 21.6566 90.3583 20.9082V16.1339C88.8919 17.1635 87.0193 17.632 85.3028 17.632C83.0563 17.632 81.3398 16.7896 80.7469 14.8548H91.6691C92.8238 8.30181 89.4848 4.68159 84.2109 4.68159L84.2103 4.68097ZM80.7463 11.2657C81.2458 9.70535 82.3999 8.73792 84.0853 8.73792C85.7706 8.73792 87.0186 9.6114 87.237 11.2657H80.7463Z" fill="var(--fill-0, #0B6DFF)"/>
<path id="Vector_7" d="M71.3485 0L68.4251 17.1007H68.4182L68.4164 17.1119L68.3635 17.1106L65.5527 0H60.4362L64.7738 21.7816H71.9825L76.2572 0H71.3485Z" fill="var(--fill-0, #0B6DFF)"/>
</g>
<defs>
<clipPath id="clip0_0_17">
<rect width="107.169" height="22" fill="white"/>
</clipPath>
</defs>
</svg>
