<svg width="14.5008" height="13.4661" overflow="visible" style="display: block;" viewBox="0 0 14.5008 13.4661" fill="none" xmlns="http://www.w3.org/2000/svg">
<path id="Vector" d="M14.0208 10.4093C14.3614 9.66854 14.5248 8.85865 14.498 8.04379C14.4712 7.22894 14.2551 6.43151 13.8666 5.7147C13.4782 4.9979 12.9281 4.38141 12.26 3.9141C11.5919 3.44679 10.8242 3.1415 10.0177 3.02241C9.42962 1.76747 8.36924 0.795949 7.06776 0.319712C5.76628 -0.156525 4.32929 -0.0988382 3.07018 0.480192C1.81106 1.05922 0.831968 2.11262 0.346424 3.41066C-0.139119 4.70869 -0.091723 6.14606 0.478277 7.40929L0.0507766 8.86304C-0.0125746 9.07847 -0.0167235 9.30699 0.0387658 9.52458C0.0942552 9.74217 0.207334 9.94079 0.366117 10.0996C0.5249 10.2584 0.723523 10.3714 0.941112 10.4269C1.1587 10.4824 1.38722 10.4783 1.60265 10.4149L3.0564 9.98741C3.50824 10.1945 3.98719 10.3363 4.4789 10.4087C5.06098 11.6735 6.12137 12.6556 7.42711 13.1392C8.73285 13.6227 10.1771 13.5681 11.4427 12.9874L12.8964 13.4149C13.1118 13.4783 13.3404 13.4824 13.5579 13.4269C13.7755 13.3714 13.9742 13.2584 14.1329 13.0996C14.2917 12.9408 14.4048 12.7422 14.4603 12.5246C14.5158 12.307 14.5116 12.0785 14.4483 11.863L14.0208 10.4093ZM3.12453 8.43491C3.05279 8.43485 2.98143 8.44516 2.91265 8.46554L1.61765 8.84616L1.99953 7.55054C2.05429 7.36263 2.03343 7.16077 1.9414 6.98804C1.51618 6.19557 1.38992 5.27667 1.58564 4.39888C1.78136 3.52109 2.28603 2.74288 3.00763 2.20612C3.72924 1.66936 4.61971 1.40981 5.51671 1.47479C6.4137 1.53977 7.25747 1.92495 7.89418 2.5601C8.53088 3.19526 8.91812 4.03809 8.98529 4.93492C9.05246 5.83175 8.79508 6.72286 8.26008 7.44577C7.72508 8.16868 6.9481 8.67524 6.07079 8.87311C5.19348 9.07097 4.27428 8.94695 3.48078 8.52366C3.37121 8.46502 3.2488 8.43452 3.12453 8.43491ZM12.5552 9.98491C12.4631 10.1576 12.4423 10.3595 12.497 10.5474L12.8777 11.843L11.5845 11.4662C11.3955 11.4104 11.1921 11.4313 11.0183 11.5243C10.212 11.9554 9.27598 12.077 8.38627 11.8664C7.49656 11.6558 6.71446 11.1274 6.18703 10.3805C7.49007 10.1452 8.65589 9.42568 9.45054 8.3665C10.2452 7.30731 10.6099 5.98679 10.4714 4.66991C10.9845 4.84665 11.453 5.13263 11.8448 5.5081C12.2366 5.88358 12.5422 6.33961 12.7405 6.8447C12.9389 7.34979 13.0253 7.89192 12.9937 8.43364C12.9621 8.97537 12.8133 9.50378 12.5577 9.98241L12.5552 9.98491Z" fill="var(--fill-0, white)"/>
</svg>
