<svg width="211.822" height="150.322" overflow="visible" style="display: block;" viewBox="0 0 211.822 150.322" fill="none" xmlns="http://www.w3.org/2000/svg">
<g id="Group">
<path id="Vector" d="M121.922 143.744C118.205 143.368 114.451 140.437 112.632 137.282C110 132.723 110.303 126.907 110.933 121.849C111.541 116.958 112.747 112.156 113.962 107.399C113.54 107.698 113.01 107.693 112.543 107.883C111.802 108.182 111.35 108.707 110.548 109.005C107.34 110.195 104.109 110.516 100.97 111.197C100.664 111.264 100.337 111.167 100.031 111.209C99.7734 113.249 98.6544 115.265 97.6312 117.031C94.1359 123.059 87.1791 130.062 80.2897 131.886C77.064 132.741 73.3879 132.947 70.8573 130.418L70.1586 131.471C71.6447 135.53 73.0119 139.666 74.0085 143.879C74.2125 144.741 75.4538 149.978 75.0974 150.322L74.5636 150.219C73.3754 143.881 71.5542 137.683 69.3837 131.624C67.1652 132.214 64.8386 132.482 62.5474 132.663C61.7015 132.73 60.8042 132.805 59.9601 132.846C59.4175 132.87 58.7099 132.929 58.2187 132.668C58.4173 133.534 59.2685 134.156 59.5594 134.961C60.102 136.458 59.8112 138.16 57.9616 138.206C59.4264 140.4 58.8305 142.78 55.8176 142.347C55.165 144.197 53.1505 143.845 51.7283 143.14C51.1005 142.828 49.3892 141.21 49.196 141.173C49.0204 141.139 48.1692 141.679 47.4882 141.68C43.0939 141.696 41.7391 135.802 38.3378 134.067C34.5464 137.201 29.5438 139.496 24.7274 140.544C22.9062 140.939 21.0602 141.067 19.2265 141.361C18.8435 142.649 18.1572 143.842 17.6695 145.083C17.3539 145.883 16.2881 149.483 15.9849 149.802C15.7791 150.018 15.6586 149.999 15.3801 149.974C14.8393 149.419 18.1678 142.352 18.3203 141.148C17.5649 141.358 16.6233 141.235 15.8128 141.147C-4.65504 138.889 -0.826403 115.613 3.17425 101.509C3.98821 98.6401 4.97774 95.8117 6.17651 93.0826C6.19957 92.8272 4.63016 91.4458 4.30209 91.0326C0.725269 86.5018 3.36932 82.5792 6.71206 79.0911C11.6845 73.9024 17.0524 72.3649 18.9268 64.4701C20.5388 57.6801 19.5067 50.3102 20.4164 43.2843C21.8209 32.4405 27.0771 21.5665 37.1319 16.3796C48.9495 10.2829 65.954 16.6473 69.1584 29.9862C69.4404 31.1602 69.4369 32.8572 69.7756 33.8698C70.0735 34.7582 71.1339 35.769 71.5081 36.9837C72.2299 39.3263 71.8344 43.3889 70.1692 45.2651C69.9777 45.4797 69.5894 45.5914 69.5699 45.6198C69.5468 45.6517 69.7348 46.1039 69.7383 46.3699C69.7543 48.0102 69.8926 50.1896 69.7436 51.759C69.7046 52.1757 69.7436 52.9755 69.7436 52.9755C69.4014 58.0188 69.0964 63.1242 68.2948 68.1409C67.887 70.6998 67.2574 73.2303 66.7751 75.775C75.9344 80.8999 79.4935 91.8608 81.6747 101.511C82.9213 100.562 83.9853 99.353 85.2267 98.4007C85.9307 97.8599 87.5994 97.0761 88.0002 96.6735C88.3992 96.2728 89.0393 94.5225 89.4685 93.8522C90.286 92.5807 91.7703 90.9865 92.9442 90.0271C94.7867 88.5181 98.0674 86.101 100.07 84.8562C100.531 84.5689 101.015 84.2355 101.541 84.0794C102.912 83.6716 104.152 83.9713 104.613 85.4112C105.239 87.3672 104.175 88.268 103.379 89.8977L101.235 92.3378C105.677 91.4618 109.897 89.0341 114.469 88.8692C116.737 88.7876 118.901 89.0004 118.723 91.8129L120.099 92.1658C123.726 85.4857 128.06 78.5201 135.1 75.0533C139.267 73.0015 144.27 71.4304 148.804 70.409C149.478 70.2565 152.899 69.7794 153.085 69.4957L153.685 65.6813C150.544 65.1085 146.934 62.7819 145.13 60.1255C142.17 55.7685 142.413 51.5728 143.348 46.6022C143.649 44.9956 144.151 43.4333 144.625 41.8745C143.039 40.5676 140.991 38.9432 142.688 36.7674C143.727 35.4356 145.281 34.8504 146.932 35.386C147.063 32.8342 147.732 30.0678 148.404 27.5958C149.086 25.0759 149.957 22.6092 151.039 20.2383C149.615 19.0236 149.535 17.894 149.927 16.1384C150.555 13.3277 152.348 10.4603 155.105 9.37321C155.563 9.19233 156.16 9.20297 156.572 9.015C156.682 8.96357 157.054 8.38725 157.256 8.24361C162.516 4.51433 167.329 3.31556 173.83 4.07809C174.341 4.13838 176.426 4.44339 176.743 4.58348C177.031 4.71116 176.962 5.21833 177.398 5.09597L177.57 4.75195C177.488 5.31409 177.974 5.01795 178.318 5.09775C178.464 5.13144 178.423 5.42936 178.543 5.43822C180.819 5.60846 184.489 8.22588 186.231 9.85378C190.489 13.8331 193.34 20.2436 192.978 26.1257C192.916 27.1312 192.478 28.502 192.48 29.4347C192.48 30.6246 192.934 31.7613 192.805 33.2225C192.547 36.1503 190.029 40.5215 186.921 41.1031C187.493 42.2132 187.696 43.9369 187.431 45.1605C187.364 45.4708 187.187 46.2972 187.187 46.2972L186.812 47.5527L186.566 48.0173L186.215 48.5741C186.215 48.5741 184.383 51.2323 183.101 52.08C182.069 52.7609 180.895 53.2131 179.669 53.41L178.769 59.6928C178.3 62.601 177.646 65.6246 177.243 68.5523C177.141 69.2971 177.128 70.1731 177.048 70.9356C180.842 71.9943 184.819 72.6735 188.57 73.9893C204.732 79.6586 209.093 91.9778 210.985 107.831C212.345 119.228 213.524 138.632 201.898 145.31C200.37 146.188 198.841 146.725 197.16 147.236L197.309 150.155L196.725 150.162L196.266 147.389C194.284 147.671 192.306 147.6 190.322 147.36C181.01 146.236 166.391 137.288 159.397 131.03C157.666 129.48 155.437 127.405 155.857 124.873C153.514 123.796 151.583 122.108 149.707 120.383C149.744 121.163 148.664 122.293 148.53 122.755C148.402 123.19 148.521 123.818 148.416 124.373C147.705 128.15 140.214 135.722 137.152 138.208C134.105 140.682 130.573 142.59 126.76 143.567L125.976 149.971L125.471 149.983L125.815 143.578C125.747 143.494 125.595 143.752 125.558 143.752C124.419 143.752 123.017 143.861 121.922 143.752V143.744ZM168.574 4.7484C164.791 5.23606 160.743 6.26459 158.015 9.07175C159.517 8.96889 160.854 9.80235 162.333 9.93535C162.53 9.14091 163.374 8.40321 163.991 7.86589C165.389 6.64762 167.089 5.83722 168.574 4.74663V4.7484ZM174.977 5.09243C173.787 5.23252 172.406 4.66151 171.26 4.73954C169.691 4.84771 165.555 7.45094 164.337 8.55926C164.114 8.76319 162.844 10.1003 163.034 10.2847C164.905 10.2634 166.417 11.3221 168.21 11.4799C168.244 11.0401 168.556 10.6269 168.85 10.3042C170.4 8.60182 172.782 6.7026 174.724 5.45241C174.862 5.36374 175.08 5.54994 174.975 5.09243H174.977ZM180.517 6.82496C179.387 6.62989 177.224 5.36729 176.146 5.65102C175.835 5.73259 174.523 6.55009 174.16 6.78417C172.168 8.07337 170.248 9.92471 168.755 11.737C168.864 12.269 171.282 12.9145 171.858 13.1451C172.299 13.3224 173.954 14.3562 174.268 14.076C174.296 13.8686 174.328 13.6682 174.454 13.4908C176.234 11.0171 178.015 9.19233 180.295 7.21863C180.418 7.11401 180.623 7.2275 180.515 6.82496H180.517ZM182.246 19.114C183.321 16.3618 184.17 12.6308 183.815 9.67113C183.693 8.65502 181.631 7.08563 180.742 7.74176C180.629 7.82688 180.584 8.08401 180.435 8.20459C178.549 9.73851 177.096 11.3274 175.598 13.2426C175.445 13.4359 174.794 14.3651 174.818 14.5052L182.244 19.114H182.246ZM159.225 9.94067C155.877 9.12672 153.31 10.7475 151.748 13.6274C150.902 15.1861 149.647 18.543 151.697 19.5981C152.66 18.6086 153.921 18.4987 155.243 18.5945C155.274 16.0515 155.689 13.4625 157.403 11.4923L159.223 9.94067H159.225ZM185.598 21.9957C186.002 22.3503 186.488 22.6412 186.835 23.0916C188.176 20.3376 188.44 16.7076 187.74 13.709C187.325 11.9357 186.087 10.8096 184.674 9.76689C185.018 12.2034 184.429 15.0336 183.759 17.4205C183.617 17.9259 182.941 19.263 182.945 19.5503C182.952 20.0415 184.814 21.1498 185.28 21.5417C185.427 21.6641 185.477 21.8893 185.598 21.9957ZM165.804 11.4976L159.913 10.2084C159.299 10.4283 157.196 12.9447 156.905 13.5902C156.235 15.0744 156.377 17.0127 155.937 18.5927C158.001 18.6299 160.001 19.1442 161.989 19.6283C162.491 17.2609 162.956 14.8332 164.52 12.895C164.917 12.4038 165.316 12.2123 165.692 11.8559C165.839 11.7175 165.848 11.7353 165.804 11.4959V11.4976ZM169.437 22.5755C170.021 19.7116 171.255 16.9825 173.069 14.6985C171.971 13.8721 170.606 13.5494 169.347 13.0617C167.364 12.2939 167.088 11.2973 165.369 13.2266C163.651 15.156 163.417 17.5642 162.86 19.9794C165.203 20.3944 167.263 21.6942 169.437 22.5773V22.5755ZM190.036 25.8633C190.888 23.2459 191.84 20.4032 190.641 17.7308L188.829 14.4396C188.728 15.7678 189.068 16.9772 188.978 18.3125C188.861 20.061 188.204 21.8928 187.618 23.5314C187.621 23.7583 189.306 25.4873 189.604 25.693C189.751 25.7941 189.774 25.9342 190.036 25.8633ZM175.644 26.014C176.839 23.996 178.205 22.2031 179.043 19.9759C179.272 19.3712 179.804 18.4136 179.125 17.9951L173.874 14.9733C173.012 15.1241 170.108 21.719 170.297 22.8309C170.395 23.4037 171.035 23.354 171.461 23.5828C172.447 24.1148 173.585 24.7709 174.523 25.3738C174.844 25.5813 174.965 26.2215 175.642 26.014H175.644ZM176.229 26.241C176.126 26.3917 176.176 26.5868 176.273 26.734C176.424 26.9645 178.582 28.4399 179.042 28.8123C179.501 29.1847 180.001 30.137 180.693 29.7646C182.111 28.3548 185.53 24.1432 184.583 22.0577C184.261 21.3466 180.925 19.4474 180.173 18.7665C179.655 21.4725 178.084 23.7495 176.591 25.9963C176.497 26.1381 176.389 26.1984 176.229 26.241ZM150.399 35.9038C151.083 36.0581 151.739 36.2638 152.475 36.4234C153.154 36.5706 154.435 36.5014 154.208 37.2887C151.331 37.3171 148.001 35.6821 145.134 36.0918C144.444 36.1911 143.247 36.9518 143.032 37.6257C142.231 40.1509 145.696 41.6174 147.591 42.0856L154.029 43.7791C153.043 44.4547 151.66 43.7826 150.613 43.5627C150.241 43.4847 149.84 43.5698 149.485 43.4794C148.927 43.3375 145.604 41.9685 145.38 42.1334C145.203 43.029 144.855 43.8766 144.63 44.7615C143.004 51.1578 142.591 57.462 148.147 62.1293C151.711 65.1245 157.815 66.0324 162.209 64.5907C163.323 64.2254 164.293 63.2394 165.458 63.2536C165.942 63.6739 163.098 64.9737 162.86 65.0677C160.182 66.1158 157.219 66.1885 154.382 65.8498L153.862 69.4833C161.322 69.8965 168.769 70.3256 176.19 71.2158C176.944 65.3231 177.777 59.4552 178.976 53.644C179.249 52.7308 176.195 53.0695 176.366 52.2626C177.004 51.626 177.983 52.3814 178.746 52.4754C183.56 53.0659 187.646 46.2954 186.412 42.0395C185.998 40.6137 184.759 38.9025 183.186 38.6879C180.352 38.3013 178.779 40.2963 177.458 42.4597C176.531 42.4083 174.752 42.1778 174.798 41.0198C174.865 39.25 175.39 36.4588 175.699 34.6323C176.066 32.4529 176.704 30.3107 176.979 28.1154C171.838 24.5209 165.972 21.2243 159.778 19.8588C157.971 19.4616 153.454 18.4295 152.152 20.0876C151.835 20.4919 151.064 22.1907 150.835 22.7511C149.287 26.5495 148.531 30.9704 147.638 34.9746L147.92 35.5261C148.732 35.6537 149.601 35.7211 150.399 35.902V35.9038ZM39.1801 38.6737C40.535 38.6436 41.8951 38.695 43.2482 38.6737C44.2785 34.3149 46.8002 31.1282 51.6503 31.5698C53.7694 31.7631 56.3585 34.2883 57.004 36.2549C57.2948 37.1416 57.3143 38.0796 57.4704 38.9894L58.6532 39.1933C58.5645 36.8685 59.3536 34.3362 61.2653 32.8891C61.5508 32.6728 63.2178 31.7489 63.4146 31.7489H66.5303C66.5676 31.7489 66.7449 32.0043 66.963 31.9209C66.6243 30.4828 64.1931 29.5553 62.8684 29.511C62.4056 29.495 61.7849 29.8355 61.4178 29.5908C61.0667 29.3053 61.3433 29.0889 61.6022 28.8992C62.606 28.1668 64.2818 28.6243 65.3848 28.9134C65.6064 28.9719 65.86 29.0943 65.7465 28.7236C65.6596 28.4381 64.6914 27.0886 64.436 26.7446C62.23 23.7796 59.3306 21.5364 55.7892 20.366C52.4288 24.5829 48.4547 28.7307 44.3672 32.2649C43.1737 33.297 41.8898 34.3255 40.6378 35.2867C40.3896 35.4764 39.5827 35.7956 39.4834 35.9499C39.3841 36.1042 38.9407 38.2605 38.9141 38.5868C38.8716 39.1206 39.1057 38.6755 39.1766 38.6737H39.1801ZM191.599 28.4594C191.838 28.4275 191.897 28.2253 191.934 28.0178C192.164 26.7446 192.18 24.9926 192.12 23.691C192.101 23.2778 192.109 22.5578 191.856 22.2297C191.726 23.7637 191.072 25.1398 190.411 26.5017L191.599 28.4594ZM183.042 32.5132C183.73 33.2367 184.324 34.0702 184.931 34.8611C185.147 34.8664 187.321 31.8996 187.584 31.4581C188.158 30.4881 189.714 27.3741 189.256 26.3846L185.623 22.9196C185.073 25.92 183.276 28.6669 180.872 30.4668C181.469 31.2329 182.319 31.7507 183.042 32.5114V32.5132ZM190.38 27.5958C190.065 27.3174 190.095 27.6703 190.036 27.8512C189.082 30.7931 187.651 33.3059 185.404 35.4693C186.204 36.9288 187.483 38.3244 187.616 40.0587C190.698 38.1541 193.09 33.1019 191.576 29.605C191.487 29.3993 190.467 27.6738 190.38 27.5958ZM46.4242 45.884C53.89 53.2574 61.0827 37.521 53.2339 33.1019C46.5342 29.3301 40.7903 40.3211 46.4242 45.884ZM67.2734 32.9973C59.0699 30.0589 57.2061 42.293 62.8241 45.8414C64.4786 46.8859 65.9753 47.0402 67.722 46.095C69.0432 45.3804 68.7435 44.6675 68.6938 43.2613C68.6477 41.9809 68.4863 40.3991 68.348 39.1064C68.2629 38.3119 67.5589 33.281 67.2734 32.9973ZM69.561 44.5593C71.423 42.0891 71.6287 38.1346 69.8163 35.5598C69.4244 35.4871 69.5769 35.73 69.5592 35.9889C69.4581 37.4235 69.1283 38.6329 69.0237 39.798C68.919 40.9631 69.7224 43.2098 69.561 44.5611V44.5593ZM43.0762 39.5373C42.4023 39.6277 39.0365 39.3387 38.7776 39.7412C38.3981 41.816 38.3857 44.6037 37.2241 46.4089C36.8606 46.9728 36.4261 47.5208 35.7186 47.519C35.3994 47.519 34.6563 47.0987 34.7769 47.574C34.9844 48.3932 35.598 49.9165 35.9473 50.7322C36.9688 53.1298 38.6144 55.9884 40.3115 57.9656C40.7779 58.51 42.7215 60.5103 43.2482 60.7444C43.4397 60.8295 43.7536 60.5227 44.0391 60.4855C45.1581 60.3401 48.82 61.8084 49.0966 63.0266C49.3307 64.0587 49.1605 65.2468 47.9635 65.4685C47.0023 65.6458 43.4255 64.2733 42.7197 63.5196C42.0547 62.8103 42.5105 62.2606 42.3048 61.8722C42.1984 61.6718 39.9054 59.7017 39.4444 59.1785C38.4123 58.0046 37.5735 56.6569 36.6301 55.4138L34.9401 52.6918C35.3178 54.8233 35.0234 57.0116 35.0075 59.1519C34.9773 62.9522 35.2593 66.763 34.3052 70.4763C34.041 71.5013 33.0976 72.2461 34.1793 73.4449C35.6281 75.048 39.5543 76.0038 41.6522 76.3584C44.5463 76.8496 46.841 76.7503 49.6889 76.0091C51.5474 75.525 54.179 74.4308 54.1666 72.1645C54.1649 71.7123 53.9698 71.2921 53.9733 70.7902C53.9804 69.8043 54.1702 68.9016 54.1524 67.9263C52.4358 68.226 50.643 68.1746 48.9282 67.8713C48.3252 67.7649 45.1687 67.0308 45.3265 66.2842C45.5376 66.0005 45.5535 66.0413 45.8514 66.0963C47.4262 66.3818 48.8253 67.1088 50.6058 67.2312C61.5207 67.9795 66.8318 60.4926 68.4988 50.6808C68.5555 50.3421 68.4526 49.9609 68.5147 49.686C68.559 49.4838 68.5094 49.3065 68.5094 49.3065C68.6016 48.5777 68.7878 47.6041 68.692 46.8895C68.6052 46.2404 67.8639 47.1076 67.4826 47.2406C66.1154 47.7194 64.8439 47.4924 63.443 47.3452C62.6857 48.6096 59.3962 51.1632 57.9563 50.3563C57.6619 50.1683 57.9687 49.9325 58.1442 49.8456C58.5149 49.6594 59.0238 49.6381 59.4618 49.4324C60.8025 48.8047 61.6395 47.9588 62.6308 46.8912C60.3414 45.2421 58.9883 42.88 58.6301 40.0764L57.5307 39.8778C57.5803 45.6446 52.0759 51.5533 46.4544 47.1466C44.1082 45.3077 43.101 42.4491 43.0762 39.5338V39.5373ZM132.915 114.923C132.807 113.853 132.995 112.635 132.915 111.548L132.405 111.644L117.943 120.032C117.783 120.025 117.835 119.72 117.876 119.618C117.994 119.319 120.342 117.833 120.812 117.535C121.71 116.966 125.753 114.891 126.067 114.307C126.326 113.829 126.506 112.534 126.629 111.928C127.212 109.051 127.54 106.106 128.149 103.235C128.397 102.066 130.145 94.7229 130.661 94.3221C130.791 94.2228 130.851 94.2175 131.011 94.2405C131.309 94.5722 129.363 101.417 129.129 102.483C128.326 106.147 127.851 109.887 127.038 113.55L127.289 113.798L132.889 110.658C132.944 107.993 133.485 105.235 134.398 102.731C134.859 101.469 135.66 99.6669 136.898 99.0835C136.671 98.4273 136.269 98.0266 136.205 97.2694C136.063 95.5723 137.159 93.9391 138.975 94.0668C138.521 93.0755 138.226 92.5523 138.714 91.4688C139.432 89.8746 141.408 89.5466 142.956 89.9119C142.224 85.6382 147.338 86.578 149.877 87.5782C150.466 87.8105 150.523 87.6491 151.954 88.6227C157.006 92.0647 159.849 95.8064 160.312 96.5476C160.774 97.2889 162.828 100.552 163.128 101.158C164.493 103.932 165.591 106.533 166.323 109.56L168.694 110.305L184.42 117.776L184.649 117.549L183.111 100.546L183.379 99.7786L183.984 101.94L185.451 118.131L195.301 122.821L195.583 123.49L166.504 110.509C166.401 110.959 166.896 110.881 167.017 111.163C167.66 112.667 166.015 116.714 165.323 118.242C164.144 120.842 162.186 124.082 159.806 125.708C159.186 126.132 158.448 126.646 157.675 126.605L158.02 125.743L156.637 125.396C156.538 127.696 159.079 129.71 160.709 131.102C166.632 136.163 174.779 141.09 181.964 144.12C193.902 149.155 205.085 147.392 209.304 133.837C212.815 122.557 210.758 101.772 206.142 90.8624C199.32 74.7394 183.037 72.3561 167.453 71.0438C163.837 70.7388 160.01 70.6484 156.377 70.5207C149.799 70.2919 140.707 73.0955 134.816 76.1403C128.204 79.5575 124.772 86.0443 121.03 92.1197C120.919 92.3023 120.644 92.3537 120.626 92.4282C120.505 92.9443 120.896 92.774 121.027 93.0666C121.752 94.6874 120.768 95.2779 120.63 96.592C120.562 97.2286 121.084 97.5265 120.943 98.2624C120.557 100.282 118.544 101.211 118.135 102.196C118.055 102.387 118.111 103.276 117.947 103.76C117.418 105.299 115.572 105.953 115.038 106.923C114.506 107.89 113.744 111.326 113.444 112.585C111.162 122.232 107.972 138.033 119.979 142.374C120.099 142.418 120.099 142.672 120.234 142.702C129.606 144.846 138.897 136.699 144.242 129.881C145.582 128.171 147.263 125.994 147.632 123.841C147.15 124.192 146.728 124.793 146.238 125.128C144.19 126.526 142.316 125.965 140.31 124.846C137.138 123.076 133.297 118.652 132.921 114.926L132.915 114.923ZM79.497 104.863C78.2752 106.15 77.1934 107.579 75.9681 108.869C75.2002 108.97 75.4449 108.512 75.7003 108.079C76.8742 106.077 79.3534 104.125 80.9033 102.368C81.0824 101.976 80.5007 99.7201 80.35 99.1154C78.9065 93.283 76.0425 85.6222 72.0738 81.0808C67.7717 76.158 61.205 73.663 54.8529 72.7817C54.8671 73.8279 54.3227 74.5656 53.5442 75.1951C49.3165 78.6159 38.8698 77.8835 34.5358 74.8245C33.7395 74.2624 33.3636 73.7144 32.7553 72.9856C25.2133 74.9717 17.6837 78.5662 12.4311 84.4554C5.15862 92.6091 2.41703 106.375 0.971763 116.962C0.533748 120.17 0.374147 124.185 1.34948 127.082C1.96838 128.925 2.02335 130.351 2.99692 132.156C5.15152 136.153 8.12009 138.261 12.4719 139.645C12.7999 139.749 13.6547 140.116 13.7238 140.125C21.2073 141.042 28.3823 139.433 34.8195 135.577C35.2398 135.325 37.5965 133.844 37.7083 133.619C37.82 133.394 36.6123 132.688 36.4173 132.489C30.09 130.735 27.8095 123.775 32.0815 118.645C32.7163 117.882 33.7289 116.818 34.7663 116.742L34.5961 116.481C33.493 116.481 32.2907 116.26 31.2249 116.217C27.8822 116.086 24.5004 116.411 21.1754 116.568C18.8931 116.677 16.6197 116.73 14.341 116.916C14.3764 116.169 15.5894 116.164 16.1799 116.074C18.2742 115.749 20.9342 115.65 23.0835 115.535C23.9152 115.49 24.7611 115.563 25.5928 115.535L28.1021 98.0496H28.7068C28.6873 98.594 28.7423 99.1491 28.7068 99.6935C28.4266 103.85 27.3732 108.76 26.7827 113.002C26.6657 113.841 26.4972 114.713 26.2862 115.533C29.2122 115.529 32.1684 115.345 35.0536 115.852C36.6709 116.136 37.1319 115.797 38.6605 115.882C44.8211 116.224 49.3963 120.154 52.8083 124.93C54.1347 126.786 55.4789 129.668 56.8515 131.273C57.7239 132.291 59.1923 132.028 60.4797 131.986C62.2105 131.931 64.436 131.689 66.1633 131.438C68.0749 131.159 70.2508 131.113 70.5824 128.76C70.8449 126.909 70.3288 124.245 70.4157 122.19C70.7101 115.187 74.2958 109.264 72.9658 102.346C72.1784 98.2482 69.9103 94.5668 69.1177 90.9617C69.052 90.6638 68.9208 90.169 69.1265 89.9136C69.6585 90.1424 69.9848 91.0628 70.226 91.5841C71.8823 95.1698 74.005 100.969 74.2391 104.88C74.5299 109.762 71.9763 114.949 71.4638 119.948C71.2191 122.335 71.3946 124.355 71.4709 126.689C71.5028 127.66 71.4939 128.646 71.3166 129.606C72.0401 130.625 73.0633 131.083 74.2568 131.345C83.2547 133.326 93.5986 122.874 97.4574 115.648C97.7659 115.072 99.4719 111.532 99.158 111.206C98.016 111.316 96.7498 111.631 95.6025 111.557C90.9758 111.256 87.7927 107.209 86.9486 102.903C86.5638 100.944 86.9238 99.7307 87.5604 97.8776C87.4238 97.7322 86.2251 98.688 86.0194 98.8458C83.7991 100.557 81.4264 102.83 79.4952 104.866L79.497 104.863ZM97.9486 93.5436C98.5533 92.9194 99.4027 92.7102 100.109 92.1569C101.174 91.3217 103.329 88.9188 103.746 87.6598C104.474 85.4555 103.228 84.0085 101.002 85.0902C95.6734 89.3533 89.6795 91.9388 87.9895 99.2537C86.7269 104.71 90.4314 110.626 96.3047 110.587C99.0835 110.569 103.583 110.066 106.294 109.422C109.13 108.748 115.326 106.43 116.897 103.926C117.544 102.896 117.329 101.389 115.866 101.373C114.403 101.357 107.617 104.426 107.298 104.105C107.287 103.912 107.264 103.761 107.377 103.582C107.562 103.29 113.034 101.219 113.781 100.986C115.326 100.506 116.482 100.155 117.863 101.27C119.005 100.793 121.197 97.1647 119.142 96.8491C116.446 96.4341 110.341 99.4718 107.436 100.353C106.948 100.5 106.423 100.53 105.934 100.671L105.737 102.38H105.219C105.157 100.969 105.024 99.204 104.652 97.8386C104.48 97.2055 104.022 96.6079 103.909 96.1539C103.756 95.5492 104.357 95.3755 104.735 96.0227C104.92 96.3384 105.331 97.3634 105.443 97.7375C105.576 98.1826 105.707 99.8779 106.01 99.9382C110.726 98.821 115.104 95.7159 120.082 95.95C121.979 90.9191 116.18 92.9283 113.669 93.7777C111.555 94.4924 108.606 96.177 106.611 96.5849C106.202 96.6682 105.806 96.693 105.391 96.6611L105.854 96.1735C109.697 94.4959 113.529 92.6765 117.65 91.7863C118.411 89.4207 115.556 89.6264 113.964 89.7416C108.466 90.1406 103.51 93.588 97.9504 93.5454L97.9486 93.5436ZM137.638 98.516C138.065 98.876 140.925 99.7449 141.78 100.174C142.429 100.5 143.238 100.992 143.844 101.399C144.655 101.946 149.001 105.514 148.842 106.265L148.411 106.528C145.348 103.387 141.766 100.362 137.368 99.4576C136.077 100.646 135.366 101.623 136.806 103.072C139.798 106.083 144.109 108.257 146.224 112.348C146.82 113.501 147.056 114.942 147.659 116.106C148.9 118.494 151.675 121.344 153.908 122.839C154.754 123.406 158.269 125.392 159.095 125.192C160.205 124.922 162.853 121.294 163.472 120.207C164.282 118.781 165.901 115.212 166.107 113.669C166.392 111.518 164.326 105.647 163.358 103.526C160.64 97.5744 153.777 88.4134 146.808 87.5339C143.917 87.1686 142.142 89.0057 145.091 90.8074C148.487 92.8822 153.305 94.7247 155.765 98.1365C156.064 98.5515 156.391 99.126 155.591 99.0037C153.493 96.9502 151.135 95.0261 148.613 93.517C146.843 92.4584 141.422 89.254 139.762 91.3039C137.648 93.916 142.786 94.7477 144.344 95.5333C146.293 96.5157 150.888 99.7857 151.934 101.619C152.074 101.864 152.174 102.082 152.129 102.373C151.778 102.449 151.667 102.295 151.431 102.121C150.734 101.61 149.984 100.571 149.271 99.9542C146.942 97.9432 142.122 94.6289 138.969 94.8364C136.943 94.9694 136.402 97.4715 137.639 98.5142L137.638 98.516ZM135.167 102.721C133.884 106.774 132.935 112.02 134.079 116.184C135.026 119.633 139.331 124.249 142.889 125.029C145.861 125.681 148.12 122.426 149.118 120.03L149.104 119.693C148.106 118.351 147.191 117.063 146.506 115.526C146.155 114.738 145.948 113.768 145.582 112.988C143.797 109.165 138.553 105.882 135.588 102.903C135.444 102.76 135.433 102.657 135.167 102.719V102.721ZM51.3701 127.831C51.4002 127.985 51.402 128.182 51.4871 128.313C52.278 129.549 56.7504 137.32 57.5537 137.476C57.8818 137.54 58.7117 137.118 58.8766 136.775C59.5647 135.334 56.7114 132.495 55.9187 131.335C51.457 124.813 47.8216 117.185 38.6623 116.742C30.5333 116.348 27.696 127.279 34.7663 130.934L33.7537 129.265L33.0497 126.543L33.204 126.343L33.7289 126.261C33.8761 128.763 35.6299 130.757 37.4565 132.315C38.3928 133.113 39.7565 133.801 40.5935 134.631C42.1753 136.199 43.6117 139.426 45.6741 140.37C46.7647 140.868 48.4263 141.256 48.9264 139.824C47.6922 137.501 46.2061 135.206 44.7449 132.991C43.9309 131.757 42.8279 130.487 42.0689 129.262C41.9873 129.131 41.1663 127.735 41.7763 127.996C41.9075 128.052 43.4362 129.801 43.6685 130.086C45.362 132.174 47.8021 135.834 49.0523 138.205C49.5081 139.068 49.5418 140.065 49.8184 140.554C49.9922 140.861 51.3204 141.955 51.6769 142.159C52.7143 142.751 55.4044 143.572 54.7696 141.489C54.5656 140.82 52.6593 138.742 52.1096 137.919C51.1058 136.415 49.9496 134.394 49.1073 132.785C48.7704 132.143 47.9387 130.702 47.8269 130.081C47.7737 129.785 47.7276 129.767 48.0131 129.556C50.0596 132.11 51.3151 135.206 53.1523 137.916C53.9396 139.077 54.9841 140.061 55.6296 141.322C57.7009 142.095 58.4404 140.893 57.4136 139.019C55.7041 135.899 53.0938 133.17 51.496 129.703C51.3009 129.279 50.3309 127.517 51.3736 127.832L51.3701 127.831Z" fill="var(--fill-0, #232321)"/>
<path id="Vector_2" d="M101.607 43.717C100.974 45.3999 99.6758 47.1005 98.4717 48.4588C97.6595 49.3756 94.6821 52.3779 93.666 52.6527C91.5557 53.2237 92.0735 51.4132 92.07 50.1914C92.0629 47.9676 92.0593 45.7403 92.0629 43.5184L85.5725 43.3446C79.1778 42.8357 75.163 41.4028 74.7445 34.2652C74.3401 27.3635 74.6168 19.036 74.9324 12.1094C75.0654 9.17282 74.8278 5.0676 77.0037 2.75697C79.3817 0.229995 86.0406 0.33994 89.3532 0.219355C101.809 -0.234614 114.343 0.139556 126.767 0.247728C133.983 0.948187 136.361 3.47339 136.73 10.7121C136.953 15.1258 136.63 19.646 136.542 24.0403C136.434 29.4365 137.625 37.0883 132.273 40.3707C126.921 43.6532 119.778 43.1673 113.965 43.701L101.605 43.717H101.607ZM104.826 5.82303C103.953 6.00391 101.717 7.60166 100.697 8.09997C99.6776 8.59827 98.438 9.13026 97.4272 9.50266C96.3224 9.90875 92.0168 10.8557 91.5468 11.2387C90.9368 11.7335 90.9953 13.576 91.0184 14.3598C91.2755 23.1909 95.3914 32.0362 103.543 36.1077C105.636 37.154 106.024 36.6627 107.932 35.5863C113.12 32.6639 117.008 27.5142 118.498 21.7456C119.053 19.5964 119.83 14.9379 119.56 12.817C119.484 12.2247 119.277 11.3771 118.711 11.0756C115.168 10.4035 112.036 9.26503 108.851 7.60521C107.697 7.00406 106.111 5.55526 104.826 5.82303Z" fill="var(--fill-0, #D4E7FE)"/>
<path id="Vector_3" d="M79.497 104.863C81.4282 102.827 83.8009 100.552 86.0211 98.8423C86.2251 98.6844 87.4238 97.7286 87.5622 97.874C86.9255 99.7254 86.5655 100.94 86.9504 102.9C87.7962 107.205 90.9776 111.252 95.6042 111.553C96.7498 111.628 98.0178 111.312 99.1598 111.202C99.4755 111.53 97.7677 115.068 97.4592 115.644C93.6021 122.871 83.2565 133.323 74.2586 131.342C73.0633 131.079 72.0419 130.62 71.3184 129.602C71.4957 128.645 71.5046 127.659 71.4727 126.685C71.3964 124.351 71.2208 122.33 71.4656 119.945C71.9781 114.944 74.5317 109.759 74.2408 104.877C74.0068 100.965 71.8841 95.1644 70.2278 91.5805C69.9866 91.0592 69.6621 90.1388 69.1283 89.9101C68.9226 90.1654 69.0538 90.6602 69.1194 90.9581C69.9121 94.5615 72.1802 98.2429 72.9676 102.343C74.2976 109.26 70.7119 115.183 70.4175 122.186C70.3306 124.241 70.8467 126.907 70.5842 128.756C70.2508 131.11 68.0767 131.156 66.165 131.434C64.4378 131.686 62.2123 131.927 60.4815 131.982C59.194 132.023 57.7257 132.287 56.8532 131.269C55.4807 129.666 54.1365 126.783 52.81 124.926C49.3981 120.152 44.8229 116.221 38.6623 115.879C37.1337 115.793 36.6709 116.132 35.0553 115.848C32.1683 115.341 29.214 115.524 26.288 115.529C26.499 114.71 26.6692 113.837 26.7845 112.999C27.375 108.759 28.4284 103.847 28.7086 99.6899C28.7458 99.1455 28.6908 98.5905 28.7086 98.0461H28.1039L25.5946 115.531C24.7629 115.559 23.9188 115.487 23.0853 115.531C20.936 115.648 18.276 115.747 16.1817 116.07C15.5912 116.16 14.38 116.166 14.3427 116.912C16.6215 116.726 18.8949 116.675 21.1772 116.565C24.5004 116.407 27.884 116.082 31.2267 116.214C32.2925 116.254 33.4948 116.476 34.5978 116.478L34.7681 116.739C33.7307 116.815 32.7181 117.879 32.0832 118.641C27.8113 123.773 30.0918 130.734 36.419 132.486C36.6159 132.684 37.8218 133.39 37.71 133.615C37.5983 133.84 35.2415 135.321 34.8213 135.573C28.384 139.43 21.2091 141.04 13.7256 140.121C13.6565 140.113 12.8017 139.746 12.4736 139.641C8.12187 138.258 5.1533 136.149 2.99869 132.152C2.02513 130.345 1.97193 128.921 1.35126 127.079C0.377694 124.181 0.537294 120.166 0.973536 116.958C2.41881 106.37 5.16216 92.6055 12.4329 84.4518C17.6855 78.5626 25.2151 74.9681 32.7571 72.982C33.3654 73.7091 33.7413 74.2588 34.5375 74.8209C38.8716 77.8799 49.3165 78.6123 53.546 75.1916C54.3245 74.562 54.8671 73.8243 54.8547 72.7781C61.2068 73.6594 67.7717 76.1545 72.0756 81.0772C76.0443 85.6187 78.9083 93.2794 80.3518 99.1118C80.5025 99.7183 81.0841 101.972 80.905 102.364C79.3551 104.12 76.876 106.074 75.7021 108.076C75.4485 108.509 75.2038 108.966 75.9698 108.865C77.1952 107.578 78.277 106.148 79.4988 104.859L79.497 104.863Z" fill="var(--fill-0, #0B6DFF)"/>
<path id="Vector_4" d="M150.399 35.9038C149.601 35.7229 148.732 35.6555 147.92 35.5278L147.638 34.9763C148.531 30.9704 149.287 26.5495 150.835 22.7529C151.064 22.1925 151.835 20.4937 152.152 20.0893C153.454 18.4313 157.973 19.4634 159.778 19.8606C165.97 21.226 171.837 24.5226 176.979 28.1171C176.704 30.3125 176.066 32.4547 175.699 34.6341C175.392 36.4606 174.867 39.2518 174.798 41.0216C174.754 42.1813 176.531 42.4118 177.458 42.4615C178.779 40.298 180.352 38.3031 183.186 38.6897C184.759 38.9042 185.998 40.6172 186.412 42.0412C187.646 46.2972 183.558 53.0677 178.745 52.4772C177.981 52.3832 177.004 51.6295 176.366 52.2644C176.195 53.0712 179.249 52.7308 178.976 53.6458C177.777 59.4569 176.946 65.3248 176.19 71.2176C168.769 70.3256 161.322 69.8982 153.862 69.485L154.382 65.8515C157.219 66.1885 160.182 66.1157 162.86 65.0695C163.099 64.9755 165.944 63.6757 165.458 63.2554C164.293 63.2394 163.323 64.2272 162.209 64.5925C157.815 66.0342 151.711 65.1262 148.147 62.1311C142.591 57.4637 143.006 51.1596 144.63 44.7633C144.855 43.8784 145.203 43.0307 145.38 42.1352C145.604 41.9703 148.927 43.3393 149.485 43.4811C149.84 43.5716 150.241 43.4865 150.613 43.5645C151.659 43.7826 153.043 44.4565 154.029 43.7808L147.591 42.0873C145.696 41.6192 142.231 40.1526 143.032 37.6274C143.245 36.9536 144.444 36.1928 145.134 36.0935C148.001 35.6839 151.331 37.3171 154.208 37.2905C154.437 36.5032 153.154 36.5723 152.475 36.4251C152.676 36.1662 153.011 36.1059 153.255 35.9073C154.419 34.9586 155.804 32.4458 155.875 30.9456C155.951 29.3372 155.492 27.1507 153.452 27.2624C151.198 27.3865 150.517 29.9437 150.138 31.7507C150.01 32.3571 149.657 33.2935 150.053 33.829C150.049 33.8857 150.053 33.9443 150.053 34.0028C149.588 34.5827 149.978 35.4001 150.399 35.9073V35.9038ZM158.013 24.8241C158.336 23.6519 156.935 22.8203 156.006 22.4213C154.139 21.6197 152.614 22.8681 151.45 24.2442L152.019 24.8135C153.303 23.5207 154.385 22.478 156.233 23.5792C156.87 23.9587 157.226 24.762 158.013 24.8259V24.8241ZM166.788 26.436C167.277 27.0088 167.533 28.8158 168.139 28.8123C168.926 28.7307 168.295 27.2305 168.084 26.7836C167.419 25.3774 165.605 24.1502 164.032 24.3488C163.495 24.4162 161.817 24.9535 161.817 25.6026C161.817 26.6116 163.498 25.3791 163.94 25.2816C164.823 25.0901 166.219 25.7675 166.788 26.4343V26.436ZM158.533 35.2122C158.522 35.2672 158.54 35.3292 158.533 35.386C157.676 38.1825 160.383 40.1775 162.413 37.6203C163.791 35.8878 165.41 31.0626 162.956 29.6635C160.25 28.1225 158.664 33.3892 158.533 35.2122ZM182.939 42.6548C180.907 42.5005 179.16 43.889 178.561 45.8042C178.465 46.1092 178.189 47.3026 178.44 47.4995C178.894 47.8541 179.221 46.1092 179.327 45.8787C180.068 44.2632 180.973 43.5184 182.764 43.2559L182.939 42.6548ZM165.763 44.9477C165.055 44.2295 163.261 46.1571 162.569 46.6022C160.255 48.0935 156.852 48.927 154.133 48.5245C153.692 48.4588 151.979 47.707 151.785 47.847C151.112 53.7823 157.238 57.861 162.463 54.6318C164.697 53.2503 165.992 50.7056 166.158 48.113C166.203 47.425 166.226 45.4158 165.763 44.9459V44.9477Z" fill="var(--fill-0, #F3A276)"/>
<path id="Vector_5" d="M43.0762 39.5373C43.1028 42.4526 44.1082 45.3112 46.4544 47.1501C52.0759 51.5568 57.5821 45.6481 57.5306 39.8813L58.6301 40.0799C58.9883 42.8835 60.3414 45.2456 62.6308 46.8948C61.6395 47.9623 60.8042 48.8082 59.4618 49.4359C59.0238 49.6416 58.5149 49.6629 58.1442 49.8491C57.9687 49.9378 57.6619 50.1719 57.9562 50.3598C59.3944 51.1667 62.6857 48.6131 63.443 47.3488C64.8421 47.4959 66.1154 47.7229 67.4826 47.2441C67.8639 47.1111 68.6069 46.2422 68.692 46.893C68.7878 47.6077 68.5413 49.3118 68.5413 49.3118L68.5342 49.6612C68.5342 49.6612 68.5555 50.3457 68.497 50.6844C66.83 60.4961 61.5189 67.983 50.604 67.2347C48.8218 67.1123 47.4226 66.3853 45.8497 66.0998C45.5517 66.0448 45.5358 66.004 45.3248 66.2878C45.1687 67.0343 48.3235 67.7685 48.9264 67.8749C50.6412 68.1781 52.4323 68.2313 54.1507 67.9298C54.1684 68.9052 53.9786 69.8096 53.9716 70.7938C53.968 71.2956 54.1631 71.7159 54.1648 72.1681C54.1773 74.4344 51.5456 75.5303 49.6872 76.0126C46.8392 76.7539 44.5427 76.8532 41.6504 76.362C39.5525 76.0073 35.6264 75.0515 34.1775 73.4484C33.0958 72.2514 34.041 71.5049 34.3035 70.4799C35.2593 66.7666 34.9755 62.9557 35.0057 59.1555C35.0234 57.0151 35.3178 54.825 34.9383 52.6953L36.6283 55.4173C37.5717 56.6604 38.4105 58.0081 39.4426 59.1821C39.9019 59.7052 42.1948 61.6754 42.303 61.8757C42.5087 62.2659 42.0547 62.8138 42.7179 63.5232C43.4255 64.2786 47.0006 65.6494 47.9617 65.472C49.1587 65.2504 49.329 64.0622 49.0949 63.0302C48.8182 61.8119 45.1563 60.3436 44.0373 60.489C43.7518 60.5263 43.4379 60.833 43.2464 60.7479C42.7197 60.5138 40.7761 58.5135 40.3098 57.9691C38.6144 55.9901 36.967 53.1315 35.9456 50.7358C35.598 49.9183 34.9826 48.3968 34.7752 47.5775C34.6546 47.1023 35.3976 47.5208 35.7168 47.5225C36.4244 47.5243 36.8588 46.9764 37.2224 46.4124C38.3839 44.6072 38.3945 41.8196 38.7758 39.7448C39.0365 39.3405 42.4005 39.6313 43.0744 39.5408L43.0762 39.5373ZM49.2438 52.7095C48.3731 53.0074 49.0275 55.2489 49.329 55.8748C51.0952 59.5474 57.6601 61.7002 60.6358 58.3965C61.2671 57.6943 63.0315 54.8002 61.4728 54.4633C58.5805 54.3285 55.2111 54.4473 52.4181 53.6511C51.6733 53.4383 50.0028 52.4488 49.2456 52.7095H49.2438Z" fill="var(--fill-0, #F3A276)"/>
<path id="Vector_6" d="M137.638 98.516C136.4 97.4733 136.941 94.9711 138.968 94.8381C142.121 94.6306 146.941 97.9432 149.269 99.9559C149.982 100.571 150.732 101.612 151.429 102.123C151.667 102.297 151.777 102.449 152.128 102.375C152.172 102.082 152.071 101.866 151.933 101.621C150.886 99.7874 146.293 96.5175 144.343 95.535C142.784 94.7495 137.647 93.9178 139.76 91.3057C141.418 89.2557 146.841 92.4601 148.611 93.5188C151.133 95.0279 153.491 96.9519 155.589 99.0054C156.389 99.1278 156.063 98.5532 155.763 98.1383C153.305 94.7264 148.487 92.8839 145.089 90.8092C142.14 89.0075 143.915 87.1703 146.806 87.5356C153.775 88.4152 160.638 97.5761 163.356 103.527C164.325 105.65 166.391 111.52 166.105 113.671C165.899 115.214 164.28 118.783 163.47 120.209C162.853 121.296 160.203 124.924 159.093 125.194C158.267 125.394 154.752 123.408 153.906 122.841C151.674 121.346 148.898 118.496 147.657 116.107C147.052 114.944 146.818 113.502 146.222 112.35C144.107 108.259 139.796 106.084 136.804 103.073C135.364 101.625 136.077 100.648 137.366 99.4594C141.764 100.364 145.346 103.391 148.409 106.53L148.84 106.267C148.999 105.515 144.653 101.947 143.843 101.401C143.238 100.993 142.429 100.502 141.778 100.176C140.924 99.7467 138.063 98.8777 137.636 98.5178L137.638 98.516Z" fill="var(--fill-0, #F3A276)"/>
<path id="Vector_7" d="M97.9486 93.5436C103.508 93.5862 108.465 90.1371 113.962 89.7399C115.554 89.6246 118.409 89.4189 117.649 91.7845C113.527 92.6765 109.695 94.4941 105.852 96.1717L105.39 96.6593C105.805 96.6913 106.2 96.6664 106.61 96.5831C108.606 96.1734 111.555 94.4906 113.667 93.7759C116.179 92.9265 121.977 90.9173 120.08 95.9482C115.102 95.7142 110.724 98.8192 106.008 99.9364C105.705 99.8761 105.576 98.1808 105.441 97.7357C105.327 97.3598 104.918 96.3366 104.733 96.0209C104.356 95.3737 103.755 95.5475 103.907 96.1522C104.021 96.6061 104.478 97.2037 104.65 97.8368C105.021 99.2023 105.155 100.967 105.218 102.378H105.735L105.932 100.669C106.422 100.53 106.947 100.5 107.434 100.351C110.341 99.47 116.446 96.4341 119.14 96.8473C121.195 97.163 119.003 100.793 117.861 101.268C116.48 100.153 115.324 100.504 113.779 100.984C113.033 101.217 107.56 103.29 107.376 103.581C107.262 103.76 107.285 103.91 107.296 104.104C107.615 104.423 114.368 101.355 115.865 101.371C117.361 101.387 117.54 102.894 116.895 103.925C115.324 106.429 109.128 108.746 106.292 109.42C103.581 110.066 99.0818 110.567 96.3029 110.585C90.4314 110.624 86.7251 104.708 87.9878 99.2519C89.6795 91.937 95.6716 89.3515 101.001 85.0885C103.224 84.0067 104.473 85.4555 103.744 87.658C103.327 88.917 101.171 91.3199 100.107 92.1551C99.4027 92.7084 98.5515 92.9176 97.9468 93.5418L97.9486 93.5436ZM104.872 104.623C104.895 103.547 103.533 102.795 102.662 102.421C101.064 101.733 98.1862 101.362 96.5246 101.869C96.3845 101.912 96.2905 102.368 95.8702 102.203C96.2497 103.386 96.7622 102.398 96.8545 102.375C97.234 102.283 100.499 102.66 101.07 102.8C102.552 103.164 103.508 104.088 104.872 104.623Z" fill="var(--fill-0, #F3A276)"/>
<path id="Vector_8" d="M51.3701 127.831C50.3273 127.513 51.2974 129.278 51.4924 129.701C53.0884 133.17 55.7006 135.899 57.4101 139.017C58.4368 140.889 57.6956 142.093 55.6261 141.32C54.9806 140.058 53.9361 139.075 53.1487 137.914C51.3115 135.204 50.056 132.108 48.0096 129.554C47.7258 129.765 47.7702 129.781 47.8234 130.079C47.9351 130.7 48.7686 132.142 49.1037 132.784C49.9461 134.392 51.1023 136.413 52.106 137.917C52.6557 138.74 54.5621 140.82 54.766 141.487C55.4009 143.571 52.7107 142.75 51.6733 142.157C51.3169 141.953 49.9886 140.861 49.8148 140.552C49.5382 140.061 49.5045 139.066 49.0488 138.203C47.7986 135.832 45.3584 132.172 43.6649 130.085C43.4326 129.799 41.904 128.051 41.7728 127.994C41.1627 127.733 41.9838 129.129 42.0654 129.26C42.8226 130.485 43.9256 131.755 44.7413 132.989C46.2026 135.204 47.6886 137.501 48.9229 139.822C48.4228 141.255 46.7612 140.866 45.6706 140.368C43.6082 139.425 42.17 136.199 40.5899 134.63C39.7529 133.8 38.3892 133.112 37.4529 132.314C35.6264 130.755 33.8725 128.762 33.7253 126.259L33.2004 126.341L33.0461 126.541L33.7502 129.263L34.7627 130.932C27.6907 127.276 30.528 116.345 38.6588 116.74C47.8181 117.185 51.4534 124.811 55.9151 131.333C56.7078 132.493 59.5629 135.334 58.8731 136.773C58.7099 137.117 57.8782 137.538 57.5502 137.474C56.7468 137.318 52.2727 129.547 51.4836 128.311C51.4002 128.18 51.3967 127.983 51.3665 127.829L51.3701 127.831Z" fill="var(--fill-0, #F3A276)"/>
<path id="Vector_9" d="M135.167 102.721C135.433 102.657 135.444 102.761 135.588 102.905C138.553 105.882 143.797 109.165 145.582 112.99C145.948 113.77 146.155 114.74 146.506 115.527C147.191 117.065 148.108 118.352 149.104 119.695L149.118 120.032C148.118 122.427 145.861 125.683 142.889 125.031C139.331 124.249 135.026 119.634 134.079 116.185C132.935 112.02 133.884 106.776 135.167 102.722V102.721Z" fill="var(--fill-0, #F3A276)"/>
<path id="Vector_10" d="M39.1801 38.6737C39.1092 38.6737 38.8751 39.1206 38.9177 38.5868C38.9443 38.2605 39.3858 36.1077 39.4869 35.9499C39.588 35.7921 40.3931 35.4764 40.6414 35.2867C41.8933 34.3255 43.1772 33.297 44.3707 32.2649C48.4582 28.7307 52.4323 24.5829 55.7928 20.366C59.3341 21.5364 62.2335 23.7814 64.4396 26.7446C64.6949 27.0886 65.6632 28.4381 65.7501 28.7236C65.8618 29.0942 65.6082 28.9719 65.3883 28.9134C64.2835 28.6243 62.6077 28.1686 61.6058 28.8992C61.3469 29.0872 61.0702 29.3053 61.4213 29.5908C61.7884 29.8337 62.4091 29.495 62.8719 29.511C64.1949 29.5553 66.6279 30.4828 66.9666 31.9209C66.7485 32.006 66.5711 31.7489 66.5339 31.7489H63.4181C63.2213 31.7489 61.5561 32.6728 61.2688 32.8891C59.3572 34.3362 58.568 36.8685 58.6567 39.1933L57.4739 38.9893C57.3178 38.0796 57.2983 37.1416 57.0075 36.2549C56.362 34.2883 53.7712 31.7613 51.6538 31.5698C46.8019 31.1282 44.282 34.3149 43.2517 38.6737C41.8987 38.695 40.5385 38.6435 39.1837 38.6737H39.1801ZM54.328 30.1902C54.5745 29.1723 52.7781 28.7112 51.989 28.635C50.4834 28.4895 48.0025 28.9985 47.2701 30.4898C47.1265 30.7824 46.8356 31.8181 47.4084 31.6726C47.7915 31.5751 48.8058 30.5838 49.3626 30.332C51.1466 29.5252 52.5121 30.0128 54.3262 30.1884L54.328 30.1902Z" fill="var(--fill-0, #F3A276)"/>
<path id="Vector_11" d="M46.4242 45.884C40.7921 40.3211 46.5342 29.3301 53.2338 33.1019C61.0809 37.521 53.89 53.2574 46.4242 45.884ZM50.9906 35.2512C48.8892 35.6857 47.9599 39.1667 48.0983 41.0074C48.3979 44.9761 52.4199 47.9871 54.7039 43.6372C56.2006 40.7875 55.071 34.4071 50.9906 35.2512Z" fill="var(--fill-0, #F3A276)"/>
<path id="Vector_12" d="M169.437 22.5755C167.263 21.6924 165.202 20.3926 162.86 19.9776C163.417 17.5624 163.663 15.14 165.369 13.2248C167.075 11.3097 167.364 12.2921 169.347 13.0599C170.606 13.5476 171.971 13.8721 173.069 14.6967C171.255 16.9825 170.021 19.7116 169.437 22.5738V22.5755Z" fill="var(--fill-0, #0B6DFF)"/>
<path id="Vector_13" d="M182.246 19.114L174.819 14.5052C174.796 14.3651 175.447 13.4376 175.6 13.2426C177.098 11.3274 178.549 9.73851 180.437 8.20459C180.586 8.08223 180.631 7.82687 180.744 7.74176C181.632 7.08386 183.695 8.65501 183.817 9.67112C184.172 12.629 183.322 16.3618 182.248 19.114H182.246Z" fill="var(--fill-0, #0B6DFF)"/>
<path id="Vector_14" d="M175.644 26.014C174.967 26.2197 174.846 25.5795 174.525 25.3738C173.585 24.7691 172.447 24.1148 171.462 23.5828C171.037 23.3522 170.397 23.4019 170.299 22.8309C170.109 21.719 173.014 15.1241 173.876 14.9733L179.127 17.9951C179.806 18.4153 179.272 19.3712 179.045 19.9759C178.206 22.2031 176.841 23.996 175.646 26.014H175.644Z" fill="var(--fill-0, #0B6DFF)"/>
<path id="Vector_15" d="M67.2734 32.9973C67.5589 33.2828 68.2629 38.3119 68.348 39.1064C68.4863 40.3991 68.6477 41.9809 68.6938 43.2613C68.7453 44.6675 69.0432 45.3804 67.722 46.095C65.9771 47.0402 64.4804 46.8859 62.8241 45.8414C57.2044 42.2948 59.0699 30.0589 67.2734 32.9973ZM65.5196 35.7903C64.7357 35.0561 63.803 34.8469 62.8081 35.2955C59.3501 36.8596 60.0825 45.164 64.2693 44.5469C65.9682 44.2969 66.9631 41.4525 66.979 39.9682C66.9932 38.7233 66.4506 36.661 65.5196 35.7885V35.7903Z" fill="var(--fill-0, #F3A276)"/>
<path id="Vector_16" d="M165.804 11.4976C165.848 11.737 165.839 11.7193 165.692 11.8576C165.316 12.2123 164.915 12.4038 164.52 12.8968C162.956 14.835 162.491 17.2609 161.989 19.6301C160.001 19.1459 158.001 18.6317 155.937 18.5944C156.377 17.0126 156.235 15.0744 156.905 13.5919C157.196 12.9464 159.299 10.4283 159.913 10.2102L165.804 11.4994V11.4976Z" fill="var(--fill-0, #0B6DFF)"/>
<path id="Vector_17" d="M176.229 26.241C176.389 26.2002 176.497 26.1399 176.591 25.9963C178.084 23.7495 179.655 21.4725 180.173 18.7665C180.923 19.4474 184.259 21.3449 184.583 22.0577C185.53 24.1414 182.113 28.3548 180.693 29.7646C180.001 30.137 179.517 29.1971 179.042 28.8123C178.566 28.4275 176.424 26.9663 176.273 26.734C176.178 26.5868 176.126 26.3917 176.229 26.241Z" fill="var(--fill-0, #0B6DFF)"/>
<path id="Vector_18" d="M183.042 32.5132C182.319 31.7524 181.469 31.2346 180.872 30.4686C183.276 28.6686 185.075 25.9218 185.622 22.9213L189.256 26.3864C189.714 27.3759 188.158 30.4898 187.584 31.4598C187.323 31.9014 185.147 34.8682 184.931 34.8628C184.323 34.0702 183.73 33.2367 183.042 32.515V32.5132Z" fill="var(--fill-0, #0B6DFF)"/>
<path id="Vector_19" d="M180.517 6.82495C180.623 7.2275 180.418 7.114 180.297 7.21863C178.017 9.19233 176.236 11.0171 174.456 13.4908C174.328 13.6664 174.298 13.8686 174.27 14.076C173.954 14.3562 172.301 13.3224 171.86 13.145C171.283 12.9145 168.866 12.269 168.756 11.737C170.249 9.92471 172.17 8.07514 174.161 6.78417C174.525 6.54832 175.839 5.73082 176.148 5.65102C177.226 5.36729 179.389 6.62989 180.519 6.82495H180.517Z" fill="var(--fill-0, #0B6DFF)"/>
<path id="Vector_20" d="M190.38 27.5958C190.467 27.6738 191.487 29.3992 191.576 29.605C193.09 33.1002 190.696 38.1523 187.616 40.0586C187.483 38.3243 186.204 36.9287 185.404 35.4693C187.651 33.3076 189.082 30.7931 190.036 27.8511C190.095 27.6703 190.063 27.3174 190.38 27.5958Z" fill="var(--fill-0, #0B6DFF)"/>
<path id="Vector_21" d="M185.598 21.9957C185.477 21.8893 185.427 21.6658 185.28 21.5417C184.814 21.1498 182.952 20.0415 182.945 19.5503C182.941 19.2612 183.617 17.9259 183.759 17.4205C184.429 15.0336 185.018 12.2016 184.674 9.76688C186.087 10.8096 187.327 11.9356 187.74 13.709C188.44 16.7076 188.176 20.3376 186.835 23.0916C186.488 22.6411 186 22.3503 185.598 21.9957Z" fill="var(--fill-0, #0B6DFF)"/>
<path id="Vector_22" d="M159.225 9.94067L157.405 11.4923C155.69 13.4625 155.275 16.0515 155.245 18.5944C153.922 18.4987 152.661 18.6086 151.699 19.5981C149.647 18.5412 150.904 15.1861 151.75 13.6274C153.31 10.7493 155.876 9.12849 159.226 9.94067H159.225Z" fill="var(--fill-0, #0B6DFF)"/>
<path id="Vector_23" d="M174.977 5.09242C175.082 5.54817 174.864 5.36197 174.725 5.45241C172.784 6.70259 170.402 8.60182 168.852 10.3042C168.558 10.6269 168.246 11.0401 168.212 11.4799C166.419 11.3203 164.906 10.2634 163.035 10.2847C162.846 10.1003 164.114 8.76319 164.339 8.55926C165.557 7.45271 169.693 4.84771 171.262 4.73954C172.408 4.66151 173.789 5.23252 174.979 5.09242H174.977Z" fill="var(--fill-0, #0B6DFF)"/>
<path id="Vector_24" d="M152.475 36.4234C151.738 36.2638 151.081 36.058 150.399 35.9038C149.978 35.3966 149.588 34.5791 150.053 33.9992C150.069 34.7387 150.179 35.6998 151.165 35.558C152.757 35.331 153.465 31.49 152.298 30.9686C151.037 30.4029 150.122 32.8749 150.053 33.8254C149.657 33.2899 150.01 32.3536 150.138 31.7471C150.517 29.9401 151.198 27.3812 153.452 27.2589C155.493 27.1471 155.951 29.3336 155.875 30.942C155.804 32.4423 154.419 34.955 153.256 35.9038C153.011 36.1024 152.676 36.1627 152.475 36.4216V36.4234Z" fill="var(--fill-0, #FEFEFE)"/>
<path id="Vector_25" d="M190.036 25.8633C189.774 25.9342 189.749 25.7941 189.604 25.693C189.306 25.4873 187.623 23.7601 187.618 23.5314C188.204 21.8928 188.861 20.0592 188.978 18.3125C189.066 16.9772 188.728 15.7696 188.829 14.4396L190.641 17.7308C191.84 20.4032 190.888 23.2459 190.036 25.8633Z" fill="var(--fill-0, #0B6DFF)"/>
<path id="Vector_26" d="M168.574 4.7484C167.089 5.83722 165.387 6.6494 163.991 7.86766C163.374 8.40498 162.528 9.14268 162.333 9.93712C160.854 9.80413 159.517 8.96889 158.015 9.07352C160.744 6.26636 164.791 5.23606 168.574 4.75018V4.7484Z" fill="var(--fill-0, #0B6DFF)"/>
<path id="Vector_27" d="M69.561 44.5593C69.7223 43.2081 68.9155 40.9932 69.0237 39.7962C69.1318 38.5992 69.4581 37.4235 69.5592 35.9871C69.5769 35.7282 69.4262 35.4871 69.8163 35.558C71.6287 38.1328 71.423 42.0873 69.561 44.5576V44.5593Z" fill="var(--fill-0, #FEFEFE)"/>
<path id="Vector_28" d="M191.599 28.4594L190.411 26.5017C191.07 25.1398 191.726 23.7637 191.856 22.2297C192.111 22.5578 192.102 23.2795 192.12 23.691C192.18 24.9943 192.164 26.7446 191.934 28.0178C191.897 28.2235 191.838 28.4275 191.599 28.4594Z" fill="var(--fill-0, #0B6DFF)"/>
<path id="Vector_29" d="M104.826 5.82303C106.111 5.55703 107.697 7.00406 108.851 7.60521C112.034 9.26503 115.166 10.4035 118.711 11.0756C119.277 11.3771 119.486 12.2247 119.56 12.817C119.83 14.9379 119.053 19.5964 118.498 21.7456C117.008 27.516 113.119 32.6639 107.932 35.5864C106.023 36.6628 105.634 37.154 103.543 36.1077C95.3914 32.0344 91.2755 23.1891 91.0184 14.3598C90.9953 13.576 90.9368 11.7335 91.5468 11.2387C92.0185 10.8575 96.3224 9.91052 97.4272 9.50266C98.438 9.13026 99.7272 8.57344 100.697 8.09997C101.717 7.60166 103.953 6.00391 104.826 5.82303ZM98.7377 31.3073C99.8283 32.4068 104.015 35.8222 105.468 35.7247C106.104 35.6821 108.674 33.9886 109.325 33.5169C114.634 29.6812 117.571 23.9144 118.349 17.4436C118.463 16.5037 118.775 12.59 118.39 12.0864C117.294 11.5225 115.941 11.4285 114.739 11.0632C111.33 10.024 108.349 8.4298 105.288 6.64762C104.827 6.62457 103.918 7.44739 103.43 7.71693C99.8478 9.70304 96.1628 10.9922 92.2171 12.0846C91.788 12.6042 92.2828 17.3584 92.4299 18.3107C93.1925 23.2051 95.2496 27.7926 98.7359 31.3073H98.7377Z" fill="var(--fill-0, #232321)"/>
<path id="Vector_30" d="M165.763 44.9477C166.226 45.4176 166.203 47.4268 166.158 48.1148C165.993 50.7056 164.697 53.2521 162.463 54.6335C157.24 57.8627 151.112 53.7859 151.785 47.8488C151.979 47.7087 153.69 48.4606 154.133 48.5262C156.85 48.9288 160.255 48.0953 162.569 46.604C163.261 46.1588 165.055 44.2313 165.763 44.9495V44.9477Z" fill="var(--fill-0, #232321)"/>
<path id="Vector_31" d="M158.533 35.3842C158.26 37.8615 160.546 37.9076 161.049 35.9091C161.299 34.916 161.493 32.4121 159.859 32.9902C159.549 33.1002 158.6 34.8699 158.533 35.2104C158.664 33.3874 160.25 28.1207 162.956 29.6617C165.41 31.0591 163.789 35.8843 162.413 37.6186C160.383 40.1739 157.676 38.1789 158.533 35.3842Z" fill="var(--fill-0, #FEFEFE)"/>
<path id="Vector_32" d="M150.051 33.9992C150.051 33.9425 150.048 33.8822 150.051 33.8255C150.12 32.875 151.035 30.403 152.296 30.9686C153.461 31.4918 152.755 35.331 151.163 35.558C150.177 35.6981 150.067 34.7387 150.051 33.9992Z" fill="var(--fill-0, #232321)"/>
<path id="Vector_33" d="M158.533 35.2122C158.6 34.8717 159.549 33.1019 159.859 32.992C161.491 32.4139 161.299 34.9178 161.049 35.9109C160.546 37.9094 158.26 37.8633 158.533 35.386C158.54 35.3292 158.522 35.2671 158.533 35.2122Z" fill="var(--fill-0, #232321)"/>
<path id="Vector_34" d="M166.788 26.436C166.219 25.7711 164.823 25.0919 163.94 25.2834C163.497 25.3791 161.815 26.6116 161.817 25.6044C161.817 24.9553 163.497 24.418 164.032 24.3506C165.605 24.152 167.419 25.3791 168.084 26.7854C168.295 27.2323 168.926 28.7325 168.139 28.8141C167.533 28.8176 167.277 27.0106 166.788 26.4378V26.436Z" fill="var(--fill-0, #232321)"/>
<path id="Vector_35" d="M158.013 24.8241C157.226 24.7603 156.87 23.957 156.233 23.5775C154.383 22.4762 153.303 23.5189 152.019 24.8117L151.45 24.2425C152.612 22.8681 154.139 21.6197 156.006 22.4195C156.935 22.8185 158.338 23.6502 158.013 24.8223V24.8241Z" fill="var(--fill-0, #232321)"/>
<path id="Vector_36" d="M182.939 42.6548L182.764 43.2559C180.973 43.5184 180.07 44.2632 179.327 45.8787C179.221 46.1092 178.893 47.8541 178.44 47.4995C178.189 47.3026 178.465 46.1092 178.561 45.8042C179.16 43.889 180.907 42.5005 182.939 42.6548Z" fill="var(--fill-0, #232321)"/>
<path id="Vector_37" d="M49.2438 52.7095C50.0028 52.4488 51.6715 53.4401 52.4163 53.6511C55.2093 54.4456 58.5805 54.3285 61.471 54.4633C63.0298 54.8002 61.2653 57.6943 60.634 58.3965C57.6583 61.7002 51.0917 59.5474 49.3272 55.8749C49.0257 55.2471 48.3731 53.0074 49.2421 52.7095H49.2438Z" fill="var(--fill-0, #232321)"/>
<path id="Vector_38" d="M104.872 104.623C103.508 104.088 102.552 103.164 101.07 102.8C100.499 102.66 97.2339 102.281 96.8545 102.375C96.7622 102.398 96.2497 103.386 95.8702 102.203C96.2905 102.366 96.3845 101.912 96.5246 101.869C98.188 101.362 101.064 101.733 102.662 102.421C103.533 102.795 104.895 103.547 104.872 104.623Z" fill="var(--fill-0, #232321)"/>
<path id="Vector_39" d="M54.328 30.1901C52.5139 30.0146 51.1484 29.5269 49.3644 30.3338C48.8076 30.5856 47.795 31.5769 47.4102 31.6744C46.8356 31.8198 47.1282 30.7824 47.2719 30.4916C48.0043 29.0003 50.4852 28.4913 51.9907 28.6367C52.7781 28.713 54.5763 29.174 54.3298 30.1919L54.328 30.1901Z" fill="var(--fill-0, #232321)"/>
<path id="Vector_40" d="M50.9906 35.2512C55.0728 34.4071 56.2006 40.7875 54.704 43.6372C52.4199 47.9871 48.398 44.9761 48.0983 41.0074C47.9599 39.1667 48.8874 35.6857 50.9906 35.2512ZM52.8189 38.3793C51.5332 39.399 51.5651 43.5007 53.7144 43.6975C56.0854 43.0946 54.993 36.6539 52.8189 38.3793Z" fill="var(--fill-0, #FEFEFE)"/>
<path id="Vector_41" d="M65.5195 35.7903C66.4505 36.6628 66.9932 38.7251 66.979 39.97C66.963 41.4525 65.9682 44.2986 64.2693 44.5487C60.0825 45.1658 59.3501 36.8596 62.8081 35.2973C63.8029 34.8469 64.7357 35.0561 65.5195 35.7921V35.7903ZM65.7075 38.2002C64.6843 37.3597 63.9395 38.6205 63.7249 39.5001C62.8613 43.0236 66.1473 44.5646 66.4257 40.8141C66.4754 40.142 66.22 38.6205 65.7075 38.2002Z" fill="var(--fill-0, #FEFEFE)"/>
<path id="Vector_42" d="M98.7377 31.3073C95.2514 27.7926 93.1943 23.2051 92.4317 18.3107C92.2828 17.3584 91.7898 12.6042 92.2189 12.0846C96.1646 10.9922 99.8478 9.70482 103.432 7.71693C103.919 7.44561 104.829 6.62457 105.29 6.64762C108.351 8.4298 111.332 10.024 114.74 11.0632C115.943 11.4285 117.294 11.5225 118.392 12.0864C118.776 12.59 118.464 16.5037 118.351 17.4436C117.572 23.9144 114.637 29.683 109.326 33.5169C108.676 33.9868 106.104 35.6821 105.469 35.7247C104.017 35.8204 99.8301 32.405 98.7395 31.3073H98.7377ZM103.838 23.6129C103.827 23.4055 103.724 23.237 103.586 23.0916C103.019 22.494 100.83 20.1195 100.16 20.1816C98.5249 20.3305 99.2573 22.0613 99.9383 22.9249C100.362 23.4622 102.657 25.8065 103.15 26.1169C103.909 26.5956 104.514 26.4644 105.139 25.8721C106.828 24.2726 109.309 21.2562 110.754 19.3694C111.295 18.6636 112.768 17.0871 112.155 16.2448C111.731 15.6614 111.171 15.8192 110.671 16.1721C109.394 17.0747 107.216 20.2028 106 21.5399C105.466 22.1269 104.797 22.8876 104.255 23.4303C104.113 23.5721 104.1 23.6785 103.836 23.6129H103.838Z" fill="var(--fill-0, #39CD7A)"/>
<path id="Vector_43" d="M52.8189 38.3793C54.993 36.6539 56.0854 43.0946 53.7144 43.6975C51.5651 43.5007 51.5332 39.399 52.8189 38.3793Z" fill="var(--fill-0, #232321)"/>
<path id="Vector_44" d="M65.7075 38.2002C66.22 38.6205 66.4754 40.1438 66.4257 40.8141C66.1473 44.5646 62.8613 43.0236 63.7249 39.5C63.9413 38.6205 64.6843 37.3597 65.7075 38.2002Z" fill="var(--fill-0, #232321)"/>
<path id="Vector_45" d="M103.838 23.6129C104.102 23.6785 104.115 23.5721 104.256 23.4303C104.799 22.8876 105.468 22.1269 106.001 21.5399C107.218 20.2028 109.396 17.0765 110.672 16.1721C111.172 15.8174 111.731 15.6596 112.157 16.2448C112.768 17.0871 111.295 18.6618 110.756 19.3694C109.31 21.2562 106.828 24.2708 105.141 25.8721C104.515 26.4662 103.911 26.5956 103.152 26.1169C102.659 25.8047 100.364 23.4622 99.9401 22.9249C99.2591 22.0613 98.5267 20.3305 100.162 20.1816C100.83 20.1213 103.02 22.4957 103.588 23.0916C103.728 23.2388 103.829 23.4055 103.84 23.6129H103.838Z" fill="var(--fill-0, #FEFEFE)"/>
</g>
</svg>
