<svg width="11.3684" height="10.967" overflow="visible" style="display: block;" viewBox="0 0 11.3684 10.967" fill="none" xmlns="http://www.w3.org/2000/svg">
<path id="Vector" d="M11.0818 5.01915L8.79668 6.99098L9.49289 9.93985C9.5313 10.0999 9.52141 10.2678 9.46446 10.4223C9.40751 10.5767 9.30607 10.7108 9.17293 10.8077C9.0398 10.9045 8.88096 10.9597 8.71646 10.9663C8.55197 10.9729 8.38921 10.9306 8.24875 10.8448L5.68429 9.26649L3.11832 10.8448C2.97787 10.9301 2.81531 10.972 2.6511 10.9652C2.48689 10.9583 2.32838 10.9031 2.19552 10.8063C2.06267 10.7096 1.96141 10.5757 1.9045 10.4215C1.84758 10.2673 1.83757 10.0997 1.8757 9.93985L2.57445 6.99098L0.289295 5.01915C0.165032 4.91175 0.0751627 4.77013 0.0309106 4.61196C-0.0133414 4.45379 -0.0100151 4.28609 0.040474 4.1298C0.0909632 3.97351 0.186378 3.83556 0.314801 3.73318C0.443225 3.63079 0.598966 3.56851 0.762576 3.55411L3.75867 3.31239L4.91445 0.515359C4.97701 0.362923 5.08349 0.232532 5.22034 0.140765C5.3572 0.0489982 5.51825 0 5.68302 0C5.8478 0 6.00885 0.0489982 6.14571 0.140765C6.28256 0.232532 6.38904 0.362923 6.4516 0.515359L7.60687 3.31239L10.603 3.55411C10.7669 3.56797 10.9231 3.62991 11.052 3.73215C11.1809 3.83439 11.2767 3.9724 11.3275 4.12888C11.3783 4.28536 11.3818 4.45335 11.3376 4.61181C11.2933 4.77026 11.2033 4.91214 11.0788 5.01966L11.0818 5.01915Z" fill="var(--fill-0, #FBBF24)"/>
</svg>
