<svg width="13" height="13" overflow="visible" style="display: block;" viewBox="0 0 13 13" fill="none" xmlns="http://www.w3.org/2000/svg">
<g id="ph:user-fill">
<path id="Vector" d="M11.7269 11.1719C11.6913 11.2336 11.64 11.2849 11.5782 11.3206C11.5164 11.3563 11.4463 11.375 11.375 11.375H1.625C1.55372 11.3749 1.48372 11.3561 1.42202 11.3204C1.36032 11.2847 1.3091 11.2334 1.27349 11.1717C1.23788 11.1099 1.21915 11.0399 1.21917 10.9686C1.21918 10.8974 1.23796 10.8274 1.27359 10.7656C2.04699 9.42855 3.23883 8.4698 4.62973 8.01531C3.94173 7.60574 3.40719 6.98165 3.10821 6.23888C2.80923 5.49611 2.76234 4.67574 2.97474 3.90374C3.18713 3.13174 3.64707 2.4508 4.28392 1.9655C4.92077 1.4802 5.69932 1.21737 6.5 1.21737C7.30068 1.21737 8.07923 1.4802 8.71608 1.9655C9.35293 2.4508 9.81287 3.13174 10.0253 3.90374C10.2377 4.67574 10.1908 5.49611 9.89179 6.23888C9.59281 6.98165 9.05827 7.60574 8.37027 8.01531C9.76117 8.4698 10.953 9.42855 11.7264 10.7656C11.7621 10.8273 11.781 10.8974 11.7811 10.9687C11.7812 11.04 11.7625 11.1101 11.7269 11.1719Z" fill="var(--fill-0, #94A3B8)"/>
</g>
</svg>
