<svg width="10.9394" height="9.19032" overflow="visible" style="display: block;" viewBox="0 0 10.9394 9.19032" fill="none" xmlns="http://www.w3.org/2000/svg">
<path id="Vector" d="M10.7455 5.06028L6.80805 8.99778C6.68476 9.12106 6.51755 9.19032 6.3432 9.19032C6.16885 9.19032 6.00164 9.12106 5.87836 8.99778C5.75508 8.8745 5.68582 8.70729 5.68582 8.53294C5.68582 8.35859 5.75508 8.19138 5.87836 8.06809L8.69531 5.25223H0.65625C0.482202 5.25223 0.315282 5.18309 0.192211 5.06002C0.0691404 4.93695 0 4.77003 0 4.59598C0 4.42193 0.0691404 4.25501 0.192211 4.13194C0.315282 4.00887 0.482202 3.93973 0.65625 3.93973H8.69531L5.87945 1.12223C5.75617 0.998948 5.68691 0.831738 5.68691 0.657388C5.68691 0.483038 5.75617 0.315829 5.87945 0.192544C6.00274 0.0692602 6.16995 2.59802e-09 6.3443 0C6.51865 -2.59802e-09 6.68586 0.0692602 6.80914 0.192544L10.7466 4.13004C10.8078 4.19109 10.8564 4.26363 10.8894 4.34349C10.9225 4.42335 10.9395 4.50895 10.9394 4.59539C10.9393 4.68183 10.9221 4.76739 10.8888 4.84717C10.8556 4.92695 10.8069 4.99937 10.7455 5.06028Z" fill="var(--fill-0, #334155)"/>
</svg>
