<svg width="17" height="17" viewBox="0 0 17 17" fill="none" xmlns="http://www.w3.org/2000/svg">
<path d="M12.2188 2.125H4.78125C4.49946 2.125 4.22921 2.23694 4.02995 2.4362C3.83069 2.63546 3.71875 2.90571 3.71875 3.1875V14.875C3.7188 14.9698 3.74422 15.0629 3.79237 15.1445C3.84052 15.2262 3.90965 15.2935 3.99258 15.3395C4.07552 15.3854 4.16924 15.4083 4.26401 15.4058C4.35879 15.4033 4.45117 15.3755 4.53156 15.3252L8.5 12.845L12.4691 15.3252C12.5495 15.3753 12.6418 15.403 12.7365 15.4054C12.8311 15.4078 12.9247 15.3849 13.0076 15.339C13.0904 15.293 13.1595 15.2258 13.2076 15.1442C13.2557 15.0627 13.2811 14.9697 13.2812 14.875V3.1875C13.2812 2.90571 13.1693 2.63546 12.9701 2.4362C12.7708 2.23694 12.5005 2.125 12.2188 2.125Z" fill="#F59E0B"/>
</svg>
