<svg width="22.75" height="22.75" overflow="visible" style="display: block;" viewBox="0 0 22.75 22.75" fill="none" xmlns="http://www.w3.org/2000/svg">
<path id="Vector" d="M11.375 0C9.12524 0 6.926 0.667132 5.05539 1.91703C3.18478 3.16693 1.72682 4.94347 0.865875 7.02198C0.00492861 9.10048 -0.220334 11.3876 0.218573 13.5942C0.657479 15.8007 1.74084 17.8275 3.33167 19.4183C4.92249 21.0092 6.94932 22.0925 9.15585 22.5314C11.3624 22.9703 13.6495 22.7451 15.728 21.8841C17.8065 21.0232 19.5831 19.5652 20.833 17.6946C22.0829 15.824 22.75 13.6248 22.75 11.375C22.7468 8.35914 21.5474 5.46771 19.4148 3.33518C17.2823 1.20264 14.3909 0.0031848 11.375 0ZM16.3691 9.36906L10.2441 15.4941C10.1628 15.5754 10.0663 15.64 9.96008 15.684C9.85385 15.728 9.73999 15.7507 9.625 15.7507C9.51002 15.7507 9.39615 15.728 9.28993 15.684C9.18371 15.64 9.08721 15.5754 9.00594 15.4941L6.38094 12.8691C6.21676 12.7049 6.12452 12.4822 6.12452 12.25C6.12452 12.0178 6.21676 11.7951 6.38094 11.6309C6.54513 11.4668 6.76781 11.3745 7 11.3745C7.2322 11.3745 7.45488 11.4668 7.61907 11.6309L9.625 13.638L15.1309 8.13094C15.2122 8.04964 15.3088 7.98515 15.415 7.94116C15.5212 7.89716 15.635 7.87451 15.75 7.87451C15.865 7.87451 15.9788 7.89716 16.085 7.94116C16.1913 7.98515 16.2878 8.04964 16.3691 8.13094C16.4504 8.21223 16.5149 8.30875 16.5588 8.41497C16.6028 8.52118 16.6255 8.63503 16.6255 8.75C16.6255 8.86497 16.6028 8.97881 16.5588 9.08503C16.5149 9.19125 16.4504 9.28777 16.3691 9.36906Z" fill="var(--fill-0, #0B6DFF)"/>
</svg>
