<svg width="22.75" height="22.75" overflow="visible" style="display: block;" viewBox="0 0 22.75 22.75" fill="none" xmlns="http://www.w3.org/2000/svg">
<path id="Vector" d="M11.375 0C9.12524 0 6.926 0.667132 5.05539 1.91703C3.18478 3.16693 1.72682 4.94347 0.865875 7.02198C0.00492861 9.10048 -0.220334 11.3876 0.218573 13.5942C0.657479 15.8007 1.74084 17.8275 3.33167 19.4183C4.92249 21.0092 6.94932 22.0925 9.15585 22.5314C11.3624 22.9703 13.6495 22.7451 15.728 21.8841C17.8065 21.0232 19.5831 19.5652 20.833 17.6946C22.0829 15.824 22.75 13.6248 22.75 11.375C22.7468 8.35914 21.5474 5.46771 19.4148 3.33518C17.2823 1.20264 14.3909 0.0031848 11.375 0ZM11.375 18.375C11.1154 18.375 10.8617 18.298 10.6458 18.1538C10.43 18.0096 10.2618 17.8046 10.1624 17.5648C10.0631 17.3249 10.0371 17.061 10.0877 16.8064C10.1384 16.5518 10.2634 16.318 10.4469 16.1344C10.6305 15.9509 10.8643 15.8259 11.1189 15.7752C11.3735 15.7246 11.6374 15.7506 11.8773 15.8499C12.1171 15.9492 12.3221 16.1175 12.4663 16.3333C12.6105 16.5492 12.6875 16.8029 12.6875 17.0625C12.6875 17.4106 12.5492 17.7444 12.3031 17.9906C12.0569 18.2367 11.7231 18.375 11.375 18.375ZM12.25 13.0462V13.125C12.25 13.3571 12.1578 13.5796 11.9937 13.7437C11.8296 13.9078 11.6071 14 11.375 14C11.1429 14 10.9204 13.9078 10.7563 13.7437C10.5922 13.5796 10.5 13.3571 10.5 13.125V12.25C10.5 12.0179 10.5922 11.7954 10.7563 11.6313C10.9204 11.4672 11.1429 11.375 11.375 11.375C12.822 11.375 14 10.3906 14 9.1875C14 7.98437 12.822 7 11.375 7C9.92797 7 8.75 7.98437 8.75 9.1875V9.625C8.75 9.85706 8.65782 10.0796 8.49372 10.2437C8.32963 10.4078 8.10707 10.5 7.875 10.5C7.64294 10.5 7.42038 10.4078 7.25629 10.2437C7.09219 10.0796 7 9.85706 7 9.625V9.1875C7 7.01641 8.96219 5.25 11.375 5.25C13.7878 5.25 15.75 7.01641 15.75 9.1875C15.75 11.0884 14.245 12.6798 12.25 13.0462Z" fill="var(--fill-0, #F59E0B)"/>
</svg>
