<svg width="338" height="226" viewBox="0 0 338 226" fill="none" xmlns="http://www.w3.org/2000/svg">
<path d="M11.2517 221.386C12.1495 219.774 9.70251 218.823 10.4331 217.246C10.8204 215.37 11.1461 213.503 10.2218 211.68V211.362C9.47365 209.108 10.3539 206.518 8.77829 204.439C6.81542 197.992 5.38949 191.403 3.79631 184.859C3.38261 184.04 3.26819 183.15 3.25938 182.251C2.23834 178.085 2.15912 173.76 1.18209 169.577C0.882821 168.449 1.56058 167.392 1.41095 166.273C1.02365 164.626 1.41095 162.988 1.48136 161.35C1.56938 155.263 2.79287 153.052 8.44381 151.247C15.7936 148.886 23.3105 146.834 31.0916 149.441C34.1107 150.454 37.6139 149.247 40.3162 151.555C43.036 156.144 45.8263 160.715 48.0884 165.542C50.1921 170.035 49.3911 174.949 48.8806 179.671C48.6429 181.829 48.4317 183.978 48.3261 186.136C48.2996 186.876 48.194 187.598 48.0092 188.311C47.0938 191.35 47.6659 194.468 47.5163 197.542C47.4987 201.462 47.437 205.364 48.2116 209.275C48.7221 211.865 49.62 213.961 51.7941 215.449C53.2024 216.7 54.9892 217.141 56.6968 217.757C57.6827 218.118 59.0206 218.25 58.7125 219.88C57.9379 221.316 57.1633 222.76 56.38 224.196C53.4313 225.641 50.3945 224.857 47.349 224.645C45.5006 224.513 43.5553 224.161 41.7333 224.989C40.3602 224.971 38.987 224.945 37.6139 224.927C35.0701 224.513 32.4735 225.359 29.9473 224.601C28.1165 224.971 26.3384 225.685 24.4108 225.359C22.7648 224.839 21.0748 225.086 19.4024 225.024C17.4043 225.006 15.3799 225.2 13.505 224.214L13.1705 224.258C11.9822 223.659 11.8678 222.355 11.2517 221.377V221.386Z" fill="#FDB42B"/>
<path d="M22.7032 126.584C20.1066 120.779 13.6458 118.489 10.5299 113.09C8.77829 110.051 6.56897 107.294 5.82959 103.762C5.23985 100.943 5.70636 99.1024 9.30641 99.6573C19.1647 101.19 27.8348 97.878 35.6158 92.3025C41.6629 87.9688 43.4057 81.1249 43.7402 74.1312C44.1979 64.6184 44.6116 55.132 46.9089 45.8482C50.0601 33.0587 57.5418 22.9029 66.7488 13.9009C72.1005 8.6777 77.8394 4.11507 85.2596 1.77209C95.2852 -1.38123 104.827 0.00165248 114.403 3.34876C120.494 5.48033 126.357 8.19325 131.831 11.4963C146.249 20.19 152.287 33.5432 151.442 50.0144C150.923 60.2055 149.708 70.3877 147.147 80.3057C146.1 84.3751 144.691 88.4357 142.808 92.1703C140.537 96.6801 139.375 101.384 138.354 106.255C137.482 110.421 136.109 113.565 142.042 115.785C146.469 117.441 146.707 123.14 146.865 127.738C146.927 129.473 146.584 131.217 146.425 132.961C143.362 134.546 143.38 132.08 143.274 130.345C143.151 128.319 143.459 126.293 143.124 124.241C142.464 120.207 140.22 117.74 136.382 116.437C131.303 114.702 126.189 114.103 120.864 115.072C116.173 115.926 115.504 115.371 115.442 110.474C115.336 101.877 115.398 103.013 107.573 103.216C99.2461 103.436 91.025 101.63 82.6542 102.458C78.7813 102.837 75.991 103.295 76.6952 108.096C76.8008 108.818 76.3079 109.478 75.7886 110.024C74.8819 110.8 73.7377 111.126 72.6902 111.645C62.9199 115.045 52.7975 117.423 43.3265 121.713C41.7157 122.444 39.9377 122.682 38.3357 121.431C38.3269 118.956 40.4834 118.56 42.0502 117.749C50.641 113.301 59.9448 110.808 69.1606 108.131C71.7748 107.373 72.9279 106.351 73.368 103.55C74.0105 99.4723 76.2727 95.7641 76.5543 91.5009C76.616 90.5937 77.3377 89.1668 78.9837 89.8538C79.5999 90.5408 79.7935 91.3864 79.9167 92.2584C80.7529 98.063 80.7529 98.1511 86.4391 98.063C92.8558 97.9661 99.2637 98.3889 105.68 98.1863C108.083 98.107 109.967 97.5786 110.61 94.8921C111.305 91.9766 113.444 91.0517 116.208 91.0605C117.37 91.0605 118.531 90.902 119.693 90.7698C130.837 89.431 135.713 82.3492 137.086 72.5633C137.368 70.5375 137.201 68.4764 137.562 66.4593C137.738 65.5609 138.116 64.7417 138.697 64.037C139.736 62.5396 141.813 62.7246 143.239 61.2272C139.797 59.721 136.285 63.2443 133.178 60.734C132.861 59.7739 133.337 59.1133 133.979 58.5055C137.157 57.0345 140.405 55.6781 142.614 52.7185C147.006 46.8171 145.924 39.6736 139.929 35.4017C138.979 34.7235 137.949 34.1597 136.981 33.5079C135.537 32.3364 133.205 33.1204 132.051 31.2971C130.573 25.7127 120.424 18.2258 114.817 18.8159C111.058 19.2123 109.404 22.4273 107.441 25.1226C106.613 26.1971 105.786 27.307 104.166 26.4878C104.14 19.0097 111.023 12.8616 117.739 15.1165C124.702 17.4506 131.787 20.1195 135.546 27.3598C136.488 29.1743 138.301 29.8437 139.982 30.7157C144.445 33.0147 147.851 36.1856 148.599 41.4705C150.386 47.002 148.036 52.0579 146.575 57.2283C148.608 52.0844 149.867 46.8435 148.635 41.3208C147.059 33.7369 143.864 26.9458 138.829 21.0444C136.725 18.5781 134.314 16.5346 131.409 15.0108C122.756 10.4658 114.289 5.56842 104.334 4.17672C101.086 3.7187 97.9434 4.13268 94.7482 4.16792C90.4792 3.20783 86.4303 4.44097 82.9182 6.414C64.962 16.5258 52.9735 31.1297 49.0742 51.8994C47.7627 58.8666 48.2996 65.9484 47.217 72.7836C44.6996 88.6735 41.1436 96.0283 25.5375 100.679C21.1892 101.974 16.8234 103.163 12.2199 103.137C8.91912 103.119 8.91912 104.863 10.2218 107.1C12.836 111.548 15.9872 115.556 20.0978 118.736C23.9531 121.722 25.9071 125.509 25.4582 130.53C25.203 133.375 24.1819 136.044 21.8758 137.224C18.575 138.906 17.6684 140.791 19.3584 143.998C18.9447 144.614 18.3197 144.834 17.6156 144.861C14.7813 144.35 13.4698 142.43 12.9153 139.796C12.9153 139.197 12.9153 138.589 12.9153 137.99C13.2674 137.709 13.6282 137.427 13.9803 137.154C15.2302 136.114 16.9202 137.303 18.1701 136.317C20.0802 134.872 21.9902 133.419 22.7296 130.962C23.1873 129.508 23.2401 128.055 22.6944 126.61L22.7032 126.584Z" fill="#373836"/>
<path d="M196.738 141.567C199.581 134.599 200.479 126.954 204.264 120.321C205.135 119.987 205.584 120.506 205.945 121.176C206.403 126.654 203.692 131.402 202.151 136.343C193.472 164.124 185.058 191.985 176.027 219.633C176.986 222.505 179.398 220.761 181.097 221.201C183.086 221.712 185.779 220.162 186.871 223.236C181.889 223.694 176.916 224.54 171.916 223.35C171.326 222.205 169.196 223.588 169.091 221.633C170.613 219.818 173.175 218.295 170.869 215.379C170.781 213.494 173.272 213.626 173.509 211.988C173.694 211.424 173.448 212.129 173.641 211.574C175.091 207.434 173.723 204.865 169.54 203.867C168.695 203.664 167.92 203.312 167.26 202.73C166.591 202.096 166.133 201.348 165.931 200.449C165.807 199.753 165.86 199.075 166.098 198.406C166.415 197.771 166.917 197.358 167.603 197.199C170.164 197.578 172.031 199.85 174.812 199.762C176.009 199.727 177.417 199.974 177.778 198.643C179.803 191.315 183.64 184.489 183.843 176.658C183.843 176.218 183.966 175.813 184.195 175.434C185.454 174.166 186.334 172.695 186.704 170.924C187.971 164.776 190.621 159.051 192.223 153C193.244 150.366 194.053 147.662 194.881 144.958C195.33 143.733 195.488 142.35 196.729 141.558L196.738 141.567Z" fill="#333433"/>
<path d="M118.355 223.289C111.323 224.046 104.272 223.967 97.2128 223.729C94.2641 223.632 94.7394 221.571 94.5634 219.783C94.2729 219.404 94.0265 218.99 93.8328 218.55C93.6832 218.092 93.6128 217.616 93.5952 217.141C93.6656 214.102 95.2764 212.772 98.2603 212.71C102.151 212.631 106.041 211.97 109.897 212.939C110.935 213.054 111.956 213.811 113.013 213.054C112.81 212.437 112.564 211.829 112.854 211.178C113.4 210.429 114.174 210.341 115.011 210.42C117.493 210.931 119.676 212.27 122.114 212.904C126.867 213.679 131.647 213.018 136.4 213.283C138.195 213.38 140.273 212.833 141.373 215C140.264 216.876 138.354 216.524 136.673 216.595C129.508 216.885 122.334 216.824 115.178 216.612C110.337 216.471 105.584 217.836 100.742 217.132C100.012 217.026 99.2637 217.343 99.0965 218.233C98.8852 219.334 99.519 219.88 100.487 220.056C102.943 220.497 105.46 220.083 107.916 220.646C110.152 221.404 112.476 221.025 114.747 221.254C116.181 221.395 118.1 220.955 118.355 223.289Z" fill="#333739"/>
<path d="M118.355 223.289C116.525 221.606 114.298 222.699 112.264 222.417C110.768 222.205 109.122 222.884 107.802 221.633C109.386 219.88 111.534 220.118 113.541 220.118C130.221 220.065 146.909 220.065 163.589 220.118C165.596 220.118 167.744 219.88 169.319 221.642C169.909 222.628 171.494 222.126 171.925 223.359C159.866 223.509 147.807 223.879 135.748 223.72C129.957 223.65 124.112 224.592 118.347 223.28L118.355 223.289Z" fill="#3B3D3B"/>
<path d="M20.5203 146.807C19.4552 145.918 18.399 145.028 17.3339 144.139C17.9149 144.139 18.4958 144.139 19.0767 144.139C19.8953 143.663 20.8371 143.654 21.5853 144.05C27.1482 147.01 33.2129 148.208 39.3127 149.335C39.744 149.547 40.1049 149.837 40.413 150.207C40.7034 150.921 40.6506 151.581 40.0961 152.163C30.7395 150.066 21.4357 148.534 11.815 151.018C4.73813 152.85 2.87209 154.471 2.15912 161.773C1.80704 163.499 1.71902 165.225 2.21194 166.952C2.00069 167.806 1.78063 168.652 1.56938 169.506C2.0535 170.44 1.53417 170.572 0.768394 170.493C0.169852 167.137 -0.235044 163.842 0.152248 160.346C0.768394 154.726 2.59043 152.277 7.9685 150.172C12.0615 148.569 16.6474 149.062 20.5203 146.799V146.807Z" fill="#464139"/>
<path d="M207.098 223.289C201.826 223.262 196.553 223.236 191.281 223.209C190.497 222.69 189.661 222.188 190.656 221.131C191.721 220.505 192.856 220.576 194.001 220.787C195.867 221.483 197.662 220.911 199.475 220.461C209.052 220.065 218.629 219.836 228.205 220.558C229.464 221.051 230.837 221.439 230.82 223.201C224.667 223.218 218.523 223.236 212.37 223.254C210.619 223.359 208.85 222.223 207.098 223.289Z" fill="#393C39"/>
<path d="M4.28043 184.33C6.04084 190.848 7.79246 197.366 9.55287 203.884C9.92256 204.985 9.94016 205.884 8.4086 205.901C6.2961 199.48 4.62371 192.953 3.46183 186.294C3.89313 185.704 3.39141 184.718 4.28923 184.321L4.28043 184.33Z" fill="#444037"/>
<path d="M313.418 222.408C316.068 224.126 319.008 222.98 321.807 223.236C327.194 223.729 332.677 222.337 338.003 224.064C328.637 224.073 319.272 224.09 309.898 224.099C309.501 223.377 307.706 224.161 308.181 222.505C309.924 222.478 311.667 222.443 313.41 222.417L313.418 222.408Z" fill="#4A4B49"/>
<path d="M255.421 223.095C248.97 223.121 242.518 223.157 236.066 223.183C235.458 222.558 233.223 222.936 234.719 220.999C236.972 219.994 239.296 220.294 241.629 220.602C243.486 221.192 245.378 221.395 247.306 220.972C249.999 220.911 252.781 220.171 255.245 221.959C255.474 222.179 255.58 222.417 255.553 222.672C255.527 222.945 255.483 223.077 255.421 223.077V223.095Z" fill="#4A524C"/>
<path d="M284.398 223.139C277.964 223.139 271.538 223.139 265.104 223.139C266.318 219.977 269.522 221.879 271.485 220.62C274.707 220.135 277.928 220.074 281.159 220.611C282.453 221.175 284.187 221.184 284.398 223.139Z" fill="#494F4C"/>
<path d="M58.7125 219.88C56.7408 217.757 53.2288 218.911 51.4244 216.436C51.574 216.242 51.7325 216.048 51.8821 215.863C53.6249 214.93 55.2269 215.67 56.8377 216.277C61.9253 217.405 67.0745 216.506 72.1885 216.788C73.4472 216.771 74.6883 216.876 75.8238 217.502C76.3079 217.819 76.4311 218.242 76.2022 218.77C72.0125 218.77 67.8227 218.805 63.6329 218.788C61.8989 218.779 60.156 218.576 58.7213 219.88L58.7125 219.88Z" fill="#515453"/>
<path d="M0.768394 170.51C1.03246 170.184 1.30532 169.85 1.56938 169.524C4.02516 173.355 2.75766 177.927 4.06917 181.978C3.36501 182.384 4.11318 184.092 2.52001 183.696C1.93907 179.301 0.433914 175.029 0.768394 170.51Z" fill="#554C3A"/>
<path d="M190.409 221.633L191.272 223.201C189.811 223.209 188.341 223.227 186.88 223.236C183.482 221.492 179.847 222.778 176.344 222.426C174.557 222.241 172.964 222.126 174.478 219.739C178.042 220.259 181.625 220.171 185.207 220.232C187.029 220.268 188.992 219.986 190.409 221.633Z" fill="#3F433F"/>
<path d="M271.23 221.606C269.505 223.359 266.847 221.421 265.113 223.139C263.062 223.121 261.002 223.113 258.951 223.095C258.423 222.267 258.493 221.554 259.338 220.972C263.37 219.977 267.383 219.255 271.239 221.606H271.23Z" fill="#434642"/>
<path d="M308.19 222.496C308.762 223.025 309.334 223.562 309.906 224.09C306.711 223.606 303.314 225.112 300.259 223.139C300.242 222.963 300.224 222.787 300.206 222.619C302.856 221.606 305.532 222.936 308.19 222.496Z" fill="#686867"/>
<path d="M24.1819 224.857C26.0216 224.672 27.8612 224.495 29.7008 224.311C29.9473 224.513 30.0177 224.698 29.9121 224.865C29.8153 225.024 29.7184 225.103 29.6216 225.103C25.291 226.9 20.8459 225.42 16.4537 225.596C17.2019 223.65 18.8655 224.998 20.045 224.601C21.4269 224.698 22.8264 224.381 24.1907 224.848L24.1819 224.857Z" fill="#969696"/>
<path d="M41.7333 224.989C46.5304 223.121 51.486 224.187 56.38 224.196C56.2655 224.469 56.1423 224.742 56.0279 225.015C53.22 225.773 50.4033 225.605 47.5867 225.112C45.6326 225.077 43.6786 225.033 41.7333 224.998V224.989Z" fill="#63563E"/>
<path d="M284.398 223.139C283.527 222.628 282.655 222.126 281.784 221.615C283.993 219.642 286.51 220.285 289.019 220.761C289.802 221.051 290.137 221.756 290.524 222.408C290.595 222.707 290.665 223.016 290.735 223.315C288.623 223.315 286.493 223.844 284.398 223.139Z" fill="#424844"/>
<path d="M79.7671 220.62C80.7265 220.708 81.7916 220.637 81.8972 221.791C82.0116 223.183 80.9906 223.421 79.8639 223.359C78.8165 223.298 77.4697 223.148 77.4785 221.976C77.4785 220.814 78.8517 220.726 79.7759 220.62H79.7671Z" fill="#656665"/>
<path d="M29.6128 225.103C29.7096 224.848 29.736 224.584 29.692 224.311C32.3415 224.328 35.0789 223.35 37.6139 224.936C34.9733 225.922 32.2975 225.658 29.6216 225.112L29.6128 225.103Z" fill="#4E4431"/>
<path d="M94.6602 218.814C94.6338 219.14 94.5986 219.457 94.5722 219.783C90.7785 219.369 86.8792 220.576 83.1647 219.034C83.4816 218.576 83.8953 218.242 84.4146 218.03C87.8738 217.696 91.3682 216.868 94.6602 218.814Z" fill="#CBCBCB"/>
<path d="M234.314 221.58C234.895 222.117 235.476 222.646 236.057 223.183C234.305 223.491 232.554 223.632 230.802 223.192L229.059 221.659C230.784 220.021 232.536 220.074 234.305 221.58H234.314Z" fill="#363635"/>
<path d="M71.3963 220.488C72.1797 220.637 73.3504 220.444 73.2271 221.668C73.1039 222.804 72.2061 223.342 71.0354 223.007C70.2696 222.778 69.0638 222.769 69.1078 221.721C69.1694 220.391 70.4105 220.514 71.3875 220.497L71.3963 220.488Z" fill="#565755"/>
<path d="M86.2366 222.311C87.3281 220.831 88.6572 220.787 90.0303 221.545C90.5672 221.844 90.6113 222.699 90.0831 223.007C88.71 223.791 87.3809 223.65 86.2366 222.32V222.311Z" fill="#3C3D3B"/>
<path d="M47.5867 225.112C50.4033 225.077 53.2112 225.05 56.0279 225.015C53.2288 226.653 50.4033 225.729 47.5867 225.112Z" fill="#63615B"/>
<path d="M8.4086 205.901C9.34162 205.54 9.40324 204.686 9.55287 203.884C10.9436 206.271 10.0634 208.861 10.213 211.363C8.69027 209.848 10.0458 207.381 8.4086 205.901Z" fill="#A8833B"/>
<path d="M84.0977 218.726C83.7896 218.832 83.4728 218.929 83.1647 219.034C80.8409 218.946 78.5172 218.858 76.1934 218.77C76.1846 218.515 76.1758 218.259 76.167 218.004C78.526 216.189 81.0522 216.621 83.6136 217.431C84.1417 217.722 84.3002 218.162 84.0977 218.726Z" fill="#44494F"/>
<path d="M19.8953 224.804C18.7775 225.191 17.3691 224.346 16.4537 225.596C14.9397 226.284 14.2532 225.191 13.5138 224.222C15.6527 224.24 17.7828 224.258 19.9217 224.275C19.9217 224.451 19.9041 224.628 19.9041 224.804H19.8953Z" fill="#605134"/>
<path d="M207.098 223.289C208.85 221.95 210.601 221.968 212.37 223.254C210.619 224.187 208.858 223.544 207.098 223.289Z" fill="#333433"/>
<path d="M258.942 221.562C258.942 222.073 258.942 222.593 258.942 223.104C257.772 223.104 256.592 223.104 255.421 223.104C255.421 222.831 255.404 222.566 255.395 222.293C256.196 220.171 257.508 220.593 258.942 221.571V221.562Z" fill="#49594D"/>
<path d="M2.52001 183.696C3.03933 183.124 3.54985 182.551 4.06917 181.978C4.13959 182.762 4.21001 183.546 4.28043 184.33C4.00756 184.991 3.7347 185.643 3.45303 186.303C3.14496 185.431 2.82808 184.568 2.52001 183.696Z" fill="#333331"/>
<path d="M300.198 222.619C300.154 222.796 300.171 222.972 300.25 223.139C298.376 223.139 296.334 224.284 294.74 222.337C296.554 222.426 298.376 222.522 300.189 222.611L300.198 222.619Z" fill="#525351"/>
<path d="M11.2517 221.386C12.6864 221.809 12.5368 223.298 13.1705 224.266C9.6585 225.227 11.639 222.522 11.2517 221.386Z" fill="#74726E"/>
<path d="M10.2218 211.68C11.6038 213.485 11.7094 215.335 10.4331 217.246C10.3627 215.397 10.2922 213.538 10.2218 211.68Z" fill="#8B6C31"/>
<path d="M63.9409 220.329C64.5571 220.083 64.7155 220.637 64.6979 220.955C64.6803 221.448 64.5571 222.205 64.2402 222.364C63.8089 222.575 63.1664 222.302 63.1135 221.562C63.0695 220.937 63.3248 220.514 63.9409 220.329Z" fill="#7E7E7D"/>
<path d="M258.942 221.562C257.736 221.686 256.354 220.937 255.395 222.285C252.754 222.056 250.114 221.818 247.473 221.589C245.748 222.161 244.023 222.126 242.298 221.606C239.639 221.606 236.981 221.589 234.323 221.58C232.571 221.606 230.828 221.633 229.077 221.659C218.814 221.642 208.55 221.624 198.278 221.615C196.835 222.1 195.391 222.135 193.948 221.589C192.768 221.598 191.589 221.615 190.409 221.624C186.167 221.606 181.933 221.624 177.69 221.562C176.344 221.545 174.566 222.056 174.478 219.73C178.879 206.157 183.359 192.601 187.672 179.001C191.712 166.238 195.567 153.414 199.511 140.624C201.482 134.221 203.445 127.817 205.417 121.422C205.593 116.965 207.6 112.966 208.682 108.738C209.087 107.162 210.293 106.158 211.895 106.237C219.28 106.589 226.656 105.638 234.05 106.237C240.291 106.73 246.575 106.114 252.825 106.087C259.638 106.052 266.468 106.36 273.307 106.026C281.423 105.629 289.565 105.418 297.698 105.435C301.034 105.435 304.37 106.219 307.697 105.488C308.745 105.471 309.801 105.471 310.848 105.471C314.668 105.488 318.497 105.444 322.317 105.497C328.259 105.664 324.342 109.734 324.888 112.033L324.914 112.227C323.374 113.847 323.33 115.97 322.969 117.987C322.08 120.11 321.552 122.356 320.839 124.532C320.293 126.073 319.677 127.597 319.351 129.209C318.348 131.155 317.872 133.225 317.819 135.401L317.855 135.33C316.561 136.229 316.675 137.805 316.059 139.03L315.936 140.686C314.58 142.183 314.704 144.165 314.272 145.962C313.841 147.186 313.524 148.446 313.295 149.723C313.216 150.093 313.102 150.445 312.969 150.798C312.45 152.207 311.966 153.634 311.385 155.025C310.734 156.717 309.73 158.32 309.994 160.249C310.1 160.478 310.056 160.671 309.845 160.821C308.701 161.755 308.762 163.261 308.137 164.433L308.181 164.318C307.292 165.648 307.767 167.419 306.755 168.705C306.306 169.779 306.262 170.968 305.866 172.06C305.567 172.95 305.18 173.822 305.03 174.756C304.696 176.35 303.745 177.786 303.824 179.495C303.895 179.75 303.842 179.979 303.674 180.173C302.636 181.124 302.398 182.401 302.266 183.705C301.72 185.132 301.316 186.612 300.62 187.977C300.242 188.849 299.898 189.738 299.661 190.663C299.027 192.443 298.481 194.231 298.543 196.151L297.548 198.635C296.272 200.185 296.545 202.237 295.841 203.964L295.885 203.911C294.811 205.126 294.608 206.641 294.397 208.156C293.622 209.301 293.376 210.596 293.332 211.944C292.98 212.789 292.619 213.626 292.267 214.472C290.85 216.595 291.404 219.448 289.679 221.448C287.039 221.492 284.407 221.536 281.766 221.571C278.245 221.571 274.724 221.571 271.204 221.571C267.111 221.554 263.018 221.536 258.916 221.518L258.942 221.562Z" fill="#8ECCA1"/>
<path d="M40.1489 150.542C39.9465 150.331 39.7088 150.234 39.4183 150.251C35.3254 143.02 34.2867 135.093 34.6564 126.998C34.7532 124.849 35.9943 122.514 38.5029 121.581C41.0995 121.281 43.5729 120.559 45.9495 119.476C54.5403 115.582 63.6857 113.398 72.655 110.659C73.3592 110.245 74.4947 110.245 74.4858 110.923C74.4154 116.41 78.9925 115.459 82.082 116.569C91.9316 117.124 101.772 118.005 110.909 116.86C101.808 117.74 91.9844 117.23 82.1701 116.525C81.0874 116.164 79.9519 116.102 78.8517 115.855C75.5685 115.116 73.7817 113.46 75.3837 109.866C75.4189 109.725 75.4365 109.575 75.4981 109.443C76.7832 106.95 73.7817 103.321 76.7744 101.762C78.8341 100.697 81.818 101.304 84.3882 101.34C94.2993 101.489 104.202 101.762 114.113 101.877C115.856 101.895 116.34 102.502 116.366 104.123C116.428 107.47 116.648 110.817 116.824 114.561C122.572 113.557 128.293 112.87 133.988 114.296C142.5 116.437 145.255 120.356 144.559 129.165C144.436 130.732 142.834 133.181 146.434 132.952C146.46 133.903 146.487 134.855 146.513 135.797C148.846 142.121 152.71 147.574 156.548 153C157.806 154.788 159.074 156.558 160.245 158.408C161.662 160.293 162.938 162.283 164.61 163.966C166.036 166.044 167.726 167.938 169.011 170.114C169.962 171.752 171.52 172.096 173.245 172.113C174.055 172.157 174.856 172.272 175.639 172.492C178.5 173.831 181.994 173.76 184.265 176.385C186.396 177.557 185.181 179.186 184.758 180.604C183.139 186.048 181.519 191.5 179.697 196.882C179.178 198.397 179.574 201.286 177.444 201.083C174.645 200.819 171.212 201.744 169.117 198.652C168.818 198.212 168.263 197.939 167.823 197.595C166.67 197.393 165.587 197.014 164.593 196.389C162.621 195.2 160.843 193.667 158.572 192.997C156.46 191.932 154.347 190.883 152.384 189.545C150.985 188.761 149.427 188.32 148.027 187.563C145.897 186.286 143.248 185.854 141.681 183.67C141.197 181.679 143.186 180.71 143.573 179.081C148.687 169.744 148.749 160.169 144.797 150.401C148.555 160.081 148.74 169.594 143.582 178.852C143.529 180.842 140.255 181.653 141.646 184.172C143.433 185.643 145.615 186.4 147.631 187.439C149.013 188.171 150.457 188.77 151.909 189.324C153.863 190.628 155.861 191.852 158.026 192.786C160.245 193.632 162.207 194.909 164.144 196.248C165.086 196.944 166.274 197.384 166.696 198.635C166.696 199.234 166.696 199.824 166.688 200.423C165.473 201.656 163.871 201.471 162.366 201.629C160.35 201.911 158.44 202.501 156.75 203.699C154.409 205.681 152.217 207.716 153.74 211.239C154.013 211.926 154.048 212.622 153.775 213.318C150.782 216.013 146.962 215.185 143.811 214.701C136.875 213.635 129.983 214.331 123.091 214.014C122.369 213.979 121.639 214.049 121.005 213.591C118.875 212.719 116.745 211.847 114.615 210.975C109.527 208.984 104.281 207.425 99.1669 205.487C95.514 203.144 92.0636 200.476 88.2523 198.362C82.6806 193.958 76.3519 190.654 70.745 186.294C69.9264 185.466 69.0021 184.771 68.0163 184.145C66.9161 183.335 66.0094 182.313 64.8916 181.529C59.0294 178.2 54.8836 172.888 49.8664 168.572C46.328 162.715 42.1646 157.201 40.1401 150.524L40.1489 150.542Z" fill="#0B6DFE"/>
<path d="M308.111 106.29C294.274 106.378 280.455 107.153 266.609 106.801C256.988 106.563 247.359 106.933 237.738 106.977C230.027 107.012 222.317 107.065 214.606 106.924C211.658 106.871 209.88 107.285 209.096 110.764C208.278 114.385 207.609 118.216 205.417 121.431C205.038 121.061 204.651 120.7 204.273 120.33C204.616 115.582 206.869 111.381 208.145 106.898C208.542 105.506 209.413 104.784 211.033 104.801C228.751 104.96 246.47 105.154 264.197 105.136C275.235 105.127 286.264 104.766 297.302 104.59C299.934 104.546 302.565 104.634 305.136 105.339C306.236 105.339 307.715 104.123 308.128 106.29H308.111Z" fill="#383A37"/>
<path d="M196.738 141.567C196.624 142.791 196.738 144.086 195.77 145.072C193.886 146.596 191.633 146.358 189.459 146.349C178.051 146.341 166.635 146.526 155.271 145.248C153.229 144.737 151.082 144.35 150.782 141.663C151.979 140.069 153.722 140.695 155.254 140.659C169.099 140.325 182.901 142.086 196.747 141.567H196.738Z" fill="#FEFEFD"/>
<path d="M150.773 141.672C151.539 143.099 152.912 143.681 154.33 144.183C156.882 145.134 159.646 145.565 161.917 147.221C163.448 148.34 164.654 149.512 162.832 151.361C159.963 150.128 157.058 148.93 154.303 147.107C155.861 149.943 157.516 152.533 160.007 154.479C160.799 155.554 161.345 156.699 161.125 158.082C160.887 158.742 160.544 159.245 159.725 159.068C154.708 152.586 149.752 146.059 146.601 138.396C146.267 137.585 145.149 136.713 146.496 135.797C147.922 137.753 149.348 139.699 150.773 141.655V141.672Z" fill="#3B3F41"/>
<path d="M323.039 106.219C318.973 106.387 314.906 106.765 310.831 106.202C310.549 105.4 311.024 105.013 311.649 104.713C315.17 104.687 318.691 104.193 322.212 104.792C322.881 105.048 323.285 105.453 323.03 106.228L323.039 106.219Z" fill="#373735"/>
<path d="M320.284 124.47C320.768 122.206 321.129 119.898 322.37 117.873C324.025 117.873 323.426 118.85 323.145 119.678C322.493 121.669 321.833 123.668 321.182 125.659C320.266 125.721 319.932 125.351 320.275 124.461L320.284 124.47Z" fill="#4B5049"/>
<path d="M323.039 106.219C322.766 105.744 322.493 105.259 322.22 104.784C327.079 105.541 328.03 104 324.905 112.033C323.312 110.747 324.703 109.302 324.932 108.113C325.328 106.087 324.051 106.448 323.039 106.219Z" fill="#414B43"/>
<path d="M317.828 135.41C316.05 133.058 317.626 131.129 318.629 129.129C319.395 129.508 319.043 130.424 319.501 130.944C319.298 132.565 318.92 134.124 317.819 135.41H317.828Z" fill="#5E635A"/>
<path d="M323.154 119.687C322.898 119.079 322.634 118.48 322.379 117.873C322.889 115.838 322.511 113.398 324.932 112.227C323.488 114.508 324.826 117.45 323.154 119.678V119.687Z" fill="#586257"/>
<path d="M319.509 130.944C318.779 130.548 318.708 129.834 318.638 129.129C319.193 127.579 319.738 126.029 320.293 124.47C320.592 124.866 320.891 125.271 321.199 125.668C320.152 127.271 321.032 129.491 319.518 130.944H319.509Z" fill="#49544B"/>
<path d="M311.649 104.704C311.376 105.198 311.103 105.7 310.831 106.193C309.924 106.219 309.017 106.255 308.111 106.281C307.354 105.224 306.13 105.603 305.118 105.33C307.222 104.37 309.44 104.546 311.649 104.704Z" fill="#444A44"/>
<path d="M315.408 144.191C315.258 144.676 315.117 145.16 314.968 145.636C314.924 146.068 314.695 146.288 314.255 146.261C314.087 146.164 313.92 146.068 313.753 145.971C313.594 143.839 314.035 141.963 315.945 140.686C315.769 141.848 315.584 143.011 315.408 144.174V144.191Z" fill="#626A63"/>
<path d="M316.068 139.039C316.094 137.524 315.469 135.7 317.863 135.339C317.617 136.748 317.327 138.123 316.068 139.039Z" fill="#444642"/>
<path d="M18.1789 136.29C16.9994 137.656 15.3975 136.933 13.9891 137.127C15.1158 135.515 16.7266 136.273 18.1789 136.29Z" fill="#464139"/>
<path d="M22.7032 126.584C23.8651 128.028 23.8299 129.473 22.7384 130.935C22.7296 129.482 22.7208 128.037 22.7032 126.584Z" fill="#464139"/>
<path d="M289.697 221.483C290.586 219.167 290.181 216.366 292.285 214.507C292.381 217.29 290.991 219.748 290.524 222.408C290.251 222.1 289.97 221.791 289.697 221.483Z" fill="#94B49E"/>
<path d="M310.003 160.249C308.331 158.126 310.17 156.435 310.699 154.576C311.438 155.017 311.086 155.862 311.385 156.461L311.781 156.426C311.191 157.703 310.593 158.971 310.003 160.249Z" fill="#555B56"/>
<path d="M298.56 196.177C297.161 194.116 298.534 192.372 299.194 190.54C299.775 190.654 299.828 191.209 300.083 191.597C299.414 193.068 299.916 194.935 298.569 196.177H298.56Z" fill="#646F67"/>
<path d="M300.638 188.171C300.427 186.506 300.858 185.017 301.861 183.687C302.169 183.3 302.469 183.282 302.768 183.705C302.53 185.414 302.645 187.29 300.611 188.118L300.638 188.171Z" fill="#6F7C73"/>
<path d="M295.858 203.999C295.876 202.043 295.277 199.894 297.566 198.67C297.566 200.625 297.267 202.493 295.858 203.999Z" fill="#5A695E"/>
<path d="M305.259 172.298C305.673 171.092 304.995 169.453 306.676 168.757C306.861 168.757 307.046 168.757 307.231 168.757C307.697 170.105 307.063 171.197 306.412 172.289C306.033 172.589 305.646 172.58 305.259 172.289V172.298Z" fill="#617065"/>
<path d="M294.036 208.332C294.142 206.65 293.693 204.73 295.902 203.946C296.307 205.611 295.33 206.897 294.732 208.28C294.52 208.641 294.291 208.676 294.036 208.332Z" fill="#718B78"/>
<path d="M307.222 168.757L306.94 168.687C306.94 168.687 306.658 168.757 306.667 168.757C306.685 167.11 306.94 165.551 308.199 164.336C307.961 165.833 308.709 167.542 307.222 168.766V168.757Z" fill="#474D48"/>
<path d="M303.859 179.512C302.794 177.742 304.071 176.412 304.731 174.976C304.924 174.527 305.144 174.509 305.382 174.941C305.039 176.517 304.924 178.173 303.859 179.512Z" fill="#636E66"/>
<path d="M302.768 183.705C302.469 183.705 302.169 183.696 301.861 183.687C301.967 182.251 301.404 180.472 303.701 180.19C303.393 181.362 303.076 182.533 302.768 183.705Z" fill="#616962"/>
<path d="M300.638 188.171L300.611 188.118C301.342 189.413 300.338 190.452 300.083 191.597C299.784 191.245 299.494 190.892 299.194 190.549C299.291 189.527 299.326 188.461 300.638 188.171Z" fill="#5A655D"/>
<path d="M308.155 164.441C308.216 162.997 307.345 161.112 309.862 160.83C309.818 162.283 309.405 163.561 308.155 164.441Z" fill="#5C685F"/>
<path d="M294.036 208.332C294.265 208.297 294.503 208.28 294.732 208.28C294.274 209.513 293.816 210.746 293.358 211.979C292.302 210.526 293.05 209.407 294.036 208.332Z" fill="#889D8D"/>
<path d="M305.382 174.941C305.162 174.949 304.942 174.967 304.731 174.976C304.572 174.016 304.405 173.056 305.259 172.298C305.637 172.298 306.025 172.298 306.403 172.298C306.06 173.179 305.717 174.06 305.373 174.95L305.382 174.941Z" fill="#77877C"/>
<path d="M40.1489 150.542C43.3617 156.514 46.416 162.592 50.6674 167.938C51.1163 168.995 50.1921 169.999 50.553 171.056C50.6058 172.809 50.5794 174.562 50.3945 176.306C49.8312 178.596 50.3241 180.974 49.752 183.264C49.4615 184.33 49.1182 185.378 48.4141 186.259C48.0444 186.612 47.6483 186.638 47.2346 186.347C47.4987 181.714 47.6659 177.072 48.0532 172.457C48.3789 168.625 47.305 165.261 45.0517 162.257C42.7543 159.201 41.1876 155.809 40.0873 152.18C40.1049 151.634 40.1225 151.088 40.1313 150.542L40.1489 150.542Z" fill="#434440"/>
<path d="M47.2434 186.347C47.6131 186.312 47.9828 186.286 48.3525 186.25C50.0249 187.219 49.2943 188.84 49.3119 190.179C49.3559 194.107 49.664 198.08 49.2327 201.973C48.6781 206.976 51.2835 211.274 51.6796 216.022C51.5652 216.145 51.4772 216.286 51.4156 216.445C48.4581 215.035 47.6219 212.455 47.1026 209.434C46.4336 205.54 45.8087 201.691 46.4512 197.745C47.3314 194.495 46.1783 191.121 47.0938 187.88L47.2346 186.365L47.2434 186.347Z" fill="#3D3F3E"/>
<path d="M47.0938 187.862C46.8737 191.148 48.0092 194.53 46.4512 197.727C46.5656 194.433 45.703 191.068 47.0938 187.862Z" fill="#434440"/>
<path d="M2.21194 166.969C1.07647 165.252 1.16449 163.525 2.15912 161.79C2.17673 163.516 2.19433 165.243 2.21194 166.969Z" fill="#595140"/>
<path d="M19.8953 224.804C19.9129 224.628 19.9217 224.451 19.9129 224.275C21.3565 224.337 22.888 223.712 24.1819 224.857C22.756 224.839 21.3213 224.821 19.8953 224.804Z" fill="#83672E"/>
<path d="M38.5029 121.581C33.0016 129.059 36.1616 136.731 38.0452 144.35C38.5293 146.314 39.5504 148.146 39.4183 150.251C32.1214 149.952 25.5375 147.257 19.0855 144.147C19.0063 143.39 18.6982 142.8 18.0469 142.324C16.9026 141.478 15.327 140.712 15.8376 138.942C16.2689 137.453 17.8444 138.202 18.8919 137.902C24.6308 136.264 26.5761 127.042 22.0958 122.162C19.0591 118.85 15.0806 116.463 12.572 112.614C11.5421 111.029 10.3099 109.558 9.36803 107.928C6.48095 102.934 7.03548 102.124 12.6248 101.912C20.9252 101.604 28.8206 99.4547 35.6687 94.7776C43.4585 89.4662 45.6414 80.7373 46.0639 72.211C46.592 61.6765 46.9529 51.2035 50.6498 41.2767C56.5208 25.5101 67.1449 13.6103 81.8708 5.61246C85.6293 3.56896 89.8983 1.26122 94.6162 3.4985C94.5106 3.66585 94.3961 3.83321 94.2993 4.00937C92.0548 5.51557 89.2645 6.25545 87.6626 8.69532C84.5202 10.3248 81.862 12.7559 78.6404 14.2621C70.4193 19.362 66.8896 27.1484 65.9478 36.4146C65.8158 37.7182 65.8862 39.0395 65.9038 40.3519C65.9918 45.901 66.2471 46.2181 71.5371 47.3456C72.567 47.5658 73.5264 47.8388 74.0281 48.887C74.4946 50.7719 74.0105 52.3838 72.5934 53.7139C71.2643 54.3393 70.0848 52.7274 68.7557 53.4408C68.7469 59.4392 71.5635 64.592 73.7993 69.8416C75.2604 73.2856 76.88 76.7296 78.9133 79.9094C80.8849 82.9922 81.237 86.0927 79.3974 89.3429C79.2478 89.4927 79.0893 89.6336 78.9309 89.7745C77.9979 90.118 77.3025 91.0957 77.4345 91.7564C78.5172 96.962 73.9665 100.89 74.3714 105.929C74.5563 108.192 73.0423 108.58 71.0794 109.056C60.0416 111.733 49.2063 115.036 39.1719 120.533C38.8462 120.709 38.7054 121.228 38.4765 121.581L38.5029 121.581Z" fill="#1D1D1B"/>
<path d="M138.547 65.9396C139.551 74.14 136.963 81.2658 131.682 87.3699C127.914 91.7299 122.281 91.7652 117.194 92.1175C113.541 92.3641 111.305 92.9454 111.349 97.006C111.375 99.2433 109.958 99.4723 108.136 99.4635C99.2373 99.4371 90.3384 99.4371 81.4483 99.5604C79.3006 99.5868 78.5612 98.7765 78.6844 96.7506C78.8253 94.4252 78.8693 92.0911 78.9485 89.7657L78.9221 89.7569C79.4502 88.1979 80.04 86.6652 80.4625 85.071C84.3442 84.4984 85.1364 88.7352 87.9266 89.8714C89.0005 90.8491 90.0127 91.8973 90.9105 93.0512C92.0636 94.7952 93.3663 96.4863 95.7517 95.9667C97.9434 95.4822 99.0965 93.7734 99.5366 91.6418C100.329 87.8367 98.8412 86.1808 94.8979 86.5595C93.4631 86.7005 92.0372 87.2113 90.7521 86.1191C87.6097 82.6751 84.4674 79.2311 81.9676 75.2675C81.7828 74.8887 81.6507 74.4835 81.5363 74.0784C81.281 72.81 81.2722 71.5328 81.3339 70.2556C81.3691 69.6214 81.4835 69.0049 81.6331 68.3971C81.9148 67.2961 82.2669 66.2127 82.2229 64.7329C80.1632 65.0059 78.0507 65.6225 76.0526 64.592C74.345 63.2267 73.3328 61.5796 73.9401 59.2982C74.1514 58.9019 74.477 58.6553 74.9083 58.5496C75.5333 58.3646 76.6952 59.3071 76.7216 58.5407C76.8976 53.4496 79.6439 56.1361 81.6947 56.9993C81.0346 53.4496 78.2091 52.0491 75.8766 50.1994C75.6741 49.8119 75.5509 49.3979 75.5157 48.9663C76.3255 45.3813 78.8077 46.086 81.2634 46.729C83.1735 48.015 85.0307 49.2657 87.2929 47.2134C87.909 46.6497 88.9212 46.8171 89.6782 47.4248C90.8401 49.3979 90.5584 51.8465 91.7995 53.7931C92.715 55.6164 93.8328 57.2812 95.558 58.4527C103.964 64.0459 110.724 62.5132 118.355 53.2999C119.077 53.0356 119.966 52.9299 120.406 53.4937C123.716 57.7128 128.504 59.1837 133.328 60.6195C135.731 61.148 137.931 60.2848 140.158 59.6065C142.165 58.99 144.709 59.3511 145.158 60.9894C145.739 63.1122 143.098 63.0681 141.523 63.4909C140.818 63.6759 140.149 63.9754 139.463 64.2132C137.949 65.0676 136.426 64.5655 134.815 64.5303C136.188 64.68 137.861 64.2837 138.565 65.9572L138.547 65.9396Z" fill="#F4AA83"/>
<path d="M148.221 41.2943C145.968 36.1592 142.57 32.2219 136.945 30.6717C135.845 30.3722 135.273 29.5443 134.877 28.5842C131.629 20.8858 124.094 18.9921 117.493 16.0061C113.541 14.218 110.24 15.9004 108.004 19.5206C106.649 21.7226 104.985 23.7749 104.316 26.3469C104.967 30.2929 102.908 32.8737 99.9503 34.9965C97.5473 36.6524 95.602 38.8457 93.3135 40.6337C91.1042 43.6549 88.0851 44.9585 84.3882 44.8793C80.7265 44.8 77.3201 45.6368 74.3362 47.8741C72.0565 47.1342 71.7572 45.2492 71.8452 43.285C72.2237 34.5209 75.8149 26.8137 80.2952 19.5734C82.4253 16.1206 84.9427 12.8352 87.5129 9.6466C89.7134 7.3829 91.9404 5.13682 94.6602 3.47207L94.6426 3.48969C103.057 1.08506 110.759 3.96533 118.294 7.04819C123.531 9.19738 128.9 11.4699 133.442 14.7465C142.385 21.1941 148.168 29.9054 149.119 41.2767C148.828 41.7083 148.529 41.6907 148.239 41.2767L148.221 41.2943Z" fill="#1D1D1B"/>
<path d="M148.23 62.5661C147.059 73.1271 145.149 82.6135 140.862 91.7211C138.354 97.0413 137.324 103.11 136.065 108.941C135.475 111.654 134.939 112.808 131.84 111.98C128.9 111.196 125.802 111.451 122.756 112.288C119.949 113.063 118.188 112.015 118.338 108.756C118.417 107.003 118.285 105.242 118.373 103.489C118.47 101.454 118.056 99.992 115.556 100.177C113.638 100.318 112.881 99.2785 113.136 97.4729C113.4 95.6231 113.99 93.9936 116.322 94.0641C119.403 94.161 122.272 93.6061 125.265 92.5843C134.498 89.4486 140.686 82.1995 140.422 72.1406C140.299 67.4546 141.302 65.05 145.748 64.0459C146.416 63.8961 146.989 63.3236 148.23 62.5661Z" fill="#1E1E1C"/>
<path d="M137.65 32.6623C147.983 39.0218 149.532 48.8958 141.311 55.8543C139.234 57.6159 136.761 58.4262 134.164 58.9635C129.182 61.2449 125.705 58.3382 122.316 55.405C121.251 54.489 120.547 53.159 119.597 52.0932C118.637 50.2082 118.171 48.2 118.118 46.086C118.091 45.4166 118.1 44.7472 118.135 44.0777C118.171 43.1969 118.294 42.3337 118.549 41.4969C119.271 39.7177 120.107 38.0001 121.322 36.4851C122.686 35.0934 123.936 33.5608 125.767 32.7152C129.719 30.7862 133.68 31.7903 137.65 32.6623Z" fill="#F4AA83"/>
<path d="M106.798 24.6029C111.375 16.561 114.711 15.5481 122.651 20.0931C125.52 21.7314 128.363 23.5547 130.837 25.7215C132.087 26.8137 133.46 28.593 132.412 30.7598C130.476 32.0105 128.064 31.896 126.084 32.9971C123.83 33.7017 122.756 35.7981 121.11 37.2162C120.239 38.2908 120.028 40.1052 118.056 39.9555C114.315 36.5291 110.539 33.1732 104.967 33.4287C102.873 32.8297 102.547 31.7199 103.788 29.923C105.267 27.7826 107.379 27.166 110.002 27.0515C108.788 26.2412 106.763 26.664 106.781 24.6029H106.798Z" fill="#F3AA83"/>
<path d="M148.221 41.2943C148.511 41.2943 148.811 41.2943 149.101 41.2943C151.425 46.9228 149.048 52.5336 148.987 58.1532C148.96 60.2319 147.438 59.3071 146.434 58.8402C144.982 58.162 143.098 57.4838 144.735 55.4138C148.062 51.2123 148.547 46.3679 148.221 41.3032L148.221 41.2943Z" fill="#20201E"/>
<path d="M106.798 24.6029C108.541 26.6816 111.56 25.1049 113.549 27.0339C112.643 28.8924 110.891 28.2583 109.518 28.1878C107.661 28.0909 106.041 28.5754 104.739 29.7468C103.718 30.6629 103.005 31.9225 105.152 32.5566C105.214 34.4504 103.542 34.3535 102.441 34.9349C101.323 35.1991 100.223 35.2784 99.2197 34.5473C102.168 32.5919 103.198 29.4562 104.299 26.3557C105.636 26.4966 105.944 25.1666 106.781 24.6029H106.798Z" fill="#504740"/>
<path d="M120.283 51.5647C123.716 56.2771 128.047 59.2983 134.173 58.9635C133.882 59.5097 133.592 60.0469 133.31 60.5931C128.24 61.4034 124.438 59.1133 121.146 55.59C120.398 54.7973 119.94 53.5113 118.452 53.9076C117.863 52.1812 119.042 51.8465 120.292 51.5647H120.283Z" fill="#4C453F"/>
<path d="M75.3748 109.866C74.3978 114.939 78.614 114.719 81.4835 115.882C81.9676 116.225 81.9588 116.551 81.4659 116.877C77.9363 116.551 74.0369 116.754 74.0369 111.478C74.0369 111.205 73.1391 110.932 72.655 110.667C73.3592 109.699 74.389 109.884 75.3748 109.875V109.866Z" fill="#2B476F"/>
<path d="M125.45 32.7592C127.615 31.5437 129.877 30.6365 132.421 30.751C133.724 32.6007 136.453 30.5396 137.65 32.6623C133.513 31.8696 129.446 32.6447 125.379 33.2701C125.406 33.1028 125.424 32.9266 125.45 32.7592Z" fill="#3F3D39"/>
<path d="M138.547 65.9396C137.033 65.5432 135.528 65.1469 134.014 64.7505C134.006 64.5655 133.988 64.3806 133.979 64.1956C135.801 64.1956 137.623 64.1956 139.445 64.1956C139.146 64.7769 138.847 65.3583 138.547 65.9396Z" fill="#534941"/>
<path d="M160.623 158.055C160.5 156.858 159.171 156.038 159.576 154.673C160.016 153.07 161.222 152.295 162.7 151.81C164.1 150.648 165.631 149.97 167.533 150.207C174.513 151.071 181.528 150.956 188.552 150.877C190.233 150.859 192.531 150.216 193.076 152.973C192.064 160.337 188.147 166.855 186.941 174.166C186.677 175.742 185.498 175.733 184.292 175.681C181.255 175.302 178.57 173.602 175.499 173.382C174.742 173.311 173.976 173.241 173.219 173.179C172.004 172.069 170.024 172.483 168.994 171.03C168.122 168.291 165.684 166.538 164.522 163.983C162.85 162.257 161.45 160.354 160.623 158.073V158.055Z" fill="#FEFEFE"/>
<path d="M169.328 221.642C148.819 221.642 128.311 221.642 107.811 221.642C105.337 221.598 102.855 221.36 100.408 221.554C97.4857 221.791 97.0984 220.382 97.1336 217.916C97.1776 215.009 98.9908 215.634 100.698 215.626C114.192 215.538 127.686 215.414 141.179 215.3C144.515 213.943 148.01 214.692 151.434 214.489C153.511 214.489 155.571 214.005 157.657 214.146C159.18 214.146 160.702 214.155 162.234 214.146C164.003 214.163 165.772 214.146 167.541 214.163C168.835 214.216 170.138 214.225 171.15 215.22C172.057 215.617 174.002 214.921 173.439 216.894C172.832 219.008 172.647 221.756 169.337 221.633L169.328 221.642Z" fill="#8ECBA1"/>
<path d="M153.441 212.023C153.168 211.636 152.904 211.248 152.631 210.852C152.631 207.478 154.532 205.223 157.032 203.312C158.871 202.449 160.649 201.418 162.753 201.312C164.39 201.33 166.08 201.101 167.533 202.149C167.929 202.334 168.307 202.563 168.721 202.695C171.423 203.541 175.516 202.246 176.625 204.968C177.426 206.941 175.349 210.085 174.557 212.71C171.837 215.414 168.21 213.882 165.094 214.727C164.179 214.983 163.237 214.877 162.313 214.903C160.958 214.903 159.602 214.903 158.238 214.903C156.944 214.859 155.588 215.132 154.462 214.208C153.731 213.661 154.25 212.525 153.432 212.014L153.441 212.023Z" fill="#F3AA83"/>
<path d="M164.778 214.34C167.867 212.728 171.564 214.806 174.574 212.71C174.671 215.238 171.951 213.926 171.15 215.229C169.936 215.229 168.721 215.229 167.506 215.238C166.732 214.525 165.438 215.405 164.778 214.34Z" fill="#766555"/>
<path d="M175.499 173.373C178.667 173.232 181.502 174.377 184.292 175.672C184.353 175.918 184.345 176.165 184.257 176.403C181.22 175.725 178.218 174.958 175.499 173.373Z" fill="#555B61"/>
<path d="M167.541 202.158C165.79 202.158 164.038 202.176 162.287 202.184C161.767 201.823 161.292 201.444 161.477 200.696C163.211 200.608 164.936 200.52 166.67 200.432C166.961 201.004 167.251 201.577 167.541 202.158Z" fill="#3E4149"/>
<path d="M165.191 195.869C166.318 196.063 167.119 196.759 167.814 197.604C167.436 197.948 167.066 198.3 166.688 198.652C165.781 198.115 164.874 197.578 163.968 197.049C163.809 196.063 164.153 195.605 165.191 195.878V195.869Z" fill="#313E51"/>
<path d="M51.6796 216.013C45.8439 206.835 48.3349 196.785 48.6341 186.973C48.6341 186.735 48.4493 186.497 48.3525 186.25C48.1676 185.246 47.93 184.233 48.9158 183.476C50.1393 181.027 48.775 178.305 49.6992 175.822C49.7784 174.078 49.8576 172.342 49.9368 170.598C52.3398 169.365 53.4313 171.514 54.4435 172.739C57.3394 176.236 60.8338 178.913 64.6363 181.274C65.807 182.031 66.6696 183.15 67.7875 183.987C68.8261 184.559 69.8119 185.22 70.6393 186.074C76.2991 190.223 82.3109 193.861 87.8826 198.133C91.6147 200.291 94.9595 203.021 98.7004 205.17C102.08 206.483 105.416 207.883 108.92 208.887C110.539 209.345 112.097 210.358 112.995 212.014C113.259 212.71 113.831 212.833 114.483 212.816C115.345 213.785 114.447 213.882 113.849 213.987C112.652 214.199 111.375 213.794 110.213 214.393C105.584 212.613 100.804 214.225 96.1038 213.943C94.2377 213.829 94.9683 216.533 94.6426 217.995C91.1306 218.77 87.6186 218.62 84.0977 218.074C81.4571 218.057 78.8165 218.039 76.1758 218.021C75.0404 218.004 73.8961 217.995 72.7606 217.977C68.7469 217.061 64.6715 217.819 60.6314 217.546C59.0646 217.44 57.4274 217.995 55.9398 217.097C54.5227 216.744 53.1056 216.383 51.6884 216.031L51.6796 216.013Z" fill="#0B6DFE"/>
<path d="M153.441 212.023C154.321 212.138 154.321 212.86 154.462 213.494C154.726 215.855 152.402 214.296 151.759 215.291C148.23 215.291 144.7 215.291 141.17 215.291C136.303 213.529 131.259 214.983 126.321 214.472C124.534 214.287 122.554 215.168 120.987 213.609C130.81 213.635 140.633 213.67 150.457 213.653C151.654 213.653 153.247 214.031 153.441 212.023Z" fill="#353D41"/>
<path d="M112.995 212.005C108.409 209.055 102.741 208.614 98.181 205.593C98.1986 204.827 98.2867 204.157 99.3341 204.651C104.545 206.474 110.328 206.932 114.615 210.993C113.884 211.028 113.303 211.301 112.995 212.005Z" fill="#333C48"/>
<path d="M84.0889 218.066C87.6009 217.405 91.1218 218.065 94.6338 217.986C94.6602 218.259 94.669 218.541 94.6514 218.823C91.1306 218.797 87.6097 218.761 84.0889 218.735C84.0889 218.515 84.0889 218.295 84.0889 218.074V218.066Z" fill="#3F454A"/>
<path d="M110.213 214.384C111.428 213.283 113.488 214.489 114.491 212.807C115.68 213.371 115.627 214.137 114.438 214.348C113.074 214.595 111.631 214.392 110.213 214.384Z" fill="#333C48"/>
<path d="M193.948 221.598C195.391 221.598 196.835 221.615 198.278 221.624C196.826 222.769 195.382 222.787 193.948 221.598Z" fill="#333433"/>
<path d="M242.298 221.606C244.023 221.606 245.748 221.589 247.473 221.589C245.748 222.901 244.023 222.795 242.298 221.606Z" fill="#373B37"/>
<path d="M55.9311 217.079C61.5468 217.229 67.2153 216.357 72.7518 217.96C67.1537 217.528 61.45 219.078 55.9311 217.079Z" fill="#404F62"/>
<path d="M265.104 144.121C266.539 145.442 267.964 146.772 269.399 148.093C269.478 149.547 270.429 150.78 270.429 152.251C270.808 153.933 271.116 155.616 270.429 157.298C269.496 158.61 269.628 160.143 269.531 161.632C269.32 166.282 267.225 170.14 264.496 173.743C262.754 175.082 261.609 177.019 259.743 178.27C252.376 183.194 244.348 179.961 242.456 171.197C241.99 169.048 241.884 166.846 242.35 164.662C243.257 160.319 244.428 156.074 246.787 152.251C248.028 149.767 250.07 147.9 251.751 145.75C252.983 144.922 254.312 144.271 255.562 143.451C257.076 143.161 258.493 142.474 260.06 142.412C261.997 142.218 263.687 142.791 265.113 144.112L265.104 144.121Z" fill="#FEFEFE"/>
<path d="M243.239 164.767C243.187 168.52 243.134 172.166 245.704 175.443C249.832 180.692 254.207 181.476 259.435 177.337C261.116 176.007 262.578 174.386 264.136 172.897C264.831 173.584 264.672 174.333 264.329 175.108C258.361 182.551 250.351 184.445 245.413 179.081C240.634 173.884 239.569 167.595 242.298 160.883C244.63 161.693 243.231 163.402 243.239 164.776V164.767Z" fill="#272A28"/>
<path d="M264.329 175.108C264.268 174.368 264.197 173.637 264.136 172.897C266.662 169.497 267.656 165.357 269.522 161.64C271.925 163.693 269.883 165.815 269.214 167.533C268.132 170.308 267.128 173.355 264.32 175.108H264.329Z" fill="#404742"/>
<path d="M243.239 164.767C242.87 163.481 243.565 161.94 242.298 160.874C242.887 157.272 244.04 153.907 246.549 151.132C247.464 151.009 248.081 151.159 247.614 152.295C245.722 156.294 244.076 160.39 243.239 164.758V164.767Z" fill="#313532"/>
<path d="M247.614 152.304C247.262 151.916 246.901 151.529 246.549 151.141C247.676 149.124 248.767 147.072 250.888 145.874C251.372 145.477 251.795 145.539 252.156 146.05C251.654 148.869 248.961 150.102 247.623 152.313L247.614 152.304Z" fill="#323834"/>
<path d="M265.104 144.121C263.326 143.795 261.557 143.478 259.779 143.152C259.259 142.624 258.273 143.082 257.886 142.271C260.685 141.338 263.484 140.43 265.104 144.121Z" fill="#383E3A"/>
<path d="M252.156 146.05C251.733 145.988 251.311 145.935 250.888 145.874C252.279 144.077 254.163 143.073 256.293 142.447C256.83 143.425 255.835 143.698 255.457 144.262C254.629 145.363 253.423 145.768 252.156 146.05Z" fill="#1F201F"/>
<path d="M311.394 156.461C311.165 155.836 310.936 155.21 310.707 154.576C311.095 153.035 311.332 151.432 312.591 150.269C312.873 152.462 311.614 154.365 311.403 156.461H311.394Z" fill="#404841"/>
<path d="M269.681 152.075C269.989 150.718 268.123 149.52 269.399 148.102C270.746 149.098 271.019 150.542 271.028 152.084C270.579 152.577 270.13 152.533 269.69 152.084L269.681 152.075Z" fill="#474D49"/>
<path d="M269.681 152.075C270.13 152.075 270.579 152.075 271.019 152.075C271.204 153.854 272.084 155.721 270.42 157.298C270.174 155.554 269.927 153.81 269.672 152.075H269.681Z" fill="#3B443E"/>
<path d="M255.457 144.253C255.738 143.645 256.011 143.046 256.293 142.439C256.821 142.386 257.358 142.324 257.886 142.271C258.52 142.562 259.145 142.861 259.779 143.152C258.335 143.522 256.9 143.883 255.457 144.253Z" fill="#1F1F1F"/>
<path d="M313.964 145.874C314.255 147.609 313.744 149.098 312.538 150.357C312.353 148.736 312.318 147.151 313.744 145.979L313.964 145.883V145.874Z" fill="#535650"/>
<path d="M81.4659 116.877C81.4659 116.543 81.4835 116.217 81.4835 115.882C92.3453 116.173 103.207 116.393 115.266 115.741C111.648 118.41 108.524 118.005 105.672 118.304C97.5385 119.176 89.4758 118.348 81.4659 116.877Z" fill="#333C45"/>
<path d="M143.01 179.327C143.785 174.474 146.733 170.316 146.689 165.076C146.637 158.681 144.515 152.964 142.227 146.895C149.884 150.903 150.597 170.449 143.802 179.31C143.547 179.627 143.283 179.635 143.01 179.327Z" fill="#323E4D"/>
<path d="M106.27 164.265C112.546 167.718 118.127 172.122 123.54 176.764C123.584 178.314 122.765 178.076 121.823 177.601L116.63 175.681C115.935 175.284 115.099 174.967 115.574 173.884C112.775 170.202 108.488 168.299 105.179 165.216C105.091 164.389 105.32 163.922 106.261 164.256L106.27 164.265Z" fill="#333E4C"/>
<path d="M106.27 164.265C105.909 164.582 105.548 164.899 105.188 165.225C99.519 161.279 94.0265 157.122 89.4406 151.89C89.3702 151.458 89.5638 151.273 89.9863 151.308C96.1126 154.752 100.971 159.782 106.261 164.265L106.27 164.265Z" fill="#323F4E"/>
<path d="M64.6363 182.031C60.3057 180.463 57.1721 177.31 54.197 173.989C52.9559 172.598 51.9701 170.968 49.9368 170.598C47.974 169.11 50.4738 168.837 50.6586 167.938C55.6406 172.325 59.936 177.495 65.6309 181.071C65.7806 181.899 65.5429 182.313 64.6275 182.022L64.6363 182.031Z" fill="#333E4B"/>
<path d="M87.5833 198.705C81.4571 194.988 75.6917 190.751 69.9704 186.453C69.8383 185.449 70.1904 184.991 71.2467 185.299C77.1001 189.395 82.9534 193.482 88.8068 197.578C88.6572 198.238 88.2347 198.591 87.5833 198.705Z" fill="#2F4058"/>
<path d="M165.235 170.678C163.475 174.465 159.655 175.593 156.777 177.9C156.204 178.358 155.491 178.746 154.866 178.059C154.189 177.319 154.831 176.729 155.333 176.244C158.15 173.54 161.565 171.911 165.235 170.678Z" fill="#323E4E"/>
<path d="M87.5833 198.705C87.9882 198.326 88.4019 197.956 88.8068 197.578C92.3189 199.938 95.8221 202.299 99.3341 204.651C98.9468 204.968 98.5683 205.276 98.181 205.593C94.1057 204.14 90.9809 201.207 87.5833 198.705Z" fill="#313E51"/>
<path d="M89.9863 151.308C89.7046 151.405 89.5198 151.599 89.4406 151.899C84.8195 148.992 81.3339 144.887 77.8306 140.8C77.5138 139.902 77.9715 139.708 78.7461 139.805C82.4869 143.654 86.7295 147.01 89.9951 151.317L89.9863 151.308Z" fill="#333F4E"/>
<path d="M140.915 143.108C138.451 141.02 135.924 138.933 133.46 136.757C132.676 136.061 132.078 135.013 133.143 134.159C134.173 133.331 134.657 134.599 135.079 135.145C137.104 137.814 140.176 139.779 140.915 143.108Z" fill="#304055"/>
<path d="M157.173 204.025C155.139 205.954 153.889 208.412 152.64 210.86C151.126 207.055 153.529 205.029 156.16 203.109C156.697 203.188 157.041 203.488 157.173 204.025Z" fill="#3A404C"/>
<path d="M165.191 195.869C164.786 196.256 164.373 196.653 163.968 197.04C161.855 195.878 159.743 194.715 157.622 193.552C157.771 192.927 158.176 192.575 158.792 192.451C161.292 192.909 163.29 194.283 165.191 195.869Z" fill="#2F415A"/>
<path d="M158.792 192.451C158.405 192.821 158.009 193.182 157.622 193.552C155.377 192.795 153.449 191.571 151.847 189.818C151.927 189.501 152.129 189.36 152.464 189.395C154.858 189.827 157.005 190.778 158.792 192.46V192.451Z" fill="#313E51"/>
<path d="M164.936 163.49C166.424 165.842 168.774 167.656 169.381 170.563C169.073 170.951 168.73 170.968 168.351 170.669C167.119 168.44 164.883 166.916 164.029 164.424C163.757 163.543 164.117 163.288 164.945 163.49H164.936Z" fill="#46515C"/>
<path d="M164.936 163.49C164.628 163.798 164.329 164.115 164.021 164.424C161.891 163.208 160.975 161.006 159.725 159.077C160.024 158.734 160.324 158.399 160.623 158.055C162.058 159.87 163.493 161.676 164.927 163.49L164.936 163.49Z" fill="#444D56"/>
<path d="M142.068 183.722C144.154 184.868 146.249 186.013 148.335 187.158C148.247 187.721 147.719 187.809 147.358 188.074C145.061 187.281 142.825 186.391 140.986 184.727C141.118 184.145 141.496 183.837 142.059 183.722H142.068Z" fill="#2C4569"/>
<path d="M142.068 183.722C141.707 184.057 141.355 184.392 140.994 184.727C140.51 184.022 137.016 184.55 140.079 182.357C141.206 181.556 142.033 180.349 143.001 179.327C143.265 179.31 143.529 179.301 143.793 179.31C143.221 180.781 142.64 182.26 142.068 183.731V183.722Z" fill="#304057"/>
<path d="M157.173 204.025C156.838 203.717 156.495 203.418 156.16 203.109C157.569 201.489 159.523 201.083 161.486 200.696C161.758 201.189 162.023 201.691 162.295 202.184C160.588 202.801 158.88 203.418 157.173 204.025Z" fill="#393D46"/>
<path d="M126.277 178.305C128.531 178.367 130.705 178.675 132.36 180.446C132.386 180.622 132.412 180.789 132.439 180.965C130.291 180.728 128.196 180.287 126.295 179.186C126.04 178.992 125.952 178.799 126.031 178.605C126.11 178.411 126.198 178.305 126.277 178.305Z" fill="#294876"/>
<path d="M147.367 188.074C147.693 187.765 148.018 187.457 148.344 187.158C149.7 187.933 151.698 187.528 152.472 189.386C152.323 189.606 152.12 189.756 151.856 189.818C150.096 189.923 148.89 188.602 147.376 188.074H147.367Z" fill="#323D4D"/>
<path d="M78.7373 139.796C78.4292 140.131 78.1299 140.466 77.8218 140.791C77.3817 140.43 76.8448 140.148 76.5191 139.708C75.991 139.003 74.6355 138.184 75.947 137.312C77.0649 136.572 77.6634 137.77 78.1387 138.66C78.3412 139.039 78.5348 139.417 78.7285 139.796H78.7373Z" fill="#2C4669"/>
<path d="M115.574 173.893C115.926 174.491 116.278 175.09 116.63 175.689C114.298 176.209 112.678 174.13 110.53 173.989C110.266 173.84 110.169 173.672 110.24 173.496C110.31 173.311 110.39 173.223 110.469 173.223C112.168 173.443 113.875 173.672 115.574 173.893Z" fill="#254D87"/>
<path d="M168.342 170.669C168.686 170.633 169.029 170.598 169.372 170.563C170.164 172.14 172.673 171.206 173.21 173.17C171.15 173.197 169.099 173.188 168.342 170.669Z" fill="#4A658C"/>
<path d="M132.439 180.957C132.439 180.781 132.404 180.604 132.36 180.437C133.979 180.217 135.317 180.772 136.373 182.251C134.974 182.163 133.486 182.48 132.439 180.957Z" fill="#2A4771"/>
<path d="M64.6363 182.031C64.9708 181.714 65.3053 181.397 65.6397 181.08C67.0657 181.388 67.673 182.604 68.4828 183.608C68.3684 184.189 67.8139 184.269 67.4178 184.524C66.0886 184.154 65.2965 183.176 64.6363 182.04V182.031Z" fill="#2E425E"/>
<path d="M126.277 178.305C126.277 178.596 126.277 178.887 126.295 179.177C124.807 178.658 123.311 178.129 121.823 177.61C122.396 177.328 122.968 177.055 123.54 176.773C124.623 176.984 125.582 177.416 126.286 178.305H126.277Z" fill="#244E8B"/>
<path d="M67.4178 184.515C67.7698 184.207 68.1219 183.907 68.4828 183.599C69.407 184.163 70.3313 184.735 71.2555 185.299C70.833 185.687 70.4105 186.065 69.9792 186.453C69.1254 185.81 68.2716 185.158 67.4178 184.515Z" fill="#2F415C"/>
<path d="M110.469 173.214C110.469 173.47 110.478 173.725 110.53 173.981C109.377 173.998 108.356 173.708 107.608 172.686C108.752 171.981 109.685 172.184 110.469 173.214Z" fill="#1363DA"/>
<path d="M162.454 151.485C162.304 151.916 162.155 152.348 162.005 152.779C161.195 153.414 160.385 154.039 159.576 154.673C155.051 153.334 154.708 148.666 152.472 145.328C155.483 147.961 160.421 147.23 162.454 151.485Z" fill="#2B2B28"/>
<path d="M49.6992 175.822C49.4527 178.376 50.4473 181.054 48.9158 183.476C49.2767 180.939 48.1236 178.235 49.6992 175.822Z" fill="#333E4B"/>
<path d="M78.8693 13.1787C82.1701 11.831 84.1153 8.23729 87.909 7.69999C88.2963 8.38703 88.1819 9.05645 87.8386 9.71706C84.441 14.2533 80.7705 18.5517 78.0507 23.6252C74.7587 29.7733 72.435 36.1151 71.8012 43.056C71.6428 44.8 71.3259 46.3326 69.1694 46.3767C67.1097 46.4207 66.4319 44.9321 66.1063 43.2674C64.4075 34.5473 66.8984 26.7785 71.9244 19.776C73.7729 17.204 75.9294 14.7289 78.8605 13.1875L78.8693 13.1787Z" fill="#F6E6D7"/>
<path d="M78.8693 13.1787C73.7025 18.2169 69.3542 23.7573 67.4706 30.9359C66.4143 34.9701 66.1239 38.969 67.0745 43.056C67.3914 44.4389 67.0305 46.1653 69.3278 45.9451C71.3347 45.7513 70.9386 44.1218 70.9914 42.9415C71.6428 29.4562 78.5524 19.0449 87.2665 9.49686C87.7154 9.17096 88.1115 9.215 88.4724 9.63779C84.6699 16.147 79.5118 21.7666 76.5367 28.8748C74.5299 33.6665 73.6056 38.6079 72.7606 43.6197C72.5054 45.1347 73.2183 46.4647 74.433 47.4689C74.9788 48.473 75.0228 49.2217 73.5616 49.2217C72.8487 48.2528 71.7572 48.1823 70.7714 48.3585C66.0975 49.2217 65.094 46.3679 64.7683 42.6684C63.8353 32.0017 67.2945 22.9117 74.6267 15.231C75.7533 14.0507 77.1705 13.2668 78.8693 13.1875V13.1787Z" fill="#2E2D2A"/>
<path d="M68.5004 51.9434C70.1112 51.4678 71.3083 51.8201 71.7924 53.5994C73.2183 55.132 73.0511 57.1755 73.5264 59.0076C73.7289 61.0863 74.5475 62.936 75.7005 64.6624C76.1935 65.3054 76.5191 66.0365 76.8888 66.75C78.3764 69.9826 79.9959 73.1359 82.1172 75.9985C84.4498 79.8653 88.3139 82.5078 90.488 86.5067C90.5497 86.7093 90.5937 86.9119 90.6553 87.1233C90.6553 87.5637 90.5232 87.96 90.2768 88.3212C87.7682 90.0123 86.3687 87.8279 84.7227 86.674C83.2967 85.6787 82.4341 84.1285 81.3515 82.7984C75.058 74.968 71.8276 65.6313 68.5708 56.3475C68.1307 55.0968 67.0657 53.4232 68.518 51.961L68.5004 51.9434Z" fill="#EEDFD0"/>
<path d="M68.5004 51.9434C70.7626 63.2443 75.7973 73.312 82.2933 82.7104C83.64 84.8684 81.2811 84.472 80.5681 85.2207C80.4889 86.9031 80.392 88.5766 78.9221 89.7481C81.3779 82.9658 76.4575 78.2622 74.0105 72.9597C71.2643 67.0054 69.0022 60.9189 67.3121 54.5947C66.9865 53.388 66.0622 51.9082 68.5004 51.9434Z" fill="#353531"/>
<path d="M72.8134 59.721C72.1357 57.7392 71.2379 55.7926 71.7836 53.5994C72.9631 52.375 73.1479 50.7543 73.5528 49.2129C74.2394 48.8253 74.4066 48.1823 74.4242 47.4601C76.1758 44.8176 78.7725 43.9016 81.774 43.9368C86.1046 43.9808 90.268 43.699 92.9614 39.5768C93.3311 42.2721 93.2167 44.7648 90.3032 46.1212C87.3897 46.8435 84.1681 45.5223 81.4307 47.4601C79.4502 47.3191 77.0825 45.8394 76.079 49.0279C75.6213 52.2605 75.0668 55.4755 74.0985 58.6024C73.8873 59.2278 73.6936 59.8884 72.7958 59.7122L72.8134 59.721Z" fill="#3E3B37"/>
<path d="M88.4812 9.63779C88.0763 9.59375 87.6714 9.5409 87.2753 9.49686C87.4865 8.8979 87.6978 8.29895 87.9178 7.69999C88.9125 4.29123 92.09 4.37931 94.6514 3.48088C92.9438 5.8767 90.8841 7.929 88.49 9.63779H88.4812Z" fill="#373836"/>
<path d="M119.236 80.8695C118.144 82.4461 116.956 83.8907 115.002 84.4544C114.201 84.8596 113.206 85.3176 112.528 84.7274C109.069 81.715 104.457 81.6534 100.531 79.8301C96.94 78.1653 94.6426 71.568 96.7551 68.309C98.0314 66.336 99.5454 67.4194 100.866 68.3354C103.612 70.238 106.314 72.1846 109.527 73.3032C112.74 74.4307 116.014 74.7918 119.385 74.7214C120.53 74.6949 121.973 74.4571 122.572 75.611C123.241 76.9058 121.841 77.6369 121.119 78.4736C120.45 79.2399 119.737 79.971 119.227 80.8606L119.236 80.8695Z" fill="#1E1D1B"/>
<path d="M119.236 80.8695C119.077 78.6674 121.595 78.0244 122.184 75.5581C119.042 75.5581 116.005 75.9105 113.092 75.4789C108.233 74.7654 104.114 72.1582 100.214 69.2691C99.5454 68.7758 99.0349 67.7717 98.0402 68.1416C96.984 68.538 97.3537 69.6126 97.2832 70.4406C96.9047 74.827 97.2216 78.5177 102.908 79.4425C107.23 80.1472 111.182 82.2876 115.019 84.4544C106.86 89.9595 97.0984 85.7404 95.514 75.9016C94.8363 71.7266 95.0563 67.5427 96.6055 63.5614C97.9434 63.535 98.63 64.3189 99.2989 65.0764C105.152 71.6913 112.881 73.6644 121.287 73.9727C122.264 74.0079 123.531 73.3913 124.147 74.3602C124.975 75.655 123.522 76.4213 122.897 77.2669C121.876 78.641 121.066 80.2969 119.244 80.8783L119.236 80.8695Z" fill="#302F2B"/>
<path d="M120.283 51.5647C119.667 52.3486 119.06 53.1237 118.443 53.9076C113.734 63.5966 103.55 65.7723 94.5634 58.9988C94.2729 58.0915 94.8274 57.7656 95.558 57.563C98.2603 57.9682 100.593 59.5713 103.498 59.5273C110.539 59.4304 114.94 55.9335 116.322 49.0632C116.63 47.5217 115.908 44.7472 119.244 45.6632C119.588 47.6274 119.94 49.5916 120.283 51.5647Z" fill="#47423D"/>
<path d="M90.2504 87.916C90.2592 87.6077 90.2768 87.2994 90.2856 86.9999C91.5267 86.6564 92.803 87.0088 94.0969 86.5331C96.0773 85.802 98.2955 85.7316 99.3869 87.9865C100.575 90.4439 99.871 92.8662 98.0314 94.7599C96.2622 96.5832 94.1937 96.5216 92.1868 94.9801C91.5003 94.4517 90.9633 93.747 90.1447 93.3859C89.2821 92.4522 88.4195 91.5185 87.5569 90.5849C87.152 88.374 90.1535 89.616 90.2504 87.916Z" fill="#1D1D1B"/>
<path d="M90.1535 93.3859C91.0954 92.0999 91.6235 93.3066 92.1516 93.7822C93.7096 95.1827 95.3732 96.0635 97.1512 94.3724C98.85 92.7605 99.6862 90.6113 98.6476 88.4004C97.6969 86.3834 95.6725 86.7709 94.0177 87.3963C92.6093 87.9336 91.4739 87.7134 90.2944 86.9911L90.2152 87.0352C89.7222 86.1632 89.5902 85.4321 90.9281 85.3264C91.9052 86.6652 92.9702 85.758 94.0353 85.4849C96.94 84.7362 99.651 84.7362 100.839 88.1538C101.931 91.3071 99.8711 95.6408 96.7991 96.7946C93.3927 98.0718 91.333 96.5304 90.1448 93.3771L90.1535 93.3859Z" fill="#312F2B"/>
<path d="M76.3431 50.358C81.4659 50.9833 82.3813 54.903 83.552 59.492C81.1666 58.5496 80.04 56.3563 77.9275 56.3827C76.5543 58.2853 79.6527 59.1309 78.4732 61.0863C77.0473 61.0247 76.1846 59.906 75.2868 58.8755C74.0721 57.2988 73.8873 55.2641 75.4189 54.3216C77.4521 53.0709 76.0262 51.6439 76.3431 50.358Z" fill="#554A42"/>
<path d="M81.3779 76.5094C79.0805 73.5675 77.0561 70.4846 76.1847 66.7852C75.3837 63.4029 78.0155 65.3759 79.0453 65.0412C82.8918 63.7728 83.2791 65.8163 82.4869 68.8463C82.4077 69.3308 82.3285 69.824 82.2493 70.3085C81.73 71.7794 81.5627 73.2504 82.3549 74.6949C82.927 75.7695 82.9711 76.5711 81.3867 76.5094H81.3779Z" fill="#2F2C28"/>
<path d="M81.4483 47.4689C81.0346 46.4736 80.8762 44.8176 82.0908 45.1523C84.8459 45.9274 87.6802 44.3948 90.2944 45.7865C90.7785 46.3855 90.7433 47.002 90.3296 47.6186C89.9159 47.8829 89.5022 47.8829 89.0885 47.6186C88.5252 47.7155 87.6362 47.6186 87.4425 47.9445C85.0835 51.8025 83.2703 49.8647 81.4483 47.4689Z" fill="#302C28"/>
<path d="M81.3779 76.5094C82.0996 76.113 82.2493 75.4172 82.3461 74.6861C85.2068 78.2358 88.0675 81.7855 90.9281 85.3352C90.6905 85.9077 90.4528 86.4715 90.2152 87.044C87.2665 83.5295 84.3266 80.0239 81.3779 76.5094Z" fill="#4A4540"/>
<path d="M90.2504 87.916C90.5408 90.0035 88.2083 89.4486 87.5569 90.5849C84.573 89.6512 83.64 86.0398 80.5681 85.2295C80.9906 84.287 82.4693 84.0756 82.2933 82.7192C84.0009 84.7979 85.9638 86.5771 88.0851 88.2331C89.1061 89.0258 89.5902 88.3828 90.2592 87.9248L90.2504 87.916Z" fill="#4B453F"/>
<path d="M76.3431 50.358C77.1001 51.7585 80.4537 53.0709 76.2198 54.5683C74.4594 55.1936 75.4893 57.3869 75.2868 58.8755C74.9083 58.9107 74.5299 58.9371 74.1602 58.9723C73.9665 58.9283 73.7729 58.8843 73.5792 58.8402C73.6144 55.361 74.0369 51.9787 76.1142 49.0279C76.1934 49.4683 76.2727 49.9175 76.3519 50.358H76.3431Z" fill="#E7A27E"/>
<path d="M82.4781 68.8463C81.906 64.9971 80.0488 64.3894 76.1847 66.7852C75.859 66.2655 75.5245 65.7546 75.1988 65.235C74.8643 64.1163 75.4101 63.8697 76.3783 64.0459C77.5314 64.1163 78.702 64.3277 79.8287 64.2044C80.9466 64.0811 82.0204 63.6054 83.684 63.121C83.2439 65.2262 82.8566 67.0318 82.4781 68.8463Z" fill="#44403C"/>
<path d="M89.0885 47.6186C89.467 47.557 89.8455 47.5041 90.224 47.4425C92.3541 48.4554 92.5301 50.3932 92.5741 52.3926C92.3629 53.2735 91.958 54.0133 91.1306 54.4714C89.3526 52.516 89.3438 50.0321 89.0973 47.6186H89.0885Z" fill="#524841"/>
<path d="M91.1218 54.4714C91.1394 53.7667 91.2626 53.1237 91.9316 52.7185C93.648 54.119 95.5404 55.3874 95.7077 57.9154C95.3292 58.2765 94.9419 58.6376 94.5634 58.99C92.979 57.8097 91.7555 56.3651 91.1218 54.4626V54.4714Z" fill="#4E463F"/>
<path d="M76.3783 64.0459C75.9822 64.4422 75.5949 64.8386 75.1988 65.235C73.7553 63.6759 73.3064 61.6853 72.8223 59.7122C73.0687 59.4216 73.324 59.1309 73.5704 58.8402C73.7553 58.9195 73.9489 58.9635 74.1514 58.9723C74.5122 60.8309 75.234 62.5308 76.3783 64.037V64.0459Z" fill="#4A4742"/>
<path d="M82.3461 74.6949C80.9466 73.268 81.149 71.797 82.2405 70.3085C82.2757 71.7706 82.3109 73.2328 82.3461 74.6949Z" fill="#4A4540"/>
<path d="M95.7077 57.9242C94.6602 56.0392 92.3893 55.0439 91.9316 52.7274C91.4915 50.9217 91.3946 49.0103 90.2152 47.4425C90.2416 46.8963 90.2592 46.3414 90.2856 45.7953C92.0372 44.0953 91.8347 41.5498 92.9702 39.5856C95.0651 37.9296 96.6231 35.5867 99.2197 34.5561C100.338 34.4064 101.455 34.2654 102.573 34.1157C110.847 32.7857 113.946 34.5737 119.086 43.6461C119.13 44.3244 119.183 45.0026 119.227 45.672C117.387 45.487 117.581 46.729 117.572 47.9269C117.554 53.4408 114.958 57.5102 109.941 59.492C105.091 61.4034 100.073 61.7822 95.6901 57.9242H95.7077Z" fill="#F3AA83"/>
<path d="M132.351 53.7667C129.349 55.546 127.351 54.3481 126.11 51.4942C124.306 47.3191 125.626 43.2938 127.65 39.7617C129.094 37.2426 131.761 37.7447 133.451 39.9731C135.528 42.7037 135.96 45.901 135.035 49.2393C133.055 48.3761 131.541 48.2528 132.087 51.1859C132.245 52.0403 132.448 52.8859 132.351 53.7667Z" fill="#FDFCFC"/>
<path d="M119.095 43.6373C118.531 43.9632 117.915 44.7383 117.528 43.4876C115.222 36.0799 109.474 34.1862 102.582 34.1069C103.445 33.5872 104.299 33.0763 105.161 32.5566C111.147 32.0105 115.116 35.1815 118.347 39.7177C119.156 40.0348 119.773 40.4664 119.429 41.4881C119.315 42.2016 119.209 42.9151 119.095 43.6373Z" fill="#514841"/>
<path d="M132.351 53.7667C131.074 53.0004 130.828 51.7232 130.872 50.4284C130.916 49.0191 130.916 47.2663 132.553 46.8171C134.287 46.3414 134.287 48.3233 135.044 49.2393C135.044 51.2828 134.226 52.8331 132.36 53.7667L132.351 53.7667Z" fill="#565655"/>
<path d="M125.45 32.7592C125.468 32.9354 125.45 33.1028 125.379 33.2701C124.834 35.0317 123.461 36.0359 122.035 36.996C121.753 37.2338 121.507 37.2074 121.295 36.9079C121.973 34.8203 123.557 33.6224 125.459 32.7592H125.45Z" fill="#5F5046"/>
<path d="M121.287 36.9167C121.542 36.8815 121.788 36.9167 122.026 37.0048C121.163 38.5022 120.292 39.9995 119.429 41.4969C119.068 40.9068 118.708 40.3166 118.347 39.7265C119.332 38.7928 120.309 37.8592 121.295 36.9167H121.287Z" fill="#796051"/>
<path d="M122.712 27.7122C123.232 26.1267 124.191 25.9946 124.966 25.8096C126.594 25.4132 128.082 26.1091 129.472 26.8666C130.053 27.1837 130.018 27.9235 129.543 28.3287C128.161 29.5354 126.805 28.2318 125.432 28.1526C124.605 28.0997 123.795 27.8971 122.704 27.721L122.712 27.7122Z" fill="#5A4D44"/>
<path d="M151.759 215.291C152.657 214.692 153.564 214.093 154.462 213.494C155.465 214.34 156.724 214.225 157.903 214.419C158.185 214.622 158.282 214.815 158.185 215.009C158.088 215.203 157.991 215.3 157.894 215.3C155.852 215.3 153.81 215.3 151.768 215.291H151.759Z" fill="#48463F"/>
<path d="M164.778 214.34C165.675 214.666 166.784 214.348 167.506 215.238C165.772 215.273 164.038 215.3 162.295 215.335C162.005 215.159 161.908 214.974 162.005 214.798C162.102 214.622 162.199 214.533 162.295 214.533C163.123 214.472 163.95 214.401 164.778 214.34Z" fill="#3A3D39"/>
<path d="M162.295 214.533C162.295 214.798 162.295 215.071 162.295 215.335C160.826 215.326 159.364 215.309 157.894 215.3C157.894 215.009 157.894 214.718 157.903 214.419C159.364 214.454 160.834 214.489 162.295 214.525L162.295 214.533Z" fill="#4F4F45"/>
<path d="M110.847 83.0275C106.71 86.216 104.237 84.8596 101.13 82.1731C104.835 81.2658 107.265 82.8601 110.847 83.0275Z" fill="#D14931"/>
<path d="M108.788 52.6833C107.987 55.7486 105.496 55.7221 103.242 55.3346C100.162 54.8061 99.7918 51.917 99.6158 49.5564C99.475 47.6098 100.258 45.5751 100.742 43.6109C101.288 41.4265 102.028 39.3477 104.932 39.4799C107.899 39.612 108.673 41.8669 109.333 44.1218C109.571 44.9321 109.413 45.8482 109.439 46.7202C107.054 48.473 106.798 50.4548 108.788 52.6833Z" fill="#FDFCFC"/>
<path d="M108.788 52.6833C106.323 52.8242 105.909 51.3269 106.165 49.345C106.402 47.4336 107.001 45.9098 109.439 46.7202C109.677 48.7549 110.953 50.9041 108.788 52.6833Z" fill="#4D4D4B"/>
</svg>
