<svg width="288" height="192.568" overflow="visible" style="display: block;" viewBox="0 0 288 192.568" fill="none" xmlns="http://www.w3.org/2000/svg">
<g id="in_review-8EElvzKy 1" clip-path="url(#clip0_0_180)">
<path id="Vector" d="M9.58725 188.637C10.3522 187.263 8.26723 186.453 8.88974 185.109C9.21975 183.511 9.49727 181.92 8.7097 180.366V180.095C8.07222 178.175 8.82226 175.968 7.47973 174.197C5.80722 168.703 4.59223 163.089 3.23473 157.513C2.88222 156.815 2.78473 156.057 2.77722 155.291C1.90722 151.741 1.83972 148.056 1.00722 144.492C0.752226 143.531 1.32972 142.63 1.20223 141.676C0.872222 140.273 1.20223 138.877 1.26222 137.482C1.33722 132.295 2.37972 130.411 7.19473 128.873C13.4573 126.861 19.8622 125.113 26.4923 127.334C29.0647 128.197 32.0497 127.169 34.3523 129.136C36.6697 133.046 39.0473 136.941 40.9747 141.054C42.7672 144.882 42.0847 149.069 41.6497 153.092C41.4472 154.931 41.2673 156.762 41.1773 158.601C41.1547 159.232 41.0647 159.847 40.9073 160.454C40.1273 163.044 40.6147 165.701 40.4873 168.32C40.4723 171.66 40.4197 174.985 41.0797 178.317C41.5147 180.524 42.2798 182.31 44.1323 183.578C45.3322 184.644 46.8547 185.02 48.3097 185.544C49.1498 185.852 50.2897 185.965 50.0272 187.353C49.3672 188.577 48.7072 189.807 48.0398 191.031C45.5273 192.262 42.9397 191.594 40.3447 191.414C38.7697 191.301 37.1122 191.001 35.5597 191.707C34.3898 191.691 33.2197 191.669 32.0497 191.654C29.8822 191.301 27.6697 192.022 25.5172 191.376C23.9573 191.691 22.4422 192.3 20.7997 192.022C19.3972 191.579 17.9572 191.789 16.5322 191.736C14.8297 191.721 13.1048 191.886 11.5072 191.046L11.2222 191.084C10.2097 190.573 10.1122 189.462 9.58725 188.629V188.637Z" fill="var(--fill-0, #FDB42B)"/>
<path id="Vector_2" d="M19.3447 107.859C17.1323 102.912 11.6272 100.961 8.97222 96.3607C7.47973 93.7713 5.59723 91.4221 4.96722 88.4126C4.46472 86.0106 4.86222 84.4423 7.92972 84.9151C16.3297 86.2211 23.7172 83.399 30.3472 78.6483C35.4998 74.9557 36.9847 69.1242 37.2698 63.1651C37.6598 55.0595 38.0123 46.9764 39.9697 39.0659C42.6548 28.1684 49.0297 19.5149 56.8747 11.8446C61.4348 7.39402 66.3247 3.50633 72.6472 1.50995C81.1898 -1.17691 89.3201 0.00140798 97.4795 2.85338C102.669 4.66963 107.665 6.98123 112.329 9.79566C124.615 17.2033 129.759 28.5812 129.039 42.6158C128.597 51.2994 127.562 59.9753 125.38 68.4262C124.488 71.8936 123.287 75.3535 121.683 78.5356C119.748 82.3783 118.757 86.3864 117.887 90.5368C117.144 94.0865 115.975 96.7655 121.03 98.657C124.802 100.068 125.005 104.924 125.139 108.842C125.192 110.32 124.9 111.806 124.765 113.292C122.155 114.643 122.17 112.542 122.08 111.063C121.975 109.337 122.237 107.611 121.952 105.862C121.389 102.425 119.477 100.323 116.207 99.2126C111.879 97.7342 107.522 97.2239 102.985 98.0495C98.9877 98.7772 98.4176 98.3043 98.3648 94.1317C98.2745 86.8064 98.3273 87.7744 91.6598 87.9474C84.5647 88.1348 77.5598 86.596 70.4273 87.3015C67.1273 87.6244 64.7497 88.0147 65.3498 92.1055C65.4397 92.7207 65.0198 93.283 64.5773 93.7483C63.8047 94.4095 62.8298 94.6872 61.9372 95.1295C53.6122 98.0265 44.9872 100.053 36.9173 103.708C35.5447 104.331 34.0298 104.534 32.6647 103.468C32.6572 101.359 34.4947 101.022 35.8298 100.331C43.1497 96.5405 51.0772 94.4163 58.9297 92.1353C61.1572 91.4894 62.1398 90.6186 62.5147 88.232C63.0622 84.7575 64.9898 81.5978 65.2297 77.9653C65.2823 77.1923 65.8972 75.9764 67.2997 76.5618C67.8248 77.1472 67.9897 77.8677 68.0947 78.6107C68.8072 83.5566 68.8072 83.6317 73.6523 83.5566C79.1197 83.4741 84.5797 83.8343 90.0469 83.6617C92.0944 83.5941 93.6997 83.1439 94.2476 80.8548C94.8398 78.3706 96.6624 77.5825 99.0175 77.59C100.008 77.59 100.997 77.455 101.987 77.3423C111.482 76.2016 115.637 70.1674 116.807 61.8291C117.047 60.103 116.905 58.3468 117.213 56.628C117.363 55.8625 117.685 55.1645 118.18 54.5641C119.065 53.2882 120.835 53.4458 122.05 52.1699C119.117 50.8865 116.125 53.8886 113.477 51.7497C113.207 50.9316 113.613 50.3687 114.16 49.8508C116.868 48.5974 119.635 47.4417 121.517 44.9199C125.26 39.8915 124.338 33.8047 119.229 30.1648C118.42 29.5869 117.542 29.1065 116.718 28.5511C115.487 27.5529 113.5 28.2209 112.517 26.6674C111.257 21.909 102.61 15.5297 97.8322 16.0325C94.6293 16.3702 93.22 19.1097 91.5474 21.4062C90.8419 22.3218 90.1372 23.2675 88.7568 22.5695C88.7347 16.1976 94.5995 10.959 100.322 12.8803C106.255 14.8692 112.292 17.1432 115.495 23.3125C116.297 24.8586 117.842 25.429 119.275 26.172C123.077 28.1309 125.98 30.8327 126.617 35.3358C128.14 40.049 126.137 44.357 124.892 48.7626C126.625 44.3796 127.697 39.914 126.648 35.2083C125.305 28.7462 122.582 22.9597 118.292 17.9313C116.499 15.8299 114.445 14.0887 111.97 12.7903C104.597 8.91761 97.3824 4.74469 88.9 3.55886C86.1325 3.1686 83.4547 3.52134 80.7322 3.55136C77.0947 2.7333 73.6448 3.78402 70.6522 5.46518C55.3522 14.0812 45.1372 26.5247 41.8147 44.222C40.6972 50.1585 41.1547 56.1927 40.2322 62.0168C38.0872 75.5561 35.0573 81.8229 21.7598 85.7857C18.0547 86.8891 14.3347 87.9022 10.4122 87.8801C7.59972 87.8647 7.59972 89.3507 8.7097 91.2568C10.9372 95.0468 13.6222 98.4619 17.1248 101.172C20.4097 103.716 22.0747 106.943 21.6922 111.221C21.4747 113.645 20.6047 115.919 18.6397 116.925C15.8272 118.358 15.0547 119.964 16.4947 122.697C16.1422 123.221 15.6097 123.409 15.0097 123.432C12.5947 122.996 11.4772 121.36 11.0048 119.116C11.0048 118.606 11.0048 118.088 11.0048 117.577C11.3048 117.338 11.6122 117.098 11.9122 116.865C12.9772 115.979 14.4172 116.992 15.4822 116.152C17.1098 114.921 18.7372 113.682 19.3672 111.589C19.7572 110.35 19.8022 109.112 19.3372 107.881L19.3447 107.859Z" fill="var(--fill-0, #373836)"/>
<path id="Vector_3" d="M167.635 120.625C170.057 114.688 170.822 108.174 174.047 102.522C174.79 102.237 175.172 102.68 175.48 103.251C175.87 107.918 173.56 111.964 172.247 116.174C164.852 139.845 157.683 163.585 149.987 187.143C150.805 189.59 152.86 188.104 154.307 188.479C156.002 188.914 158.297 187.594 159.227 190.213C154.982 190.603 150.745 191.324 146.485 190.31C145.982 189.334 144.167 190.513 144.078 188.847C145.374 187.301 147.557 186.003 145.593 183.518C145.518 181.912 147.64 182.025 147.842 180.629C148 180.148 147.79 180.749 147.954 180.276C149.19 176.749 148.024 174.56 144.46 173.709C143.74 173.536 143.08 173.236 142.517 172.74C141.947 172.2 141.557 171.563 141.385 170.797C141.279 170.204 141.324 169.626 141.527 169.056C141.797 168.515 142.225 168.163 142.81 168.028C144.992 168.35 146.583 170.286 148.952 170.211C149.972 170.182 151.172 170.392 151.479 169.258C153.205 163.014 156.474 157.198 156.647 150.525C156.647 150.15 156.752 149.805 156.947 149.482C158.02 148.402 158.77 147.148 159.085 145.639C160.165 140.401 162.423 135.523 163.788 130.367C164.658 128.123 165.347 125.819 166.052 123.515C166.435 122.471 166.57 121.292 167.627 120.617L167.635 120.625Z" fill="var(--fill-0, #333433)"/>
<path id="Vector_4" d="M100.847 190.258C94.8551 190.903 88.8471 190.836 82.8322 190.633C80.3197 190.55 80.7247 188.794 80.5747 187.271C80.3272 186.948 80.1173 186.595 79.9522 186.22C79.8247 185.83 79.7648 185.424 79.7498 185.02C79.8097 182.43 81.1823 181.297 83.7248 181.244C87.0399 181.177 90.3545 180.613 93.6401 181.439C94.5245 181.537 95.3945 182.182 96.2951 181.537C96.1221 181.011 95.9125 180.493 96.1596 179.939C96.6249 179.3 97.2844 179.225 97.9975 179.293C100.112 179.728 101.972 180.869 104.05 181.409C108.1 182.07 112.173 181.506 116.222 181.732C117.752 181.815 119.523 181.349 120.46 183.195C119.515 184.794 117.887 184.494 116.455 184.554C110.35 184.801 104.237 184.749 98.1398 184.569C94.015 184.449 89.9651 185.612 85.8393 185.012C85.2173 184.922 84.5797 185.192 84.4373 185.95C84.2572 186.888 84.7973 187.353 85.6221 187.503C87.7147 187.879 89.8594 187.526 91.9521 188.006C93.8573 188.652 95.8375 188.329 97.7726 188.524C98.9945 188.644 100.63 188.269 100.847 190.258Z" fill="var(--fill-0, #333739)"/>
<path id="Vector_5" d="M100.847 190.258C99.2876 188.824 97.39 189.755 95.6569 189.515C94.3822 189.334 92.9797 189.913 91.855 188.847C93.2046 187.353 95.0349 187.556 96.745 187.556C110.958 187.511 125.177 187.511 139.389 187.556C141.1 187.556 142.93 187.353 144.272 188.855C144.775 189.695 146.125 189.267 146.492 190.318C136.217 190.446 125.942 190.761 115.667 190.625C110.733 190.566 105.752 191.368 100.84 190.25L100.847 190.258Z" fill="var(--fill-0, #3B3D3B)"/>
<path id="Vector_6" d="M17.4848 125.09C16.5772 124.332 15.6773 123.574 14.7697 122.817C15.2648 122.817 15.7597 122.817 16.2547 122.817C16.9522 122.411 17.7547 122.403 18.3922 122.741C23.1322 125.263 28.2998 126.284 33.4972 127.244C33.8647 127.425 34.1722 127.672 34.4348 127.987C34.6822 128.595 34.6372 129.158 34.1647 129.654C26.1922 127.867 18.2647 126.562 10.0672 128.678C4.03722 130.239 2.44723 131.62 1.83972 137.842C1.53973 139.313 1.46473 140.783 1.88473 142.255C1.70473 142.983 1.51722 143.703 1.33722 144.431C1.74973 145.227 1.30722 145.339 0.654726 145.272C0.144726 142.413 -0.200274 139.605 0.129726 136.626C0.654726 131.838 2.20723 129.751 6.78973 127.957C10.2773 126.591 14.1848 127.011 17.4848 125.083V125.09Z" fill="var(--fill-0, #464139)"/>
<path id="Vector_7" d="M176.462 190.258C171.97 190.235 167.477 190.213 162.985 190.19C162.317 189.748 161.605 189.32 162.452 188.419C163.36 187.886 164.327 187.946 165.303 188.126C166.893 188.719 168.422 188.232 169.967 187.848C178.127 187.511 186.287 187.316 194.447 187.931C195.52 188.351 196.69 188.682 196.675 190.183C191.432 190.198 186.197 190.213 180.954 190.228C179.462 190.318 177.955 189.35 176.462 190.258Z" fill="var(--fill-0, #393C39)"/>
<path id="Vector_8" d="M3.64723 157.062C5.14722 162.616 6.63973 168.17 8.13972 173.724C8.45473 174.662 8.46972 175.428 7.16472 175.442C5.36472 169.971 3.93973 164.41 2.94972 158.736C3.31722 158.233 2.88972 157.393 3.65473 157.055L3.64723 157.062Z" fill="var(--fill-0, #444037)"/>
<path id="Vector_9" d="M267.054 189.507C269.312 190.971 271.818 189.995 274.202 190.213C278.793 190.633 283.464 189.447 288.003 190.918C280.022 190.926 272.042 190.941 264.055 190.948C263.717 190.333 262.187 191.001 262.592 189.59C264.077 189.567 265.562 189.537 267.048 189.515L267.054 189.507Z" fill="var(--fill-0, #4A4B49)"/>
<path id="Vector_10" d="M217.637 190.093C212.14 190.115 206.643 190.146 201.145 190.168C200.627 189.635 198.723 189.957 199.997 188.307C201.917 187.451 203.897 187.706 205.885 187.969C207.467 188.471 209.079 188.644 210.722 188.284C213.017 188.232 215.387 187.601 217.487 189.125C217.682 189.312 217.772 189.515 217.749 189.732C217.727 189.965 217.69 190.077 217.637 190.077V190.093Z" fill="var(--fill-0, #4A524C)"/>
<path id="Vector_11" d="M242.327 190.13C236.845 190.13 231.37 190.13 225.887 190.13C226.922 187.436 229.652 189.057 231.324 187.984C234.07 187.571 236.814 187.519 239.567 187.976C240.67 188.457 242.148 188.464 242.327 190.13Z" fill="var(--fill-0, #494F4C)"/>
<path id="Vector_12" d="M50.0272 187.353C48.3472 185.544 45.3547 186.528 43.8172 184.419C43.9447 184.254 44.0798 184.088 44.2072 183.931C45.6922 183.136 47.0572 183.766 48.4298 184.283C52.7648 185.245 57.1522 184.479 61.5097 184.719C62.5822 184.704 63.6397 184.794 64.6073 185.327C65.0198 185.597 65.1247 185.958 64.9297 186.408C61.3598 186.408 57.7898 186.437 54.2198 186.423C52.7423 186.415 51.2572 186.242 50.0347 187.353H50.0272Z" fill="var(--fill-0, #515453)"/>
<path id="Vector_13" d="M0.654726 145.287C0.879729 145.009 1.11223 144.724 1.33722 144.446C3.42972 147.711 2.34972 151.606 3.46722 155.058C2.86723 155.404 3.50472 156.859 2.14723 156.522C1.65223 152.777 0.369726 149.137 0.654726 145.287Z" fill="var(--fill-0, #554C3A)"/>
<path id="Vector_14" d="M162.242 188.847L162.977 190.183C161.732 190.19 160.48 190.205 159.235 190.213C156.34 188.727 153.242 189.823 150.258 189.523C148.735 189.365 147.378 189.267 148.668 187.233C151.704 187.676 154.757 187.601 157.81 187.653C159.362 187.684 161.035 187.444 162.242 188.847Z" fill="var(--fill-0, #3F433F)"/>
<path id="Vector_15" d="M231.107 188.824C229.637 190.318 227.373 188.666 225.895 190.13C224.148 190.115 222.392 190.108 220.645 190.093C220.195 189.387 220.254 188.78 220.974 188.284C224.41 187.436 227.829 186.821 231.115 188.824H231.107Z" fill="var(--fill-0, #434642)"/>
<path id="Vector_16" d="M262.6 189.582C263.087 190.033 263.575 190.491 264.062 190.941C261.34 190.528 258.445 191.811 255.842 190.13C255.827 189.98 255.812 189.83 255.797 189.687C258.055 188.824 260.335 189.957 262.6 189.582Z" fill="var(--fill-0, #686867)"/>
<path id="Vector_17" d="M20.6047 191.594C22.1723 191.437 23.7397 191.286 25.3072 191.129C25.5172 191.301 25.5772 191.459 25.4872 191.601C25.4048 191.736 25.3222 191.804 25.2397 191.804C21.5497 193.335 17.7622 192.074 14.0197 192.224C14.6572 190.566 16.0747 191.714 17.0798 191.376C18.2572 191.459 19.4497 191.189 20.6122 191.586L20.6047 191.594Z" fill="var(--fill-0, #969696)"/>
<path id="Vector_18" d="M35.5597 191.707C39.6472 190.115 43.8697 191.023 48.0398 191.031C47.9422 191.264 47.8372 191.496 47.7397 191.729C45.3472 192.375 42.9472 192.232 40.5472 191.811C38.8822 191.782 37.2173 191.744 35.5597 191.714V191.707Z" fill="var(--fill-0, #63563E)"/>
<path id="Vector_19" d="M242.327 190.13C241.585 189.695 240.842 189.267 240.1 188.832C241.982 187.151 244.127 187.698 246.265 188.104C246.932 188.351 247.217 188.952 247.547 189.507C247.608 189.762 247.667 190.025 247.727 190.28C245.927 190.28 244.112 190.731 242.327 190.13Z" fill="var(--fill-0, #424844)"/>
<path id="Vector_20" d="M67.9672 187.984C68.7847 188.059 69.6923 187.998 69.7822 188.982C69.8797 190.168 69.0098 190.371 68.0497 190.318C67.1573 190.266 66.0097 190.138 66.0172 189.139C66.0172 188.149 67.1873 188.074 67.9747 187.984H67.9672Z" fill="var(--fill-0, #656665)"/>
<path id="Vector_21" d="M25.2322 191.804C25.3147 191.586 25.3372 191.362 25.2997 191.129C27.5573 191.143 29.8897 190.31 32.0497 191.661C29.7997 192.502 27.5198 192.277 25.2397 191.811L25.2322 191.804Z" fill="var(--fill-0, #4E4431)"/>
<path id="Vector_22" d="M80.6572 186.445C80.6347 186.723 80.6047 186.993 80.5822 187.271C77.3497 186.918 74.0272 187.946 70.8622 186.633C71.1322 186.242 71.4847 185.958 71.9272 185.777C74.8747 185.492 77.8522 184.787 80.6572 186.445Z" fill="var(--fill-0, #CBCBCB)"/>
<path id="Vector_23" d="M199.652 188.802C200.147 189.259 200.642 189.71 201.137 190.168C199.644 190.43 198.153 190.55 196.66 190.175L195.175 188.869C196.644 187.474 198.137 187.519 199.644 188.802H199.652Z" fill="var(--fill-0, #363635)"/>
<path id="Vector_24" d="M60.8347 187.871C61.5022 187.998 62.4997 187.834 62.3947 188.877C62.2897 189.845 61.5247 190.303 60.5272 190.018C59.8747 189.823 58.8473 189.815 58.8848 188.922C58.9372 187.789 59.9947 187.894 60.8272 187.879L60.8347 187.871Z" fill="var(--fill-0, #565755)"/>
<path id="Vector_25" d="M73.4797 189.425C74.4098 188.164 75.5422 188.126 76.7122 188.772C77.1697 189.027 77.2073 189.755 76.7572 190.018C75.5872 190.686 74.4547 190.566 73.4797 189.432V189.425Z" fill="var(--fill-0, #3C3D3B)"/>
<path id="Vector_26" d="M40.5472 191.811C42.9472 191.782 45.3397 191.759 47.7398 191.729C45.3547 193.124 42.9472 192.337 40.5472 191.811Z" fill="var(--fill-0, #63615B)"/>
<path id="Vector_27" d="M7.16472 175.442C7.95972 175.135 8.01223 174.407 8.13972 173.724C9.32472 175.758 8.57473 177.964 8.7022 180.096C7.40473 178.805 8.55974 176.703 7.16472 175.442Z" fill="var(--fill-0, #A8833B)"/>
<path id="Vector_28" d="M71.6572 186.37C71.3947 186.46 71.1247 186.543 70.8622 186.633C68.8822 186.558 66.9022 186.483 64.9222 186.408C64.9147 186.19 64.9072 185.972 64.8997 185.755C66.9097 184.208 69.0622 184.576 71.2447 185.267C71.6947 185.515 71.8297 185.889 71.6572 186.37Z" fill="var(--fill-0, #44494F)"/>
<path id="Vector_29" d="M16.9522 191.549C15.9998 191.879 14.7997 191.159 14.0197 192.224C12.7297 192.81 12.1447 191.879 11.5147 191.053C13.3372 191.068 15.1522 191.084 16.9747 191.098C16.9747 191.248 16.9597 191.399 16.9597 191.549H16.9522Z" fill="var(--fill-0, #605134)"/>
<path id="Vector_30" d="M176.462 190.258C177.955 189.117 179.447 189.132 180.954 190.228C179.462 191.023 177.962 190.475 176.462 190.258Z" fill="var(--fill-0, #333433)"/>
<path id="Vector_31" d="M220.637 188.787C220.637 189.222 220.637 189.665 220.637 190.1C219.64 190.1 218.635 190.1 217.637 190.1C217.637 189.868 217.622 189.642 217.615 189.409C218.297 187.601 219.415 187.961 220.637 188.794V188.787Z" fill="var(--fill-0, #49594D)"/>
<path id="Vector_32" d="M2.14723 156.522C2.58972 156.035 3.02472 155.546 3.46722 155.058C3.52722 155.726 3.58723 156.394 3.64723 157.062C3.41473 157.625 3.18223 158.181 2.94223 158.743C2.67973 158 2.40972 157.265 2.14723 156.522Z" fill="var(--fill-0, #333331)"/>
<path id="Vector_33" d="M255.79 189.687C255.752 189.838 255.767 189.988 255.834 190.13C254.238 190.13 252.498 191.106 251.139 189.447C252.685 189.523 254.238 189.605 255.782 189.68L255.79 189.687Z" fill="var(--fill-0, #525351)"/>
<path id="Vector_34" d="M9.58725 188.637C10.8097 188.997 10.6822 190.266 11.2222 191.091C8.22973 191.909 9.91726 189.605 9.58725 188.637Z" fill="var(--fill-0, #74726E)"/>
<path id="Vector_35" d="M8.7097 180.366C9.88726 181.904 9.97724 183.481 8.88974 185.109C8.82976 183.534 8.76969 181.95 8.7097 180.366Z" fill="var(--fill-0, #8B6C31)"/>
<path id="Vector_36" d="M54.4822 187.736C55.0072 187.526 55.1422 187.998 55.1272 188.269C55.1122 188.689 55.0072 189.334 54.7372 189.47C54.3697 189.65 53.8223 189.417 53.7772 188.787C53.7397 188.254 53.9572 187.894 54.4822 187.736Z" fill="var(--fill-0, #7E7E7D)"/>
<path id="Vector_37" d="M220.637 188.787C219.609 188.892 218.432 188.254 217.615 189.403C215.364 189.207 213.115 189.005 210.865 188.81C209.395 189.297 207.925 189.267 206.455 188.824C204.189 188.824 201.925 188.81 199.66 188.802C198.167 188.824 196.682 188.847 195.19 188.869C186.445 188.855 177.699 188.839 168.947 188.832C167.717 189.245 166.487 189.275 165.257 188.81C164.252 188.817 163.247 188.832 162.242 188.839C158.628 188.824 155.02 188.839 151.405 188.787C150.258 188.772 148.743 189.207 148.668 187.226C152.418 175.66 156.235 164.11 159.91 152.522C163.352 141.647 166.637 130.72 169.998 119.822C171.677 114.366 173.35 108.909 175.03 103.46C175.18 99.6625 176.89 96.2551 177.812 92.6525C178.157 91.3096 179.185 90.4542 180.55 90.5215C186.842 90.8214 193.127 90.0111 199.427 90.5215C204.745 90.9415 210.099 90.4167 215.425 90.3937C221.23 90.3638 227.05 90.6263 232.877 90.3417C239.792 90.0034 246.73 89.8236 253.66 89.8381C256.502 89.8381 259.345 90.5061 262.18 89.8833C263.073 89.8688 263.972 89.8688 264.865 89.8688C268.119 89.8833 271.382 89.8458 274.637 89.8909C279.7 90.0332 276.362 93.5012 276.828 95.4601L276.85 95.6254C275.538 97.0057 275.5 98.8147 275.193 100.533C274.435 102.342 273.985 104.256 273.378 106.11C272.912 107.423 272.388 108.722 272.11 110.095C271.255 111.753 270.85 113.517 270.804 115.371L270.835 115.311C269.732 116.077 269.83 117.42 269.305 118.463L269.2 119.874C268.044 121.15 268.15 122.839 267.782 124.37C267.415 125.413 267.145 126.487 266.95 127.575C266.882 127.89 266.785 128.19 266.672 128.491C266.23 129.691 265.817 130.907 265.322 132.092C264.767 133.534 263.912 134.9 264.137 136.544C264.227 136.739 264.19 136.903 264.01 137.031C263.035 137.827 263.087 139.11 262.555 140.109L262.592 140.011C261.835 141.144 262.239 142.653 261.377 143.749C260.994 144.664 260.957 145.677 260.62 146.607C260.365 147.366 260.035 148.109 259.907 148.905C259.623 150.263 258.812 151.486 258.88 152.942C258.94 153.16 258.895 153.355 258.752 153.52C257.867 154.331 257.665 155.419 257.552 156.53C257.087 157.746 256.743 159.007 256.15 160.17C255.827 160.913 255.534 161.67 255.332 162.458C254.792 163.975 254.327 165.499 254.38 167.135L253.532 169.251C252.445 170.572 252.677 172.32 252.078 173.792L252.115 173.747C251.2 174.782 251.027 176.073 250.847 177.364C250.187 178.339 249.977 179.443 249.94 180.591C249.64 181.311 249.332 182.025 249.032 182.745C247.825 184.554 248.297 186.985 246.827 188.689C244.578 188.727 242.335 188.764 240.085 188.794C237.084 188.794 234.084 188.794 231.085 188.794C227.598 188.78 224.11 188.764 220.615 188.749L220.637 188.787Z" fill="var(--fill-0, #8ECCA1)"/>
<path id="Vector_38" d="M34.2097 128.272C34.0373 128.093 33.8347 128.01 33.5872 128.025C30.0997 121.863 29.2147 115.109 29.5297 108.211C29.6122 106.38 30.6697 104.391 32.8072 103.596C35.0197 103.34 37.1272 102.725 39.1522 101.802C46.4722 98.4841 54.2647 96.6231 61.9072 94.2893C62.5072 93.9366 63.4748 93.9366 63.4672 94.5143C63.4072 99.1896 67.3072 98.3793 69.9397 99.3251C78.3322 99.798 86.717 100.549 94.5023 99.573C86.7476 100.323 78.3772 99.8883 70.0147 99.2876C69.0922 98.98 68.1247 98.9272 67.1872 98.7167C64.3897 98.087 62.8672 96.676 64.2323 93.6136C64.2622 93.4935 64.2772 93.3657 64.3297 93.2532C65.4247 91.129 62.8672 88.0368 65.4172 86.7085C67.1722 85.801 69.7147 86.3182 71.9047 86.3489C80.3497 86.4758 88.7875 86.7085 97.2324 86.8064C98.7175 86.8218 99.1299 87.339 99.1521 88.7202C99.2049 91.5721 99.3924 94.424 99.5423 97.6141C104.44 96.7586 109.315 96.1733 114.167 97.3883C121.42 99.2126 123.768 102.552 123.175 110.058C123.07 111.393 121.705 113.48 124.772 113.285C124.794 114.095 124.817 114.906 124.839 115.709C126.827 121.097 130.12 125.744 133.39 130.367C134.462 131.89 135.542 133.399 136.54 134.975C137.747 136.581 138.835 138.277 140.259 139.711C141.474 141.481 142.914 143.095 144.009 144.949C144.82 146.345 146.147 146.638 147.617 146.653C148.307 146.69 148.99 146.788 149.657 146.975C152.095 148.116 155.072 148.056 157.007 150.293C158.823 151.291 157.787 152.679 157.427 153.887C156.047 158.526 154.667 163.172 153.115 167.757C152.672 169.048 153.01 171.51 151.195 171.337C148.81 171.112 145.885 171.9 144.1 169.266C143.845 168.891 143.372 168.658 142.997 168.365C142.015 168.193 141.092 167.87 140.245 167.337C138.565 166.324 137.05 165.018 135.115 164.447C133.315 163.54 131.515 162.646 129.842 161.506C128.65 160.838 127.322 160.462 126.129 159.817C124.315 158.729 122.057 158.361 120.722 156.5C120.31 154.803 122.005 153.978 122.334 152.59C126.692 144.634 126.745 136.475 123.377 128.152C126.579 136.4 126.737 144.506 122.342 152.395C122.297 154.09 119.507 154.781 120.692 156.928C122.215 158.181 124.074 158.826 125.792 159.711C126.97 160.335 128.2 160.845 129.437 161.318C131.102 162.429 132.805 163.472 134.649 164.267C136.54 164.988 138.212 166.076 139.862 167.217C140.665 167.81 141.677 168.185 142.037 169.251C142.037 169.762 142.037 170.264 142.03 170.775C140.995 171.825 139.63 171.668 138.347 171.802C136.63 172.043 135.002 172.545 133.562 173.566C131.567 175.255 129.7 176.989 130.997 179.991C131.23 180.576 131.26 181.169 131.027 181.762C128.477 184.058 125.222 183.353 122.537 182.941C116.627 182.032 110.755 182.625 104.882 182.355C104.267 182.325 103.645 182.385 103.105 181.995C101.29 181.252 99.475 180.509 97.6601 179.766C93.3248 178.069 88.8548 176.741 84.4972 175.09C81.3847 173.093 78.4447 170.82 75.1972 169.019C70.4497 165.266 65.0572 162.451 60.2798 158.736C59.5823 158.03 58.7947 157.438 57.9547 156.905C57.0173 156.214 56.2447 155.344 55.2922 154.676C50.2972 151.839 46.7647 147.313 42.4897 143.635C39.4747 138.645 35.9272 133.946 34.2022 128.257L34.2097 128.272Z" fill="var(--fill-0, #0B6DFE)"/>
<path id="Vector_39" d="M262.532 90.5666C250.742 90.6416 238.968 91.302 227.17 91.002C218.972 90.7992 210.767 91.1145 202.57 91.152C195.999 91.1818 189.43 91.227 182.86 91.1068C180.348 91.0617 178.833 91.4144 178.165 94.3788C177.468 97.4641 176.898 100.728 175.03 103.468C174.707 103.153 174.377 102.845 174.055 102.53C174.347 98.4841 176.267 94.9045 177.354 91.0847C177.693 89.8986 178.435 89.2834 179.815 89.2979C194.912 89.4334 210.01 89.5987 225.115 89.5833C234.52 89.5757 243.917 89.2681 253.322 89.1181C255.565 89.0806 257.807 89.1556 259.998 89.7563C260.935 89.7563 262.195 88.7202 262.547 90.5666H262.532Z" fill="var(--fill-0, #383A37)"/>
<path id="Vector_40" d="M167.635 120.625C167.538 121.668 167.635 122.772 166.81 123.612C165.205 124.91 163.285 124.707 161.433 124.7C151.712 124.693 141.985 124.851 132.302 123.762C130.562 123.326 128.733 122.996 128.477 120.707C129.497 119.349 130.982 119.882 132.287 119.851C144.084 119.567 155.845 121.067 167.642 120.625H167.635Z" fill="var(--fill-0, #FEFEFD)"/>
<path id="Vector_41" d="M128.469 120.715C129.122 121.931 130.292 122.426 131.5 122.854C133.675 123.664 136.03 124.032 137.965 125.443C139.269 126.396 140.297 127.395 138.744 128.97C136.3 127.92 133.825 126.899 131.477 125.346C132.805 127.762 134.215 129.969 136.337 131.627C137.012 132.543 137.477 133.519 137.29 134.697C137.087 135.259 136.795 135.688 136.097 135.537C131.822 130.014 127.599 124.453 124.914 117.923C124.63 117.232 123.677 116.489 124.825 115.709C126.04 117.375 127.255 119.033 128.469 120.7V120.715Z" fill="var(--fill-0, #3B3F41)"/>
<path id="Vector_42" d="M275.252 90.5061C271.788 90.6493 268.322 90.9714 264.85 90.4917C264.61 89.8083 265.015 89.4785 265.547 89.2229C268.547 89.2008 271.547 88.7798 274.547 89.2902C275.118 89.5084 275.462 89.8534 275.244 90.5138L275.252 90.5061Z" fill="var(--fill-0, #373735)"/>
<path id="Vector_43" d="M272.905 106.057C273.317 104.128 273.625 102.162 274.682 100.436C276.092 100.436 275.582 101.269 275.343 101.974C274.787 103.671 274.225 105.374 273.67 107.07C272.889 107.123 272.605 106.808 272.897 106.05L272.905 106.057Z" fill="var(--fill-0, #4B5049)"/>
<path id="Vector_44" d="M275.252 90.5062C275.02 90.1014 274.787 89.6882 274.554 89.2834C278.695 89.9284 279.505 88.6154 276.842 95.4601C275.485 94.3643 276.67 93.1331 276.865 92.12C277.203 90.3937 276.114 90.7013 275.252 90.5062Z" fill="var(--fill-0, #414B43)"/>
<path id="Vector_45" d="M270.812 115.379C269.297 113.375 270.64 111.731 271.495 110.027C272.147 110.35 271.847 111.131 272.238 111.574C272.065 112.955 271.742 114.283 270.804 115.379H270.812Z" fill="var(--fill-0, #5E635A)"/>
<path id="Vector_46" d="M275.35 101.982C275.132 101.464 274.907 100.953 274.69 100.436C275.124 98.7022 274.802 96.6232 276.865 95.6254C275.635 97.569 276.775 100.076 275.35 101.974V101.982Z" fill="var(--fill-0, #586257)"/>
<path id="Vector_47" d="M272.244 111.574C271.622 111.236 271.562 110.628 271.502 110.027C271.975 108.706 272.44 107.386 272.912 106.057C273.167 106.395 273.422 106.74 273.684 107.078C272.792 108.444 273.542 110.336 272.252 111.574H272.244Z" fill="var(--fill-0, #49544B)"/>
<path id="Vector_48" d="M265.547 89.2152C265.314 89.6362 265.082 90.0639 264.85 90.484C264.077 90.5061 263.304 90.5368 262.532 90.559C261.887 89.6583 260.845 89.9813 259.982 89.7486C261.775 88.9306 263.665 89.0806 265.547 89.2152Z" fill="var(--fill-0, #444A44)"/>
<path id="Vector_49" d="M268.75 122.861C268.622 123.274 268.502 123.687 268.375 124.092C268.338 124.46 268.143 124.648 267.768 124.625C267.624 124.542 267.482 124.46 267.34 124.378C267.204 122.561 267.58 120.963 269.208 119.874C269.058 120.865 268.9 121.856 268.75 122.846V122.861Z" fill="var(--fill-0, #626A63)"/>
<path id="Vector_50" d="M269.312 118.471C269.335 117.18 268.802 115.626 270.842 115.318C270.632 116.519 270.385 117.691 269.312 118.471Z" fill="var(--fill-0, #444642)"/>
<path id="Vector_51" d="M15.4897 116.129C14.4847 117.293 13.1198 116.677 11.9197 116.842C12.8797 115.468 14.2523 116.114 15.4897 116.129Z" fill="var(--fill-0, #464139)"/>
<path id="Vector_52" d="M19.3447 107.859C20.3348 109.089 20.3048 110.32 19.3747 111.566C19.3672 110.328 19.3597 109.097 19.3447 107.859Z" fill="var(--fill-0, #464139)"/>
<path id="Vector_53" d="M246.842 188.719C247.6 186.746 247.255 184.359 249.048 182.775C249.129 185.147 247.945 187.241 247.547 189.507C247.314 189.245 247.075 188.982 246.842 188.719Z" fill="var(--fill-0, #94B49E)"/>
<path id="Vector_54" d="M264.145 136.544C262.72 134.735 264.287 133.294 264.738 131.71C265.367 132.085 265.067 132.805 265.322 133.316L265.66 133.286C265.157 134.374 264.647 135.455 264.145 136.544Z" fill="var(--fill-0, #555B56)"/>
<path id="Vector_55" d="M254.394 167.157C253.202 165.401 254.372 163.915 254.935 162.354C255.43 162.451 255.475 162.924 255.692 163.254C255.122 164.508 255.55 166.098 254.402 167.157H254.394Z" fill="var(--fill-0, #646F67)"/>
<path id="Vector_56" d="M256.165 160.335C255.985 158.916 256.352 157.648 257.207 156.514C257.469 156.185 257.725 156.169 257.98 156.53C257.777 157.986 257.875 159.584 256.142 160.29L256.165 160.335Z" fill="var(--fill-0, #6F7C73)"/>
<path id="Vector_57" d="M252.092 173.822C252.107 172.155 251.597 170.324 253.547 169.281C253.547 170.947 253.293 172.538 252.092 173.822Z" fill="var(--fill-0, #5A695E)"/>
<path id="Vector_58" d="M260.102 146.81C260.455 145.783 259.877 144.386 261.31 143.793C261.467 143.793 261.625 143.793 261.783 143.793C262.18 144.942 261.639 145.872 261.085 146.802C260.762 147.058 260.432 147.05 260.102 146.802V146.81Z" fill="var(--fill-0, #617065)"/>
<path id="Vector_59" d="M250.54 177.514C250.63 176.08 250.247 174.444 252.13 173.776C252.475 175.195 251.642 176.291 251.133 177.469C250.952 177.777 250.757 177.807 250.54 177.514Z" fill="var(--fill-0, #718B78)"/>
<path id="Vector_60" d="M261.775 143.793L261.535 143.733C261.535 143.733 261.294 143.793 261.302 143.793C261.317 142.39 261.535 141.061 262.607 140.026C262.405 141.301 263.042 142.758 261.775 143.801V143.793Z" fill="var(--fill-0, #474D48)"/>
<path id="Vector_61" d="M258.909 152.957C258.002 151.449 259.09 150.316 259.652 149.092C259.817 148.709 260.004 148.694 260.207 149.062C259.915 150.405 259.817 151.816 258.909 152.957Z" fill="var(--fill-0, #636E66)"/>
<path id="Vector_62" d="M257.98 156.53C257.725 156.53 257.469 156.522 257.207 156.514C257.297 155.291 256.818 153.775 258.775 153.535C258.512 154.533 258.242 155.531 257.98 156.53Z" fill="var(--fill-0, #616962)"/>
<path id="Vector_63" d="M256.165 160.335L256.142 160.29C256.765 161.393 255.909 162.279 255.692 163.254C255.437 162.954 255.19 162.654 254.935 162.361C255.017 161.49 255.047 160.582 256.165 160.335Z" fill="var(--fill-0, #5A655D)"/>
<path id="Vector_64" d="M262.57 140.115C262.622 138.885 261.88 137.279 264.024 137.039C263.987 138.277 263.635 139.366 262.57 140.115Z" fill="var(--fill-0, #5C685F)"/>
<path id="Vector_65" d="M250.54 177.514C250.735 177.484 250.937 177.469 251.133 177.469C250.742 178.52 250.352 179.571 249.962 180.621C249.062 179.383 249.699 178.43 250.54 177.514Z" fill="var(--fill-0, #889D8D)"/>
<path id="Vector_66" d="M260.207 149.062C260.02 149.069 259.832 149.084 259.652 149.092C259.517 148.274 259.375 147.456 260.102 146.81C260.424 146.81 260.755 146.81 261.077 146.81C260.785 147.561 260.493 148.312 260.199 149.07L260.207 149.062Z" fill="var(--fill-0, #77877C)"/>
<path id="Vector_67" d="M34.2097 128.272C36.9472 133.361 39.5497 138.54 43.1722 143.095C43.5547 143.996 42.7672 144.851 43.0747 145.752C43.1197 147.246 43.0972 148.739 42.9397 150.225C42.4597 152.176 42.8797 154.203 42.3922 156.154C42.1447 157.062 41.8522 157.955 41.2522 158.706C40.9372 159.007 40.5997 159.029 40.2472 158.781C40.4723 154.833 40.6147 150.878 40.9447 146.946C41.2223 143.68 40.3072 140.814 38.3872 138.254C36.4297 135.651 35.0948 132.76 34.1572 129.668C34.1722 129.203 34.1872 128.738 34.1947 128.272H34.2097Z" fill="var(--fill-0, #434440)"/>
<path id="Vector_68" d="M40.2547 158.781C40.5697 158.751 40.8848 158.729 41.1998 158.698C42.6248 159.524 42.0022 160.905 42.0172 162.046C42.0547 165.393 42.3173 168.778 41.9498 172.095C41.4772 176.358 43.6972 180.02 44.0347 184.066C43.9372 184.171 43.8622 184.291 43.8097 184.427C41.2897 183.225 40.5772 181.027 40.1348 178.453C39.5647 175.135 39.0323 171.855 39.5797 168.493C40.3297 165.724 39.3472 162.849 40.1273 160.087L40.2472 158.796L40.2547 158.781Z" fill="var(--fill-0, #3D3F3E)"/>
<path id="Vector_69" d="M40.1273 160.072C39.9397 162.872 40.9072 165.753 39.5797 168.477C39.6772 165.671 38.9422 162.804 40.1273 160.072Z" fill="var(--fill-0, #434440)"/>
<path id="Vector_70" d="M1.88473 142.269C0.917229 140.806 0.992228 139.335 1.83972 137.857C1.85473 139.327 1.86973 140.799 1.88473 142.269Z" fill="var(--fill-0, #595140)"/>
<path id="Vector_71" d="M16.9522 191.549C16.9672 191.399 16.9747 191.248 16.9672 191.098C18.1973 191.151 19.5022 190.618 20.6047 191.594C19.3897 191.579 18.1673 191.563 16.9522 191.549Z" fill="var(--fill-0, #83672E)"/>
<path id="Vector_72" d="M32.8072 103.596C28.1197 109.967 30.8123 116.505 32.4172 122.996C32.8297 124.67 33.6998 126.231 33.5872 128.025C27.3697 127.77 21.7598 125.473 16.2622 122.823C16.1947 122.178 15.9322 121.676 15.3772 121.27C14.4022 120.549 13.0597 119.897 13.4948 118.388C13.8623 117.12 15.2047 117.758 16.0972 117.502C20.9872 116.107 22.6447 108.249 18.8272 104.091C16.2397 101.269 12.8497 99.2348 10.7122 95.9551C9.83469 94.6046 8.78477 93.3512 7.98223 91.9623C5.52223 87.7071 5.99473 87.0169 10.7572 86.8363C17.8298 86.5738 24.5572 84.7425 30.3923 80.7573C37.0297 76.2316 38.8897 68.7939 39.2497 61.5289C39.6997 52.5528 40.0072 43.629 43.1572 35.1707C48.1597 21.7364 57.2122 11.5969 69.7597 4.78221C72.9622 3.04101 76.5997 1.07465 80.6197 2.98097C80.5297 3.12356 80.4322 3.26617 80.3497 3.41627C78.4372 4.69966 76.0597 5.33009 74.6948 7.40903C72.0172 8.79746 69.7522 10.8689 67.0072 12.1523C60.0022 16.4978 56.9947 23.1324 56.1922 31.0278C56.0797 32.1386 56.1397 33.2644 56.1547 34.3827C56.2297 39.1109 56.4472 39.3811 60.9547 40.3418C61.8322 40.5294 62.6497 40.7621 63.0772 41.6552C63.4747 43.2613 63.0622 44.6347 61.8547 45.7681C60.7222 46.301 59.7172 44.9275 58.5847 45.5354C58.5772 50.6464 60.9772 55.037 62.8822 59.51C64.1272 62.4445 65.5072 65.3791 67.2397 68.0885C68.9197 70.7153 69.2197 73.3571 67.6522 76.1265C67.5248 76.2542 67.3897 76.3742 67.2547 76.4943C66.4598 76.7869 65.8672 77.62 65.9797 78.183C66.9022 82.6185 63.0247 85.9655 63.3697 90.259C63.5273 92.1873 62.2372 92.5179 60.5647 92.9235C51.1597 95.2045 41.9273 98.0189 33.3772 102.703C33.0997 102.853 32.9798 103.295 32.7847 103.596H32.8072Z" fill="var(--fill-0, #1D1D1B)"/>
<path id="Vector_73" d="M118.052 56.1852C118.907 63.1725 116.702 69.2442 112.202 74.4454C108.992 78.1604 104.192 78.1905 99.8576 78.4907C96.745 78.7008 94.8398 79.1961 94.8773 82.656C94.8994 84.5623 93.692 84.7575 92.1396 84.75C84.5572 84.7275 76.9747 84.7275 69.3997 84.8325C67.5697 84.855 66.9397 84.1646 67.0447 82.4384C67.1648 80.457 67.2022 78.4682 67.2697 76.4868L67.2472 76.4793C67.6972 75.1509 68.1998 73.8449 68.5598 72.4865C71.8673 71.9986 72.5423 75.6087 74.9197 76.5768C75.8347 77.4099 76.6972 78.303 77.4622 79.2862C78.4447 80.7722 79.5547 82.2132 81.5873 81.7704C83.4547 81.3576 84.4373 79.9016 84.8123 78.0853C85.4874 74.8431 84.2197 73.4322 80.8598 73.7548C79.6372 73.875 78.4222 74.3102 77.3272 73.3796C74.6497 70.4451 71.9722 67.5105 69.8422 64.1333C69.6848 63.8105 69.5722 63.4652 69.4747 63.1201C69.2572 62.0393 69.2497 60.951 69.3023 59.8628C69.3323 59.3224 69.4297 58.7971 69.5572 58.2792C69.7972 57.3411 70.0972 56.4179 70.0598 55.157C68.3047 55.3896 66.5047 55.915 64.8022 55.037C63.3472 53.8736 62.4848 52.4702 63.0022 50.5263C63.1823 50.1886 63.4597 49.9785 63.8272 49.8884C64.3597 49.7308 65.3498 50.5339 65.3723 49.8808C65.5222 45.5429 67.8623 47.8319 69.6097 48.5674C69.0472 45.5429 66.6397 44.3495 64.6523 42.7735C64.4797 42.4433 64.3747 42.0905 64.3447 41.7228C65.0347 38.6681 67.1498 39.2685 69.2422 39.8164C70.8697 40.9122 72.4522 41.9779 74.3798 40.2292C74.9047 39.7489 75.7672 39.8915 76.4122 40.4093C77.4022 42.0905 77.1622 44.1769 78.2197 45.8355C78.9998 47.3891 79.9522 48.8076 81.4222 49.8059C88.5847 54.5717 94.3447 53.2657 100.847 45.4153C101.462 45.1901 102.22 45.1 102.594 45.5804C105.415 49.1754 109.495 50.4287 113.605 51.6521C115.652 52.1024 117.527 51.3669 119.425 50.789C121.135 50.2637 123.302 50.5713 123.685 51.9673C124.18 53.7761 121.93 53.7385 120.588 54.0988C119.987 54.2564 119.417 54.5116 118.832 54.7142C117.542 55.4422 116.245 55.0144 114.872 54.9844C116.042 55.112 117.467 54.7743 118.067 56.2002L118.052 56.1852Z" fill="var(--fill-0, #F4AA83)"/>
<path id="Vector_74" d="M126.295 35.1857C124.375 30.8102 121.48 27.4553 116.687 26.1345C115.75 25.8793 115.262 25.1738 114.925 24.3558C112.157 17.7962 105.737 16.1826 100.112 13.6383C96.745 12.1147 93.9323 13.5483 92.0271 16.6329C90.8725 18.5092 89.4547 20.2579 88.8846 22.4494C89.4393 25.8117 87.6849 28.0107 85.1648 29.8195C83.1172 31.2304 81.4597 33.0993 79.5097 34.6228C77.6272 37.1971 75.0548 38.3078 71.9047 38.2403C68.7847 38.1728 65.8822 38.8858 63.3397 40.7921C61.3973 40.1617 61.1422 38.5555 61.2172 36.8819C61.5397 29.4143 64.5997 22.8472 68.4172 16.6779C70.2322 13.7359 72.3772 10.9365 74.5672 8.21959C76.4422 6.29075 78.3398 4.37694 80.6572 2.95845L80.6422 2.97346C87.8119 0.924548 94.3745 3.37874 100.795 6.00556C105.257 7.83682 109.832 9.77317 113.702 12.5651C121.322 18.0589 126.25 25.4815 127.06 35.1707C126.812 35.5384 126.557 35.5234 126.31 35.1707L126.295 35.1857Z" fill="var(--fill-0, #1D1D1B)"/>
<path id="Vector_75" d="M126.302 53.3108C125.305 62.3095 123.677 70.3926 120.024 78.1529C117.887 82.6861 117.01 87.8571 115.937 92.8255C115.434 95.1371 114.978 96.1204 112.337 95.4149C109.832 94.7469 107.192 94.9642 104.597 95.6774C102.205 96.3377 100.705 95.4447 100.832 92.6678C100.9 91.1742 100.787 89.6737 100.862 88.18C100.945 86.446 100.592 85.2003 98.4619 85.3579C96.8276 85.4781 96.1826 84.5923 96.3999 83.0538C96.6249 81.4777 97.1276 80.0892 99.1146 80.1493C101.74 80.2319 104.184 79.7591 106.735 78.8884C114.602 76.2166 119.874 70.0398 119.65 61.4689C119.545 57.4761 120.399 55.4272 124.188 54.5717C124.757 54.444 125.245 53.9562 126.302 53.3108Z" fill="var(--fill-0, #1E1E1C)"/>
<path id="Vector_76" d="M117.288 27.8306C126.092 33.2493 127.412 41.6627 120.407 47.5918C118.637 49.0928 116.53 49.7833 114.317 50.2411C110.072 52.185 107.11 49.7083 104.222 47.209C103.314 46.4285 102.715 45.2952 101.905 44.3871C101.087 42.781 100.69 41.0698 100.645 39.2685C100.622 38.6982 100.63 38.1278 100.659 37.5573C100.69 36.8068 100.795 36.0713 101.012 35.3583C101.627 33.8423 102.34 32.3788 103.375 31.0879C104.537 29.9021 105.602 28.5962 107.162 27.8757C110.53 26.232 113.905 27.0876 117.288 27.8306Z" fill="var(--fill-0, #F4AA83)"/>
<path id="Vector_77" d="M90.9995 20.9634C94.8994 14.1111 97.7419 13.2481 104.507 17.1207C106.952 18.5167 109.374 20.0703 111.482 21.9165C112.547 22.8472 113.717 24.3633 112.824 26.2095C111.175 27.2752 109.12 27.1777 107.433 28.1159C105.512 28.7162 104.597 30.5025 103.194 31.7109C102.452 32.6265 102.272 34.1725 100.592 34.0449C97.4045 31.1254 94.1871 28.2659 89.4393 28.4836C87.6551 27.9732 87.3773 27.0276 88.4347 25.4965C89.6949 23.6728 91.4945 23.1474 93.7295 23.0498C92.6951 22.3594 90.9696 22.7196 90.985 20.9634H90.9995Z" fill="var(--fill-0, #F3AA83)"/>
<path id="Vector_78" d="M126.295 35.1857C126.542 35.1857 126.798 35.1857 127.045 35.1857C129.025 39.9816 126.999 44.7624 126.947 49.5507C126.924 51.3219 125.628 50.5339 124.772 50.136C123.535 49.5582 121.93 48.9803 123.324 47.2165C126.159 43.6365 126.573 39.5087 126.295 35.1933V35.1857Z" fill="var(--fill-0, #20201E)"/>
<path id="Vector_79" d="M90.9995 20.9634C92.4846 22.7346 95.057 21.3912 96.7518 23.0348C95.9798 24.6184 94.487 24.0781 93.3171 24.018C91.7348 23.9354 90.3545 24.3483 89.2451 25.3464C88.3751 26.127 87.7676 27.2002 89.597 27.7405C89.6498 29.3542 88.2251 29.2716 87.287 29.767C86.3344 29.9921 85.3971 30.0597 84.5422 29.4368C87.0544 27.7706 87.932 25.0988 88.8702 22.4569C90.0094 22.577 90.2718 21.4437 90.985 20.9634H90.9995Z" fill="var(--fill-0, #504740)"/>
<path id="Vector_80" d="M102.49 43.9368C105.415 47.9521 109.105 50.5264 114.325 50.2411C114.077 50.7065 113.83 51.1642 113.59 51.6296C109.27 52.3201 106.03 50.3687 103.225 47.3666C102.588 46.6912 102.197 45.5954 100.93 45.9331C100.428 44.4621 101.432 44.1769 102.497 43.9368H102.49Z" fill="var(--fill-0, #4C453F)"/>
<path id="Vector_81" d="M64.2247 93.6136C63.3922 97.9362 66.9847 97.7487 69.4297 98.7397C69.8422 99.0319 69.8347 99.3097 69.4147 99.5875C66.4072 99.3097 63.0847 99.4827 63.0847 94.9872C63.0847 94.7545 62.3197 94.5219 61.9072 94.2961C62.5072 93.4713 63.3847 93.629 64.2247 93.6213V93.6136Z" fill="var(--fill-0, #2B476F)"/>
<path id="Vector_82" d="M106.892 27.9132C108.737 26.8775 110.664 26.1045 112.832 26.202C113.942 27.7781 116.268 26.0219 117.288 27.8306C113.763 27.1552 110.297 27.8156 106.832 28.3485C106.855 28.2059 106.87 28.0558 106.892 27.9132Z" fill="var(--fill-0, #3F3D39)"/>
<path id="Vector_83" d="M118.052 56.1852C116.762 55.8475 115.479 55.5098 114.189 55.172C114.183 55.0144 114.167 54.8568 114.16 54.6992C115.712 54.6992 117.265 54.6992 118.817 54.6992C118.562 55.1945 118.307 55.6899 118.052 56.1852Z" fill="var(--fill-0, #534941)"/>
<path id="Vector_84" d="M136.862 134.674C136.757 133.654 135.625 132.955 135.97 131.792C136.345 130.427 137.373 129.766 138.632 129.353C139.825 128.363 141.129 127.785 142.75 127.987C148.697 128.723 154.675 128.625 160.66 128.558C162.092 128.543 164.05 127.995 164.514 130.344C163.652 136.619 160.315 142.172 159.287 148.402C159.062 149.745 158.057 149.737 157.03 149.693C154.442 149.37 152.154 147.921 149.538 147.734C148.893 147.673 148.24 147.614 147.595 147.561C146.56 146.615 144.873 146.968 143.995 145.73C143.252 143.396 141.175 141.902 140.184 139.725C138.76 138.254 137.567 136.633 136.862 134.689V134.674Z" fill="var(--fill-0, #FEFEFE)"/>
<path id="Vector_85" d="M144.28 188.855C126.804 188.855 109.33 188.855 91.8626 188.855C89.7546 188.817 87.6398 188.614 85.5548 188.78C83.0648 188.982 82.7347 187.781 82.7647 185.68C82.8022 183.203 84.3472 183.735 85.8019 183.729C97.2997 183.654 108.798 183.548 120.295 183.451C123.137 182.295 126.115 182.933 129.033 182.76C130.802 182.76 132.558 182.347 134.335 182.468C135.633 182.468 136.93 182.475 138.235 182.468C139.742 182.482 141.25 182.468 142.757 182.482C143.859 182.527 144.97 182.535 145.832 183.383C146.605 183.721 148.262 183.128 147.782 184.809C147.265 186.61 147.108 188.952 144.287 188.847L144.28 188.855Z" fill="var(--fill-0, #8ECBA1)"/>
<path id="Vector_86" d="M130.743 180.659C130.51 180.329 130.285 179.998 130.052 179.661C130.052 176.786 131.672 174.865 133.802 173.236C135.369 172.501 136.884 171.622 138.677 171.532C140.072 171.547 141.512 171.352 142.75 172.245C143.087 172.403 143.409 172.598 143.762 172.711C146.065 173.431 149.552 172.328 150.497 174.647C151.18 176.328 149.41 179.007 148.735 181.244C146.417 183.548 143.327 182.243 140.672 182.963C139.892 183.181 139.089 183.09 138.302 183.113C137.148 183.113 135.992 183.113 134.83 183.113C133.727 183.075 132.572 183.308 131.613 182.52C130.99 182.054 131.432 181.086 130.735 180.651L130.743 180.659Z" fill="var(--fill-0, #F3AA83)"/>
<path id="Vector_87" d="M140.403 182.633C143.035 181.259 146.185 183.03 148.749 181.244C148.832 183.398 146.514 182.28 145.832 183.39C144.798 183.39 143.762 183.39 142.727 183.398C142.067 182.791 140.965 183.54 140.403 182.633Z" fill="var(--fill-0, #766555)"/>
<path id="Vector_88" d="M149.538 147.726C152.237 147.606 154.653 148.582 157.03 149.685C157.082 149.895 157.075 150.105 157 150.308C154.412 149.73 151.854 149.077 149.538 147.726Z" fill="var(--fill-0, #555B61)"/>
<path id="Vector_89" d="M142.757 172.253C141.265 172.253 139.772 172.268 138.28 172.275C137.837 171.968 137.432 171.645 137.59 171.007C139.067 170.932 140.537 170.857 142.015 170.782C142.263 171.27 142.51 171.758 142.757 172.253Z" fill="var(--fill-0, #3E4149)"/>
<path id="Vector_90" d="M140.754 166.894C141.715 167.06 142.397 167.653 142.989 168.373C142.667 168.666 142.352 168.966 142.03 169.266C141.257 168.808 140.484 168.35 139.712 167.9C139.577 167.06 139.87 166.669 140.754 166.902V166.894Z" fill="var(--fill-0, #313E51)"/>
<path id="Vector_91" d="M44.0347 184.058C39.0623 176.238 41.1848 167.675 41.4397 159.314C41.4397 159.112 41.2823 158.909 41.1998 158.698C41.0422 157.843 40.8398 156.98 41.6797 156.335C42.7222 154.248 41.5598 151.929 42.3473 149.813C42.4147 148.327 42.4822 146.848 42.5497 145.362C44.5972 144.311 45.5273 146.142 46.3897 147.186C48.8572 150.166 51.8347 152.447 55.0747 154.458C56.0722 155.103 56.8072 156.057 57.7598 156.77C58.6447 157.257 59.4847 157.821 60.1897 158.548C65.0123 162.084 70.1347 165.183 74.8822 168.823C78.0622 170.662 80.9122 172.988 84.0998 174.819C86.9794 175.938 89.8219 177.131 92.8076 177.987C94.1871 178.377 95.5146 179.24 96.2798 180.651C96.5047 181.244 96.9921 181.349 97.5477 181.334C98.2821 182.16 97.517 182.243 97.0074 182.332C95.9875 182.513 94.8994 182.168 93.9093 182.678C89.9651 181.161 85.8922 182.535 81.8873 182.295C80.2972 182.198 80.9197 184.502 80.6422 185.747C77.6497 186.408 74.6573 186.28 71.6572 185.815C69.4072 185.8 67.1573 185.785 64.9072 185.769C63.9398 185.755 62.9647 185.747 61.9972 185.732C58.5772 184.951 55.1047 185.597 51.6623 185.365C50.3272 185.274 48.9322 185.747 47.6647 184.982C46.4572 184.681 45.2497 184.374 44.0422 184.074L44.0347 184.058Z" fill="var(--fill-0, #0B6DFE)"/>
<path id="Vector_92" d="M130.743 180.659C131.492 180.757 131.492 181.372 131.613 181.912C131.838 183.924 129.857 182.595 129.309 183.443C126.302 183.443 123.295 183.443 120.287 183.443C116.14 181.942 111.842 183.181 107.634 182.745C106.112 182.588 104.425 183.338 103.09 182.01C111.459 182.032 119.829 182.062 128.2 182.048C129.22 182.048 130.577 182.37 130.743 180.659Z" fill="var(--fill-0, #353D41)"/>
<path id="Vector_93" d="M96.2798 180.643C92.3722 178.13 87.5426 177.754 83.6572 175.18C83.6722 174.527 83.7473 173.956 84.6397 174.377C89.0798 175.931 94.0073 176.321 97.6601 179.781C97.0373 179.811 96.5422 180.043 96.2798 180.643Z" fill="var(--fill-0, #333C48)"/>
<path id="Vector_94" d="M71.6497 185.808C74.6422 185.244 77.6422 185.807 80.6347 185.74C80.6572 185.972 80.6647 186.212 80.6497 186.453C77.6497 186.431 74.6497 186.4 71.6497 186.378C71.6497 186.19 71.6497 186.003 71.6497 185.815V185.808Z" fill="var(--fill-0, #3F454A)"/>
<path id="Vector_95" d="M93.9093 182.67C94.9446 181.732 96.6998 182.76 97.5544 181.327C98.5676 181.807 98.5224 182.46 97.5093 182.64C96.3471 182.85 95.1175 182.677 93.9093 182.67Z" fill="var(--fill-0, #333C48)"/>
<path id="Vector_96" d="M165.257 188.817C166.487 188.817 167.717 188.832 168.947 188.839C167.71 189.815 166.479 189.83 165.257 188.817Z" fill="var(--fill-0, #333433)"/>
<path id="Vector_97" d="M206.455 188.824C207.925 188.824 209.395 188.81 210.865 188.81C209.395 189.928 207.925 189.837 206.455 188.824Z" fill="var(--fill-0, #373B37)"/>
<path id="Vector_98" d="M47.6573 184.967C52.4422 185.095 57.2722 184.352 61.9897 185.717C57.2197 185.349 52.3598 186.67 47.6573 184.967Z" fill="var(--fill-0, #404F62)"/>
<path id="Vector_99" d="M225.887 122.801C227.11 123.927 228.324 125.06 229.547 126.186C229.614 127.425 230.425 128.475 230.425 129.729C230.748 131.162 231.01 132.596 230.425 134.029C229.63 135.147 229.742 136.453 229.66 137.722C229.48 141.684 227.695 144.971 225.369 148.041C223.885 149.182 222.909 150.833 221.32 151.899C215.042 156.094 208.202 153.34 206.59 145.872C206.193 144.041 206.102 142.165 206.499 140.304C207.272 136.603 208.27 132.986 210.28 129.729C211.337 127.612 213.077 126.021 214.51 124.189C215.56 123.484 216.692 122.929 217.757 122.23C219.047 121.983 220.254 121.398 221.59 121.345C223.24 121.18 224.68 121.668 225.895 122.794L225.887 122.801Z" fill="var(--fill-0, #FEFEFE)"/>
<path id="Vector_100" d="M207.257 140.393C207.213 143.591 207.167 146.698 209.357 149.49C212.875 153.962 216.602 154.63 221.057 151.104C222.489 149.97 223.735 148.589 225.063 147.321C225.655 147.906 225.519 148.544 225.227 149.204C220.142 155.546 213.317 157.16 209.109 152.59C205.037 148.162 204.13 142.803 206.455 137.084C208.442 137.774 207.25 139.23 207.257 140.401V140.393Z" fill="var(--fill-0, #272A28)"/>
<path id="Vector_101" d="M225.227 149.204C225.175 148.574 225.115 147.951 225.063 147.321C227.215 144.424 228.062 140.896 229.652 137.729C231.699 139.478 229.959 141.286 229.389 142.75C228.468 145.115 227.612 147.711 225.219 149.204H225.227Z" fill="var(--fill-0, #404742)"/>
<path id="Vector_102" d="M207.257 140.393C206.942 139.297 207.535 137.984 206.455 137.076C206.957 134.007 207.939 131.14 210.077 128.775C210.857 128.67 211.383 128.798 210.985 129.766C209.373 133.174 207.97 136.664 207.257 140.385V140.393Z" fill="var(--fill-0, #313532)"/>
<path id="Vector_103" d="M210.985 129.774C210.685 129.443 210.377 129.113 210.077 128.783C211.038 127.064 211.967 125.316 213.774 124.295C214.187 123.957 214.547 124.01 214.855 124.445C214.427 126.847 212.132 127.898 210.992 129.781L210.985 129.774Z" fill="var(--fill-0, #323834)"/>
<path id="Vector_104" d="M225.887 122.801C224.372 122.524 222.865 122.253 221.35 121.976C220.907 121.526 220.067 121.916 219.737 121.225C222.122 120.43 224.507 119.656 225.887 122.801Z" fill="var(--fill-0, #383E3A)"/>
<path id="Vector_105" d="M214.855 124.445C214.494 124.392 214.135 124.347 213.774 124.295C214.96 122.764 216.565 121.908 218.38 121.375C218.837 122.208 217.99 122.441 217.667 122.921C216.962 123.86 215.934 124.205 214.855 124.445Z" fill="var(--fill-0, #1F201F)"/>
<path id="Vector_106" d="M265.33 133.316C265.135 132.783 264.94 132.25 264.744 131.71C265.075 130.397 265.277 129.031 266.35 128.04C266.59 129.908 265.517 131.53 265.338 133.316H265.33Z" fill="var(--fill-0, #404841)"/>
<path id="Vector_107" d="M229.787 129.579C230.05 128.422 228.46 127.402 229.547 126.193C230.695 127.042 230.927 128.272 230.935 129.586C230.553 130.006 230.17 129.969 229.795 129.586L229.787 129.579Z" fill="var(--fill-0, #474D49)"/>
<path id="Vector_108" d="M229.787 129.579C230.17 129.579 230.553 129.579 230.927 129.579C231.085 131.095 231.835 132.685 230.417 134.029C230.207 132.543 229.997 131.057 229.78 129.579H229.787Z" fill="var(--fill-0, #3B443E)"/>
<path id="Vector_109" d="M217.668 122.914C217.907 122.396 218.14 121.885 218.38 121.368C218.83 121.323 219.287 121.27 219.737 121.225C220.277 121.473 220.81 121.728 221.35 121.976C220.12 122.291 218.897 122.599 217.668 122.914Z" fill="var(--fill-0, #1F1F1F)"/>
<path id="Vector_110" d="M267.52 124.295C267.768 125.773 267.332 127.042 266.305 128.115C266.147 126.734 266.117 125.383 267.332 124.384L267.52 124.303V124.295Z" fill="var(--fill-0, #535650)"/>
<path id="Vector_111" d="M69.4147 99.5875C69.4147 99.3029 69.4297 99.0252 69.4297 98.7397C78.6848 98.9877 87.9397 99.1751 98.2148 98.6196C95.132 100.894 92.4702 100.549 90.04 100.803C83.1097 101.546 76.2397 100.841 69.4147 99.5875Z" fill="var(--fill-0, #333C45)"/>
<path id="Vector_112" d="M121.855 152.799C122.515 148.664 125.027 145.121 124.989 140.656C124.945 135.207 123.137 130.336 121.188 125.165C127.712 128.58 128.319 145.235 122.53 152.785C122.312 153.055 122.087 153.062 121.855 152.799Z" fill="var(--fill-0, #323E4D)"/>
<path id="Vector_113" d="M90.5496 139.965C95.8972 142.908 100.653 146.66 105.265 150.616C105.302 151.936 104.605 151.733 103.802 151.329L99.377 149.693C98.7849 149.354 98.0725 149.084 98.4773 148.162C96.0923 145.024 92.4395 143.403 89.62 140.776C89.545 140.071 89.7401 139.673 90.5419 139.958L90.5496 139.965Z" fill="var(--fill-0, #333E4C)"/>
<path id="Vector_114" d="M90.5496 139.965C90.242 140.236 89.9344 140.506 89.6276 140.783C84.7973 137.421 80.1173 133.879 76.2097 129.421C76.1498 129.053 76.3147 128.895 76.6747 128.925C81.8948 131.86 86.0345 136.146 90.5419 139.965H90.5496Z" fill="var(--fill-0, #323F4E)"/>
<path id="Vector_115" d="M55.0747 155.103C51.3847 153.767 48.7147 151.081 46.1797 148.251C45.1222 147.066 44.2822 145.677 42.5497 145.362C40.8773 144.094 43.0073 143.861 43.1647 143.095C47.4097 146.833 51.0697 151.238 55.9222 154.285C56.0497 154.991 55.8472 155.344 55.0672 155.096L55.0747 155.103Z" fill="var(--fill-0, #333E4B)"/>
<path id="Vector_116" d="M74.6272 169.311C69.4072 166.144 64.4947 162.533 59.6197 158.871C59.5072 158.016 59.8072 157.625 60.7072 157.888C65.6948 161.378 70.6822 164.86 75.6697 168.35C75.5422 168.913 75.1822 169.214 74.6272 169.311Z" fill="var(--fill-0, #2F4058)"/>
<path id="Vector_117" d="M140.792 145.43C139.292 148.657 136.037 149.618 133.585 151.583C133.097 151.974 132.489 152.304 131.957 151.719C131.38 151.088 131.927 150.586 132.355 150.172C134.755 147.868 137.665 146.48 140.792 145.43Z" fill="var(--fill-0, #323E4E)"/>
<path id="Vector_118" d="M74.6272 169.311C74.9722 168.988 75.3247 168.673 75.6697 168.35C78.6622 170.361 81.6472 172.373 84.6397 174.377C84.3097 174.647 83.9872 174.91 83.6572 175.18C80.1847 173.942 77.5222 171.443 74.6272 169.311Z" fill="var(--fill-0, #313E51)"/>
<path id="Vector_119" d="M76.6747 128.925C76.4347 129.008 76.2772 129.173 76.2097 129.429C72.2722 126.952 69.3023 123.454 66.3172 119.972C66.0473 119.206 66.4373 119.041 67.0973 119.124C70.2847 122.403 73.8997 125.263 76.6822 128.933L76.6747 128.925Z" fill="var(--fill-0, #333F4E)"/>
<path id="Vector_120" d="M120.07 121.938C117.97 120.159 115.817 118.381 113.717 116.527C113.049 115.934 112.54 115.041 113.447 114.313C114.325 113.607 114.737 114.688 115.097 115.153C116.822 117.427 119.44 119.102 120.07 121.938Z" fill="var(--fill-0, #304055)"/>
<path id="Vector_121" d="M133.923 173.844C132.189 175.487 131.124 177.582 130.06 179.668C128.77 176.426 130.818 174.699 133.059 173.063C133.517 173.131 133.81 173.386 133.923 173.844Z" fill="var(--fill-0, #3A404C)"/>
<path id="Vector_122" d="M140.754 166.894C140.409 167.224 140.057 167.562 139.712 167.892C137.912 166.902 136.112 165.911 134.305 164.92C134.432 164.387 134.777 164.088 135.302 163.982C137.432 164.372 139.135 165.543 140.754 166.894Z" fill="var(--fill-0, #2F415A)"/>
<path id="Vector_123" d="M135.302 163.982C134.972 164.297 134.635 164.605 134.305 164.92C132.392 164.275 130.749 163.232 129.384 161.738C129.453 161.468 129.625 161.348 129.91 161.378C131.95 161.746 133.779 162.556 135.302 163.99V163.982Z" fill="var(--fill-0, #313E51)"/>
<path id="Vector_124" d="M140.537 139.305C141.805 141.309 143.807 142.855 144.325 145.332C144.062 145.662 143.77 145.677 143.447 145.422C142.397 143.523 140.492 142.224 139.764 140.101C139.533 139.35 139.839 139.133 140.545 139.305H140.537Z" fill="var(--fill-0, #46515C)"/>
<path id="Vector_125" d="M140.537 139.305C140.275 139.568 140.02 139.838 139.758 140.101C137.943 139.065 137.162 137.189 136.097 135.545C136.352 135.253 136.607 134.967 136.862 134.674C138.085 136.221 139.308 137.759 140.53 139.305H140.537Z" fill="var(--fill-0, #444D56)"/>
<path id="Vector_126" d="M121.052 156.544C122.829 157.521 124.615 158.496 126.392 159.472C126.317 159.952 125.867 160.027 125.559 160.252C123.602 159.577 121.697 158.818 120.13 157.401C120.243 156.905 120.565 156.642 121.044 156.544H121.052Z" fill="var(--fill-0, #2C4569)"/>
<path id="Vector_127" d="M121.052 156.544C120.744 156.83 120.444 157.115 120.137 157.401C119.724 156.8 116.747 157.25 119.357 155.381C120.318 154.699 121.022 153.67 121.847 152.799C122.072 152.785 122.297 152.777 122.522 152.785C122.034 154.038 121.539 155.298 121.052 156.552V156.544Z" fill="var(--fill-0, #304057)"/>
<path id="Vector_128" d="M133.923 173.844C133.637 173.581 133.345 173.327 133.059 173.063C134.26 171.683 135.925 171.337 137.598 171.007C137.829 171.427 138.055 171.855 138.287 172.275C136.832 172.801 135.377 173.327 133.923 173.844Z" fill="var(--fill-0, #393D46)"/>
<path id="Vector_129" d="M107.597 151.928C109.518 151.981 111.37 152.244 112.78 153.753C112.802 153.903 112.824 154.045 112.847 154.195C111.017 153.993 109.232 153.617 107.612 152.679C107.395 152.514 107.32 152.349 107.387 152.184C107.455 152.019 107.53 151.928 107.597 151.928Z" fill="var(--fill-0, #294876)"/>
<path id="Vector_130" d="M125.567 160.252C125.845 159.989 126.122 159.727 126.4 159.472C127.555 160.132 129.257 159.787 129.917 161.37C129.79 161.558 129.617 161.686 129.392 161.738C127.892 161.828 126.865 160.702 125.575 160.252H125.567Z" fill="var(--fill-0, #323D4D)"/>
<path id="Vector_131" d="M67.0898 119.116C66.8272 119.402 66.5722 119.687 66.3097 119.964C65.9347 119.656 65.4772 119.416 65.1997 119.041C64.7497 118.44 63.5947 117.743 64.7122 117C65.6648 116.369 66.1747 117.39 66.5797 118.148C66.7523 118.471 66.9172 118.793 67.0823 119.116H67.0898Z" fill="var(--fill-0, #2C4669)"/>
<path id="Vector_132" d="M98.4773 148.169C98.7772 148.679 99.0771 149.189 99.377 149.699C97.39 150.143 96.0097 148.371 94.1794 148.251C93.9545 148.124 93.8718 147.981 93.9323 147.831C93.992 147.673 94.0601 147.598 94.1274 147.598C95.5751 147.786 97.0296 147.981 98.4773 148.169Z" fill="var(--fill-0, #254D87)"/>
<path id="Vector_133" d="M143.439 145.422C143.732 145.391 144.025 145.362 144.317 145.332C144.992 146.676 147.13 145.88 147.587 147.553C145.832 147.576 144.084 147.569 143.439 145.422Z" fill="var(--fill-0, #4A658C)"/>
<path id="Vector_134" d="M112.847 154.188C112.847 154.038 112.818 153.887 112.78 153.745C114.16 153.558 115.3 154.031 116.199 155.291C115.007 155.216 113.74 155.486 112.847 154.188Z" fill="var(--fill-0, #2A4771)"/>
<path id="Vector_135" d="M55.0747 155.103C55.3597 154.833 55.6448 154.563 55.9297 154.293C57.1447 154.555 57.6622 155.592 58.3522 156.447C58.2547 156.942 57.7823 157.01 57.4448 157.228C56.3122 156.912 55.6373 156.079 55.0747 155.111V155.103Z" fill="var(--fill-0, #2E425E)"/>
<path id="Vector_136" d="M107.597 151.929C107.597 152.176 107.597 152.424 107.612 152.672C106.344 152.229 105.07 151.779 103.802 151.336C104.29 151.096 104.777 150.863 105.265 150.623C106.188 150.803 107.005 151.171 107.605 151.929H107.597Z" fill="var(--fill-0, #244E8B)"/>
<path id="Vector_137" d="M57.4448 157.22C57.7447 156.957 58.0447 156.702 58.3522 156.439C59.1397 156.92 59.9273 157.407 60.7147 157.888C60.3547 158.219 59.9947 158.541 59.6273 158.871C58.8998 158.323 58.1723 157.768 57.4448 157.22Z" fill="var(--fill-0, #2F415C)"/>
<path id="Vector_138" d="M94.1274 147.591C94.1274 147.809 94.1351 148.026 94.1794 148.244C93.197 148.259 92.327 148.012 91.6897 147.141C92.6644 146.54 93.4594 146.713 94.1274 147.591Z" fill="var(--fill-0, #1363DA)"/>
<path id="Vector_139" d="M138.422 129.076C138.295 129.443 138.168 129.811 138.04 130.179C137.35 130.72 136.659 131.252 135.97 131.792C132.114 130.651 131.822 126.674 129.917 123.83C132.483 126.073 136.69 125.45 138.422 129.076Z" fill="var(--fill-0, #2B2B28)"/>
<path id="Vector_140" d="M42.3473 149.813C42.1372 151.989 42.9847 154.271 41.6797 156.335C41.9872 154.173 41.0047 151.869 42.3473 149.813Z" fill="var(--fill-0, #333E4B)"/>
<path id="Vector_141" d="M67.2022 11.2292C70.0148 10.0809 71.6722 7.01876 74.9047 6.56094C75.2347 7.14634 75.1372 7.71674 74.8447 8.27962C71.9497 12.1448 68.8222 15.8074 66.5047 20.1303C63.6997 25.369 61.7198 30.7726 61.1797 36.6868C61.0447 38.1728 60.7747 39.4787 58.9372 39.5162C57.1822 39.5537 56.6047 38.2853 56.3273 36.8669C54.8798 29.4367 57.0022 22.8172 61.2847 16.8506C62.8597 14.659 64.6972 12.5501 67.1947 11.2367L67.2022 11.2292Z" fill="var(--fill-0, #F6E6D7)"/>
<path id="Vector_142" d="M67.2023 11.2292C62.7998 15.5221 59.0947 20.2429 57.4897 26.3596C56.5897 29.797 56.3423 33.2044 57.1522 36.6868C57.4223 37.8651 57.1148 39.3361 59.0722 39.1485C60.7822 38.9834 60.4447 37.5949 60.4897 36.5892C61.0448 25.0988 66.9322 16.2276 74.3573 8.092C74.7398 7.81431 75.0773 7.85183 75.3848 8.21208C72.1448 13.7584 67.7497 18.5467 65.2147 24.6034C63.5048 28.6862 62.7172 32.8967 61.9972 37.1671C61.7798 38.458 62.3872 39.5912 63.4222 40.4469C63.8873 41.3024 63.9248 41.9404 62.6797 41.9404C62.0723 41.1148 61.1422 41.0547 60.3023 41.2049C56.3198 41.9404 55.4647 39.5087 55.1872 36.3565C54.3922 27.2677 57.3397 19.5224 63.5873 12.9779C64.5472 11.9722 65.7548 11.3043 67.2023 11.2367V11.2292Z" fill="var(--fill-0, #2E2D2A)"/>
<path id="Vector_143" d="M58.3672 44.2595C59.7397 43.8542 60.7597 44.1544 61.1722 45.6705C62.3872 46.9764 62.2447 48.7176 62.6497 50.2787C62.8223 52.0499 63.5198 53.6259 64.5022 55.097C64.9223 55.6448 65.1997 56.2678 65.5147 56.8757C66.7823 59.6301 68.1622 62.317 69.9697 64.7561C71.9572 68.0509 75.2497 70.3025 77.1022 73.7099C77.1548 73.8825 77.1923 74.0551 77.2448 74.2352C77.2448 74.6105 77.1322 74.9482 76.9223 75.2559C74.7847 76.6969 73.5923 74.8356 72.1898 73.8524C70.9747 73.0043 70.2397 71.6835 69.3173 70.5501C63.9548 63.8781 61.2022 55.9225 58.4272 48.0121C58.0522 46.9464 57.1447 45.5204 58.3822 44.2745L58.3672 44.2595Z" fill="var(--fill-0, #EEDFD0)"/>
<path id="Vector_144" d="M58.3672 44.2595C60.2948 53.8886 64.5847 62.467 70.1197 70.4751C71.2672 72.3139 69.2573 71.9762 68.6497 72.6141C68.5823 74.0476 68.4997 75.4736 67.2472 76.4718C69.3397 70.6928 65.1472 66.685 63.0622 62.1669C60.7222 57.0934 58.7948 51.9072 57.3547 46.5186C57.0773 45.4904 56.2897 44.2295 58.3672 44.2595Z" fill="var(--fill-0, #353531)"/>
<path id="Vector_145" d="M62.0422 50.8865C61.4647 49.1979 60.6997 47.5393 61.1647 45.6705C62.1697 44.6272 62.3272 43.2463 62.6722 41.9329C63.2572 41.6026 63.3997 41.0547 63.4147 40.4394C64.9072 38.1878 67.1198 37.4073 69.6773 37.4373C73.3672 37.4748 76.9147 37.2347 79.2097 33.7222C79.5247 36.0188 79.4272 38.1428 76.9447 39.2985C74.4622 39.914 71.7172 38.7882 69.3847 40.4394C67.6972 40.3192 65.6798 39.0584 64.8247 41.7753C64.4347 44.5297 63.9622 47.2691 63.1372 49.9334C62.9572 50.4663 62.7922 51.0292 62.0272 50.879L62.0422 50.8865Z" fill="var(--fill-0, #3E3B37)"/>
<path id="Vector_146" d="M75.3923 8.21208C75.0473 8.17456 74.7023 8.12952 74.3648 8.092C74.5447 7.58164 74.7248 7.07129 74.9122 6.56094C75.7598 3.65643 78.4672 3.73148 80.6497 2.96596C79.1947 5.00737 77.4397 6.75607 75.3998 8.21208H75.3923Z" fill="var(--fill-0, #373836)"/>
<path id="Vector_147" d="M101.598 68.9066C100.667 70.2499 99.6548 71.4808 97.9899 71.9611C97.3074 72.3064 96.4595 72.6967 95.8818 72.1938C92.9345 69.627 89.0048 69.5745 85.6595 68.0209C82.5998 66.6024 80.6422 60.981 82.4422 58.2041C83.5297 56.523 84.8197 57.4461 85.945 58.2266C88.2848 59.8478 90.5871 61.5064 93.3248 62.4595C96.0625 63.4202 98.8522 63.7279 101.724 63.6679C102.7 63.6454 103.93 63.4427 104.44 64.4259C105.01 65.5292 103.817 66.1522 103.202 66.8651C102.632 67.518 102.024 68.141 101.59 68.899L101.598 68.9066Z" fill="var(--fill-0, #1E1D1B)"/>
<path id="Vector_148" d="M101.598 68.9066C101.462 67.0302 103.608 66.4823 104.109 64.3809C101.432 64.3809 98.8445 64.6811 96.3624 64.3134C92.2222 63.7054 88.7125 61.4839 85.3895 59.0222C84.8198 58.6019 84.3848 57.7463 83.5372 58.0615C82.6373 58.3993 82.9523 59.3149 82.8922 60.0204C82.5697 63.7579 82.8397 66.9027 87.6849 67.6907C91.3676 68.2911 94.735 70.1149 98.0044 71.9612C91.0523 76.6519 82.7347 73.0569 81.3847 64.6736C80.8073 61.1162 80.9947 57.5512 82.3148 54.1588C83.4547 54.1363 84.0398 54.8043 84.6097 55.4497C89.597 61.0861 96.1826 62.7673 103.345 63.03C104.178 63.06 105.257 62.5346 105.782 63.3602C106.488 64.4634 105.25 65.1164 104.717 65.8369C103.847 67.0077 103.157 68.4187 101.604 68.9141L101.598 68.9066Z" fill="var(--fill-0, #302F2B)"/>
<path id="Vector_149" d="M102.49 43.9368C101.965 44.6047 101.448 45.2652 100.922 45.9331C96.9095 54.1888 88.232 56.0427 80.5747 50.2712C80.3272 49.4981 80.7997 49.2204 81.4222 49.0478C83.7248 49.393 85.7124 50.759 88.1877 50.7215C94.1871 50.6389 97.9371 47.6593 99.1146 41.8053C99.3771 40.4919 98.7619 38.1278 101.604 38.9083C101.897 40.5819 102.197 42.2556 102.49 43.9368Z" fill="var(--fill-0, #47423D)"/>
<path id="Vector_150" d="M76.8997 74.9107C76.9072 74.648 76.9222 74.3853 76.9297 74.1301C77.9872 73.8374 79.0747 74.1377 80.1772 73.7323C81.8647 73.1094 83.7547 73.0494 84.6847 74.9707C85.697 77.0646 85.0972 79.1286 83.5297 80.7422C82.0222 82.2957 80.2597 82.2433 78.5497 80.9298C77.9647 80.4796 77.5072 79.8791 76.8097 79.5714C76.0747 78.7758 75.3397 77.9803 74.6047 77.1848C74.2597 75.3009 76.8172 76.3592 76.8997 74.9107Z" fill="var(--fill-0, #1D1D1B)"/>
<path id="Vector_151" d="M76.8172 79.5714C77.6198 78.4757 78.0697 79.5038 78.5197 79.9091C79.8472 81.1024 81.2647 81.8529 82.7797 80.412C84.2272 79.0385 84.9397 77.2073 84.0548 75.3234C83.2447 73.6048 81.5198 73.935 80.1098 74.4678C78.9097 74.9257 77.9423 74.738 76.9373 74.1226L76.8698 74.1602C76.4497 73.4172 76.3372 72.7942 77.4772 72.7041C78.3098 73.8449 79.2172 73.0719 80.1248 72.8392C82.5998 72.2013 84.9097 72.2013 85.922 75.1133C86.8525 77.8001 85.0973 81.4927 82.4797 82.4759C79.5772 83.5641 77.8222 82.2507 76.8098 79.5639L76.8172 79.5714Z" fill="var(--fill-0, #312F2B)"/>
<path id="Vector_152" d="M65.0497 42.9086C69.4147 43.4414 70.1947 46.7813 71.1922 50.6914C69.1597 49.8884 68.1998 48.0196 66.3998 48.0421C65.2297 49.6632 67.8698 50.3837 66.8647 52.0499C65.6498 51.9974 64.9147 51.0442 64.1497 50.1661C63.1147 48.8227 62.9572 47.0889 64.2623 46.2859C65.9947 45.2202 64.7797 44.0043 65.0497 42.9086Z" fill="var(--fill-0, #554A42)"/>
<path id="Vector_153" d="M69.3397 65.1914C67.3822 62.6847 65.6573 60.0579 64.9148 56.9057C64.2323 54.0238 66.4747 55.7049 67.3522 55.4197C70.6297 54.339 70.9597 56.0802 70.2847 58.6619C70.2172 59.0748 70.1497 59.495 70.0822 59.9078C69.6398 61.1612 69.4972 62.4146 70.1722 63.6454C70.6597 64.561 70.6973 65.244 69.3472 65.1914H69.3397Z" fill="var(--fill-0, #2F2C28)"/>
<path id="Vector_154" d="M69.3997 40.4469C69.0472 39.5988 68.9123 38.1878 69.9472 38.473C72.2947 39.1334 74.7098 37.8275 76.9372 39.0133C77.3497 39.5237 77.3197 40.049 76.9672 40.5744C76.6147 40.7996 76.2622 40.7996 75.9097 40.5744C75.4297 40.657 74.6723 40.5744 74.5072 40.8521C72.4972 44.1394 70.9522 42.4883 69.3997 40.4469Z" fill="var(--fill-0, #302C28)"/>
<path id="Vector_155" d="M69.3397 65.1914C69.9547 64.8537 70.0822 64.2608 70.1647 63.6379C72.6022 66.6625 75.0398 69.6871 77.4772 72.7116C77.2747 73.1995 77.0722 73.6799 76.8698 74.1677C74.3573 71.1731 71.8522 68.186 69.3397 65.1914Z" fill="var(--fill-0, #4A4540)"/>
<path id="Vector_156" d="M76.8997 74.9107C77.1472 76.6894 75.1597 76.2166 74.6047 77.1848C72.0622 76.3892 71.2672 73.312 68.6497 72.6216C69.0097 71.8185 70.2697 71.6384 70.1197 70.4826C71.5747 72.2538 73.2472 73.7698 75.0547 75.1809C75.9247 75.8563 76.3372 75.3084 76.9072 74.9182L76.8997 74.9107Z" fill="var(--fill-0, #4B453F)"/>
<path id="Vector_157" d="M65.0497 42.9086C65.6947 44.1019 68.5523 45.2202 64.9447 46.4961C63.4447 47.0289 64.3222 48.8977 64.1497 50.1661C63.8272 50.1961 63.5048 50.2186 63.1897 50.2486C63.0247 50.2111 62.8597 50.1736 62.6947 50.136C62.7247 47.1715 63.0847 44.2896 64.8547 41.7753C64.9222 42.1505 64.9897 42.5333 65.0572 42.9086H65.0497Z" fill="var(--fill-0, #E7A27E)"/>
<path id="Vector_158" d="M70.2772 58.6619C69.7897 55.3821 68.2073 54.8643 64.9148 56.9057C64.6373 56.4629 64.3522 56.0276 64.0747 55.5848C63.7897 54.6316 64.2548 54.4215 65.0797 54.5716C66.0623 54.6316 67.0597 54.8118 68.0197 54.7067C68.9723 54.6016 69.8872 54.1963 71.3047 53.7836C70.9297 55.5773 70.5997 57.1158 70.2772 58.6619Z" fill="var(--fill-0, #44403C)"/>
<path id="Vector_159" d="M75.9097 40.5744C76.2322 40.5219 76.5547 40.4769 76.8772 40.4244C78.6922 41.2875 78.8422 42.9386 78.8797 44.6422C78.6997 45.3928 78.3547 46.0232 77.6497 46.4135C76.1347 44.7474 76.1272 42.6309 75.9172 40.5744H75.9097Z" fill="var(--fill-0, #524841)"/>
<path id="Vector_160" d="M77.6423 46.4135C77.6572 45.813 77.7622 45.2652 78.3323 44.9199C79.7948 46.1132 81.4072 47.194 81.5498 49.348C81.2273 49.6557 80.8972 49.9634 80.5747 50.2637C79.2247 49.258 78.1822 48.0271 77.6423 46.406V46.4135Z" fill="var(--fill-0, #4E463F)"/>
<path id="Vector_161" d="M65.0797 54.5717C64.7422 54.9093 64.4122 55.2471 64.0747 55.5849C62.8448 54.2564 62.4623 52.5603 62.0498 50.879C62.2597 50.6314 62.4773 50.3837 62.6872 50.136C62.8448 50.2036 63.0097 50.2411 63.1823 50.2486C63.4897 51.8322 64.1047 53.2807 65.0797 54.5641V54.5717Z" fill="var(--fill-0, #4A4742)"/>
<path id="Vector_162" d="M70.1647 63.6454C68.9723 62.4295 69.1447 61.1761 70.0747 59.9078C70.1047 61.1536 70.1347 62.3995 70.1647 63.6454Z" fill="var(--fill-0, #4A4540)"/>
<path id="Vector_163" d="M81.5498 49.3555C80.6572 47.7494 78.7222 46.9013 78.3322 44.9275C77.9572 43.3889 77.8747 41.7603 76.8698 40.4244C76.8922 39.959 76.9072 39.4862 76.9297 39.0209C78.4222 37.5723 78.2497 35.4034 79.2172 33.7297C81.0022 32.3187 82.3297 30.3224 84.5422 29.4443C85.4951 29.3167 86.4469 29.1966 87.3995 29.069C94.4495 27.9357 97.0901 29.4592 101.47 37.1896C101.507 37.7675 101.552 38.3454 101.59 38.9158C100.022 38.7582 100.187 39.8164 100.18 40.8371C100.164 45.5354 97.9524 49.0028 93.6775 50.6914C89.545 52.3201 85.2693 52.6428 81.5348 49.3555H81.5498Z" fill="var(--fill-0, #F3AA83)"/>
<path id="Vector_164" d="M112.772 45.813C110.215 47.3291 108.512 46.3084 107.455 43.8767C105.918 40.3192 107.042 36.8894 108.767 33.8798C109.997 31.7333 112.27 32.1612 113.71 34.0599C115.479 36.3866 115.848 39.1109 115.059 41.9554C113.372 41.2199 112.082 41.1148 112.548 43.614C112.682 44.342 112.855 45.0625 112.772 45.813Z" fill="var(--fill-0, #FDFCFC)"/>
<path id="Vector_165" d="M101.477 37.1821C100.997 37.4598 100.472 38.1202 100.142 37.0545C98.1773 30.7426 93.2796 29.1291 87.4071 29.0615C88.1425 28.6187 88.8701 28.1834 89.6046 27.7405C94.7051 27.2752 98.087 29.9771 100.84 33.8423C101.529 34.1125 102.055 34.4802 101.762 35.3508C101.665 35.9588 101.575 36.5667 101.477 37.1821Z" fill="var(--fill-0, #514841)"/>
<path id="Vector_166" d="M112.772 45.813C111.684 45.1601 111.475 44.0718 111.512 42.9686C111.55 41.7678 111.55 40.2742 112.945 39.8915C114.422 39.4862 114.422 41.1749 115.067 41.9554C115.067 43.6966 114.37 45.0176 112.78 45.813H112.772Z" fill="var(--fill-0, #565655)"/>
<path id="Vector_167" d="M106.892 27.9132C106.908 28.0633 106.892 28.2059 106.832 28.3485C106.367 29.8495 105.198 30.7051 103.982 31.5232C103.742 31.7258 103.533 31.7034 103.352 31.4482C103.93 29.6694 105.279 28.6487 106.9 27.9132H106.892Z" fill="var(--fill-0, #5F5046)"/>
<path id="Vector_168" d="M103.345 31.4556C103.562 31.4257 103.772 31.4556 103.975 31.5307C103.239 32.8066 102.497 34.0824 101.762 35.3583C101.454 34.8555 101.148 34.3526 100.84 33.8498C101.679 33.0542 102.512 32.2587 103.352 31.4556H103.345Z" fill="var(--fill-0, #796051)"/>
<path id="Vector_169" d="M104.559 23.6128C105.002 22.2618 105.82 22.1492 106.48 21.9916C107.867 21.6539 109.135 22.2468 110.319 22.8923C110.814 23.1624 110.785 23.7928 110.38 24.1381C109.202 25.1663 108.047 24.0555 106.877 23.988C106.172 23.9429 105.482 23.7703 104.553 23.6203L104.559 23.6128Z" fill="var(--fill-0, #5A4D44)"/>
<path id="Vector_170" d="M129.309 183.443C130.075 182.933 130.847 182.422 131.613 181.912C132.467 182.633 133.54 182.535 134.545 182.7C134.785 182.873 134.867 183.038 134.785 183.203C134.702 183.368 134.62 183.451 134.537 183.451C132.797 183.451 131.057 183.451 129.317 183.443H129.309Z" fill="var(--fill-0, #48463F)"/>
<path id="Vector_171" d="M140.403 182.633C141.167 182.911 142.112 182.64 142.727 183.398C141.249 183.428 139.772 183.451 138.287 183.481C138.04 183.331 137.957 183.173 138.04 183.023C138.122 182.873 138.205 182.797 138.287 182.797C138.992 182.745 139.697 182.685 140.403 182.633Z" fill="var(--fill-0, #3A3D39)"/>
<path id="Vector_172" d="M138.287 182.797C138.287 183.023 138.287 183.256 138.287 183.481C137.035 183.473 135.789 183.459 134.537 183.451C134.537 183.203 134.537 182.955 134.545 182.7C135.789 182.73 137.042 182.76 138.287 182.791V182.797Z" fill="var(--fill-0, #4F4F45)"/>
<path id="Vector_173" d="M94.4495 70.7453C90.9245 73.4621 88.8173 72.3064 86.1699 70.0173C89.3269 69.2442 91.3974 70.6027 94.4495 70.7453Z" fill="var(--fill-0, #D14931)"/>
<path id="Vector_174" d="M92.6951 44.8899C92.0126 47.5018 89.8901 47.4792 87.9695 47.149C85.3451 46.6987 85.0297 44.237 84.8797 42.2256C84.7598 40.5669 85.4269 38.8332 85.8393 37.1596C86.3046 35.2983 86.9351 33.527 89.4095 33.6397C91.9376 33.7522 92.5971 35.6736 93.1595 37.5949C93.3623 38.2853 93.2277 39.0659 93.2498 39.8089C91.2176 41.3024 90.9995 42.9911 92.6951 44.8899Z" fill="var(--fill-0, #FDFCFC)"/>
<path id="Vector_175" d="M92.6951 44.8899C90.5947 45.01 90.242 43.7342 90.4601 42.0454C90.6621 40.4168 91.1724 39.1184 93.2498 39.8089C93.4526 41.5426 94.5398 43.3739 92.6951 44.8899Z" fill="var(--fill-0, #4D4D4B)"/>
</g>
<defs>
<clipPath id="clip0_0_180">
<rect width="288" height="192.568" fill="white"/>
</clipPath>
</defs>
</svg>
