<?xml version="1.0" encoding="UTF-8"?>
<svg id="Layer_2" xmlns="http://www.w3.org/2000/svg" version="1.1" viewBox="0 0 1660 171.7">
  <!-- Generator: Adobe Illustrator 29.1.0, SVG Export Plug-In . SVG Version: 2.1.0 Build 142)  -->
  <defs>
    <style>
      .st0 {
        fill: #7a2822;
      }
    </style>
  </defs>
  <g id="Layer_1-2">
    <g>
      <path class="st0" d="M551.7,36.5c-36.6,0-56.2,22.8-56.2,59.3v72.5h32.3v-101.1h47.4v100.8h32.3v-72.5c0-36.8-18.8-59.3-55.7-59.3l-.3.3h0Z"/>
      <path class="st0" d="M426.1,36.5c-35.5,0-58.3,25.1-58.3,66.2s22.3,68.8,58.8,68.8,45.9-7.1,53.3-39.2l-29.1-7.9c-3.2,15.6-11.9,20.9-24.4,20.9s-24.4-10.3-25.7-34.1h80.3v-10.6c0-43.4-23.3-64-54.9-64h0ZM446.8,89.4h-45.9c2.4-20.1,11.1-27,23.9-27s22,10.1,22,24.6,0,1.6,0,2.7v-.3h0Z"/>
      <path class="st0" d="M711.8,0v61.1c-5.6-15.6-19.1-24.6-35.8-24.6-29.4,0-52.7,22.2-52.7,67.5s23.3,67.7,52.7,67.7,30.2-9,35.8-24.9v21.4h32.3V0h-32.3ZM685,143.7c-19.3,0-29.2-15.1-29.2-39.7s9.8-39.7,29.2-39.7,26.8,16.4,26.8,39.7-8.2,39.7-26.8,39.7Z"/>
      <path class="st0" d="M341.1,7.9l-36,128.3L268.2,7.9h-34.7l49.3,160.3h44.5L375.8,7.9h-34.7Z"/>
      <path class="st0" d="M64.1,168.3h32.1v-64h-32.1v64Z"/>
      <path class="st0" d="M128.3,7.9H32.1C14.3,7.9,0,22.2,0,40v128.1h32.1v-60.9c2.4-24.1,23.1-43.1,48-43.1s45.3,19.1,48,43.1v60.9h32.1V40c0-17.7-14.3-32-32.1-32h.3,0Z"/>
    </g>
    <path class="st0" d="M1648.8,132.9c-14.4,0-18.2-4.7-18.2-17.6v-33.2h-10.1v-13.1h10.1v-16.4h15.4v16.4h13.9v13.1h-13.9v31.6c0,4.4,1.6,6,5.6,6h8.3v13.1h-11.2Z"/>
    <path class="st0" d="M1598.6,89.8c0-6.6-4.1-9.5-10.2-9.5s-12.9,4.1-15.6,8.7l-9.8-10c6.4-8,16.6-11.6,26.5-11.6,15.9,0,24.7,6.7,24.7,23v42.5h-15.5v-11.5c-1.7,8.2-7.7,12.8-17.2,12.8s-19.3-7.4-19.3-18.6,7.5-18.1,23.2-21l13.4-2.5v-2.3ZM1577.7,114.5c0,5.5,3.8,7.6,8.6,7.6,7.8,0,12.3-5.9,12.3-16.9v-1.9l-11.3,2.2c-6.5,1.4-9.6,4.2-9.6,9Z"/>
    <path class="st0" d="M1540.1,132.9l-21.2-30.1v30.1h-15.4V46.2h15.4v47.1l19.1-24.3h18.8l-24.2,28.5,27.1,35.3h-19.5,0Z"/>
    <path class="st0" d="M1474.3,132.9v-63.8h15.4v63.8h-15.4ZM1481.8,60.8c-5.7,0-9.5-4-9.5-9s3.8-8.9,9.5-8.9,9.6,4.1,9.6,8.9-3.9,9-9.6,9Z"/>
    <path class="st0" d="M1445.4,89.8c0-6.6-4.1-9.5-10.2-9.5s-12.9,4.1-15.6,8.7l-9.8-10c6.4-8,16.6-11.6,26.5-11.6,15.9,0,24.7,6.7,24.7,23v42.5h-15.5v-11.5c-1.7,8.2-7.7,12.8-17.2,12.8s-19.3-7.4-19.3-18.6,7.5-18.1,23.2-21l13.4-2.5v-2.3ZM1424.5,114.5c0,5.5,3.8,7.6,8.6,7.6,7.8,0,12.3-5.9,12.3-16.9v-1.9l-11.3,2.2c-6.5,1.4-9.6,4.2-9.6,9h0Z"/>
    <path class="st0" d="M1376.1,134.6c-8.4,0-15.3-4.6-18.2-12.3v35.1h-15.4v-88.4h15.4v10.6c3-8,9.7-12.3,18.2-12.3,14.5,0,26.1,11.1,26.1,33.5s-11.6,33.8-26.1,33.8ZM1371.9,121.2c9.7,0,14.8-7.6,14.8-20.3s-5.1-20.2-14.8-20.2-13.8,8.4-13.8,20.2,4.2,20.3,13.8,20.3Z"/>
    <path class="st0" d="M1313.8,89.8c0-6.6-4.1-9.5-10.2-9.5s-12.9,4.1-15.6,8.7l-9.8-10c6.4-8,16.6-11.6,26.5-11.6,15.9,0,24.7,6.7,24.7,23v42.5h-15.5v-11.5c-1.7,8.2-7.7,12.8-17.2,12.8s-19.3-7.4-19.3-18.6,7.5-18.1,23.2-21l13.4-2.5v-2.3h0ZM1292.9,114.5c0,5.5,3.8,7.6,8.6,7.6,7.8,0,12.3-5.9,12.3-16.9v-1.9l-11.3,2.2c-6.5,1.4-9.6,4.2-9.6,9h0Z"/>
    <path class="st0" d="M1252.4,94.9c0-9.3-4-14.1-12.1-14.1s-13.2,5.5-13.2,16v36.1h-15.4v-63.8h15.4v11.3c2.1-8,9.2-12.7,19.1-12.7,14.8,0,21.7,9.1,21.7,24.3v40.9h-15.4v-38h0Z"/>
    <path class="st0" d="M1182.6,132.9v-63.8h15.4v63.8h-15.4ZM1190.1,60.8c-5.7,0-9.5-4-9.5-9s3.8-8.9,9.5-8.9,9.6,4.1,9.6,8.9-3.9,9-9.6,9Z"/>
    <path class="st0" d="M1155.9,132.9l-21.2-30.1v30.1h-15.4V46.2h15.4v47.1l19.1-24.3h18.8l-24.2,28.5,27.1,35.3h-19.5,0Z"/>
    <path class="st0" d="M1092.6,132.9l-21.2-30.1v30.1h-15.4V46.2h15.4v47.1l19.1-24.3h18.8l-24.2,28.5,27.1,35.3h-19.5,0Z"/>
    <path class="st0" d="M1012,132.9v-63.8h15.4v11.3c1.6-7.8,6.1-11.6,14.6-11.6h5.7v14.9h-7c-9.8,0-13.3,4.4-13.3,17.5v31.8h-15.4Z"/>
    <path class="st0" d="M983.1,89.8c0-6.6-4.1-9.5-10.2-9.5s-12.9,4.1-15.6,8.7l-9.8-10c6.4-8,16.5-11.6,26.5-11.6,15.9,0,24.7,6.7,24.7,23v42.5h-15.5v-11.5c-1.7,8.2-7.7,12.8-17.2,12.8s-19.3-7.4-19.3-18.6,7.5-18.1,23.2-21l13.4-2.5v-2.3h0ZM962.2,114.5c0,5.5,3.8,7.6,8.6,7.6,7.8,0,12.3-5.9,12.3-16.9v-1.9l-11.3,2.2c-6.5,1.4-9.6,4.2-9.6,9Z"/>
    <path class="st0" d="M858.6,132.9V53.1h24l14.8,44.9,14.8-44.9h24.1v79.8h-15.5v-59.9l-16.2,47h-14.5l-15.9-46.2v59.1h-15.6,0Z"/>
  </g>
</svg>